<svg xmlns="http://www.w3.org/2000/svg" width="510" height="478" viewBox="0 0 510 478">
  <g id="Grupo_133932" data-name="Grupo 133932" transform="translate(-175.256 -5508)">
    <rect id="Rectángulo_36008" data-name="Rectángulo 36008" width="510" height="478" transform="translate(175.256 5508)" fill="#deeefc"/>
    <g id="Grupo_133931" data-name="Grupo 133931" transform="translate(-2.21 -10.46)">
      <path id="Trazado_126965" data-name="Trazado 126965" d="M109.353,314.449s27.209-55,99.1-44.469,63.978,58.508,113.75,56.168,103.957-36.275,148.165,30.37c51.286,77.318-36.352,143.077-1.545,190.325,62.364,84.653,0,184.435-139.275,165.492-115.505-15.7-116.54-37.742-183.586-11.05S17.95,629.411,42.306,552.239,128.565,504.5,99.56,441.477,109.353,314.449,109.353,314.449Z" transform="translate(153.631 5265.82)" fill="#b3dcf5"/>
      <path id="Trazado_126966" data-name="Trazado 126966" d="M258.438,129.465a4.48,4.48,0,0,1-2.594-.06,3.814,3.814,0,0,1-1.729-1.837c-2.345-4.486-.6-10.064,2.146-14.319s6.449-7.926,8.477-12.563c1.711-3.918,2.126-8.323,3.993-12.168s6.061-7.2,10.15-5.946c9.171,2.8,6.3,21.882,3.686,28.528C278.891,120.455,267.989,127.651,258.438,129.465Z" transform="translate(-57.935 5624.347)" fill="#b3dcf5"/>
      <path id="Trazado_126967" data-name="Trazado 126967" d="M26.711,47.16a4.48,4.48,0,0,0,2.594-.06,3.814,3.814,0,0,0,1.729-1.837c2.345-4.486.6-10.065-2.146-14.319s-6.449-7.926-8.477-12.563c-1.711-3.918-2.126-8.323-3.993-12.168S10.357-.984,6.268.266c-9.171,2.8-6.3,21.883-3.686,28.528C6.258,38.15,17.16,45.346,26.711,47.16Z" transform="translate(649.05 5752.678) rotate(39)" fill="#b3dcf5"/>
    </g>
    <g id="Grupo_133930" data-name="Grupo 133930" transform="translate(196.256 5520)">
      <g id="Grupo_132015" data-name="Grupo 132015" transform="translate(0 0)">
        <g id="Grupo_132014" data-name="Grupo 132014">
          <path id="Trazado_124974" data-name="Trazado 124974" d="M497.286,212.021c1.408-.158,2.991-3.759,3.588-4.754,2.22-3.7,4.233-7.531,6.25-11.344,4.221-7.98,8.294-16.042,12.59-23.983-1.988-1.97-4.029-4.068-6.024-6.225,2.02-8.934.688-18.092-5.352-25.909a29.893,29.893,0,0,0-17.454-11.226c-1.568-5.521-2.91-10.955-2.439-10.638,15.33,10.289,13.946-9.176,29.479-11.051,10.984-1.327,23.546,2.419,32.417-6.017,7.551-7.18,10.711-18.211,15.5-27.218,8.2-15.415,20.1-28.517,38.132-31.232,17.34-2.61,34.46,4.312,46.508,16.743,6.456,6.661,12.144,15.087,15.121,23.926,2.6,7.712-.291,12.9-5.908,17.214a1.67,1.67,0,0,0-.3,2.336c1.165,1.524,8.871,8.986,9.408,10.89,1.522,5.4-5.475,5.895-10.912,8.278a9.134,9.134,0,0,1-.985,5.256c-1.68,2.609-4.455,1.8-6.6.2-3.957-2.956-12.746-14.013-16.156-3.708-.318.96-1.188,3.827-.942,4.7.62,2.2,3.729,3.626,5.7,4.049,3.243.7,10.3.333,11.9,3.748,1.213,2.59.607,5.3-.034,7.944-1.032,4.253-1.672,10.716-5.718,13.224-4.609,2.857-11.6.378-16.184-1.233-3.862-1.356-7.656-3.271-11.776-3.724-6.485-.713-6.294,5-2.6,9.1,10.9,12.091,31.282,9.556,40.979-2.538a62.044,62.044,0,0,0,7.621-12.507c3.029-6.483,5.291-13.29,7.983-19.913,1.8-4.418,3.258-8.936,7.636-11.3a1.984,1.984,0,0,1,2.432.351c6.327,3.434-1.129,17.967-2.594,22.411-1.407,4.272-2.674,8.722-4.061,13.145a13.5,13.5,0,0,1,6.721-1.148c3.642.573,5.331,4.117,5.286,7.5a14.981,14.981,0,0,1-1.374,6.069c4.55,1.136,8.59,3.325,9.289,8.332a8.172,8.172,0,0,1-2.415,6.93,11.028,11.028,0,0,1,1.443,6.948c-1.073,8.933-13.546,12.706-20.733,14.1-26,5.058-54.162.892-75.873-14.889-9.294-6.755-16.087-16.7-26.174-22.449-4.555-2.6-10.453-5.034-15.776-3.306-5.966,1.936-7.681,6.045-1.856,10.137,13.408,9.421,23.938,16.437,24.938,34.771.846,15.5-10.044,29.135-25.182,18.055-5.9-4.322-11.354-6.621-18.865-5.3-5.824,1.022-11.209,3.534-16.836,5.209-5.319,1.583-11.619,2.615-17.26,1.169-3.019-.774-9.571-4.505-9.707-8.437a3.493,3.493,0,0,1,.063-.8C490.828,210.591,495.142,212.259,497.286,212.021Z" transform="translate(-225.489 60.396)" fill="#050f17"/>
          <path id="Trazado_124975" data-name="Trazado 124975" d="M714.646,122a22.245,22.245,0,0,0,4.9,6.732c.657.618-.334,1.607-.991.99a23.294,23.294,0,0,1-5.118-7.015C713.053,121.9,714.259,121.189,714.646,122Z" transform="translate(-292.642 36.591)" fill="#7c4851"/>
          <path id="Trazado_124976" data-name="Trazado 124976" d="M705.17,245.183A10.5,10.5,0,0,0,718.452,232a.719.719,0,0,1,.489-.861c1.734-.688,3.516-1.407,5.242-2.237a.729.729,0,0,1,.965-.483,21.763,21.763,0,0,0,6.162-4.48,9.334,9.334,0,0,0,2.275-3.419c.781-2.846-2.287-3.837-4.475-3.068-2.82.991-5.618,2.048-8.426,3.071-.848.309-1.213-1.043-.372-1.35,2.893-1.054,17.474-8.161,14.971.939-1.219,4.432-5.157,7.358-9.369,9.5.725,1.371,1.612,2.74,3.191,3.209,1.48.44,3.586-.274,5.013-.771a19.981,19.981,0,0,0,8.218-5.585c.609-.667,1.6.326.99.99a20.481,20.481,0,0,1-11.935,6.736,6.425,6.425,0,0,1-2.284-.044,9.594,9.594,0,0,0,8.493,8.805c3.959.283,7.924-1.906,11.081-4.1.742-.516,1.442.7.707,1.209-4.049,2.815-9.589,5.627-14.561,3.7-3.981-1.542-7.153-5.521-7.133-9.854a.7.7,0,0,1,.059-.284,8.338,8.338,0,0,1-3.077-3.4c-1.62.763-3.245,1.424-4.74,2.019a11.878,11.878,0,0,1-15.14,14.295A.7.7,0,0,1,705.17,245.183Z" transform="translate(-289.94 8.57)" fill="#7c4851"/>
          <path id="Trazado_124977" data-name="Trazado 124977" d="M593.217,174.162c15.806,4.893,34.909.745,43.055-14.689,5.925-11.225,7.046-24.5,15.136-34.64.561-.7,1.546.292.989.99-9.178,11.5-9.136,27.506-17.956,39.182-9.385,12.423-27.494,14.873-41.6,10.508C591.987,175.247,592.353,173.895,593.217,174.162Z" transform="translate(-256.529 35.711)" fill="#7c4851"/>
          <path id="Trazado_124978" data-name="Trazado 124978" d="M118.27,121.165c6.885,16.947,17.518,31.938,26.388,47.841,9,16.132,12.674,31.087,15.44,49.167,2.08,13.6,8.315,21.289,19.075,29.167,14.15,10.36,26.651,18.4,26.985,37.684.207,11.953-6.419,39.73-4.057,54.322,1.708,10.546,22.453,9.07,29.689,9.362a108.418,108.418,0,0,0,19.255-.955c13.78-1.911,26.806-8.342,40.935-6.885,13.123,1.353,26.193,10.56,39.441,9.005,10.61-1.245,25.705-1.435,34.865-7.89a8.876,8.876,0,0,0,4.165-6.78c.3-4.319-1.681-9.651-2.428-13.922-.81-4.63-1.561-9.272-2.1-13.943-.765-6.656-2.238-15.845,1.213-22.028,3.57-6.4,9.1-11.348,12.463-18.04a65.748,65.748,0,0,0,6.341-20.351c1.949-13.947-1.762-28-.055-41.995,1.924-15.761,7.18-31.339,14.113-45.249,11.612-23.3,13.328-56.6-5.6-76.628a31.3,31.3,0,0,0-11.1-7.949c-23.2-9.062-18.8,20.305-15.815,32.933,3.674,15.537,10.612,33.013,5.166,48.95-4.121,12.059-15.346,1.306-18.583-4.743-5.4-10.1-7.669-21.275-14.439-30.758a44.112,44.112,0,0,0-10.824-10.84c-7.624-5.242-17.7-10.507-22.006-19.185-6.64-13.373-1.285-31.812,2.29-45.349,4-15.126,8.826-30.5,6.982-46.346-2.558-21.983-15.139-44.242-38.3-48.989a17.081,17.081,0,0,0-11.37,1.243c-18.681,9.907-7.928,36.6.3,49.249,6.4,9.849,15.514,21.983,11.051,34.4-.37,1.029-2.6,5.453-4.306,3.892a2.774,2.774,0,0,1-.661-1.587c-1.147-5.927-3.985,7.35-7.864,2.738C254.5,27.671,237.285,21.637,221.2,27a1.412,1.412,0,0,1-.9.092c-.584-.208,4.618-3.274,4.45-3.87-2.566-9.085-15.391-25.777,18.956-58.96,13.826-13.358,15.2-43.384,1.172-57.988-11.074-11.525-27.724-13.544-41.05-4.613C170.7-76.14,180.01-19.592,187.078,12.986a243.307,243.307,0,0,0,9.874,33.608c3.883,10.385,9.715,20.692,10.912,31.868.511,4.783-.015,11.92-4.946,14.439-8.537,4.362-12.542-7.611-13.713-13.44-1.982-9.869-1.967-20.067-4.468-29.844-2-7.807-5.7-16.067-13.243-19.917C149.5,18.47,150.831,56.88,153.763,67.841c4,14.966,11.758,28.595,16.032,43.475,1.595,5.552,4.36,20.608-4.586,21.646-7.429.862-11.55-18.382-13.156-23.325a33.66,33.66,0,0,0-12.68-17.262c-6.586-4.874-16.883-6.487-22.463.817C110.617,101.428,114.833,112.707,118.27,121.165ZM228.595-60.161a28.235,28.235,0,0,1,4.231-6.755,10,10,0,0,1,2.928-2.656c1.433-.609,1.224-.593,2.027.9,2.655,4.953,3.33,11.347.083,16.207-2.072,3.1-6.273,6-9.533,2.613C225.675-52.605,227.215-57.188,228.595-60.161ZM389.752,111.677c-.075-1.356.768-2.865,2.308-2.545,2.058.428,4.385,5.408,1.319,5.931a2.571,2.571,0,0,1-1.95-.584,5.17,5.17,0,0,1-.935-.926A3.389,3.389,0,0,1,389.752,111.677ZM386.214,91.5c.265-1.758,1.507-2.68,3.121-1.717,1.208.72,1.655,2.14,2.092,3.39.471,1.35,2.18,6.666-1.039,5.765C387.559,98.147,385.8,94.249,386.214,91.5Zm-7.694,5.876a3.491,3.491,0,0,1,1.072.815,17.1,17.1,0,0,1,4.433,11.957c-.038,3.268-2.5,4.492-4.846,1.962a17.548,17.548,0,0,1-3.81-8.061C375.019,102.368,375.029,95.875,378.52,97.378ZM292.848-21.544c2.9-4.367,5.384,2.266,5.978,4.689.873,3.558.746,7.846-2.165,10.469-3.143,2.832-5.679-1.515-5.933-4.389C290.429-14.169,290.916-18.639,292.848-21.544ZM280.154,4.272c-3.078,1.134-5.7-1.51-6.88-4.089-.766-1.669-1.835-8.948,1.671-7.143,2.7,1.388,6.014,1.687,7.906,4.348C284.593-.157,282.8,3.3,280.154,4.272ZM216.647-80.974a55.619,55.619,0,0,1-2.74,10.872c-1.118,2.932-3.158,7.961-6.9,8.222-5.081.354-5.328-6.112-4.511-9.551.606-2.552,1.662-5.467,3.822-7.107.873-.662,7.945-5.006,9.881-3.873C216.59-82.181,216.771-81.728,216.647-80.974Zm-8.359,39.022a3.706,3.706,0,0,1,.513-4.92c1.609-1.445,3.739-1.644,5.1.215.891,1.214,2.265,6.711-.374,6.786C211.355-39.811,209.581-39.931,208.288-41.952ZM165.708,58.707c.012,2.233-1.116,3.831-3.184,1.935-2.714-2.488-4.065-8.131-2.959-11.595.556-1.741,1.849-2.122,3.078-.568a10.155,10.155,0,0,1,.69.992A18.884,18.884,0,0,1,165.708,58.707Zm4.683-6.729c-1.192-1.713-2.544-10.617,2.045-8.513,2.944,1.349,3.612,5.279,2.737,8.088C174.354,54.181,171.792,53.99,170.391,51.978ZM135.89,103.2c2.836-3.882,9.134,6.7,4.207,9-1.725.8-3.2-1.3-3.906-2.546C135.1,107.726,134.462,105.159,135.89,103.2Zm-5.828,9.522c2.315.2,3.656,3.8,2.77,5.638-.758,1.569-1.878,1.387-2.84.474C128.108,117.048,126.829,112.451,130.062,112.726Z" transform="translate(-113.669 103.903)" fill="#050f17"/>
          <g id="Grupo_131986" data-name="Grupo 131986" transform="translate(61.513 151.368)">
            <path id="Trazado_124979" data-name="Trazado 124979" d="M315.086,130.054s-4.746,34.907,0,47.654,40.119,76.732-40.955,86.668-76.3-38.629-69.15-55.281,18.083-44.8,14.686-72.574c0,0,8.762-24.574,55.26-24.664S315.086,130.054,315.086,130.054Z" transform="translate(-201.349 -111.857)" fill="#13273e"/>
            <path id="Trazado_124980" data-name="Trazado 124980" d="M338.022,114.594c21.857,4.677,17.837,16.277,17.837,16.277s-4.746,34.907,0,47.654c1.59,4.269,6.611,14.285,9.545,26.09-3.488-5.873-8.161-13.564-12.084-19.411C348.142,177.483,337.113,154.509,338.022,114.594Z" transform="translate(-242.122 -112.673)" fill="#0d1a29"/>
            <path id="Trazado_124981" data-name="Trazado 124981" d="M204.983,211.327c7.153-16.652,18.083-44.8,14.686-72.574,0,0,4.122-12.006,23.368-19.418-2.978,19.774-9.123,53.948-18.28,72.91-7.509,15.554-20.225,36.56-20.02,53.479C198.919,233.369,201.7,218.98,204.983,211.327Z" transform="translate(-201.351 -114.088)" fill="#0d1a29"/>
          </g>
          <g id="Grupo_131990" data-name="Grupo 131990" transform="translate(71.781 219.244)">
            <g id="Grupo_131989" data-name="Grupo 131989" transform="translate(0 0)">
              <g id="Grupo_131988" data-name="Grupo 131988" transform="translate(42.002)">
                <g id="Grupo_131987" data-name="Grupo 131987" transform="translate(0)">
                  <path id="Trazado_124982" data-name="Trazado 124982" d="M303.316,243.5l2.035,19.567-23.94,2.491L278.762,240.1A36.582,36.582,0,0,0,303.316,243.5Z" transform="translate(-276.722 -218.007)" fill="#f1a78f"/>
                  <path id="Trazado_124983" data-name="Trazado 124983" d="M277.894,230.7l-2.04-19.609,23.941-2.49,2.653,25.5A36.582,36.582,0,0,1,277.894,230.7Z" transform="translate(-275.854 -208.606)" fill="#e28c79"/>
                </g>
                <path id="Trazado_124984" data-name="Trazado 124984" d="M296.06,265.3a24.572,24.572,0,0,1-18.489-5.8c4.562-1.3,11.37-3.619,15.413-4.068,3.83-.425,9.647.293,13.663.593C306.673,257.934,305.236,264.169,296.06,265.3Z" transform="translate(-276.367 -222.541)" fill="#f1a78f"/>
              </g>
              <path id="Trazado_124985" data-name="Trazado 124985" d="M216.033,280.7c-.93-9.294,11.99-12.483,11.99-12.483,6.692-1.968,17.589-4.718,24.652-7.188,0,0,3.341-1.1,7.69-2.342a20.936,20.936,0,0,0,17.03,5.09c9.174-1.133,9.968-6.3,9.943-8.215,4.266.319,7.552.771,7.552.771,13.139,1.419,23.634,2.831,23.634,2.831s13.494.548,14.423,9.841c.421,4.2-7.9,11.219-11.638,13.8l.1,1.028c13.644,8.63,16.2,15.862,17.046,24.308,1.766,17.654-12.615,23.462-12.615,23.462l.458,48.706c-26.172,17.213-69.675,6.566-69.675,6.566-7.69-30.7-16.842-50.005-22.141-69.592a183.478,183.478,0,0,1-4.652-25.612C225.333,289.7,216.436,284.732,216.033,280.7Z" transform="translate(-215.985 -222.62)" fill="#188df8"/>
              <path id="Trazado_124986" data-name="Trazado 124986" d="M348.612,341.82s-2.866,2.965-9.616,4.232c-13.624,2.561-35.917,7.288-56.107,6.082-8.468-.505-15.019-4.1-21.79-8.4,0,0,5.88,20.992,31.96,17.948S348.668,358.93,348.612,341.82Z" transform="translate(-229.449 -248.363)" fill="#1683e8"/>
            </g>
          </g>
          <g id="Grupo_131995" data-name="Grupo 131995" transform="translate(79.646 114.618)">
            <g id="Grupo_131992" data-name="Grupo 131992" transform="translate(10.267 14.441)">
              <path id="Trazado_124987" data-name="Trazado 124987" d="M245.152,134.07s-8.479-54.049,36.3-54.013c45.836.037,41.551,46.992,41.447,51.85-1.172,5.9-2.633,15.342-2.176,23.485,1.139,20.321-16,33.545-31.226,33.526-29.241-.037-40.02-28.824-40.02-28.824A128.312,128.312,0,0,1,245.152,134.07Z" transform="translate(-242.631 -80.057)" fill="#f1a78f"/>
              <path id="Trazado_124988" data-name="Trazado 124988" d="M281.449,80.057c45.836.037,41.551,46.992,41.447,51.85-.271,1.368-.559,2.933-.833,4.62a17.889,17.889,0,0,1-12.627-14.115c-2.286-12.585,1.517-29.145-13.565-24.242,0,0-13.147-3.562-13.255,4.312-.106,7.806,3.184,39.339-37.039,36.807-.34-3.235-.424-5.22-.424-5.22S236.673,80.021,281.449,80.057Z" transform="translate(-242.631 -80.057)" fill="#e28c79"/>
              <g id="Grupo_131991" data-name="Grupo 131991" transform="translate(0 47.516)">
                <path id="Trazado_124996" data-name="Trazado 124996" d="M333.431,176.145c.693,2.7-.739,5.81.032,8.471a4.509,4.509,0,0,1,.318,1.418,7.6,7.6,0,0,1-.391,1.459,2.713,2.713,0,0,0,.268,1.929.482.482,0,0,0,.2.21.326.326,0,0,0,.354-.146,2.485,2.485,0,0,0,.372-1.327l.352-3.853a12.849,12.849,0,0,0,0-3.465c-.133-.724-.391-1.4-.467-2.143-.083-.812,0-1.819-.508-2.267" transform="translate(-269.108 -156.249)" fill="#baecff"/>
                <path id="Trazado_124995" data-name="Trazado 124995" d="M289.679,175.061c.693,6.224-.739,13.389.032,19.524a22.537,22.537,0,0,1,.318,3.268c-.02,1.2-.275,2.22-.392,3.363a13.682,13.682,0,0,0,.268,4.446,1.218,1.218,0,0,0,.2.485c.124.119.257-.072.354-.337a11.8,11.8,0,0,0,.372-3.057l.352-8.88a68.17,68.17,0,0,0,0-7.987c-.133-1.668-.391-3.236-.467-4.939-.083-1.872,0-4.193-.508-5.225" transform="translate(-256.05 -155.926)" fill="#baecff"/>
                <path id="Trazado_123501" data-name="Trazado 123501" d="M245.1,196.184a3.264,3.264,0,0,0,3.257-3.264.237.237,0,0,0-.474,0,2.784,2.784,0,1,1-2.784-2.788.237.237,0,0,0,0-.474,3.263,3.263,0,1,0,0,6.527Z" transform="translate(-241.831 -160.282)" fill="#fff"/>
                <ellipse id="Elipse_4807" data-name="Elipse 4807" cx="3.879" cy="2.982" rx="3.879" ry="2.982" transform="translate(17.775 20.684)" fill="#e28c79"/>
                <ellipse id="Elipse_4808" data-name="Elipse 4808" cx="3.879" cy="2.982" rx="3.879" ry="2.982" transform="translate(67.321 20.684)" fill="#e28c79"/>
                <path id="Trazado_123511" data-name="Trazado 123511" d="M311.9,178.094l-.169-.443c.031-.013,3.119-1.215,3.735-3.471s-3.907-8.245-3.953-8.305l.377-.287c.193.253,4.712,6.231,4.033,8.716S312.04,178.042,311.9,178.094Z" transform="translate(-262.628 -153.099)" fill="#13273e"/>
                <g id="Grupo_131114" data-name="Grupo 131114" transform="translate(21.952 6.058)">
                  <path id="Trazado_123512" data-name="Trazado 123512" d="M273.209,159.775a21.008,21.008,0,0,1,4.108-2.171,17.276,17.276,0,0,1,4.575-1.106,17.54,17.54,0,0,1,4.752.2,21.633,21.633,0,0,1,4.568,1.372.949.949,0,0,1-.732,1.752c-.024-.01-.05-.022-.072-.034a17.694,17.694,0,0,0-8.445-2.132,18.033,18.033,0,0,0-8.526,2.482.213.213,0,0,1-.225-.362Z" transform="translate(-273.121 -156.421)" fill="#1f5683"/>
                  <path id="Trazado_123513" data-name="Trazado 123513" d="M344.01,160.141a17.4,17.4,0,0,0-8.351-2.474,17.072,17.072,0,0,0-8.264,2.139.949.949,0,1,1-.892-1.676l.074-.035a20.948,20.948,0,0,1,4.481-1.376,16.85,16.85,0,0,1,4.672-.21,16.653,16.653,0,0,1,4.493,1.1,20.353,20.353,0,0,1,4.019,2.166.214.214,0,0,1-.228.362h0Z" transform="translate(-288.902 -156.425)" fill="#1f5683"/>
                </g>
                <path id="Trazado_123515" data-name="Trazado 123515" d="M311.636,226.948a8.981,8.981,0,0,1-2.782-.483l.147-.451a7.036,7.036,0,0,0,4.976,0l.178.441A6.652,6.652,0,0,1,311.636,226.948Z" transform="translate(-261.833 -171.132)" fill="#e28c79"/>
                <g id="Grupo_131116" data-name="Grupo 131116" transform="translate(13.759)">
                  <path id="Trazado_123518" data-name="Trazado 123518" d="M277.147,179.2a15.706,15.706,0,1,1,15.708-15.706A15.706,15.706,0,0,1,277.147,179.2Zm0-30.7a14.995,14.995,0,1,0,15,14.994,15,15,0,0,0-15-14.994Z" transform="translate(-261.443 -147.786)" fill="#fff"/>
                  <path id="Trazado_123519" data-name="Trazado 123519" d="M334.735,179.2a15.706,15.706,0,1,1,15.707-15.706A15.707,15.707,0,0,1,334.735,179.2Zm0-30.7a14.995,14.995,0,1,0,15,14.994,14.995,14.995,0,0,0-15-14.994Z" transform="translate(-278.63 -147.786)" fill="#fff"/>
                  <path id="Trazado_123520" data-name="Trazado 123520" d="M315.57,164.417a.36.36,0,0,1-.213-.071c-3.586-2.7-6.831-2.7-9.919-.017a.356.356,0,0,1-.467-.537c3.332-2.9,6.969-2.9,10.812-.015a.356.356,0,0,1-.215.64Z" transform="translate(-274.399 -151.913)" fill="#fff"/>
                </g>
                <path id="Trazado_124989" data-name="Trazado 124989" d="M305.125,208.277a6.36,6.36,0,0,0,6.359,6.359h0a6.36,6.36,0,0,0,6.359-6.359v-2.385a6.36,6.36,0,0,0-6.359-6.359h0a6.36,6.36,0,0,0-6.359,6.359Z" transform="translate(-260.721 -163.229)" fill="#af2a2d"/>
                <path id="Trazado_124990" data-name="Trazado 124990" d="M280.265,181.767a7.335,7.335,0,0,1-.326,2.517,4.809,4.809,0,0,0-.094,2.519,1.525,1.525,0,0,0,.645.895.847.847,0,0,0,1.035-.119.993.993,0,0,0,.164-.291,2.168,2.168,0,0,0,.133-.551,4.206,4.206,0,0,0-.081-1.2,13.389,13.389,0,0,0-1-3.186,2.954,2.954,0,0,1-.293-.834" transform="translate(-253.136 -157.853)" fill="#baecff"/>
                <path id="Trazado_124991" data-name="Trazado 124991" d="M282,207.414a7.316,7.316,0,0,1-.559,2.476,4.805,4.805,0,0,0-.328,2.5,1.529,1.529,0,0,0,.559.951.846.846,0,0,0,1.042-.023.973.973,0,0,0,.191-.274,2.159,2.159,0,0,0,.184-.537,4.175,4.175,0,0,0,.031-1.2,13.435,13.435,0,0,0-.7-3.264,2.925,2.925,0,0,1-.215-.858" transform="translate(-253.536 -165.513)" fill="#baecff"/>
                <path id="Trazado_124992" data-name="Trazado 124992" d="M345.016,192.828a7.876,7.876,0,0,0,.351,2.712,5.187,5.187,0,0,1,.1,2.714,1.648,1.648,0,0,1-.7.964.912.912,0,0,1-1.115-.129,1.05,1.05,0,0,1-.177-.314,2.31,2.31,0,0,1-.143-.594,4.5,4.5,0,0,1,.086-1.288,14.425,14.425,0,0,1,1.073-3.432,3.153,3.153,0,0,0,.316-.9" transform="translate(-272.12 -161.149)" fill="#baecff"/>
                <path id="Trazado_124993" data-name="Trazado 124993" d="M290.147,171.363c-.273-1.024.8,2.345.206,3.222a2.154,2.154,0,0,1-2.806.637c-.427-.265-.8-.71-1.3-.715-.736-.008-1.088.864-1.524,1.457a2.745,2.745,0,0,1-2.422,1.088,1.587,1.587,0,0,1-.932-.363c-.413-.379-.489-1.012-.855-1.437-1.038-1.2-3.439.05-4.43-1.191a1.508,1.508,0,0,1-.07-1.661,2.1,2.1,0,0,1,1.429-.944s2.86,2.256,5.148,2.051S290.329,172.047,290.147,171.363Z" transform="translate(-251.968 -154.765)" fill="#baecff"/>
                <path id="Trazado_124994" data-name="Trazado 124994" d="M340.816,171.363c-.254-1.024.744,2.345.191,3.222a1.916,1.916,0,0,1-2.608.637c-.4-.265-.741-.71-1.209-.715-.684-.008-1.012.864-1.416,1.457a2.481,2.481,0,0,1-2.251,1.088,1.416,1.416,0,0,1-.866-.363c-.384-.379-.455-1.012-.8-1.437-.965-1.2-3.2.05-4.117-1.191a1.6,1.6,0,0,1-.065-1.661,1.946,1.946,0,0,1,1.328-.944s2.658,2.256,4.785,2.051S340.986,172.047,340.816,171.363Z" transform="translate(-267.392 -154.765)" fill="#baecff"/>
                <g id="Grupo_131115" data-name="Grupo 131115" transform="translate(25.815 16.217)">
                  <path id="Trazado_123516" data-name="Trazado 123516" d="M278.922,170.909a18.268,18.268,0,0,0,2.888,1.332,8.75,8.75,0,0,0,2.98.475,9.78,9.78,0,0,0,2.986-.543,24.555,24.555,0,0,0,2.935-1.271l.281.381a9.687,9.687,0,0,1-2.769,1.987,8.225,8.225,0,0,1-3.414.824,7.735,7.735,0,0,1-3.441-.765,8.8,8.8,0,0,1-2.739-2.051Z" transform="translate(-278.627 -170.902)" fill="#13273e"/>
                  <path id="Trazado_123517" data-name="Trazado 123517" d="M329.274,170.909a18.265,18.265,0,0,0,2.888,1.332,8.746,8.746,0,0,0,2.979.475,9.772,9.772,0,0,0,2.986-.543,24.465,24.465,0,0,0,2.935-1.271l.282.381a9.7,9.7,0,0,1-2.769,1.987,8.235,8.235,0,0,1-3.414.824,7.741,7.741,0,0,1-3.443-.765,8.81,8.81,0,0,1-2.738-2.051Z" transform="translate(-293.654 -170.902)" fill="#13273e"/>
                </g>
              </g>
            </g>
            <g id="Grupo_131993" data-name="Grupo 131993" transform="translate(2.286 68.234)">
              <path id="Trazado_124997" data-name="Trazado 124997" d="M242,157.1s4.188.918,5.646,12.709-1.489,12.77-2.368,13.174c0,0-10.681,2.987-14.388-14.691C227.813,153.6,242,157.1,242,157.1Z" transform="translate(-230.454 -156.733)" fill="#f1a78f"/>
              <path id="Trazado_124998" data-name="Trazado 124998" d="M246.228,176.187s-7.782-3.9-1.706-7.808c0,0-2.042-8.91-7.248-6.9s-1.035,10.366,0,12.092C239.441,177.188,246.228,181.616,246.228,176.187Z" transform="translate(-231.725 -158.062)" fill="#e28c79"/>
            </g>
            <g id="Grupo_131994" data-name="Grupo 131994" transform="translate(0 0)">
              <path id="Trazado_124999" data-name="Trazado 124999" d="M290.7,92.027s-19.644-11.435-19.947,5.829-2.326,35.038-32.479,35.237c0,0-7.429-.383-8.358,6.167,0,0-8.878-36.29,5.429-56.955,12.786-18.469,44.74-30.816,56.565-16.774,0,0,29.317-10.266,34.841,16.774,3.974,19.452-5.587,39.221-9.815,47.8,0,0-8.868-7.615-8.733-16.094S310.724,80.162,290.7,92.027Z" transform="translate(-227.196 -59.472)" fill="#0d1a29"/>
              <path id="Trazado_125000" data-name="Trazado 125000" d="M335.971,92.968c6.084-6.549,10.121-16.412,12.481-23.749,4.853,2.585,9.01,7.407,10.764,16a47.539,47.539,0,0,1,.915,8.085,85.72,85.72,0,0,1-19.941,7.954C339.552,97.691,338.309,94.568,335.971,92.968Z" transform="translate(-259.659 -62.381)" fill="#0b1724"/>
              <path id="Trazado_125001" data-name="Trazado 125001" d="M255.164,69.523c7.415,11.281,14.086,18.892,20.07,23.691-1.517,1.448-2.515,3.854-2.581,7.642q-.023,1.243-.06,2.488a142.207,142.207,0,0,1-39.04-11.264,37.877,37.877,0,0,1,3.692-6.774A54.976,54.976,0,0,1,255.164,69.523Z" transform="translate(-229.093 -62.472)" fill="#0b1724"/>
              <path id="Trazado_125002" data-name="Trazado 125002" d="M318.936,67.775s.927,16.56-1.192,25.171a49.987,49.987,0,0,0,4.012-25.958Z" transform="translate(-254.219 -61.715)" fill="#13273e"/>
            </g>
          </g>
          <g id="Grupo_131998" data-name="Grupo 131998" transform="translate(163.406 222.01)">
            <g id="Grupo_131996" data-name="Grupo 131996" transform="translate(0 34.87)">
              <path id="Trazado_125003" data-name="Trazado 125003" d="M363.122,292.683a13.612,13.612,0,0,1,.575-27.217c1.183.025,85.06,9.757,85.06,9.757a11.51,11.51,0,0,1-.486,23.013Z" transform="translate(-347.545 -263.211)" fill="#ec9681"/>
              <path id="Trazado_125004" data-name="Trazado 125004" d="M484.881,301.89a11.513,11.513,0,0,1-11.075-11.745,11.869,11.869,0,0,1,11.764-11.472h0s20.138-3.054,83.636,1.865l-.311,14.7s-54.266,9.721-83.044,6.654C485.662,301.872,484.881,301.89,484.881,301.89Z" transform="translate(-384.553 -266.873)" fill="#ec9681"/>
              <path id="Trazado_125005" data-name="Trazado 125005" d="M398.743,296.369l-36.678-2.393a15.864,15.864,0,0,1,.721-31.72c.623.012,18.4,2.043,38.065,4.309A127.954,127.954,0,0,1,398.743,296.369Z" transform="translate(-346.587 -262.253)" fill="#188df8"/>
            </g>
            <g id="Grupo_131997" data-name="Grupo 131997" transform="translate(156.785 0)">
              <path id="Trazado_125006" data-name="Trazado 125006" d="M571.774,245.363a4.423,4.423,0,0,1,4.458,1.421s6.889,7.77,8.081,7.117c1.1-.6.877-4.71.877-4.71a80.048,80.048,0,0,1,.347-10.424l-2.6-20.326a2.492,2.492,0,0,1,2.524-2.459,2.912,2.912,0,0,1,2.591,2.855l2.965,18.406a.681.681,0,0,0,.69.576c.338.012.786,0,.869-.578l.119-22.15a2.533,2.533,0,0,1,2.49-2.542,2.444,2.444,0,0,1,2.445,2.483l.267,22.86c-.045.671.835,1.071,1.061.331l3.415-20.3a2.357,2.357,0,1,1,4.714.058l-2.573,22.591c-.053.985.795,1.1.891.455l0,0,4.973-15.7c.514-1.348,1.368-2.473,2.562-2.125,1.25.363,1.613,1.142,1.414,2.481L610.4,243.966c1.549,19.393-3.9,26.68-3.9,26.68-9.912,12.475-17.282-.934-17.282-.934a30.431,30.431,0,0,1-8.259-7.971c-1.5-2.113-5.641-8.492-8.527-12.082a24.264,24.264,0,0,0-2.161-2.314C569.716,246.672,570.328,245.884,571.774,245.363Z" transform="translate(-570.068 -212.55)" fill="#ec9681"/>
              <path id="Trazado_125007" data-name="Trazado 125007" d="M615.041,255.377s-8.18-5.829-21.32-4.02C593.721,251.357,605,250.766,615.041,255.377Z" transform="translate(-577.127 -224.027)" fill="#12263f"/>
            </g>
          </g>
          <path id="Trazado_125008" data-name="Trazado 125008" d="M243.566,416.555c.088-.682,1.053-1.155,1.445-.391,2.025,3.945,5.515,7.747,10.378,7.387,3.84-.284,6.035-3.287,8.148-6.073,2.842-3.746,5.654-6.942,10.582-7.575,4.9-.629,9.867,1.224,13.768,4.1,4.166,3.077,6.343,8.183,10.762,11.01,4.834,3.094,11.211,2.721,16.589.717a18,18,0,0,0,10.368-9.532,32.2,32.2,0,0,0,2.8-12.366c.2-7.506-1.641-18.621,4.492-24.475,5.058-4.828,10.939-.732,12.87,4.832,1.527,4.4,1.2,9.158.574,13.689a85.966,85.966,0,0,0-1.179,8.633,10.089,10.089,0,0,0,1.08,5.777c1.617,2.6,5.947,3.929,7.408.363.367-.9,1.818-.525,1.509.365.121.123,6.4.587,5.386,3.107-2.253,5.617-7.868,8.145-13.28,9.8-8.355,2.555-17.306,3.364-26.023,3.428a324.318,324.318,0,0,1-34.765.046c-11.172-.651-22.335-.373-33.446-2.088C247.384,426.44,242.749,422.848,243.566,416.555Z" transform="translate(-152.407 -39.684)" fill="#050f17"/>
          <g id="Grupo_131999" data-name="Grupo 131999" transform="translate(183.615 336.246)">
            <path id="Trazado_125009" data-name="Trazado 125009" d="M388.6,417.975a.374.374,0,0,0,.17-.706c-4.074-2.08-2.189-9.548-1.063-14.01.175-.7.334-1.323.45-1.851l.286-1.271c1.324-5.868,3.541-15.69-.059-21.057a8.346,8.346,0,0,0-5.817-3.565,15.042,15.042,0,0,0-6.422.678l-.467.119a.373.373,0,1,0,.183.724l.469-.119a14.462,14.462,0,0,1,6.113-.666,7.632,7.632,0,0,1,5.321,3.245c3.421,5.1,1.248,14.726-.05,20.476l-.286,1.275c-.115.522-.272,1.141-.446,1.829-1.18,4.679-3.156,12.507,1.448,14.859A.375.375,0,0,0,388.6,417.975Z" transform="translate(-375.393 -375.381)" fill="#7c4851"/>
          </g>
          <g id="Grupo_132005" data-name="Grupo 132005" transform="translate(165.815 246.206)">
            <g id="Grupo_132000" data-name="Grupo 132000" transform="translate(0 0)">
              <path id="Trazado_125010" data-name="Trazado 125010" d="M351.693,267.732a.94.94,0,0,1-1.475-.644v-.012c-.039-.466-.127-1.092-.191-1.741a.952.952,0,0,1,.008-.249c.025-.159.055-.361.088-.616.093-.7.2-1.4.336-2.088.2-1.019.511-2.014.755-3.02a.825.825,0,0,1,.039-.119c.139-.349.279-.7.429-1.042l.015-.036a10.466,10.466,0,0,1,5.81-5.545,103.937,103.937,0,0,1,13.962-4.562,47.5,47.5,0,0,1,13.2-.885c5.116.414,9.933,2.038,14.8,3.546a169.008,169.008,0,0,0,32.446,6.186c10.731,1.139,21.826,2.549,30.761,9.12a.458.458,0,0,1,.185.509c.234.132.469.253.7.393.577.351-.071,1.179-.643.831a24.5,24.5,0,0,0-14.624-3.52c-5.558.436-9.934,3.057-14.649,5.788-7.8,4.515-15.886,4.721-24.457,2.352a63.346,63.346,0,0,1-14.538-6.073c-1.273-.728-2.529-1.5-3.791-2.263a.947.947,0,0,0-.956-.02,27.61,27.61,0,0,0-3.177,2.194c-1.46,1.133-3.452,3.379-5.523,2.4a2.547,2.547,0,0,1-.238-.13.923.923,0,0,0-1.243.313,12.307,12.307,0,0,1-1.038,1.373,3.082,3.082,0,0,1-2.869,1.046,3.576,3.576,0,0,1-2.523-3.245,8.211,8.211,0,0,1,.118-2.808c-.189.4-.369.813-.55,1.222a.842.842,0,0,0-.044.122c-1.138,4.095-3.17,9.4-6.677,6.123-2.85-2.66-2.391-6.529-1.1-9.973-.249.29-.5.584-.733.887-2.176,2.775-3.147,5.854-4.825,8.847-1.381,2.461-4.01,2.353-5.238-.375a6.249,6.249,0,0,1-.313-3.848.946.946,0,0,0-1.46-.978C352.2,267.382,351.932,267.566,351.693,267.732Z" transform="translate(-350.021 -247.038)" fill="#050f17"/>
            </g>
            <g id="Grupo_132001" data-name="Grupo 132001" transform="translate(4.131 3.648)">
              <path id="Trazado_125011" data-name="Trazado 125011" d="M367.415,252.3a.507.507,0,1,1,.5.883A23.629,23.629,0,0,0,356.9,265.9a.506.506,0,0,1-.975-.271C356.019,265.293,358.291,257.435,367.415,252.3Z" transform="translate(-355.909 -252.238)" fill="#7c4851"/>
            </g>
            <g id="Grupo_132002" data-name="Grupo 132002" transform="translate(14.934 2.236)">
              <path id="Trazado_125012" data-name="Trazado 125012" d="M380.979,250.279a.506.506,0,1,1,.453.905c-6.755,3.38-9.11,10.874-9.133,10.95a.507.507,0,0,1-.97-.295C371.428,261.515,373.823,253.856,380.979,250.279Z" transform="translate(-371.307 -250.225)" fill="#7c4851"/>
            </g>
            <g id="Grupo_132003" data-name="Grupo 132003" transform="translate(23.434 4.142)">
              <path id="Trazado_125013" data-name="Trazado 125013" d="M392.087,253.026a.506.506,0,0,1,.555.847c-6.263,4.1-8.2,11.808-8.219,11.886a.512.512,0,0,1-.092.189.506.506,0,0,1-.892-.429C383.519,265.189,385.484,257.349,392.087,253.026Z" transform="translate(-383.423 -252.943)" fill="#7c4851"/>
            </g>
            <g id="Grupo_132004" data-name="Grupo 132004" transform="translate(30.021 7.357)">
              <path id="Trazado_125014" data-name="Trazado 125014" d="M400.826,257.6a.506.506,0,1,1,.539.857c-5.372,3.377-7.535,11.108-7.557,11.186a.5.5,0,0,1-.088.176.506.506,0,0,1-.89-.442C392.921,269.048,395.117,261.191,400.826,257.6Z" transform="translate(-392.813 -257.525)" fill="#7c4851"/>
            </g>
          </g>
          <g id="Grupo_132008" data-name="Grupo 132008" transform="translate(70.141 252.046)">
            <g id="Grupo_132006" data-name="Grupo 132006" transform="translate(0 12.791)">
              <path id="Trazado_125015" data-name="Trazado 125015" d="M228.61,303.9a13.612,13.612,0,0,1,3.723-26.967c1.172.162,83.357,19.545,83.357,19.545a11.51,11.51,0,0,1-3.149,22.8Z" transform="translate(-214.606 -274.552)" fill="#f1a78f"/>
              <path id="Trazado_125016" data-name="Trazado 125016" d="M348.535,327.462a11.515,11.515,0,0,1-9.641-12.949,11.87,11.87,0,0,1,13.015-10.032h0s20.356-.7,82.857,11.542l-2.011,14.565s-55.027,3.368-83.255-3.012C349.313,327.535,348.535,327.462,348.535,327.462Z" transform="translate(-250.994 -282.788)" fill="#f1a78f"/>
              <path id="Trazado_125017" data-name="Trazado 125017" d="M263.446,311.793l-36.153-6.626a15.864,15.864,0,0,1,4.391-31.422c.617.084,18.035,4.16,37.31,8.69A127.988,127.988,0,0,1,263.446,311.793Z" transform="translate(-213.648 -273.594)" fill="#188df8"/>
            </g>
            <g id="Grupo_132007" data-name="Grupo 132007" transform="translate(167.071)">
              <path id="Trazado_125018" data-name="Trazado 125018" d="M491.8,290.68a4.423,4.423,0,0,0-4.592.9s-7.742,6.921-8.851,6.133c-1.023-.728-.325-4.78-.325-4.78a79.979,79.979,0,0,0,.863-10.395l4.937-19.887a2.491,2.491,0,0,0-2.222-2.735,2.911,2.911,0,0,0-2.9,2.535l-5.077,17.939a.681.681,0,0,1-.751.492c-.337-.027-.781-.1-.8-.675l2.448-22.014a2.533,2.533,0,0,0-2.179-2.813,2.445,2.445,0,0,0-2.716,2.183l-2.914,22.676c-.034.671-.953.967-1.092.206l-1.04-20.559a2.357,2.357,0,1,0-4.689-.489l-.062,22.737c-.061.985-.916,1-.937.349l0,0L455.784,266.3c-.355-1.4-1.073-2.614-2.3-2.408-1.285.216-1.735.949-1.692,2.3l1.807,18.622c-3.786,19.082.783,26.953.783,26.953,10.7,9.185,17.272,1.073,17.272,1.073a30.423,30.423,0,0,0,9.128-6.96c1.732-1.926,6.587-7.78,9.869-11.012a24.166,24.166,0,0,1,2.415-2.049C493.693,292.219,493.178,291.365,491.8,290.68Z" transform="translate(-451.791 -255.362)" fill="#f1a78f"/>
              <path id="Trazado_125019" data-name="Trazado 125019" d="M457.8,296.51s8.8-4.843,21.642-1.523C479.442,294.987,468.313,293.094,457.8,296.51Z" transform="translate(-453.584 -266.841)" fill="#12263f"/>
            </g>
          </g>
          <g id="Grupo_132013" data-name="Grupo 132013" transform="translate(67.357 258.134)">
            <path id="Trazado_125020" data-name="Trazado 125020" d="M238.727,343.612c-.355-.612-.7-1.217-1.04-1.8a98.266,98.266,0,0,1-6.256-12.719c-3.633-8.914-18.518-16.965-20.04-26.459-.763-4.757-1.357-9.565-1.655-14.375-.561-9.042,3.092-15.409,10.016-21.031,3.986-3.236,23.939.111,27.96-3.083.529-.42,1.086.472.561.889h0c2.173,4.808-1.905,2.97-4.955,7.368-2.518,3.631-6.876,5.335-9.8,8.581-3.093,3.429-5.4,8.6-4.5,13.278,1.127,5.865,6.367,9.8,9.858,14.265a30.208,30.208,0,0,1,5.738,12.563c2.016-.647,6.29-1.672,8.031-.21a2.312,2.312,0,0,1,.657,2.56c1.745.054,3.105.707,3.161,2.593.05,1.708-1.842,2.669-3.189,3.163-.556.2-1.085.386-1.614.57a2.95,2.95,0,0,1,2.509,1.754c.46,1.645-1.4,2.672-2.572,3.3-1.121.6-2.406,1.043-3.59,1.621.528.048,1.06.112,1.607.208,1.722.307,1.4,2.467.109,3.048a39.029,39.029,0,0,0-4.11,2.084c.179,5.239-.585,12.8-.845,12.686-2.291-1-3.081-6.2-4.5-8.34A1.663,1.663,0,0,1,238.727,343.612Z" transform="translate(-209.68 -264.04)" fill="#050f17"/>
            <g id="Grupo_132009" data-name="Grupo 132009" transform="translate(23.596 57.364)">
              <path id="Trazado_125021" data-name="Trazado 125021" d="M244.09,353.525a.529.529,0,0,0,.12-.105,21.706,21.706,0,0,1,9.756-6.62.506.506,0,1,0-.27-.976,22.4,22.4,0,0,0-10.266,6.95.507.507,0,0,0,.66.751Z" transform="translate(-243.313 -345.806)" fill="#7c4851"/>
            </g>
            <g id="Grupo_132010" data-name="Grupo 132010" transform="translate(26.927 59.219)">
              <path id="Trazado_125022" data-name="Trazado 125022" d="M264.147,349.385a.506.506,0,0,0-.391-.92c-.446.11-10.989,2.761-15.593,8.92a.506.506,0,0,0,.81.606c4.388-5.866,14.919-8.516,15.025-8.542A.491.491,0,0,0,264.147,349.385Z" transform="translate(-248.062 -348.45)" fill="#7c4851"/>
            </g>
            <g id="Grupo_132011" data-name="Grupo 132011" transform="translate(29.499 65.54)">
              <path id="Trazado_125023" data-name="Trazado 125023" d="M263.431,358.394a.507.507,0,0,0-.427-.91c-.293.1-7.228,2.368-11.144,6.623a.506.506,0,0,0,.745.685c3.735-4.055,10.641-6.322,10.71-6.344A.539.539,0,0,0,263.431,358.394Z" transform="translate(-251.727 -357.46)" fill="#7c4851"/>
            </g>
            <g id="Grupo_132012" data-name="Grupo 132012" transform="translate(30.095 72.041)">
              <path id="Trazado_125024" data-name="Trazado 125024" d="M253.353,372.033a.5.5,0,0,0,.166-.172c1.2-2.057,4.792-3.425,6.144-3.941a5.5,5.5,0,0,0,.614-.259.507.507,0,0,0-.528-.864c-.068.035-.226.093-.446.177-1.443.551-5.276,2.012-6.658,4.375a.507.507,0,0,0,.708.684Z" transform="translate(-252.576 -366.727)" fill="#7c4851"/>
            </g>
          </g>
        </g>
        <path id="Trazado_125025" data-name="Trazado 125025" d="M424.283,120.974c.758,1.768,9.559,8.021,11.662,9.813,4.244,3.614,8.022,7.732,9.976,12.957a.781.781,0,0,0,1.409.046c2.775-7.474-.613-14.774-6.623-19.369a.518.518,0,0,1,.26-.934c1.773-.191,4.481-.563,5.069-1.045,1.226-1-.023-2.4-.67-3.438-8.381-13.426-18.347-17.74-18.57-17.651a.743.743,0,0,0-1.267.392c-.237,2.2,9.29,13.069,9.43,14.171.239,1.892-3.017,1.6-4.3,1.576C428.926,117.464,422.992,117.969,424.283,120.974Z" transform="translate(-206.314 42.71)" fill="#dfa35d"/>
        <path id="Trazado_125026" data-name="Trazado 125026" d="M190.454,423.218a7.489,7.489,0,0,1-2.125,1.488c-2.3,1.313-4.688,3.369-4.769,5.751-.055,1.656,1.136,2.651,2.723,3.356,2.829,1.255,6.017,2.058,8.907,3.245a51.435,51.435,0,0,1,8.852,4.545,30.37,30.37,0,0,1,3.7,2.859c.535.487,3.928,4.421,4.84,2.5a1.444,1.444,0,0,0-.055-1.086,33.944,33.944,0,0,0-3.433-8.081,25.87,25.87,0,0,0-7.364-7.371c-1.9-1.276-3.868-1.842-2.14-4.047,1.179-1.505,3.342-2.633,5.053-3.656,2-1.2,4.752-2.659,6.16-4.423,1.477-1.852-8.977-3.767-11.919-4.166a77.445,77.445,0,0,1-20.378-5.81,3.89,3.89,0,0,0-1.757-.483c-4.992.217,2.1,6.689,2.855,7.233a53.341,53.341,0,0,0,8.953,5.176C189.874,420.849,191.75,421.649,190.454,423.218Z" transform="translate(-143.966 -57.94)" fill="#dfa35d"/>
        <path id="Trazado_125027" data-name="Trazado 125027" d="M147.951,128.428c-.706.406-2.419,1.575-2.892.429-.275-.667,1.536-9.761.7-10.933a.47.47,0,0,0-.829.168c-.153.018-4.308,5.528-4.666,15.716-.027.786-.274,1.964.728,2.155a10.418,10.418,0,0,0,3.15-.966.341.341,0,0,1,.443.45c-1.868,4.453-1.414,9.633,2.519,13.017a.49.49,0,0,0,.768-.46,20.782,20.782,0,0,1,1.394-10.413c.595-1.662,3.482-7.913,3.337-9.148C152.363,126.343,148.9,127.881,147.951,128.428Z" transform="translate(-121.593 37.758)" fill="#dfa35d"/>
      </g>
      <path id="Trazado_125028" data-name="Trazado 125028" d="M271.326,281.217l14.881,3.493-.323,2.24,45.892,10.612s34.871,3.2,42.844,4.466" transform="translate(-160.72 -11.032)" fill="none" stroke="#12263f" stroke-linecap="round" stroke-linejoin="round" stroke-width="1"/>
      <path id="Trazado_125029" data-name="Trazado 125029" d="M278.762,362.339s4.251,5.024,9.342,5.4,24.837-1.4,24.837-1.4" transform="translate(-162.939 -35.243)" fill="none" stroke="#12263f" stroke-linecap="round" stroke-linejoin="round" stroke-width="1"/>
      <path id="Trazado_125030" data-name="Trazado 125030" d="M273.1,261.476s-1.049.772,5.972,3.626,13.74,1.037,17.246,1.455,4.526,1.576,7.327-1.455a40.27,40.27,0,0,0,4.625-6.134" transform="translate(-161.232 -4.393)" fill="none" stroke="#12263f" stroke-linecap="round" stroke-linejoin="round" stroke-width="1"/>
    </g>
  </g>
</svg>
