<svg xmlns="http://www.w3.org/2000/svg" xmlns:xlink="http://www.w3.org/1999/xlink" width="295" height="135" viewBox="0 0 295 135">
  <defs>
    <clipPath id="clip-path">
      <rect id="Rect치ngulo_36070" data-name="Rect치ngulo 36070" width="45" height="40.62" fill="#133d60"/>
    </clipPath>
  </defs>
  <g id="Grupo_134528" data-name="Grupo 134528" transform="translate(-180.256 -10155)">
    <rect id="Rect치ngulo_36093" data-name="Rect치ngulo 36093" width="263" height="135" rx="13" transform="translate(212.256 10155)" fill="#133d60"/>
    <path id="Trazado_128108" data-name="Trazado 128108" d="M44.047,9.93a7.053,7.053,0,0,1-2.809-1.363,2.6,2.6,0,0,1-.879-2,2.751,2.751,0,0,1,1.074-2.223,4.269,4.269,0,0,1,2.793-.879,4.66,4.66,0,0,1,2.09.453,3.436,3.436,0,0,1,1.422,1.25,3.2,3.2,0,0,1,.5,1.742H46.734a2.08,2.08,0,0,0-.656-1.627A2.669,2.669,0,0,0,44.227,4.7a2.732,2.732,0,0,0-1.73.489,1.632,1.632,0,0,0-.621,1.358,1.468,1.468,0,0,0,.59,1.178,5.785,5.785,0,0,0,2.008.88,9.316,9.316,0,0,1,2.219.88A3.367,3.367,0,0,1,47.879,10.6a2.861,2.861,0,0,1,.387,1.508,2.658,2.658,0,0,1-1.078,2.215,4.6,4.6,0,0,1-2.883.832,5.347,5.347,0,0,1-2.187-.449,3.681,3.681,0,0,1-1.566-1.23A3,3,0,0,1,40,11.7h1.508a1.959,1.959,0,0,0,.762,1.629,3.207,3.207,0,0,0,2.035.6,2.948,2.948,0,0,0,1.82-.484,1.573,1.573,0,0,0,.633-1.32,1.545,1.545,0,0,0-.586-1.293A6.755,6.755,0,0,0,44.047,9.93ZM55.18,14.164a3.07,3.07,0,0,1-2.477.992,2.628,2.628,0,0,1-2.059-.785,3.4,3.4,0,0,1-.715-2.324v-5.5h1.445v5.461q0,1.922,1.563,1.922a2.163,2.163,0,0,0,2.2-1.234V6.547h1.445V15H55.211Zm4.961-7.617.039.938a3.122,3.122,0,0,1,2.508-1.094A2.417,2.417,0,0,1,65.1,7.75a3.2,3.2,0,0,1,1.1-.984,3.242,3.242,0,0,1,1.6-.375q2.781,0,2.828,2.945V15H69.18V9.422a1.941,1.941,0,0,0-.414-1.355,1.823,1.823,0,0,0-1.391-.449,1.916,1.916,0,0,0-1.336.48,1.949,1.949,0,0,0-.617,1.293V15H63.969V9.461a1.613,1.613,0,0,0-1.8-1.844,1.934,1.934,0,0,0-1.945,1.211V15H58.773V6.547ZM74.375,15H72.93V6.547h1.445ZM72.813,4.3a.863.863,0,0,1,.215-.594.807.807,0,0,1,.637-.242.819.819,0,0,1,.641.242.854.854,0,0,1,.219.594.826.826,0,0,1-.219.586.834.834,0,0,1-.641.234.821.821,0,0,1-.637-.234A.834.834,0,0,1,72.813,4.3Zm5.242,2.242L78.1,7.609a3.08,3.08,0,0,1,2.531-1.219q2.68,0,2.7,3.023V15H81.891V9.406a1.946,1.946,0,0,0-.418-1.352A1.675,1.675,0,0,0,80.2,7.617a2.086,2.086,0,0,0-1.234.375,2.546,2.546,0,0,0-.828.984V15H76.688V6.547ZM87.086,15H85.641V6.547h1.445ZM85.523,4.3a.863.863,0,0,1,.215-.594.807.807,0,0,1,.637-.242.819.819,0,0,1,.641.242.854.854,0,0,1,.219.594.826.826,0,0,1-.219.586.834.834,0,0,1-.641.234.821.821,0,0,1-.637-.234A.834.834,0,0,1,85.523,4.3Zm8.8,8.453a1.064,1.064,0,0,0-.441-.91,4.249,4.249,0,0,0-1.539-.559,7.277,7.277,0,0,1-1.742-.562,2.479,2.479,0,0,1-.953-.781,1.869,1.869,0,0,1-.309-1.078,2.193,2.193,0,0,1,.879-1.758,3.432,3.432,0,0,1,2.246-.719,3.532,3.532,0,0,1,2.332.742,2.357,2.357,0,0,1,.895,1.9H94.234a1.3,1.3,0,0,0-.5-1.023,1.888,1.888,0,0,0-1.27-.43,1.976,1.976,0,0,0-1.234.344,1.082,1.082,0,0,0-.445.9.877.877,0,0,0,.414.789,5.1,5.1,0,0,0,1.5.508,7.8,7.8,0,0,1,1.754.578,2.558,2.558,0,0,1,1,.809,1.988,1.988,0,0,1,.324,1.152,2.163,2.163,0,0,1-.906,1.816,3.8,3.8,0,0,1-2.352.684,4.257,4.257,0,0,1-1.8-.359,2.922,2.922,0,0,1-1.223-1,2.42,2.42,0,0,1-.441-1.395h1.445a1.5,1.5,0,0,0,.582,1.152,2.258,2.258,0,0,0,1.434.426,2.331,2.331,0,0,0,1.316-.332A1.02,1.02,0,0,0,94.32,12.758ZM99.609,4.5V6.547h1.578V7.664H99.609v5.249a1.173,1.173,0,0,0,.211.763.888.888,0,0,0,.719.254,3.5,3.5,0,0,0,.688-.094V15a4.215,4.215,0,0,1-1.109.155,1.8,1.8,0,0,1-1.461-.586,2.517,2.517,0,0,1-.492-1.664V7.664H96.625V6.547h1.539V4.5Zm7.352,3.344a4.331,4.331,0,0,0-.711-.055A1.9,1.9,0,0,0,104.32,9v6h-1.445V6.547h1.406l.023.977a2.251,2.251,0,0,1,2.016-1.133,1.477,1.477,0,0,1,.641.109Zm.789,2.852a4.993,4.993,0,0,1,.488-2.234A3.643,3.643,0,0,1,109.6,6.93a3.7,3.7,0,0,1,1.988-.539,3.565,3.565,0,0,1,2.793,1.2,4.6,4.6,0,0,1,1.066,3.18v.1a5.036,5.036,0,0,1-.473,2.215,3.589,3.589,0,0,1-1.352,1.527,3.743,3.743,0,0,1-2.02.547,3.556,3.556,0,0,1-2.785-1.2A4.575,4.575,0,0,1,107.75,10.8Zm1.453.172a3.616,3.616,0,0,0,.652,2.258,2.211,2.211,0,0,0,3.5-.012A3.955,3.955,0,0,0,114,10.7a3.61,3.61,0,0,0-.66-2.254,2.1,2.1,0,0,0-1.754-.863,2.075,2.075,0,0,0-1.727.852A3.925,3.925,0,0,0,109.2,10.867Zm11.664-.164a4.952,4.952,0,0,1,.922-3.129,3.137,3.137,0,0,1,4.766-.168V3H128V15h-1.328l-.07-.906a2.943,2.943,0,0,1-2.414,1.063,2.887,2.887,0,0,1-2.395-1.2,5.008,5.008,0,0,1-.926-3.141Zm1.445.164a3.749,3.749,0,0,0,.594,2.25,1.92,1.92,0,0,0,1.641.813,2.108,2.108,0,0,0,2.008-1.234V8.813a2.125,2.125,0,0,0-1.992-1.2,1.929,1.929,0,0,0-1.656.82A4.128,4.128,0,0,0,122.313,10.867Zm11.438,4.289a3.693,3.693,0,0,1-2.8-1.129,4.19,4.19,0,0,1-1.078-3.02v-.266a5.073,5.073,0,0,1,.48-2.246A3.748,3.748,0,0,1,131.7,6.949a3.378,3.378,0,0,1,1.871-.559,3.166,3.166,0,0,1,2.563,1.086,4.7,4.7,0,0,1,.914,3.109v.6H131.32a3,3,0,0,0,.73,2.02,2.3,2.3,0,0,0,1.777.77,2.517,2.517,0,0,0,1.3-.312,3.258,3.258,0,0,0,.93-.828l.883.688A3.55,3.55,0,0,1,133.75,15.156Zm-.18-7.578a1.928,1.928,0,0,0-1.469.637A3.1,3.1,0,0,0,131.367,10H135.6V9.891a2.753,2.753,0,0,0-.594-1.707A1.815,1.815,0,0,0,133.57,7.578ZM37.824,30.547l.039.938a3.122,3.122,0,0,1,2.508-1.094,2.417,2.417,0,0,1,2.414,1.359,3.2,3.2,0,0,1,1.1-.984,3.242,3.242,0,0,1,1.6-.375q2.781,0,2.828,2.945V39H46.863V33.422a1.941,1.941,0,0,0-.414-1.355,1.823,1.823,0,0,0-1.391-.449,1.916,1.916,0,0,0-1.336.48,1.949,1.949,0,0,0-.617,1.293V39H41.652V33.461a1.613,1.613,0,0,0-1.8-1.844A1.934,1.934,0,0,0,37.9,32.828V39H36.457V30.547ZM54,39.156a3.693,3.693,0,0,1-2.8-1.129,4.19,4.19,0,0,1-1.078-3.02v-.266A5.073,5.073,0,0,1,50.6,32.5a3.748,3.748,0,0,1,1.344-1.547,3.378,3.378,0,0,1,1.871-.559,3.166,3.166,0,0,1,2.563,1.086,4.7,4.7,0,0,1,.914,3.109v.6H51.566a3,3,0,0,0,.73,2.02,2.3,2.3,0,0,0,1.777.77,2.517,2.517,0,0,0,1.3-.312,3.258,3.258,0,0,0,.93-.828l.883.688A3.55,3.55,0,0,1,54,39.156Zm-.18-7.578a1.928,1.928,0,0,0-1.469.637A3.1,3.1,0,0,0,51.613,34h4.234v-.109a2.753,2.753,0,0,0-.594-1.707A1.815,1.815,0,0,0,53.816,31.578Zm4.8,3.125a4.952,4.952,0,0,1,.922-3.129,3.137,3.137,0,0,1,4.766-.168V27h1.445V39H64.418l-.07-.906a2.943,2.943,0,0,1-2.414,1.063,2.887,2.887,0,0,1-2.395-1.2,5.008,5.008,0,0,1-.926-3.141Zm1.445.164a3.749,3.749,0,0,0,.594,2.25,1.919,1.919,0,0,0,1.641.813A2.108,2.108,0,0,0,64.3,36.7V32.813a2.125,2.125,0,0,0-1.992-1.2,1.929,1.929,0,0,0-1.656.82A4.128,4.128,0,0,0,60.059,34.867ZM69.559,39H68.113V30.547h1.445ZM68,28.3a.863.863,0,0,1,.215-.594.807.807,0,0,1,.637-.242.819.819,0,0,1,.641.242.854.854,0,0,1,.219.594.826.826,0,0,1-.219.586.834.834,0,0,1-.641.234.821.821,0,0,1-.637-.234A.834.834,0,0,1,68,28.3Zm7.266,9.672a2.082,2.082,0,0,0,1.352-.469,1.649,1.649,0,0,0,.641-1.172h1.367a2.621,2.621,0,0,1-.5,1.383,3.293,3.293,0,0,1-1.23,1.047,3.55,3.55,0,0,1-1.629.391A3.482,3.482,0,0,1,72.516,38a4.59,4.59,0,0,1-1.02-3.152v-.242a5.089,5.089,0,0,1,.453-2.2,3.451,3.451,0,0,1,1.3-1.492,3.7,3.7,0,0,1,2-.531,3.39,3.39,0,0,1,2.363.852,3.043,3.043,0,0,1,1,2.211H77.254a1.992,1.992,0,0,0-.621-1.348,1.932,1.932,0,0,0-1.379-.527,2.023,2.023,0,0,0-1.707.793,3.724,3.724,0,0,0-.605,2.293v.273a3.65,3.65,0,0,0,.6,2.25A2.033,2.033,0,0,0,75.262,37.977ZM85.465,39a3.036,3.036,0,0,1-.2-.891,3.225,3.225,0,0,1-2.406,1.047,2.984,2.984,0,0,1-2.051-.707,2.288,2.288,0,0,1-.8-1.793,2.39,2.39,0,0,1,1-2.051,4.733,4.733,0,0,1,2.824-.73h1.406v-.664A1.623,1.623,0,0,0,84.785,32a1.821,1.821,0,0,0-1.336-.449,2.108,2.108,0,0,0-1.3.391,1.151,1.151,0,0,0-.523.945H80.176a2,2,0,0,1,.449-1.223,3.066,3.066,0,0,1,1.219-.934,4.1,4.1,0,0,1,1.691-.344,3.342,3.342,0,0,1,2.289.73,2.635,2.635,0,0,1,.859,2.012v3.891a4.757,4.757,0,0,0,.3,1.852V39Zm-2.4-1.1a2.54,2.54,0,0,0,1.289-.352,2.127,2.127,0,0,0,.883-.914V34.9H84.105q-2.656,0-2.656,1.555a1.316,1.316,0,0,0,.453,1.063A1.742,1.742,0,0,0,83.066,37.9Zm7.242-7.352.039.938a3.122,3.122,0,0,1,2.508-1.094A2.417,2.417,0,0,1,95.27,31.75a3.2,3.2,0,0,1,1.1-.984,3.242,3.242,0,0,1,1.6-.375q2.781,0,2.828,2.945V39H99.348V33.422a1.941,1.941,0,0,0-.414-1.355,1.823,1.823,0,0,0-1.391-.449,1.916,1.916,0,0,0-1.336.48,1.949,1.949,0,0,0-.617,1.293V39H94.137V33.461a1.613,1.613,0,0,0-1.8-1.844,1.934,1.934,0,0,0-1.945,1.211V39H88.941V30.547Zm16.172,8.609a3.693,3.693,0,0,1-2.8-1.129,4.19,4.19,0,0,1-1.078-3.02v-.266a5.073,5.073,0,0,1,.48-2.246,3.748,3.748,0,0,1,1.344-1.547,3.378,3.378,0,0,1,1.871-.559,3.166,3.166,0,0,1,2.563,1.086,4.7,4.7,0,0,1,.914,3.109v.6h-5.727a3,3,0,0,0,.73,2.02,2.3,2.3,0,0,0,1.777.77,2.517,2.517,0,0,0,1.3-.312,3.259,3.259,0,0,0,.93-.828l.883.688A3.55,3.55,0,0,1,106.48,39.156Zm-.18-7.578a1.928,1.928,0,0,0-1.469.637A3.1,3.1,0,0,0,104.1,34h4.234v-.109a2.753,2.753,0,0,0-.594-1.707A1.815,1.815,0,0,0,106.3,31.578Zm6.516-1.031.047,1.063a3.08,3.08,0,0,1,2.531-1.219q2.68,0,2.7,3.023V39h-1.445V33.406a1.946,1.946,0,0,0-.418-1.352,1.675,1.675,0,0,0-1.277-.437,2.086,2.086,0,0,0-1.234.375,2.546,2.546,0,0,0-.828.984V39h-1.445V30.547Zm9.422-2.047v2.047h1.578v1.117h-1.578v5.249a1.173,1.173,0,0,0,.211.763.888.888,0,0,0,.719.254,3.5,3.5,0,0,0,.688-.094V39a4.215,4.215,0,0,1-1.109.155,1.8,1.8,0,0,1-1.461-.586,2.517,2.517,0,0,1-.492-1.664V31.664h-1.539V30.547h1.539V28.5Zm2.727,6.2a4.993,4.993,0,0,1,.488-2.234,3.643,3.643,0,0,1,1.359-1.531,3.7,3.7,0,0,1,1.988-.539,3.565,3.565,0,0,1,2.793,1.2,4.6,4.6,0,0,1,1.066,3.18v.1a5.036,5.036,0,0,1-.473,2.215,3.589,3.589,0,0,1-1.352,1.527,3.743,3.743,0,0,1-2.02.547,3.556,3.556,0,0,1-2.785-1.2,4.575,4.575,0,0,1-1.066-3.164Zm1.453.172a3.616,3.616,0,0,0,.652,2.258,2.211,2.211,0,0,0,3.5-.012,3.954,3.954,0,0,0,.648-2.418,3.61,3.61,0,0,0-.66-2.254,2.1,2.1,0,0,0-1.754-.863,2.075,2.075,0,0,0-1.727.852A3.925,3.925,0,0,0,126.418,34.867Zm12.977,1.891a1.064,1.064,0,0,0-.441-.91,4.249,4.249,0,0,0-1.539-.559,7.277,7.277,0,0,1-1.742-.562,2.479,2.479,0,0,1-.953-.781,1.869,1.869,0,0,1-.309-1.078,2.193,2.193,0,0,1,.879-1.758,3.432,3.432,0,0,1,2.246-.719,3.532,3.532,0,0,1,2.332.742,2.357,2.357,0,0,1,.895,1.9h-1.453a1.3,1.3,0,0,0-.5-1.023,1.888,1.888,0,0,0-1.27-.43,1.976,1.976,0,0,0-1.234.344,1.082,1.082,0,0,0-.445.9.877.877,0,0,0,.414.789,5.1,5.1,0,0,0,1.5.508,7.8,7.8,0,0,1,1.754.578,2.558,2.558,0,0,1,1,.809,1.988,1.988,0,0,1,.324,1.152,2.163,2.163,0,0,1-.906,1.816,3.8,3.8,0,0,1-2.352.684,4.257,4.257,0,0,1-1.8-.359,2.922,2.922,0,0,1-1.223-1,2.42,2.42,0,0,1-.441-1.395h1.445a1.5,1.5,0,0,0,.582,1.152,2.258,2.258,0,0,0,1.434.426,2.331,2.331,0,0,0,1.316-.332A1.02,1.02,0,0,0,139.395,36.758Z" transform="translate(262.256 10201)" fill="#fff"/>
    <g id="Grupo_134510" data-name="Grupo 134510" transform="translate(-45 178)">
      <circle id="Elipse_4925" data-name="Elipse 4925" cx="31.5" cy="31.5" r="31.5" transform="translate(225.256 10013)" fill="#fcd189"/>
      <g id="Grupo_134469" data-name="Grupo 134469" transform="translate(233.256 10022)">
        <g id="Grupo_134468" data-name="Grupo 134468" transform="translate(0 0)" clip-path="url(#clip-path)">
          <path id="Trazado_127977" data-name="Trazado 127977" d="M25.831,29.256c.2.011.329.021.454.023a3.042,3.042,0,0,1,3.233,3.315q0,11.272,0,22.544v.68h1.465q0-3.6,0-7.207,0-6.028.006-12.056c0-1.924.928-2.849,2.851-2.85q3.109,0,6.217,0a2.489,2.489,0,0,1,2.753,2.741q0,9.136-.006,18.273a11.3,11.3,0,0,1-.119,1.136c.444,0,.9,0,1.362,0,.62.007.937.249.951.717.014.487-.324.77-.957.77q-6.379.007-12.759.006H1.766c-.306,0-.613.006-.919-.007-.55-.023-.861-.313-.846-.772.014-.437.316-.707.844-.712,1.117-.011,2.234-.005,3.352-.007h.552c-.145-.221-.254-.377-.353-.538A4.265,4.265,0,0,1,4.2,50.846,4.184,4.184,0,0,1,7.954,48.5c1.256-.042,2.515-.008,3.839-.008v-.686c0-5.01.054-10.02-.021-15.029a3.181,3.181,0,0,1,3.4-3.5,2.262,2.262,0,0,0,.314-.03v-3.3c0-.868.222-1.1,1.078-1.1q4.081,0,8.163,0c.89,0,1.107.225,1.108,1.13,0,1.078,0,2.156,0,3.283M28.008,55.84c.009-.175.02-.3.02-.421q0-11.429,0-22.858c0-1.242-.573-1.793-1.833-1.793H15.113c-1.257,0-1.828.555-1.829,1.8q0,7.727-.008,15.455a.559.559,0,0,0,.49.659,4.312,4.312,0,0,1,3.094,5.055,12.553,12.553,0,0,1-.834,2.106Zm4.457-14.789h8.852c0-1.668.01-3.287-.006-4.906a.914.914,0,0,0-1.019-.945q-3.4-.011-6.806,0a.91.91,0,0,0-1.015.952c-.021,1.619-.007,3.238-.007,4.9m0,8.933c0,1.685-.015,3.322.008,4.958a.9.9,0,0,0,.952.905q3.484.018,6.968,0a.866.866,0,0,0,.91-.823c.024-1.67.009-3.34.009-5.042Zm.019-1.544h8.791V42.6H32.483ZM9.535,55.889V49.981c-.608,0-1.168-.042-1.72.008a2.929,2.929,0,0,0-.353,5.776,14.7,14.7,0,0,0,2.073.124m1.531-.064a14.817,14.817,0,0,0,1.916-.014,2.884,2.884,0,0,0,2.488-2.769c.049-2.121-1.7-3.557-4.4-2.988Zm8.8-29.456h-.676c-.071.583.159,1.384-.713,1.414-.967.034-.7-.84-.81-1.425h-.652V29.25h7.3V26.381h-.68c-.089,1.11-.256,1.458-.746,1.424-.955-.066-.695-.871-.775-1.439h-.667c-.134,1.159-.293,1.444-.792,1.443s-.658-.288-.785-1.439" transform="translate(0 -16.732)" fill="#133d60"/>
          <path id="Trazado_127978" data-name="Trazado 127978" d="M34.524,2.609A2.572,2.572,0,1,1,31.987,0a2.578,2.578,0,0,1,2.537,2.608m-2.6,1.072a1.1,1.1,0,0,0,1.133-1.063,1.106,1.106,0,0,0-2.211-.054,1.1,1.1,0,0,0,1.078,1.118" transform="translate(-19.789 -0.001)" fill="#133d60"/>
          <path id="Trazado_127979" data-name="Trazado 127979" d="M10.972,13.279c-.819-.928-.928-1.272-.531-1.641.373-.347.7-.236,1.6.557.5-.3.857-1.206,1.645-.51.389.344.264.659-.546,1.588.3.5,1.256.9.5,1.631-.7.669-1.081-.19-1.579-.536-.5.3-.911,1.251-1.629.5-.661-.694.189-1.084.547-1.586" transform="translate(-6.857 -7.698)" fill="#133d60"/>
          <path id="Trazado_127980" data-name="Trazado 127980" d="M75.053,4.608a.788.788,0,1,1-.018-1.576.814.814,0,0,1,.8.779.813.813,0,0,1-.782.8" transform="translate(-50.012 -2.043)" fill="#133d60"/>
          <path id="Trazado_127981" data-name="Trazado 127981" d="M50.359,75.331c0-.62,0-1.191,0-1.762,0-1.02.163-1.178,1.2-1.178q1.108,0,2.217,0c.816,0,1.007.2,1.011,1.031,0,.61,0,1.22,0,1.907.7,0,1.36,0,2.018,0,.685.005.946.261.951.948q.011,1.27,0,2.541c-.008.686-.268.936-.959.942-.646.006-1.292,0-2.007,0,0,.685,0,1.329,0,1.973-.008.756-.215.961-.968.966-.847,0-1.694.008-2.541,0-.668,0-.9-.24-.914-.917-.009-.648,0-1.3,0-2.024-.671,0-1.312,0-1.953,0-.752,0-1-.25-1-1.008q-.007-1.216,0-2.433c0-.749.253-.99,1.015-.994.627,0,1.253,0,1.937,0m5.868,2.946V76.82c-.687,0-1.334.008-1.98,0-.664-.01-.908-.259-.915-.92s0-1.319,0-2.007H51.839c0,.607,0,1.179,0,1.751,0,1-.178,1.178-1.2,1.179h-1.7v1.46c.676,0,1.321-.007,1.964,0,.693.01.936.259.941.953,0,.658,0,1.316,0,1.969h1.487c0-.674,0-1.3,0-1.931.006-.754.243-.989,1.01-1,.625-.006,1.25,0,1.889,0" transform="translate(-31.928 -48.756)" fill="#133d60"/>
          <path id="Trazado_127982" data-name="Trazado 127982" d="M102.972,82.935a.817.817,0,0,1-.776.807.791.791,0,0,1-.03-1.582.814.814,0,0,1,.806.775" transform="translate(-68.291 -55.336)" fill="#133d60"/>
          <path id="Trazado_127983" data-name="Trazado 127983" d="M112.008,82.965a.788.788,0,1,1-.77-.806.808.808,0,0,1,.77.806" transform="translate(-74.379 -55.336)" fill="#133d60"/>
          <path id="Trazado_127984" data-name="Trazado 127984" d="M121.072,82.938a.774.774,0,1,1-.8-.777.79.79,0,0,1,.8.777" transform="translate(-80.502 -55.336)" fill="#133d60"/>
          <path id="Trazado_127985" data-name="Trazado 127985" d="M102.96,89.754a.775.775,0,0,1-.8.774.775.775,0,1,1,.8-.774" transform="translate(-68.285 -59.928)" fill="#133d60"/>
          <path id="Trazado_127986" data-name="Trazado 127986" d="M112.011,89.768a.787.787,0,1,1-.792-.782.783.783,0,0,1,.792.782" transform="translate(-74.381 -59.933)" fill="#133d60"/>
          <path id="Trazado_127987" data-name="Trazado 127987" d="M120.314,88.99a.773.773,0,1,1-.056,1.545.773.773,0,0,1,.056-1.545" transform="translate(-80.503 -59.936)" fill="#133d60"/>
        </g>
      </g>
    </g>
  </g>
</svg>
