<svg xmlns="http://www.w3.org/2000/svg" xmlns:xlink="http://www.w3.org/1999/xlink" width="295" height="79" viewBox="0 0 295 79">
  <defs>
    <clipPath id="clip-path">
      <rect id="Rect치ngulo_36060" data-name="Rect치ngulo 36060" width="40.553" height="40.561" fill="#133d60"/>
    </clipPath>
  </defs>
  <g id="Grupo_134521" data-name="Grupo 134521" transform="translate(-337.256 -9010)">
    <rect id="Rect치ngulo_35943" data-name="Rect치ngulo 35943" width="295" height="79" rx="39.5" transform="translate(337.256 9010)" fill="#133d60"/>
    <path id="Trazado_128101" data-name="Trazado 128101" d="M22.291,14.627h5.37V17H19.206V4.2h3.085ZM34.183,17a3.344,3.344,0,0,1-.281-.853,2.754,2.754,0,0,1-2.285,1.028,3.374,3.374,0,0,1-2.285-.813,2.588,2.588,0,0,1-.94-2.043,2.66,2.66,0,0,1,1.143-2.338,5.821,5.821,0,0,1,3.322-.791h.914v-.5q0-1.316-1.134-1.316a.927.927,0,0,0-1.055,1.042H28.619a2.655,2.655,0,0,1,1.173-2.239,4.931,4.931,0,0,1,2.993-.86,4.323,4.323,0,0,1,2.874.888,3.086,3.086,0,0,1,1.081,2.435v4.21a4.311,4.311,0,0,0,.4,2V17Zm-1.854-1.934a1.652,1.652,0,0,0,.918-.237,1.487,1.487,0,0,0,.523-.536V12.772h-.861q-1.547,0-1.547,1.389a.848.848,0,0,0,.272.655A.986.986,0,0,0,32.328,15.066ZM45.986,17H43.016V7.49h2.971ZM42.84,5.029A1.334,1.334,0,0,1,43.3,3.986a1.934,1.934,0,0,1,2.373,0,1.334,1.334,0,0,1,.457,1.043,1.334,1.334,0,0,1-.457,1.043,1.934,1.934,0,0,1-2.373,0A1.334,1.334,0,0,1,42.84,5.029Zm4.6,7.146a5.809,5.809,0,0,1,.976-3.56,3.211,3.211,0,0,1,2.725-1.3,2.731,2.731,0,0,1,2.145,1V3.5h2.971V17H53.589l-.149-1.02a2.8,2.8,0,0,1-2.32,1.2,3.205,3.205,0,0,1-2.689-1.3A5.993,5.993,0,0,1,47.437,12.175Zm2.962.185q0,2.531,1.477,2.531a1.458,1.458,0,0,0,1.406-.826V10.443A1.419,1.419,0,0,0,51.893,9.6q-1.371,0-1.485,2.215Zm12.138,4.816a4.889,4.889,0,0,1-3.542-1.305,4.507,4.507,0,0,1-1.354-3.4v-.246a5.84,5.84,0,0,1,.541-2.575,3.955,3.955,0,0,1,1.578-1.727,4.763,4.763,0,0,1,2.461-.611,4.117,4.117,0,0,1,3.164,1.244,4.887,4.887,0,0,1,1.16,3.467v1.151H60.655a2.135,2.135,0,0,0,.694,1.257,2.066,2.066,0,0,0,1.389.457,2.662,2.662,0,0,0,2.2-.984l1.354,1.6a3.784,3.784,0,0,1-1.569,1.217A5.3,5.3,0,0,1,62.536,17.176ZM62.2,9.6q-1.3,0-1.547,1.723h2.988v-.229a1.467,1.467,0,0,0-.36-1.1A1.434,1.434,0,0,0,62.2,9.6ZM73.092,17a3.344,3.344,0,0,1-.281-.853,2.754,2.754,0,0,1-2.285,1.028,3.374,3.374,0,0,1-2.285-.813,2.588,2.588,0,0,1-.94-2.043,2.66,2.66,0,0,1,1.143-2.338,5.821,5.821,0,0,1,3.322-.791h.914v-.5q0-1.316-1.134-1.316a.927.927,0,0,0-1.055,1.042H67.528A2.655,2.655,0,0,1,68.7,8.175a4.931,4.931,0,0,1,2.993-.86,4.323,4.323,0,0,1,2.874.888,3.086,3.086,0,0,1,1.081,2.435v4.21a4.311,4.311,0,0,0,.4,2V17Zm-1.854-1.934a1.652,1.652,0,0,0,.918-.237,1.487,1.487,0,0,0,.523-.536V12.772h-.861q-1.547,0-1.547,1.389a.848.848,0,0,0,.272.655A.986.986,0,0,0,71.237,15.066Zm10.072-.176a1.317,1.317,0,0,0,.967-.338,1.241,1.241,0,0,0,.334-.945h2.777a3.288,3.288,0,0,1-1.121,2.566,4.168,4.168,0,0,1-2.887,1,4.22,4.22,0,0,1-3.27-1.3,5.125,5.125,0,0,1-1.2-3.6v-.123A5.792,5.792,0,0,1,77.447,9.6a3.872,3.872,0,0,1,1.534-1.7,4.573,4.573,0,0,1,2.373-.593A4.116,4.116,0,0,1,84.3,8.343a3.647,3.647,0,0,1,1.09,2.786H82.61A1.626,1.626,0,0,0,82.25,10a1.244,1.244,0,0,0-.967-.4q-1.151,0-1.345,1.468a10.357,10.357,0,0,0-.062,1.283,4.068,4.068,0,0,0,.343,1.986A1.187,1.187,0,0,0,81.31,14.891ZM89.765,17H86.794V7.49h2.971ZM86.618,5.029a1.334,1.334,0,0,1,.457-1.043,1.934,1.934,0,0,1,2.373,0,1.334,1.334,0,0,1,.457,1.043,1.334,1.334,0,0,1-.457,1.043,1.934,1.934,0,0,1-2.373,0A1.334,1.334,0,0,1,86.618,5.029Zm4.6,7.128a5.613,5.613,0,0,1,.554-2.536,3.96,3.96,0,0,1,1.591-1.709,4.791,4.791,0,0,1,2.435-.6A4.373,4.373,0,0,1,99.16,8.637a5.076,5.076,0,0,1,1.23,3.6v.105a4.925,4.925,0,0,1-1.235,3.529,4.384,4.384,0,0,1-3.344,1.305,4.434,4.434,0,0,1-3.261-1.217,4.761,4.761,0,0,1-1.327-3.3Zm2.962.185a3.538,3.538,0,0,0,.413,1.934,1.376,1.376,0,0,0,1.222.615q1.582,0,1.617-2.435v-.3q0-2.558-1.635-2.558-1.485,0-1.608,2.206ZM96.2,3.5h3.129L96.884,6.26l-2.417,0Zm8.218,3.99.1,1.116a3.225,3.225,0,0,1,2.716-1.292,2.713,2.713,0,0,1,2.219.888,4.226,4.226,0,0,1,.76,2.672V17h-2.971V11a1.6,1.6,0,0,0-.29-1.059,1.342,1.342,0,0,0-1.055-.338,1.413,1.413,0,0,0-1.292.686V17h-2.962V7.49Z" transform="translate(442 9039)" fill="#fff"/>
    <g id="Grupo_134448" data-name="Grupo 134448" transform="translate(52 15)">
      <circle id="Elipse_4922" data-name="Elipse 4922" cx="31.5" cy="31.5" r="31.5" transform="translate(296.256 9003)" fill="#fcd189"/>
      <g id="Grupo_134447" data-name="Grupo 134447" transform="translate(307.256 9014)">
        <g id="Grupo_134446" data-name="Grupo 134446" transform="translate(0 0)" clip-path="url(#clip-path)">
          <path id="Trazado_127925" data-name="Trazado 127925" d="M26.644,1.154A14.258,14.258,0,0,0,21.564,23.6a9.3,9.3,0,0,1,2.381,5.368c.086,1.023.037,2.057.058,3.087a3.563,3.563,0,0,0,2.211,3.406.669.669,0,0,1,.31.4,5.956,5.956,0,0,0,4.592,4.574c.189.047.38.089.57.133h1.267a.675.675,0,0,1,.142-.061,5.919,5.919,0,0,0,5.026-4.685.621.621,0,0,1,.3-.358,3.551,3.551,0,0,0,2.21-3.4c.013-.726-.053-1.458.016-2.177a17.462,17.462,0,0,1,.438-2.76,9.475,9.475,0,0,1,2.089-3.642,14.066,14.066,0,0,0,3.263-7.383,13.722,13.722,0,0,0-1.755-8.917A14.269,14.269,0,0,0,26.644,1.154m5.834,37.021A3.589,3.589,0,0,1,29,35.756h6.613a3.525,3.525,0,0,1-3.135,2.418m5.781-6.081a1.191,1.191,0,0,1-1.275,1.255c-2.057.006-4.114,0-6.171,0-1.042,0-2.083,0-3.125,0a1.2,1.2,0,0,1-1.307-1.3c0-.341,0-.681,0-1.047H38.259c0,.385.006.74,0,1.095m3.288-10.4a13.854,13.854,0,0,0-2.836,5.022c-.165.607-.279,1.228-.42,1.862H26.35c-.141-.631-.255-1.264-.425-1.881a12.543,12.543,0,0,0-2.548-4.642A11.482,11.482,0,0,1,21.49,9.4a11.171,11.171,0,0,1,9.575-6.942,11.512,11.512,0,0,1,9.659,3.416,11.305,11.305,0,0,1,3.307,6.476A11.508,11.508,0,0,1,41.546,21.7" transform="translate(-12.044 0)" fill="#133d60"/>
          <path id="Trazado_127926" data-name="Trazado 127926" d="M110.612,42.754c-.629.042-1.264,0-1.9.01a1.189,1.189,0,1,0,0,2.373c.632.008,1.266-.029,1.9.01a1.469,1.469,0,0,0,1.593-.88v-.634a1.464,1.464,0,0,0-1.592-.88" transform="translate(-71.651 -28.504)" fill="#133d60"/>
          <path id="Trazado_127927" data-name="Trazado 127927" d="M3.077,22.569a2.656,2.656,0,0,0,.682.365,1.237,1.237,0,0,0,1.225-.714,1.11,1.11,0,0,0-.215-1.284q-.817-.861-1.675-1.683a1.185,1.185,0,1,0-1.677,1.674c.538.562,1.082,1.121,1.659,1.642" transform="translate(-0.695 -12.586)" fill="#133d60"/>
          <path id="Trazado_127928" data-name="Trazado 127928" d="M110.314,22.7a27.572,27.572,0,0,0,1.986-1.982,1.034,1.034,0,0,0,.078-1.228,1.222,1.222,0,0,0-1.147-.631,1.445,1.445,0,0,0-.545.222c-.683.639-1.36,1.288-1.985,1.983a1.165,1.165,0,0,0,1.613,1.636" transform="translate(-72.324 -12.575)" fill="#133d60"/>
          <path id="Trazado_127929" data-name="Trazado 127929" d="M4.4,61.782A1.12,1.12,0,0,0,3.087,62c-.581.556-1.155,1.122-1.706,1.708a1.181,1.181,0,1,0,1.693,1.647c.563-.536,1.122-1.08,1.646-1.655a2.837,2.837,0,0,0,.381-.685,1.252,1.252,0,0,0-.7-1.232" transform="translate(-0.693 -41.115)" fill="#133d60"/>
          <path id="Trazado_127930" data-name="Trazado 127930" d="M110.4,61.933a1.169,1.169,0,0,0-1.655,1.633c.6.663,1.242,1.294,1.9,1.9a1.049,1.049,0,0,0,1.225.118,1.227,1.227,0,0,0,.667-1.18,1.793,1.793,0,0,0-.271-.594c-.6-.648-1.219-1.28-1.869-1.878" transform="translate(-72.332 -41.112)" fill="#133d60"/>
          <path id="Trazado_127931" data-name="Trazado 127931" d="M3.56,42.791c-.4-.012-.792,0-1.188,0s-.792-.01-1.188,0a1.184,1.184,0,1,0,0,2.368q1.188.024,2.376,0a1.184,1.184,0,1,0,0-2.368" transform="translate(0 -28.529)" fill="#133d60"/>
          <path id="Trazado_127932" data-name="Trazado 127932" d="M58.836,14.265c-.132,0-.264,0-.4,0a1.185,1.185,0,0,0-.089,2.362c.17.02.343.014.514.024a6.906,6.906,0,0,1,3.751,1.327A7.068,7.068,0,0,1,65.6,23.69a1.19,1.19,0,1,0,2.366-.08,11.626,11.626,0,0,0-.185-1.729,9.532,9.532,0,0,0-8.95-7.615" transform="translate(-38.202 -9.511)" fill="#133d60"/>
        </g>
      </g>
    </g>
  </g>
</svg>
