<svg xmlns="http://www.w3.org/2000/svg" xmlns:xlink="http://www.w3.org/1999/xlink" width="295" height="79" viewBox="0 0 295 79">
  <defs>
    <clipPath id="clip-path">
      <rect id="Rect치ngulo_36061" data-name="Rect치ngulo 36061" width="35.702" height="39.5" fill="#133d60"/>
    </clipPath>
  </defs>
  <g id="Grupo_134522" data-name="Grupo 134522" transform="translate(-652.256 -9010)">
    <rect id="Rect치ngulo_35944" data-name="Rect치ngulo 35944" width="295" height="79" rx="39.5" transform="translate(652.256 9010)" fill="#133d60"/>
    <path id="Trazado_128102" data-name="Trazado 128102" d="M12.434,14.627H17.8V17H9.349V4.2h3.085ZM24.326,17a3.344,3.344,0,0,1-.281-.853,2.754,2.754,0,0,1-2.285,1.028,3.374,3.374,0,0,1-2.285-.813,2.588,2.588,0,0,1-.94-2.043,2.66,2.66,0,0,1,1.143-2.338A5.821,5.821,0,0,1,23,11.19h.914v-.5q0-1.316-1.134-1.316a.927.927,0,0,0-1.055,1.042H18.762a2.655,2.655,0,0,1,1.173-2.239,4.931,4.931,0,0,1,2.993-.86A4.323,4.323,0,0,1,25.8,8.2a3.086,3.086,0,0,1,1.081,2.435v4.21a4.311,4.311,0,0,0,.4,2V17Zm-1.854-1.934a1.652,1.652,0,0,0,.918-.237,1.487,1.487,0,0,0,.523-.536V12.772h-.861q-1.547,0-1.547,1.389a.848.848,0,0,0,.272.655A.986.986,0,0,0,22.471,15.066Zm19.362-2.751a5.735,5.735,0,0,1-1,3.538,3.2,3.2,0,0,1-2.694,1.323,2.742,2.742,0,0,1-2.153-.958v4.438H33.027V7.49H35.8l.088.879a2.742,2.742,0,0,1,2.241-1.055,3.224,3.224,0,0,1,2.733,1.3,5.805,5.805,0,0,1,.976,3.564Zm-2.962-.185Q38.872,9.6,37.4,9.6a1.394,1.394,0,0,0-1.406.756V14.1a1.439,1.439,0,0,0,1.424.791q1.415,0,1.459-2.443ZM46.263,17H43.292V3.5h2.971Zm7.181,0a3.344,3.344,0,0,1-.281-.853,2.754,2.754,0,0,1-2.285,1.028,3.374,3.374,0,0,1-2.285-.813,2.588,2.588,0,0,1-.94-2.043,2.66,2.66,0,0,1,1.143-2.338,5.821,5.821,0,0,1,3.322-.791h.914v-.5q0-1.316-1.134-1.316a.927.927,0,0,0-1.055,1.042H47.88a2.655,2.655,0,0,1,1.173-2.239,4.931,4.931,0,0,1,2.993-.86A4.323,4.323,0,0,1,54.92,8.2,3.086,3.086,0,0,1,56,10.637v4.21a4.311,4.311,0,0,0,.4,2V17Zm-1.854-1.934a1.652,1.652,0,0,0,.918-.237,1.487,1.487,0,0,0,.523-.536V12.772h-.861q-1.547,0-1.547,1.389a.848.848,0,0,0,.272.655A.986.986,0,0,0,51.589,15.066ZM60.361,7.49l.1,1.116a3.225,3.225,0,0,1,2.716-1.292,2.713,2.713,0,0,1,2.219.888,4.226,4.226,0,0,1,.76,2.672V17H63.182V11a1.6,1.6,0,0,0-.29-1.059A1.342,1.342,0,0,0,61.837,9.6a1.413,1.413,0,0,0-1.292.686V17H57.583V7.49Zm12.032,9.686a4.889,4.889,0,0,1-3.542-1.305,4.507,4.507,0,0,1-1.354-3.4v-.246a5.84,5.84,0,0,1,.541-2.575,3.955,3.955,0,0,1,1.578-1.727,4.763,4.763,0,0,1,2.461-.611,4.117,4.117,0,0,1,3.164,1.244,4.887,4.887,0,0,1,1.16,3.467v1.151H70.512a2.135,2.135,0,0,0,.694,1.257,2.066,2.066,0,0,0,1.389.457,2.662,2.662,0,0,0,2.2-.984l1.354,1.6a3.784,3.784,0,0,1-1.569,1.217A5.3,5.3,0,0,1,72.393,17.176ZM72.059,9.6q-1.3,0-1.547,1.723H73.5v-.229a1.467,1.467,0,0,0-.36-1.1A1.434,1.434,0,0,0,72.059,9.6ZM82.949,17a3.344,3.344,0,0,1-.281-.853,2.754,2.754,0,0,1-2.285,1.028,3.374,3.374,0,0,1-2.285-.813,2.588,2.588,0,0,1-.94-2.043A2.66,2.66,0,0,1,78.3,11.981a5.821,5.821,0,0,1,3.322-.791h.914v-.5q0-1.316-1.134-1.316a.927.927,0,0,0-1.055,1.042H77.385a2.655,2.655,0,0,1,1.173-2.239,4.931,4.931,0,0,1,2.993-.86,4.323,4.323,0,0,1,2.874.888,3.086,3.086,0,0,1,1.081,2.435v4.21a4.311,4.311,0,0,0,.4,2V17Zm-1.854-1.934a1.652,1.652,0,0,0,.918-.237,1.487,1.487,0,0,0,.523-.536V12.772h-.861q-1.547,0-1.547,1.389a.848.848,0,0,0,.272.655A.986.986,0,0,0,81.094,15.066Zm10.072-.176a1.317,1.317,0,0,0,.967-.338,1.241,1.241,0,0,0,.334-.945h2.777a3.288,3.288,0,0,1-1.121,2.566,4.168,4.168,0,0,1-2.887,1,4.22,4.22,0,0,1-3.27-1.3,5.125,5.125,0,0,1-1.2-3.6v-.123A5.792,5.792,0,0,1,87.3,9.6a3.872,3.872,0,0,1,1.534-1.7,4.573,4.573,0,0,1,2.373-.593,4.116,4.116,0,0,1,2.944,1.028,3.647,3.647,0,0,1,1.09,2.786H92.467A1.626,1.626,0,0,0,92.107,10a1.244,1.244,0,0,0-.967-.4q-1.151,0-1.345,1.468a10.357,10.357,0,0,0-.062,1.283,4.068,4.068,0,0,0,.343,1.986A1.187,1.187,0,0,0,91.167,14.891ZM99.622,17H96.651V7.49h2.971ZM96.475,5.029a1.334,1.334,0,0,1,.457-1.043,1.934,1.934,0,0,1,2.373,0,1.334,1.334,0,0,1,.457,1.043,1.334,1.334,0,0,1-.457,1.043,1.934,1.934,0,0,1-2.373,0A1.334,1.334,0,0,1,96.475,5.029Zm4.6,7.128a5.613,5.613,0,0,1,.554-2.536,3.96,3.96,0,0,1,1.591-1.709,4.791,4.791,0,0,1,2.435-.6,4.373,4.373,0,0,1,3.366,1.323,5.076,5.076,0,0,1,1.23,3.6v.105a4.925,4.925,0,0,1-1.235,3.529,4.384,4.384,0,0,1-3.344,1.305,4.434,4.434,0,0,1-3.261-1.217,4.761,4.761,0,0,1-1.327-3.3Zm2.962.185a3.538,3.538,0,0,0,.413,1.934,1.376,1.376,0,0,0,1.222.615q1.582,0,1.617-2.435v-.3q0-2.558-1.635-2.558-1.485,0-1.608,2.206ZM106.055,3.5h3.129l-2.443,2.76-2.417,0Zm8.218,3.99.1,1.116a3.225,3.225,0,0,1,2.716-1.292A2.713,2.713,0,0,1,119.3,8.2a4.226,4.226,0,0,1,.76,2.672V17h-2.971V11a1.6,1.6,0,0,0-.29-1.059A1.342,1.342,0,0,0,115.75,9.6a1.413,1.413,0,0,0-1.292.686V17H111.5V7.49ZM31.818,42.176a4.889,4.889,0,0,1-3.542-1.305,4.507,4.507,0,0,1-1.354-3.4v-.246a5.84,5.84,0,0,1,.541-2.575,3.955,3.955,0,0,1,1.578-1.727,4.763,4.763,0,0,1,2.461-.611,4.117,4.117,0,0,1,3.164,1.244,4.887,4.887,0,0,1,1.16,3.467v1.151H29.938a2.135,2.135,0,0,0,.694,1.257,2.066,2.066,0,0,0,1.389.457,2.662,2.662,0,0,0,2.2-.984l1.354,1.6A3.784,3.784,0,0,1,34,41.723,5.3,5.3,0,0,1,31.818,42.176ZM31.484,34.6q-1.3,0-1.547,1.723h2.988v-.229a1.467,1.467,0,0,0-.36-1.1A1.434,1.434,0,0,0,31.484,34.6ZM40.142,42H37.171V28.5h2.971Zm9.431,0H46.6V32.49h2.971ZM46.426,30.029a1.334,1.334,0,0,1,.457-1.043,1.934,1.934,0,0,1,2.373,0,1.42,1.42,0,0,1,0,2.087,1.934,1.934,0,0,1-2.373,0A1.334,1.334,0,0,1,46.426,30.029Zm7.69,2.461.1,1.116a3.225,3.225,0,0,1,2.716-1.292,2.713,2.713,0,0,1,2.219.888,4.226,4.226,0,0,1,.76,2.672V42H56.938V36a1.6,1.6,0,0,0-.29-1.059,1.342,1.342,0,0,0-1.055-.338,1.413,1.413,0,0,0-1.292.686V42H51.339V32.49ZM65,30.126V32.49h1.564v2.057H65V38.9a1.111,1.111,0,0,0,.193.747,1.037,1.037,0,0,0,.765.211,4.345,4.345,0,0,0,.738-.053v2.118a5.466,5.466,0,0,1-1.67.255,3.1,3.1,0,0,1-2.259-.721,2.954,2.954,0,0,1-.729-2.188v-4.72H60.822V32.49h1.213V30.126Zm7.33,12.05a4.889,4.889,0,0,1-3.542-1.305,4.507,4.507,0,0,1-1.354-3.4v-.246a5.84,5.84,0,0,1,.541-2.575,3.955,3.955,0,0,1,1.578-1.727,4.763,4.763,0,0,1,2.461-.611,4.117,4.117,0,0,1,3.164,1.244,4.887,4.887,0,0,1,1.16,3.467v1.151H70.446a2.135,2.135,0,0,0,.694,1.257,2.066,2.066,0,0,0,1.389.457,2.662,2.662,0,0,0,2.2-.984l1.354,1.6a3.784,3.784,0,0,1-1.569,1.217A5.3,5.3,0,0,1,72.327,42.176ZM71.993,34.6q-1.3,0-1.547,1.723h2.988v-.229a1.467,1.467,0,0,0-.36-1.1A1.434,1.434,0,0,0,71.993,34.6Zm8.253-2.109.1,1.116a3.225,3.225,0,0,1,2.716-1.292,2.713,2.713,0,0,1,2.219.888,4.226,4.226,0,0,1,.76,2.672V42H83.067V36a1.6,1.6,0,0,0-.29-1.059,1.342,1.342,0,0,0-1.055-.338,1.413,1.413,0,0,0-1.292.686V42H77.469V32.49Zm10.881-2.364V32.49h1.564v2.057H91.127V38.9a1.111,1.111,0,0,0,.193.747,1.037,1.037,0,0,0,.765.211,4.345,4.345,0,0,0,.738-.053v2.118a5.466,5.466,0,0,1-1.67.255,3.1,3.1,0,0,1-2.259-.721,2.954,2.954,0,0,1-.729-2.188v-4.72H86.952V32.49h1.213V30.126Zm2.092,7.031a5.613,5.613,0,0,1,.554-2.536,3.96,3.96,0,0,1,1.591-1.709,4.791,4.791,0,0,1,2.435-.6,4.373,4.373,0,0,1,3.366,1.323,5.076,5.076,0,0,1,1.23,3.6v.105a4.925,4.925,0,0,1-1.235,3.529,4.384,4.384,0,0,1-3.344,1.305,4.434,4.434,0,0,1-3.261-1.217,4.761,4.761,0,0,1-1.327-3.3Zm2.962.185a3.538,3.538,0,0,0,.413,1.934,1.376,1.376,0,0,0,1.222.615q1.582,0,1.617-2.435v-.3q0-2.558-1.635-2.558-1.485,0-1.608,2.206Z" transform="translate(766.034 9027)" fill="#fff"/>
    <g id="Grupo_134451" data-name="Grupo 134451" transform="translate(52 15)">
      <circle id="Elipse_4923" data-name="Elipse 4923" cx="31.5" cy="31.5" r="31.5" transform="translate(611.256 9003)" fill="#fcd189"/>
      <g id="Grupo_134450" data-name="Grupo 134450" transform="translate(625.256 9015)">
        <g id="Grupo_134449" data-name="Grupo 134449" clip-path="url(#clip-path)">
          <path id="Trazado_127933" data-name="Trazado 127933" d="M35.629,4.828A3.093,3.093,0,0,0,32.635,2.55c-.6-.015-1.207-.009-1.81,0-.3,0-.464-.1-.44-.424a1.9,1.9,0,0,0,0-.192,1.807,1.807,0,0,0-2-1.925c-.115.009-.231,0-.347,0a1.752,1.752,0,0,0-1.6,1.276,2.287,2.287,0,0,0-.064.611c-.008.649-.008.649-.671.65H10.215c-.965,0-.848.056-.875-.837A1.721,1.721,0,0,0,7.615.009c-.167,0-.334,0-.5,0a1.682,1.682,0,0,0-1.7,1.347,3.382,3.382,0,0,0-.087.725c-.012.42-.05.458-.473.464-.6.008-1.207-.013-1.81.007A3.112,3.112,0,0,0,0,5.669C.031,15.953.016,26.238.016,36.522a2.884,2.884,0,0,0,.063.766A2.75,2.75,0,0,0,2.447,39.5H33.116a3.554,3.554,0,0,0,1.036-.246A2.885,2.885,0,0,0,35.7,36.637Q35.7,21.1,35.7,5.554a3.007,3.007,0,0,0-.073-.726m-8-2.884c.008-.525.21-.738.708-.742.523,0,.749.216.761.739.016.739.016.739-.736.739s-.744,0-.733-.736M6.621,1.932c.012-.506.235-.728.731-.73s.726.206.737.713c.017.765.017.765-.742.765s-.745,0-.726-.748M34.448,36.437a1.737,1.737,0,0,1-1.912,1.907H3.18a1.759,1.759,0,0,1-1.849-1.258.747.747,0,0,1-.022-.446,3.634,3.634,0,0,0,2.313.554q11.23-.013,22.46,0a3.51,3.51,0,0,0,2.671-1.12c1.786-1.827,3.607-3.62,5.414-5.428.07-.07.134-.147.211-.232a.378.378,0,0,1,.069.318q0,2.851,0,5.7m-6.493-1.954c0-1.168,0-2.336,0-3.5a1.318,1.318,0,0,1,1.433-1.437c1.04-.007,2.079,0,3.119,0a6.358,6.358,0,0,0,1-.033l-5.634,5.633a1.44,1.44,0,0,0,.079-.656m6.494-7.7c0,1.119-.477,1.6-1.586,1.6-1.13,0-2.26,0-3.39,0a2.483,2.483,0,0,0-2.673,2.7c0,1.169,0,2.337,0,3.506a1.322,1.322,0,0,1-1.43,1.443q-11.133,0-22.267,0A1.716,1.716,0,0,1,1.271,34.2q-.006-10.883-.008-21.766c0-.275.081-.34.345-.338,1.862.011,3.724.006,5.586,0a2.214,2.214,0,0,0,.46-.028.509.509,0,0,0,.429-.518.514.514,0,0,0-.408-.573,1.875,1.875,0,0,0-.458-.035c-1.849,0-3.7-.008-5.548.005-.3,0-.415-.048-.41-.388.021-1.6.007-3.21.01-4.815A1.749,1.749,0,0,1,3.182,3.836c.668,0,1.336.007,2-.005.214,0,.291.053.284.277-.015.475-.015.95,0,1.425a1.759,1.759,0,0,0,1.686,1.76A.571.571,0,0,0,7.8,6.774a.581.581,0,0,0-.537-.633c-.484-.089-.633-.259-.638-.744,0-.424.014-.848-.007-1.271-.012-.248.078-.3.308-.3.629.014,1.258,0,1.888,0q8.591,0,17.182-.011c.42,0,.514.126.488.51a11.069,11.069,0,0,0,.006,1.386,1.728,1.728,0,0,0,1.659,1.571.578.578,0,1,0,.115-1.15c-.5-.095-.627-.239-.632-.741,0-.437.008-.873,0-1.31-.006-.2.06-.261.262-.26,1.6.008,3.211-.009,4.815.01a1.7,1.7,0,0,1,1.743,1.766c.014,1.682-.006,3.364.013,5.047,0,.341-.182.29-.385.29H10.227c-.69,0-.985.178-.977.589s.293.567.957.567q11.9,0,23.808-.008c.35,0,.443.083.442.438q-.019,7.127-.009,14.254" transform="translate(0 0)" fill="#133d60"/>
          <path id="Trazado_127934" data-name="Trazado 127934" d="M17.063,79.279q-1.4-.044-2.807,0a1.078,1.078,0,0,0-1.092,1.11c-.017.936-.019,1.872,0,2.808a1.075,1.075,0,0,0,1.117,1.077c.462.008.923,0,1.385,0,.436,0,.872,0,1.308,0a1.105,1.105,0,0,0,1.178-1.107c.026-.922.024-1.847,0-2.769a1.093,1.093,0,0,0-1.093-1.119m-.291,3.843c-.744-.009-1.489-.01-2.233,0-.194,0-.236-.067-.231-.244.011-.372,0-.744,0-1.116s.008-.719,0-1.078c-.006-.192.042-.271.254-.268q1.1.019,2.194,0c.211,0,.258.075.256.269q-.013,1.1,0,2.194c0,.185-.055.244-.24.242" transform="translate(-9.576 -57.711)" fill="#133d60"/>
          <path id="Trazado_127935" data-name="Trazado 127935" d="M74.814,79.28c-.935-.029-1.872-.028-2.807,0a1.065,1.065,0,0,0-1.09,1.073c-.032.947-.033,1.9,0,2.845a1.079,1.079,0,0,0,1.158,1.078c.449.005.9,0,1.346,0s.872,0,1.308,0A1.094,1.094,0,0,0,75.9,83.168c.021-.923.02-1.846,0-2.769a1.083,1.083,0,0,0-1.087-1.119m-.293,3.844q-1.116-.016-2.232,0c-.189,0-.239-.064-.238-.244q.013-1.1,0-2.194c0-.194.048-.27.257-.267q1.1.018,2.194,0c.215,0,.258.082.253.271-.011.359,0,.718,0,1.078s-.009.745,0,1.116c.006.182-.043.244-.234.242" transform="translate(-51.621 -57.712)" fill="#133d60"/>
          <path id="Trazado_127936" data-name="Trazado 127936" d="M45.921,79.276q-1.384-.037-2.769,0a1.066,1.066,0,0,0-1.1,1.063q-.04,1.441,0,2.883a1.067,1.067,0,0,0,1.1,1.05c.461.009.923,0,1.385,0,.436,0,.872,0,1.308,0a1.106,1.106,0,0,0,1.188-1.135q.032-1.365,0-2.731a1.1,1.1,0,0,0-1.119-1.133M45.9,82.884c0,.187-.06.242-.242.239-.744-.008-1.488-.011-2.232,0-.2,0-.231-.073-.229-.247q.012-1.1,0-2.194c0-.195.048-.275.257-.266.359.016.718,0,1.078,0s.719.01,1.078,0c.207-.008.3.04.293.271-.013.731-.01,1.463,0,2.194" transform="translate(-30.608 -57.712)" fill="#133d60"/>
          <path id="Trazado_127937" data-name="Trazado 127937" d="M13.163,56.852A1.093,1.093,0,0,0,14.292,58q1.365.03,2.731,0A1.092,1.092,0,0,0,18.161,56.9c.025-.922.023-1.846,0-2.769a1.067,1.067,0,0,0-1.057-1.1c-.96-.033-1.923-.032-2.883,0a1.059,1.059,0,0,0-1.054,1.1c-.017.461,0,.923,0,1.385h0c0,.449-.01.9,0,1.346m1.149-2.434c0-.2.058-.271.262-.263.358.014.717,0,1.076,0s.718.009,1.076,0c.205-.007.3.041.293.273q-.021,1.076,0,2.152c0,.224-.074.283-.287.28-.717-.011-1.435-.01-2.152,0-.191,0-.271-.04-.267-.251.012-.73.011-1.46,0-2.19" transform="translate(-9.58 -38.591)" fill="#133d60"/>
          <path id="Trazado_127938" data-name="Trazado 127938" d="M43.249,58c.423.008.846,0,1.269,0,.449,0,.9.011,1.346,0a1.112,1.112,0,0,0,1.166-1.163c.018-.884.016-1.769,0-2.654A1.11,1.11,0,0,0,45.847,53q-1.326-.027-2.654,0a1.1,1.1,0,0,0-1.161,1.162q-.027,1.326,0,2.654A1.117,1.117,0,0,0,43.249,58m-.071-3.6c0-.206.072-.262.268-.259.717.009,1.434.01,2.151,0,.213,0,.3.054.287.279-.016.358,0,.717,0,1.075s-.01.692,0,1.037c.009.219-.036.322-.289.317-.717-.016-1.434-.012-2.15,0-.2,0-.269-.05-.266-.257q.017-1.094,0-2.189" transform="translate(-30.596 -38.582)" fill="#133d60"/>
          <path id="Trazado_127939" data-name="Trazado 127939" d="M72.072,58q1.326.022,2.654,0A1.113,1.113,0,0,0,75.9,56.805c.01-.423,0-.846,0-1.269,0-.449.008-.9,0-1.346A1.111,1.111,0,0,0,74.723,53q-1.326-.029-2.654,0A1.1,1.1,0,0,0,70.9,54.155q-.035,1.345,0,2.692A1.1,1.1,0,0,0,72.072,58m-.029-3.6c0-.178.05-.25.238-.248q1.114.012,2.227,0c.19,0,.241.073.237.25-.009.384,0,.768,0,1.152,0,.346-.009.692,0,1.037.007.2-.048.27-.256.266q-1.094-.017-2.189,0c-.206,0-.263-.07-.26-.267.009-.73.008-1.459,0-2.189" transform="translate(-51.612 -38.581)" fill="#133d60"/>
          <path id="Trazado_127940" data-name="Trazado 127940" d="M100.882,58q1.4.035,2.807,0a1.087,1.087,0,0,0,1.1-1.136c.012-.448,0-.9,0-1.346s.008-.9,0-1.346a1.077,1.077,0,0,0-1.081-1.156c-.947-.031-1.9-.029-2.845,0a1.024,1.024,0,0,0-1.054,1.016c-.039.985-.039,1.974,0,2.959A1.03,1.03,0,0,0,100.882,58m.059-3.59c0-.173.038-.256.232-.254q1.114.012,2.229,0c.184,0,.247.059.242.242-.011.371,0,.743,0,1.114s-.008.718,0,1.076c.006.185-.027.276-.246.273-.73-.013-1.46-.01-2.19,0-.2,0-.271-.052-.268-.259.011-.73.008-1.46,0-2.19" transform="translate(-72.659 -38.587)" fill="#133d60"/>
          <path id="Trazado_127941" data-name="Trazado 127941" d="M104.778,81.085a1.079,1.079,0,0,0-1.092-1.146c-.935-.03-1.872-.028-2.807,0a1.055,1.055,0,0,0-1.091,1.069c-.034.947-.035,1.9,0,2.845a1.068,1.068,0,0,0,1.126,1.075q1.365.028,2.73,0a1.1,1.1,0,0,0,1.133-1.15c.011-.448,0-.9,0-1.346s.009-.9,0-1.346m-1.4,2.7c-.371-.016-.743,0-1.114,0s-.718-.01-1.076,0c-.206.008-.262-.071-.259-.268q.014-1.1,0-2.19c0-.183.058-.247.241-.245.743.007,1.486.008,2.228,0,.194,0,.235.078.234.251-.007.73-.009,1.46,0,2.19,0,.2-.047.273-.256.264" transform="translate(-72.643 -58.192)" fill="#133d60"/>
          <path id="Trazado_127942" data-name="Trazado 127942" d="M17.01,105.608c-.911-.011-1.821-.013-2.732,0a1.079,1.079,0,0,0-1.112,1.086q-.031,1.4,0,2.809a1.1,1.1,0,0,0,1.134,1.107c.449.009.9,0,1.347,0s.9.006,1.347,0a1.1,1.1,0,0,0,1.155-1.052c.036-.973.037-1.95,0-2.923a1.08,1.08,0,0,0-1.134-1.029m0,3.612c0,.183-.051.243-.238.241q-1.114-.014-2.229,0c-.183,0-.245-.045-.238-.235.015-.384,0-.769,0-1.237.033-.345-.185-.921.08-1.162.235-.213.8-.062,1.223-.066.384,0,.769.007,1.153,0,.178,0,.247.042.245.234q-.015,1.114,0,2.229" transform="translate(-9.576 -76.892)" fill="#133d60"/>
          <path id="Trazado_127943" data-name="Trazado 127943" d="M45.871,105.607q-1.346-.015-2.693,0a1.085,1.085,0,0,0-1.136,1.1q-.035,1.4,0,2.808a1.092,1.092,0,0,0,1.15,1.091c.436.007.872,0,1.308,0s.9,0,1.347,0a1.119,1.119,0,0,0,1.184-1.146c.02-.91.022-1.821,0-2.732a1.106,1.106,0,0,0-1.161-1.127m.017,3.616c0,.186-.057.24-.24.238q-1.115-.014-2.229,0c-.189,0-.238-.054-.235-.238q.015-1.114,0-2.229c0-.183.044-.247.234-.239.371.015.743,0,1.115,0s.744.009,1.115,0c.183-.006.244.05.241.237q-.014,1.115,0,2.229" transform="translate(-30.601 -76.892)" fill="#133d60"/>
          <path id="Trazado_127944" data-name="Trazado 127944" d="M75.883,108.146c0-.487.018-.976,0-1.462a1.087,1.087,0,0,0-1.089-1.074c-.936-.017-1.873-.015-2.809,0a1.091,1.091,0,0,0-1.056.849,3.538,3.538,0,0,0-.024,1.149.565.565,0,0,0,1.12-.023,3.186,3.186,0,0,0,.01-.576c-.016-.21.069-.257.264-.254.731.01,1.463.014,2.193,0,.219,0,.249.081.247.266-.008.731-.011,1.462,0,2.193,0,.214-.077.25-.265.247-.731-.009-1.462-.007-2.194,0a.262.262,0,0,1-.3-.2.522.522,0,0,0-.693-.318.548.548,0,0,0-.391.627,1.117,1.117,0,0,0,1.125,1.042c.885.011,1.77.007,2.655,0a1.127,1.127,0,0,0,1.211-1.2c.01-.423,0-.847,0-1.27Z" transform="translate(-51.601 -76.891)" fill="#133d60"/>
        </g>
      </g>
    </g>
  </g>
</svg>
