<svg xmlns="http://www.w3.org/2000/svg" xmlns:xlink="http://www.w3.org/1999/xlink" width="295" height="79" viewBox="0 0 295 79">
  <defs>
    <clipPath id="clip-path">
      <rect id="Rect치ngulo_36062" data-name="Rect치ngulo 36062" width="44.103" height="46.052" fill="#133d60"/>
    </clipPath>
  </defs>
  <g id="Grupo_134523" data-name="Grupo 134523" transform="translate(-967.256 -9010)">
    <rect id="Rect치ngulo_35945" data-name="Rect치ngulo 35945" width="295" height="79" rx="39.5" transform="translate(967.256 9010)" fill="#133d60"/>
    <path id="Trazado_128103" data-name="Trazado 128103" d="M13.679,14.627h5.37V17H10.594V4.2h3.085ZM25.571,17a3.344,3.344,0,0,1-.281-.853A2.754,2.754,0,0,1,23,17.176a3.374,3.374,0,0,1-2.285-.813,2.588,2.588,0,0,1-.94-2.043,2.66,2.66,0,0,1,1.143-2.338,5.821,5.821,0,0,1,3.322-.791h.914v-.5q0-1.316-1.134-1.316a.927.927,0,0,0-1.055,1.042H20.007a2.655,2.655,0,0,1,1.173-2.239,4.931,4.931,0,0,1,2.993-.86,4.323,4.323,0,0,1,2.874.888,3.086,3.086,0,0,1,1.081,2.435v4.21a4.311,4.311,0,0,0,.4,2V17Zm-1.854-1.934a1.652,1.652,0,0,0,.918-.237,1.487,1.487,0,0,0,.523-.536V12.772H24.3q-1.547,0-1.547,1.389a.848.848,0,0,0,.272.655A.986.986,0,0,0,23.716,15.066Zm14.555-.176a1.317,1.317,0,0,0,.967-.338,1.241,1.241,0,0,0,.334-.945h2.777a3.288,3.288,0,0,1-1.121,2.566,4.168,4.168,0,0,1-2.887,1,4.22,4.22,0,0,1-3.27-1.3,5.125,5.125,0,0,1-1.2-3.6v-.123A5.792,5.792,0,0,1,34.408,9.6a3.872,3.872,0,0,1,1.534-1.7,4.573,4.573,0,0,1,2.373-.593,4.116,4.116,0,0,1,2.944,1.028,3.647,3.647,0,0,1,1.09,2.786H39.572A1.626,1.626,0,0,0,39.211,10a1.244,1.244,0,0,0-.967-.4q-1.151,0-1.345,1.468a10.357,10.357,0,0,0-.062,1.283,4.068,4.068,0,0,0,.343,1.986A1.187,1.187,0,0,0,38.271,14.891Zm4.957-2.733a5.613,5.613,0,0,1,.554-2.536,3.96,3.96,0,0,1,1.591-1.709,4.791,4.791,0,0,1,2.435-.6,4.373,4.373,0,0,1,3.366,1.323,5.076,5.076,0,0,1,1.23,3.6v.105a4.925,4.925,0,0,1-1.235,3.529,4.384,4.384,0,0,1-3.344,1.305,4.434,4.434,0,0,1-3.261-1.217,4.761,4.761,0,0,1-1.327-3.3Zm2.962.185a3.538,3.538,0,0,0,.413,1.934,1.376,1.376,0,0,0,1.222.615q1.582,0,1.617-2.435v-.3q0-2.558-1.635-2.558-1.485,0-1.608,2.206ZM56.429,7.49l.1,1.116a3.225,3.225,0,0,1,2.716-1.292,2.713,2.713,0,0,1,2.219.888,4.226,4.226,0,0,1,.76,2.672V17H59.25V11a1.6,1.6,0,0,0-.29-1.059A1.342,1.342,0,0,0,57.906,9.6a1.413,1.413,0,0,0-1.292.686V17H53.652V7.49Zm12.41,6.838a.684.684,0,0,0-.4-.606,6.016,6.016,0,0,0-1.5-.475,6.853,6.853,0,0,1-1.828-.646,3.062,3.062,0,0,1-1.1-.971,2.319,2.319,0,0,1-.378-1.31,2.628,2.628,0,0,1,1.081-2.158,4.453,4.453,0,0,1,2.83-.848,4.934,4.934,0,0,1,3.023.853,2.666,2.666,0,0,1,1.143,2.241H68.743q0-1.143-1.2-1.143a1.194,1.194,0,0,0-.782.259.8.8,0,0,0-.316.646.737.737,0,0,0,.387.642,3.654,3.654,0,0,0,1.235.4,10.671,10.671,0,0,1,1.49.378A2.706,2.706,0,0,1,71.7,14.24a2.491,2.491,0,0,1-1.156,2.118,5.068,5.068,0,0,1-2.993.817,5.172,5.172,0,0,1-2.18-.439,3.645,3.645,0,0,1-1.494-1.2,2.707,2.707,0,0,1-.536-1.591h2.769a1.145,1.145,0,0,0,.439.962,1.808,1.808,0,0,0,1.081.3,1.422,1.422,0,0,0,.91-.246A.787.787,0,0,0,68.839,14.328Zm9.905,1.644a3.054,3.054,0,0,1-2.54,1.2,3,3,0,0,1-2.369-.91,3.826,3.826,0,0,1-.8-2.615V7.49h2.962v6.179a1.065,1.065,0,0,0,1.187,1.222,1.548,1.548,0,0,0,1.45-.729V7.49H81.61V17H78.833ZM86.031,7.49l.1,1.116a3.27,3.27,0,0,1,2.716-1.292,2.407,2.407,0,0,1,2.435,1.433,3.165,3.165,0,0,1,2.795-1.433q2.892,0,2.971,3.5V17H94.073V11a1.813,1.813,0,0,0-.246-1.063,1.048,1.048,0,0,0-.9-.334,1.4,1.4,0,0,0-1.31.782l.009.123V17H88.659V11.015a1.906,1.906,0,0,0-.237-1.081,1.045,1.045,0,0,0-.905-.334,1.42,1.42,0,0,0-1.3.782V17H83.253V7.49ZM104.092,17a3.344,3.344,0,0,1-.281-.853,2.754,2.754,0,0,1-2.285,1.028,3.374,3.374,0,0,1-2.285-.813,2.588,2.588,0,0,1-.94-2.043,2.66,2.66,0,0,1,1.143-2.338,5.821,5.821,0,0,1,3.322-.791h.914v-.5q0-1.316-1.134-1.316a.927.927,0,0,0-1.055,1.042H98.529A2.655,2.655,0,0,1,99.7,8.175a4.931,4.931,0,0,1,2.993-.86,4.323,4.323,0,0,1,2.874.888,3.086,3.086,0,0,1,1.081,2.435v4.21a4.311,4.311,0,0,0,.4,2V17Zm-1.854-1.934a1.652,1.652,0,0,0,.918-.237,1.487,1.487,0,0,0,.523-.536V12.772h-.861q-1.547,0-1.547,1.389a.848.848,0,0,0,.272.655A.986.986,0,0,0,102.238,15.066Zm10.072-.176a1.317,1.317,0,0,0,.967-.338,1.241,1.241,0,0,0,.334-.945h2.777a3.288,3.288,0,0,1-1.121,2.566,4.168,4.168,0,0,1-2.887,1,4.22,4.22,0,0,1-3.27-1.3,5.125,5.125,0,0,1-1.2-3.6v-.123a5.792,5.792,0,0,1,.532-2.544,3.872,3.872,0,0,1,1.534-1.7,4.573,4.573,0,0,1,2.373-.593A4.116,4.116,0,0,1,115.3,8.343a3.647,3.647,0,0,1,1.09,2.786h-2.777A1.626,1.626,0,0,0,113.25,10a1.244,1.244,0,0,0-.967-.4q-1.151,0-1.345,1.468a10.357,10.357,0,0,0-.062,1.283,4.068,4.068,0,0,0,.343,1.986A1.187,1.187,0,0,0,112.31,14.891ZM120.765,17h-2.971V7.49h2.971ZM117.619,5.029a1.334,1.334,0,0,1,.457-1.043,1.934,1.934,0,0,1,2.373,0,1.334,1.334,0,0,1,.457,1.043,1.334,1.334,0,0,1-.457,1.043,1.934,1.934,0,0,1-2.373,0A1.334,1.334,0,0,1,117.619,5.029Zm4.6,7.128a5.613,5.613,0,0,1,.554-2.536,3.96,3.96,0,0,1,1.591-1.709,4.791,4.791,0,0,1,2.435-.6,4.373,4.373,0,0,1,3.366,1.323,5.076,5.076,0,0,1,1.23,3.6v.105a4.925,4.925,0,0,1-1.235,3.529,4.384,4.384,0,0,1-3.344,1.305,4.434,4.434,0,0,1-3.261-1.217,4.761,4.761,0,0,1-1.327-3.3Zm2.962.185a3.538,3.538,0,0,0,.413,1.934,1.376,1.376,0,0,0,1.222.615q1.582,0,1.617-2.435v-.3q0-2.558-1.635-2.558-1.485,0-1.608,2.206ZM127.2,3.5h3.129l-2.443,2.76-2.417,0Zm8.218,3.99.1,1.116a3.225,3.225,0,0,1,2.716-1.292,2.713,2.713,0,0,1,2.219.888,4.226,4.226,0,0,1,.76,2.672V17h-2.971V11a1.6,1.6,0,0,0-.29-1.059,1.342,1.342,0,0,0-1.055-.338,1.413,1.413,0,0,0-1.292.686V17h-2.962V7.49Zm11.54,4.685a5.809,5.809,0,0,1,.976-3.56,3.211,3.211,0,0,1,2.725-1.3,2.731,2.731,0,0,1,2.145,1V3.5h2.971V17h-2.663l-.149-1.02a2.8,2.8,0,0,1-2.32,1.2,3.205,3.205,0,0,1-2.689-1.3A5.993,5.993,0,0,1,146.957,12.175Zm2.962.185q0,2.531,1.477,2.531a1.458,1.458,0,0,0,1.406-.826V10.443a1.419,1.419,0,0,0-1.389-.844q-1.371,0-1.485,2.215Zm12.138,4.816a4.889,4.889,0,0,1-3.542-1.305,4.507,4.507,0,0,1-1.354-3.4v-.246a5.84,5.84,0,0,1,.541-2.575,3.955,3.955,0,0,1,1.578-1.727,4.763,4.763,0,0,1,2.461-.611A4.117,4.117,0,0,1,164.9,8.558a4.887,4.887,0,0,1,1.16,3.467v1.151h-5.889a2.135,2.135,0,0,0,.694,1.257,2.066,2.066,0,0,0,1.389.457,2.662,2.662,0,0,0,2.2-.984l1.354,1.6a3.784,3.784,0,0,1-1.569,1.217A5.3,5.3,0,0,1,162.056,17.176ZM161.722,9.6q-1.3,0-1.547,1.723h2.988v-.229a1.467,1.467,0,0,0-.36-1.1A1.434,1.434,0,0,0,161.722,9.6Zm8.657,7.4h-2.971V3.5h2.971ZM38.047,33.51a3.251,3.251,0,0,1,4.8-.264A4.186,4.186,0,0,1,43.663,36v6H40.692V36.067a1.674,1.674,0,0,0-.308-1.112,1.322,1.322,0,0,0-1.046-.356,1.424,1.424,0,0,0-1.292.58V42H35.085V28.5h2.962Zm11.865,8.666a4.889,4.889,0,0,1-3.542-1.305,4.507,4.507,0,0,1-1.354-3.4v-.246a5.84,5.84,0,0,1,.541-2.575,3.955,3.955,0,0,1,1.578-1.727,4.763,4.763,0,0,1,2.461-.611,4.117,4.117,0,0,1,3.164,1.244,4.887,4.887,0,0,1,1.16,3.467v1.151H48.031a2.135,2.135,0,0,0,.694,1.257,2.066,2.066,0,0,0,1.389.457,2.662,2.662,0,0,0,2.2-.984l1.354,1.6A3.784,3.784,0,0,1,52.1,41.723,5.3,5.3,0,0,1,49.912,42.176ZM49.578,34.6q-1.3,0-1.547,1.723H51.02v-.229a1.467,1.467,0,0,0-.36-1.1A1.434,1.434,0,0,0,49.578,34.6Zm9.554,5.291a1.317,1.317,0,0,0,.967-.338,1.241,1.241,0,0,0,.334-.945H63.21a3.288,3.288,0,0,1-1.121,2.566,4.168,4.168,0,0,1-2.887,1,4.22,4.22,0,0,1-3.27-1.3,5.125,5.125,0,0,1-1.2-3.6v-.123a5.792,5.792,0,0,1,.532-2.544,3.872,3.872,0,0,1,1.534-1.7,4.573,4.573,0,0,1,2.373-.593,4.116,4.116,0,0,1,2.944,1.028,3.647,3.647,0,0,1,1.09,2.786H60.433A1.626,1.626,0,0,0,60.072,35a1.244,1.244,0,0,0-.967-.4q-1.151,0-1.345,1.468a10.357,10.357,0,0,0-.062,1.283,4.068,4.068,0,0,0,.343,1.986A1.187,1.187,0,0,0,59.132,39.891Zm8.227-6.381a3.251,3.251,0,0,1,4.8-.264A4.186,4.186,0,0,1,72.975,36v6H70V36.067a1.674,1.674,0,0,0-.308-1.112A1.322,1.322,0,0,0,68.65,34.6a1.424,1.424,0,0,0-1.292.58V42H64.4V28.5h2.962Zm6.891,3.647a5.613,5.613,0,0,1,.554-2.536,3.96,3.96,0,0,1,1.591-1.709,4.791,4.791,0,0,1,2.435-.6,4.373,4.373,0,0,1,3.366,1.323,5.076,5.076,0,0,1,1.23,3.6v.105a4.925,4.925,0,0,1-1.235,3.529,4.384,4.384,0,0,1-3.344,1.305,4.434,4.434,0,0,1-3.261-1.217,4.761,4.761,0,0,1-1.327-3.3Zm2.962.185a3.538,3.538,0,0,0,.413,1.934,1.376,1.376,0,0,0,1.222.615q1.582,0,1.617-2.435v-.3q0-2.558-1.635-2.558-1.485,0-1.608,2.206Zm16.98,1.986a.684.684,0,0,0-.4-.606,6.016,6.016,0,0,0-1.5-.475,6.853,6.853,0,0,1-1.828-.646,3.062,3.062,0,0,1-1.1-.971,2.319,2.319,0,0,1-.378-1.31,2.628,2.628,0,0,1,1.081-2.158,4.453,4.453,0,0,1,2.83-.848,4.934,4.934,0,0,1,3.023.853,2.666,2.666,0,0,1,1.143,2.241H94.095q0-1.143-1.2-1.143a1.194,1.194,0,0,0-.782.259.8.8,0,0,0-.316.646.737.737,0,0,0,.387.642,3.654,3.654,0,0,0,1.235.4,10.671,10.671,0,0,1,1.49.378,2.706,2.706,0,0,1,2.145,2.646,2.491,2.491,0,0,1-1.156,2.118,5.068,5.068,0,0,1-2.993.817,5.172,5.172,0,0,1-2.18-.439,3.645,3.645,0,0,1-1.494-1.2,2.707,2.707,0,0,1-.536-1.591h2.769a1.145,1.145,0,0,0,.439.962,1.808,1.808,0,0,0,1.081.3,1.422,1.422,0,0,0,.91-.246A.787.787,0,0,0,94.191,39.328Zm9.905,1.644a3.054,3.054,0,0,1-2.54,1.2,3,3,0,0,1-2.369-.91,3.826,3.826,0,0,1-.8-2.615V32.49h2.962v6.179a1.065,1.065,0,0,0,1.187,1.222,1.548,1.548,0,0,0,1.45-.729V32.49h2.979V42h-2.777ZM111.708,42h-2.971V32.49h2.971Zm-3.146-11.971a1.334,1.334,0,0,1,.457-1.043,1.934,1.934,0,0,1,2.373,0,1.42,1.42,0,0,1,0,2.087,1.934,1.934,0,0,1-2.373,0A1.334,1.334,0,0,1,108.562,30.029Zm8.991,9.861a1.317,1.317,0,0,0,.967-.338,1.241,1.241,0,0,0,.334-.945h2.777a3.288,3.288,0,0,1-1.121,2.566,4.168,4.168,0,0,1-2.887,1,4.22,4.22,0,0,1-3.27-1.3,5.125,5.125,0,0,1-1.2-3.6v-.123a5.792,5.792,0,0,1,.532-2.544,3.872,3.872,0,0,1,1.534-1.7,4.573,4.573,0,0,1,2.373-.593,4.116,4.116,0,0,1,2.944,1.028,3.647,3.647,0,0,1,1.09,2.786h-2.777a1.626,1.626,0,0,0-.36-1.134,1.244,1.244,0,0,0-.967-.4q-1.151,0-1.345,1.468a10.357,10.357,0,0,0-.062,1.283,4.068,4.068,0,0,0,.343,1.986A1.187,1.187,0,0,0,117.553,39.891ZM126.008,42h-2.971V32.49h2.971Zm-3.146-11.971a1.334,1.334,0,0,1,.457-1.043,1.934,1.934,0,0,1,2.373,0,1.42,1.42,0,0,1,0,2.087,1.934,1.934,0,0,1-2.373,0A1.334,1.334,0,0,1,122.861,30.029Zm4.6,7.146a5.809,5.809,0,0,1,.976-3.56,3.211,3.211,0,0,1,2.725-1.3,2.731,2.731,0,0,1,2.145,1V28.5h2.971V42H133.61l-.149-1.02a2.8,2.8,0,0,1-2.32,1.2,3.205,3.205,0,0,1-2.689-1.3A5.993,5.993,0,0,1,127.458,37.175Zm2.962.185q0,2.531,1.477,2.531a1.458,1.458,0,0,0,1.406-.826V35.443a1.419,1.419,0,0,0-1.389-.844q-1.371,0-1.485,2.215ZM143.313,42a3.344,3.344,0,0,1-.281-.853,2.754,2.754,0,0,1-2.285,1.028,3.374,3.374,0,0,1-2.285-.813,2.588,2.588,0,0,1-.94-2.043,2.66,2.66,0,0,1,1.143-2.338,5.821,5.821,0,0,1,3.322-.791h.914v-.5q0-1.316-1.134-1.316a.927.927,0,0,0-1.055,1.042H137.75a2.655,2.655,0,0,1,1.173-2.239,4.931,4.931,0,0,1,2.993-.86,4.323,4.323,0,0,1,2.874.888,3.086,3.086,0,0,1,1.081,2.435v4.21a4.311,4.311,0,0,0,.4,2V42Zm-1.854-1.934a1.652,1.652,0,0,0,.918-.237,1.487,1.487,0,0,0,.523-.536V37.772h-.861q-1.547,0-1.547,1.389a.848.848,0,0,0,.272.655A.986.986,0,0,0,141.459,40.066Z" transform="translate(1052 9027)" fill="#fff"/>
    <g id="Grupo_134454" data-name="Grupo 134454" transform="translate(26 12)">
      <circle id="Elipse_4924" data-name="Elipse 4924" cx="31.5" cy="31.5" r="31.5" transform="translate(949.256 9006)" fill="#fcd189"/>
      <g id="Grupo_134453" data-name="Grupo 134453" transform="translate(958.256 9014)">
        <g id="Grupo_134452" data-name="Grupo 134452" clip-path="url(#clip-path)">
          <path id="Trazado_127945" data-name="Trazado 127945" d="M115.347,132.78a10.361,10.361,0,0,1-1.822-.807,4.044,4.044,0,0,1-1.358-5.03,4.131,4.131,0,1,1,4.551,5.757,1.148,1.148,0,0,0-.2.08Zm3.365-4.084a2.781,2.781,0,1,0-2.855,2.733,2.781,2.781,0,0,0,2.855-2.733" transform="translate(-77.871 -86.728)" fill="#133d60"/>
          <path id="Trazado_127946" data-name="Trazado 127946" d="M10.547,11.259c.552-1.111,1.092-2.189,1.614-3.276a.417.417,0,0,0-.1-.339c-.321-.4-.665-.772-.992-1.162a3.786,3.786,0,0,1-.409-4.436c.118-.208.259-.405.362-.62a2.811,2.811,0,0,1,4.826-.1c.421.773.951,1.485,1.458,2.267a11.918,11.918,0,0,1,9.487,0A15.092,15.092,0,0,0,27.99,1.729a2.913,2.913,0,0,1,5.373.122,4.641,4.641,0,0,1,.5,3.022,4.416,4.416,0,0,1-1.131,1.962c-.291.32-.731.639-.783,1-.048.331.361.715.531,1.092.343.761.661,1.534,1.014,2.359a5.27,5.27,0,0,1,6.054,5.338c2.724.607,4.436,2.215,4.544,5.064.1,2.638-1.347,4.336-3.788,5.215a5.282,5.282,0,0,1-7.01,6.2c-.045.12-.095.24-.136.362a5.2,5.2,0,0,1-6.007,3.46.438.438,0,0,0-.57.235,5.2,5.2,0,0,1-9-.025c-.1-.166-.157-.334-.434-.26a5.215,5.215,0,0,1-6.3-3.68c-.007-.026-.032-.048-.065-.1a5.123,5.123,0,0,1-5.356-.983,5.14,5.14,0,0,1-1.621-5.2c-2.6-.954-4.053-2.788-3.781-5.6.257-2.644,1.94-4.138,4.5-4.679a5.307,5.307,0,0,1,6.016-5.384m-.27,1.386a3.836,3.836,0,0,0-4.33,4.313c.111.747-.112,1.01-.882,1.036a3.856,3.856,0,0,0-.518,7.658c.832.14,1.005.442.712,1.244a3.734,3.734,0,0,0,.087,2.886,3.86,3.86,0,0,0,5.482,1.786c.7-.385,1.127-.172,1.213.6A3.861,3.861,0,0,0,17.355,35.4c.593-.223.887-.114,1.109.434a3.709,3.709,0,0,0,3.619,2.539,3.707,3.707,0,0,0,3.639-2.51.705.705,0,0,1,1.037-.458,3.871,3.871,0,0,0,5.332-3.335.9.9,0,0,1,.445-.634,1.122,1.122,0,0,1,.785.163,3.871,3.871,0,0,0,5.5-4.8c-.255-.678-.053-1.019.66-1.141.118-.02.238-.031.354-.06a3.859,3.859,0,0,0-.8-7.609c-.765-.025-.987-.289-.875-1.041a3.875,3.875,0,0,0-2.172-3.985,3.638,3.638,0,0,0-2.272-.311c.012.123.025.211.028.3.028.868.073,1.735.073,2.6a.62.62,0,0,1-.659.649.646.646,0,0,1-.665-.649c-.019-.193,0-.39-.012-.584a20.136,20.136,0,0,0-.192-2.5,10.416,10.416,0,0,0-20.521.235c-.123.886-.081,1.793-.16,2.687a1.132,1.132,0,0,1-.322.729c-.428.342-.993-.01-1.006-.614-.02-.94-.005-1.882-.005-2.864m5.772-8.516c-.465-.716-.942-1.477-1.444-2.221a1.431,1.431,0,0,0-2.062-.243,3.589,3.589,0,0,0-1.055,2.227c-.062,1.283.886,1.977,1.538,2.773l3.024-2.536M31.124,6.7a13.033,13.033,0,0,0,1.264-1.717c.649-1.243-.048-2.494-.886-3.366a1.4,1.4,0,0,0-1.91.182c-.551.779-1.05,1.594-1.532,2.333L31.124,6.7" transform="translate(0 -0.001)" fill="#133d60"/>
          <path id="Trazado_127947" data-name="Trazado 127947" d="M41.1,66.559c-.7,0-1.385-.032-2.068.006a2.553,2.553,0,0,1-2.839-2.775c.018-.27-.067-.39-.349-.451A2.411,2.411,0,0,1,33.86,61a7.29,7.29,0,0,1,.006-.942.615.615,0,0,1,.64-.62.632.632,0,0,1,.681.626c.022.223.01.449.014.673a1.173,1.173,0,0,0,1.328,1.325c1.243.005,2.487,0,3.73,0a2.019,2.019,0,0,1,2.224,2.187c.009.779,0,1.558,0,2.336a1.169,1.169,0,0,0,1.332,1.319q1.82.008,3.64,0a1.16,1.16,0,0,0,1.317-1.29c.011-.793,0-1.587,0-2.381a2.014,2.014,0,0,1,2.194-2.171c1.243,0,2.486,0,3.73,0a1.182,1.182,0,0,0,1.358-1.341,6.3,6.3,0,0,1,.026-.762.656.656,0,0,1,1.3.005c.145,1.415-.08,2.948-2.046,3.412a.466.466,0,0,0-.256.322c-.061.336-.026.693-.11,1.022a2.454,2.454,0,0,1-2.425,1.835c-.791.014-1.582,0-2.382,0-.044.306-.06.576-.125.834a2.447,2.447,0,0,1-2.367,1.855c-1.362.025-2.726.028-4.089,0a2.447,2.447,0,0,1-2.438-2.294c-.012-.117-.03-.234-.051-.394m.009-1.358c.011-.175.025-.293.025-.411,0-.24.011-.48-.009-.718a.642.642,0,0,0-.7-.655c-.449-.012-.9,0-1.348,0H37.54c0,.233,0,.4,0,.56A1.11,1.11,0,0,0,38.6,65.192c.819.039,1.641.009,2.511.009M53.68,63.418c-1,0-1.973-.024-2.942.02a.727.727,0,0,0-.539.43,7.489,7.489,0,0,0-.025,1.342h2.012c1.238,0,1.665-.495,1.494-1.792" transform="translate(-23.577 -41.377)" fill="#133d60"/>
          <path id="Trazado_127948" data-name="Trazado 127948" d="M45.629,43.792a11.28,11.28,0,0,1,.627-1.737,1.062,1.062,0,0,1,1.5-.463q1.8.692,3.6,1.387c.582.225.693.4.679,1.006a3.14,3.14,0,1,1-6.279-.15l-.124-.043m1.594-.954a9.914,9.914,0,0,0-.1,1.246,1.7,1.7,0,0,0,1.227,1.551,1.715,1.715,0,0,0,1.879-.508c.6-.649.538-.927-.262-1.236-.874-.338-1.749-.672-2.74-1.053" transform="translate(-31.784 -28.882)" fill="#133d60"/>
          <path id="Trazado_127949" data-name="Trazado 127949" d="M84.911,43.837a3.14,3.14,0,0,1-6.276.2c-.024-.649.082-.815.678-1.046q1.8-.7,3.6-1.391a1.079,1.079,0,0,1,1.527.5,10.963,10.963,0,0,1,.593,1.705l-.117.039m-1.582-.952c-1.013.388-2,.779-2.993,1.139-.326.118-.359.27-.239.565a1.805,1.805,0,0,0,2.416.977,1.923,1.923,0,0,0,.816-2.681" transform="translate(-54.772 -28.885)" fill="#133d60"/>
          <path id="Trazado_127950" data-name="Trazado 127950" d="M69.111,62.063a3.928,3.928,0,0,1-.893-.016c-.235-.056-.552-.211-.622-.4a1.064,1.064,0,0,1,.149-.765,2.808,2.808,0,0,1,.58-.619,1.093,1.093,0,0,1,1.571-.02,2.867,2.867,0,0,1,.611.651,1.036,1.036,0,0,1,.132.769c-.075.188-.4.332-.634.386a4.04,4.04,0,0,1-.894.015" transform="translate(-47.066 -41.737)" fill="#133d60"/>
          <path id="Trazado_127951" data-name="Trazado 127951" d="M67.339,74.819c0,.254.017.509,0,.761a.644.644,0,0,1-.687.621.615.615,0,0,1-.642-.617c-.029-.536-.025-1.076,0-1.612a.666.666,0,0,1,1.329,0c.025.282,0,.567,0,.851" transform="translate(-45.964 -51.086)" fill="#133d60"/>
          <path id="Trazado_127952" data-name="Trazado 127952" d="M74.9,74.774c0-.269-.019-.54,0-.806a.666.666,0,0,1,1.33,0c.024.537.024,1.076,0,1.613a.666.666,0,0,1-1.328,0c-.027-.266-.005-.537-.005-.806" transform="translate(-52.168 -51.086)" fill="#133d60"/>
        </g>
      </g>
    </g>
  </g>
</svg>
