<svg xmlns="http://www.w3.org/2000/svg" xmlns:xlink="http://www.w3.org/1999/xlink" width="295" height="135" viewBox="0 0 295 135">
  <defs>
    <clipPath id="clip-path">
      <rect id="Rect치ngulo_36068" data-name="Rect치ngulo 36068" width="43.073" height="43" fill="#133d60"/>
    </clipPath>
  </defs>
  <g id="Grupo_134526" data-name="Grupo 134526" transform="translate(-810.256 -9975)">
    <rect id="Rect치ngulo_36091" data-name="Rect치ngulo 36091" width="271" height="135" rx="13" transform="translate(834.256 9975)" fill="#133d60"/>
    <path id="Trazado_128106" data-name="Trazado 128106" d="M41.07,12.023H36.3L35.234,15H33.688L38.031,3.625h1.313L43.7,15H42.156ZM36.758,10.8h3.867l-1.937-5.32Zm10.07-6.3V6.547h1.578V7.664H46.828v5.249a1.173,1.173,0,0,0,.211.763.888.888,0,0,0,.719.254,3.5,3.5,0,0,0,.688-.094V15a4.215,4.215,0,0,1-1.109.155,1.8,1.8,0,0,1-1.461-.586,2.517,2.517,0,0,1-.492-1.664V7.664H43.844V6.547h1.539V4.5ZM53.6,15.156a3.693,3.693,0,0,1-2.8-1.129,4.19,4.19,0,0,1-1.078-3.02v-.266a5.073,5.073,0,0,1,.48-2.246,3.748,3.748,0,0,1,1.344-1.547,3.378,3.378,0,0,1,1.871-.559,3.166,3.166,0,0,1,2.563,1.086,4.7,4.7,0,0,1,.914,3.109v.6H51.172a3,3,0,0,0,.73,2.02,2.3,2.3,0,0,0,1.777.77,2.517,2.517,0,0,0,1.3-.312,3.259,3.259,0,0,0,.93-.828l.883.688A3.55,3.55,0,0,1,53.6,15.156Zm-.18-7.578a1.928,1.928,0,0,0-1.469.637A3.1,3.1,0,0,0,51.219,10h4.234V9.891a2.753,2.753,0,0,0-.594-1.707A1.815,1.815,0,0,0,53.422,7.578Zm6.516-1.031.047,1.063a3.08,3.08,0,0,1,2.531-1.219q2.68,0,2.7,3.023V15H63.773V9.406a1.946,1.946,0,0,0-.418-1.352,1.675,1.675,0,0,0-1.277-.437,2.086,2.086,0,0,0-1.234.375,2.546,2.546,0,0,0-.828.984V15H58.57V6.547Zm10.852,7.43a2.082,2.082,0,0,0,1.352-.469,1.649,1.649,0,0,0,.641-1.172h1.367a2.621,2.621,0,0,1-.5,1.383,3.293,3.293,0,0,1-1.23,1.047,3.55,3.55,0,0,1-1.629.391A3.482,3.482,0,0,1,68.043,14a4.59,4.59,0,0,1-1.02-3.152v-.242a5.089,5.089,0,0,1,.453-2.2,3.451,3.451,0,0,1,1.3-1.492,3.7,3.7,0,0,1,2-.531,3.39,3.39,0,0,1,2.363.852,3.043,3.043,0,0,1,1,2.211H72.781a1.992,1.992,0,0,0-.621-1.348,1.932,1.932,0,0,0-1.379-.527,2.023,2.023,0,0,0-1.707.793,3.724,3.724,0,0,0-.605,2.293v.273a3.65,3.65,0,0,0,.6,2.25A2.033,2.033,0,0,0,70.789,13.977ZM77.344,15H75.9V6.547h1.445ZM75.781,4.3A.863.863,0,0,1,76,3.711a.807.807,0,0,1,.637-.242.819.819,0,0,1,.641.242.854.854,0,0,1,.219.594.826.826,0,0,1-.219.586.834.834,0,0,1-.641.234A.821.821,0,0,1,76,4.891.834.834,0,0,1,75.781,4.3ZM79.273,10.7a4.993,4.993,0,0,1,.488-2.234A3.643,3.643,0,0,1,81.121,6.93a3.7,3.7,0,0,1,1.988-.539,3.565,3.565,0,0,1,2.793,1.2,4.6,4.6,0,0,1,1.066,3.18v.1a5.036,5.036,0,0,1-.473,2.215,3.589,3.589,0,0,1-1.352,1.527,3.743,3.743,0,0,1-2.02.547,3.556,3.556,0,0,1-2.785-1.2A4.575,4.575,0,0,1,79.273,10.8Zm1.453.172a3.616,3.616,0,0,0,.652,2.258,2.211,2.211,0,0,0,3.5-.012,3.955,3.955,0,0,0,.648-2.418,3.61,3.61,0,0,0-.66-2.254,2.1,2.1,0,0,0-1.754-.863,2.075,2.075,0,0,0-1.727.852A3.925,3.925,0,0,0,80.727,10.867Zm9.422-4.32L90.2,7.609a3.08,3.08,0,0,1,2.531-1.219q2.68,0,2.7,3.023V15H93.984V9.406a1.946,1.946,0,0,0-.418-1.352,1.675,1.675,0,0,0-1.277-.437,2.086,2.086,0,0,0-1.234.375,2.546,2.546,0,0,0-.828.984V15H88.781V6.547Zm10.969,8.609a3.693,3.693,0,0,1-2.8-1.129,4.19,4.19,0,0,1-1.078-3.02v-.266a5.073,5.073,0,0,1,.48-2.246,3.748,3.748,0,0,1,1.344-1.547,3.378,3.378,0,0,1,1.871-.559A3.166,3.166,0,0,1,103.5,7.477a4.7,4.7,0,0,1,.914,3.109v.6H98.688a3,3,0,0,0,.73,2.02,2.3,2.3,0,0,0,1.777.77,2.517,2.517,0,0,0,1.3-.312,3.259,3.259,0,0,0,.93-.828l.883.688A3.55,3.55,0,0,1,101.117,15.156Zm-.18-7.578a1.928,1.928,0,0,0-1.469.637A3.1,3.1,0,0,0,98.734,10h4.234V9.891a2.753,2.753,0,0,0-.594-1.707A1.815,1.815,0,0,0,100.938,7.578Zm10.07,5.18a1.064,1.064,0,0,0-.441-.91,4.249,4.249,0,0,0-1.539-.559,7.277,7.277,0,0,1-1.742-.562,2.479,2.479,0,0,1-.953-.781,1.869,1.869,0,0,1-.309-1.078,2.193,2.193,0,0,1,.879-1.758,3.432,3.432,0,0,1,2.246-.719,3.532,3.532,0,0,1,2.332.742,2.357,2.357,0,0,1,.895,1.9h-1.453a1.3,1.3,0,0,0-.5-1.023,1.888,1.888,0,0,0-1.27-.43,1.976,1.976,0,0,0-1.234.344,1.082,1.082,0,0,0-.445.9.877.877,0,0,0,.414.789,5.1,5.1,0,0,0,1.5.508,7.8,7.8,0,0,1,1.754.578,2.558,2.558,0,0,1,1,.809,1.988,1.988,0,0,1,.324,1.152,2.163,2.163,0,0,1-.906,1.816,3.8,3.8,0,0,1-2.352.684,4.257,4.257,0,0,1-1.8-.359,2.922,2.922,0,0,1-1.223-1,2.42,2.42,0,0,1-.441-1.395h1.445a1.5,1.5,0,0,0,.582,1.152,2.258,2.258,0,0,0,1.434.426,2.331,2.331,0,0,0,1.316-.332A1.02,1.02,0,0,0,111.008,12.758Zm10.68,1.219a2.082,2.082,0,0,0,1.352-.469,1.649,1.649,0,0,0,.641-1.172h1.367a2.621,2.621,0,0,1-.5,1.383,3.293,3.293,0,0,1-1.23,1.047,3.55,3.55,0,0,1-1.629.391A3.482,3.482,0,0,1,118.941,14a4.59,4.59,0,0,1-1.02-3.152v-.242a5.089,5.089,0,0,1,.453-2.2,3.451,3.451,0,0,1,1.3-1.492,3.7,3.7,0,0,1,2-.531,3.39,3.39,0,0,1,2.363.852,3.043,3.043,0,0,1,1,2.211H123.68a1.992,1.992,0,0,0-.621-1.348,1.932,1.932,0,0,0-1.379-.527,2.023,2.023,0,0,0-1.707.793,3.724,3.724,0,0,0-.605,2.293v.273a3.65,3.65,0,0,0,.6,2.25A2.033,2.033,0,0,0,121.688,13.977Zm4.6-3.281a4.993,4.993,0,0,1,.488-2.234,3.643,3.643,0,0,1,1.359-1.531,3.7,3.7,0,0,1,1.988-.539,3.565,3.565,0,0,1,2.793,1.2,4.6,4.6,0,0,1,1.066,3.18v.1a5.036,5.036,0,0,1-.473,2.215,3.589,3.589,0,0,1-1.352,1.527,3.743,3.743,0,0,1-2.02.547,3.556,3.556,0,0,1-2.785-1.2,4.575,4.575,0,0,1-1.066-3.164Zm1.453.172a3.616,3.616,0,0,0,.652,2.258,2.211,2.211,0,0,0,3.5-.012,3.954,3.954,0,0,0,.648-2.418,3.61,3.61,0,0,0-.66-2.254,2.1,2.1,0,0,0-1.754-.863,2.075,2.075,0,0,0-1.727.852A3.925,3.925,0,0,0,127.742,10.867Zm9.422-4.32.047,1.063a3.08,3.08,0,0,1,2.531-1.219q2.68,0,2.7,3.023V15H141V9.406a1.946,1.946,0,0,0-.418-1.352,1.675,1.675,0,0,0-1.277-.437,2.086,2.086,0,0,0-1.234.375,2.546,2.546,0,0,0-.828.984V15H135.8V6.547ZM51.379,39H49.934V30.547h1.445ZM49.816,28.3a.863.863,0,0,1,.215-.594.807.807,0,0,1,.637-.242.819.819,0,0,1,.641.242.854.854,0,0,1,.219.594.826.826,0,0,1-.219.586.834.834,0,0,1-.641.234.821.821,0,0,1-.637-.234A.834.834,0,0,1,49.816,28.3Zm5.242,2.242.047,1.063a3.08,3.08,0,0,1,2.531-1.219q2.68,0,2.7,3.023V39H58.895V33.406a1.946,1.946,0,0,0-.418-1.352,1.675,1.675,0,0,0-1.277-.437,2.086,2.086,0,0,0-1.234.375,2.546,2.546,0,0,0-.828.984V39H53.691V30.547ZM64.48,28.5v2.047h1.578v1.117H64.48v5.249a1.173,1.173,0,0,0,.211.763.888.888,0,0,0,.719.254,3.5,3.5,0,0,0,.688-.094V39a4.215,4.215,0,0,1-1.109.155,1.8,1.8,0,0,1-1.461-.586,2.517,2.517,0,0,1-.492-1.664V31.664H61.5V30.547h1.539V28.5Zm6.773,10.656a3.693,3.693,0,0,1-2.8-1.129,4.19,4.19,0,0,1-1.078-3.02v-.266a5.073,5.073,0,0,1,.48-2.246A3.748,3.748,0,0,1,69.2,30.949a3.378,3.378,0,0,1,1.871-.559,3.166,3.166,0,0,1,2.563,1.086,4.7,4.7,0,0,1,.914,3.109v.6H68.824a3,3,0,0,0,.73,2.02,2.3,2.3,0,0,0,1.777.77,2.517,2.517,0,0,0,1.3-.312,3.259,3.259,0,0,0,.93-.828l.883.688A3.55,3.55,0,0,1,71.254,39.156Zm-.18-7.578a1.928,1.928,0,0,0-1.469.637A3.1,3.1,0,0,0,68.871,34h4.234v-.109a2.753,2.753,0,0,0-.594-1.707A1.815,1.815,0,0,0,71.074,31.578Zm9.234.266a4.331,4.331,0,0,0-.711-.055A1.9,1.9,0,0,0,77.668,33v6H76.223V30.547h1.406l.023.977a2.251,2.251,0,0,1,2.016-1.133,1.477,1.477,0,0,1,.641.109Zm2.7-1.3.047,1.063a3.08,3.08,0,0,1,2.531-1.219q2.68,0,2.7,3.023V39H86.84V33.406a1.946,1.946,0,0,0-.418-1.352,1.675,1.675,0,0,0-1.277-.437,2.086,2.086,0,0,0-1.234.375,2.546,2.546,0,0,0-.828.984V39H81.637V30.547ZM95.684,39a3.036,3.036,0,0,1-.2-.891,3.225,3.225,0,0,1-2.406,1.047,2.984,2.984,0,0,1-2.051-.707,2.288,2.288,0,0,1-.8-1.793,2.39,2.39,0,0,1,1-2.051,4.733,4.733,0,0,1,2.824-.73h1.406v-.664A1.623,1.623,0,0,0,95,32a1.821,1.821,0,0,0-1.336-.449,2.108,2.108,0,0,0-1.3.391,1.151,1.151,0,0,0-.523.945H90.395a2,2,0,0,1,.449-1.223,3.066,3.066,0,0,1,1.219-.934,4.1,4.1,0,0,1,1.691-.344,3.342,3.342,0,0,1,2.289.73,2.635,2.635,0,0,1,.859,2.012v3.891a4.757,4.757,0,0,0,.3,1.852V39Zm-2.4-1.1a2.54,2.54,0,0,0,1.289-.352,2.127,2.127,0,0,0,.883-.914V34.9H94.324q-2.656,0-2.656,1.555a1.316,1.316,0,0,0,.453,1.063A1.742,1.742,0,0,0,93.285,37.9Zm9.273.078a2.082,2.082,0,0,0,1.352-.469,1.649,1.649,0,0,0,.641-1.172h1.367a2.621,2.621,0,0,1-.5,1.383,3.293,3.293,0,0,1-1.23,1.047,3.55,3.55,0,0,1-1.629.391A3.482,3.482,0,0,1,99.813,38a4.59,4.59,0,0,1-1.02-3.152v-.242a5.089,5.089,0,0,1,.453-2.2,3.451,3.451,0,0,1,1.3-1.492,3.7,3.7,0,0,1,2-.531,3.39,3.39,0,0,1,2.363.852,3.043,3.043,0,0,1,1,2.211h-1.367a1.992,1.992,0,0,0-.621-1.348,1.932,1.932,0,0,0-1.379-.527,2.023,2.023,0,0,0-1.707.793,3.724,3.724,0,0,0-.605,2.293v.273a3.65,3.65,0,0,0,.6,2.25A2.033,2.033,0,0,0,102.559,37.977ZM109.113,39h-1.445V30.547h1.445Zm-1.562-10.7a.863.863,0,0,1,.215-.594.807.807,0,0,1,.637-.242.819.819,0,0,1,.641.242.854.854,0,0,1,.219.594.826.826,0,0,1-.219.586.834.834,0,0,1-.641.234.821.821,0,0,1-.637-.234A.834.834,0,0,1,107.551,28.3Zm3.492,6.391a4.993,4.993,0,0,1,.488-2.234,3.643,3.643,0,0,1,1.359-1.531,3.7,3.7,0,0,1,1.988-.539,3.565,3.565,0,0,1,2.793,1.2,4.6,4.6,0,0,1,1.066,3.18v.1a5.036,5.036,0,0,1-.473,2.215,3.589,3.589,0,0,1-1.352,1.527,3.743,3.743,0,0,1-2.02.547,3.556,3.556,0,0,1-2.785-1.2,4.575,4.575,0,0,1-1.066-3.164Zm1.453.172a3.616,3.616,0,0,0,.652,2.258,2.211,2.211,0,0,0,3.5-.012,3.955,3.955,0,0,0,.648-2.418,3.61,3.61,0,0,0-.66-2.254,2.1,2.1,0,0,0-1.754-.863,2.075,2.075,0,0,0-1.727.852A3.925,3.925,0,0,0,112.5,34.867Zm3.039-7.852h1.75l-2.094,2.3-1.164,0Zm6.383,3.531.047,1.063a3.08,3.08,0,0,1,2.531-1.219q2.68,0,2.7,3.023V39h-1.445V33.406a1.946,1.946,0,0,0-.418-1.352,1.675,1.675,0,0,0-1.277-.437,2.086,2.086,0,0,0-1.234.375,2.546,2.546,0,0,0-.828.984V39h-1.445V30.547Z" transform="translate(892.256 10021)" fill="#fff"/>
    <g id="Grupo_134508" data-name="Grupo 134508" transform="translate(-25 112)">
      <circle id="Elipse_4934" data-name="Elipse 4934" cx="31.5" cy="31.5" r="31.5" transform="translate(835.256 9899)" fill="#fcd189"/>
      <g id="Grupo_134462" data-name="Grupo 134462" transform="translate(845.219 9908)">
        <g id="Grupo_134461" data-name="Grupo 134461" clip-path="url(#clip-path)">
          <path id="Trazado_127972" data-name="Trazado 127972" d="M42.653,43a3.023,3.023,0,0,1-.158-.667c-.018-1.724.006-3.448-.03-5.171A3.251,3.251,0,0,0,39.488,34.1c-1.287-.055-2.577-.034-3.866-.034q-15.661,0-31.322.005a4.928,4.928,0,0,0-1.368.158A3.281,3.281,0,0,0,.582,37.371c-.017,1.668,0,3.335-.013,5A2.732,2.732,0,0,1,.414,43H.161a2.129,2.129,0,0,1-.151-.539q-.017-2.587,0-5.174a3.9,3.9,0,0,1,3.718-3.781c2.061-.025,4.122-.016,6.184-.009a.536.536,0,0,0,.575-.339,5.3,5.3,0,0,1,4.947-3.1c.979-.021,1.96,0,2.971,0V28.673h-.5c-3.3,0-6.59.006-9.885,0a4.316,4.316,0,0,1-4.235-2.622,4.552,4.552,0,0,1-.395-1.783c-.039-3.028-.018-6.057-.019-9.086,0-.216-.015-.469.275-.475.33-.007.3.276.3.5,0,2.917.058,5.835-.016,8.749a3.991,3.991,0,0,0,4.162,4.168c3.182-.056,6.366-.014,9.549-.014h.556c-.264-.237-.451-.4-.628-.565a17.816,17.816,0,0,1-4.487-7.067.588.588,0,0,0-.557-.483,2.263,2.263,0,0,1-2-1.925A2.326,2.326,0,0,1,11.894,15.6c.128-.061.289-.246.282-.365a8.686,8.686,0,0,1,2.207-6.387,1.815,1.815,0,0,0,.1-.157c-.291-.377-.6-.741-.861-1.134a1.415,1.415,0,0,1-.11-.527c0-.024.024-.052.025-.079A4.149,4.149,0,0,0,12.29,5.38a.521.521,0,0,1-.278-.221,5.5,5.5,0,0,1-.731-2.73c.023-.991.517-1.28,1.4-.814.558.293,1.093.629,1.644.934a6.61,6.61,0,0,0,6.955-.061,7.583,7.583,0,0,1,2.9-1.073,4.152,4.152,0,0,1,4.192,1.84,6.046,6.046,0,0,1,.836,5.526.705.705,0,0,0,.094.553,8.925,8.925,0,0,1,1.814,5.9.445.445,0,0,0,.271.487A2.268,2.268,0,0,1,32.545,18.1a2.235,2.235,0,0,1-1.863,1.864.758.758,0,0,0-.692.614,16.886,16.886,0,0,1-4.965,7.486,2.442,2.442,0,0,0,.3.041c3.393,0,6.787,0,10.18-.015a3.823,3.823,0,0,0,3.6-3.474c.014-.294.022-.589.022-.883,0-6.352-.009-12.7.008-19.056A3.9,3.9,0,0,0,35.083.544Q21.475.549,7.867.571A3.8,3.8,0,0,0,3.941,4.548c-.008,2.51,0,5.02,0,7.53,0,.238.081.591-.28.594s-.287-.346-.287-.587q0-3.744,0-7.488A4.4,4.4,0,0,1,7.939,0Q21.526,0,35.114,0A4.4,4.4,0,0,1,39.7,4.583q.005,9.738,0,19.477a4.423,4.423,0,0,1-4.609,4.611c-3.3.012-6.591,0-9.885,0h-.534v1.383c.49,0,.975-.016,1.46,0a18.8,18.8,0,0,1,2.8.169,5,5,0,0,1,3.639,2.9.561.561,0,0,0,.6.375c2.019-.014,4.038-.022,6.057,0a3.889,3.889,0,0,1,3.758,3.081,2.555,2.555,0,0,0,.094.274V43ZM17.124,11.295c-.127.24-.265.465-.371.7-.232.525-.439,1.061-.673,1.585a4.89,4.89,0,0,1-2.252,2.46c-.3.155-.791.1-.87.522a4.638,4.638,0,0,0,.031,1.13,4.906,4.906,0,0,0,.086.582,16.928,16.928,0,0,0,3.192,6.967,11.375,11.375,0,0,0,3.112,2.974,3.823,3.823,0,0,0,4.248.072,9.278,9.278,0,0,0,1.429-1.028,16.078,16.078,0,0,0,4.146-6.2,11.744,11.744,0,0,0,.934-4.369.49.49,0,0,0-.342-.52,6.728,6.728,0,0,1-1.408-.888,5.122,5.122,0,0,1-1.379-2.131c-.181-.464-.388-.919-.569-1.344-3.205,1.252-6.284,1.488-9.315-.518M32.045,33.428a2.2,2.2,0,0,0-.1-.261,4.338,4.338,0,0,0-2.989-2.329,21.52,21.52,0,0,0-3.219-.186c-.105,0-.244.119-.321.219a4.758,4.758,0,0,1-7.749-.026.534.534,0,0,0-.37-.2c-.728-.016-1.46-.043-2.187.006a4.709,4.709,0,0,0-3.943,2.428,2.929,2.929,0,0,0-.147.346Zm-13.051-4.8c0,.474.009.822,0,1.169a1.431,1.431,0,0,1-.093.688c-.089.136-.375.143-.574.206a4.04,4.04,0,0,0,6.441-.03c-.643-.088-.681.092-.688-.824,0-.354,0-.708,0-1.161a4.457,4.457,0,0,1-5.082-.049m-6.7-12.509a1.621,1.621,0,0,0-1.2,1.913,1.583,1.583,0,0,0,1.569,1.361q-.186-1.64-.372-3.274m18.154,3.321a3.5,3.5,0,0,0,.359-.077,1.721,1.721,0,0,0,.3-3.147c-.172-.087-.378-.223-.408.135-.083,1.011-.164,2.022-.249,3.089" transform="translate(0 0)" fill="#133d60"/>
          <path id="Trazado_127973" data-name="Trazado 127973" d="M77.04,86.109c-.532,0-1.066.017-1.6-.012-.139-.008-.271-.159-.406-.244.139-.1.275-.283.416-.287q1.6-.037,3.193,0c.144,0,.391.166.406.28.037.274-.219.262-.416.263-.532,0-1.064,0-1.6,0" transform="translate(-55.523 -63.299)" fill="#133d60"/>
          <path id="Trazado_127974" data-name="Trazado 127974" d="M68.315,60.761a.845.845,0,0,1,.864.84.862.862,0,0,1-.849.861.843.843,0,0,1-.858-.844.832.832,0,0,1,.842-.856" transform="translate(-49.925 -44.959)" fill="#133d60"/>
          <path id="Trazado_127975" data-name="Trazado 127975" d="M92.408,60.763a.834.834,0,0,1,.859.839.845.845,0,0,1-.843.861.862.862,0,0,1-.865-.845.844.844,0,0,1,.848-.855" transform="translate(-67.747 -44.96)" fill="#133d60"/>
        </g>
      </g>
    </g>
  </g>
</svg>
