<svg xmlns="http://www.w3.org/2000/svg" xmlns:xlink="http://www.w3.org/1999/xlink" width="295" height="135" viewBox="0 0 295 135">
  <defs>
    <clipPath id="clip-path">
      <rect id="Rectángulo_36066" data-name="Rectángulo 36066" width="36.309" height="36.323" fill="#133d60"/>
    </clipPath>
  </defs>
  <g id="Grupo_134524" data-name="Grupo 134524" transform="translate(-180.256 -9975)">
    <rect id="Rectángulo_35951" data-name="Rectángulo 35951" width="263" height="135" rx="13" transform="translate(212.256 9975)" fill="#133d60"/>
    <path id="Trazado_128104" data-name="Trazado 128104" d="M17.078,12.023H12.313L11.242,15H9.7L14.039,3.625h1.313L19.7,15H18.164ZM12.766,10.8h3.867L14.7,5.477Zm10.07-6.3V6.547h1.578V7.664H22.836v5.249a1.173,1.173,0,0,0,.211.763.888.888,0,0,0,.719.254,3.5,3.5,0,0,0,.688-.094V15a4.215,4.215,0,0,1-1.109.155,1.8,1.8,0,0,1-1.461-.586,2.517,2.517,0,0,1-.492-1.664V7.664H19.852V6.547h1.539V4.5Zm6.773,10.656a3.693,3.693,0,0,1-2.8-1.129,4.19,4.19,0,0,1-1.078-3.02v-.266a5.073,5.073,0,0,1,.48-2.246,3.748,3.748,0,0,1,1.344-1.547,3.378,3.378,0,0,1,1.871-.559,3.166,3.166,0,0,1,2.563,1.086,4.7,4.7,0,0,1,.914,3.109v.6H27.18a3,3,0,0,0,.73,2.02,2.3,2.3,0,0,0,1.777.77,2.517,2.517,0,0,0,1.3-.312,3.259,3.259,0,0,0,.93-.828l.883.688A3.55,3.55,0,0,1,29.609,15.156Zm-.18-7.578a1.928,1.928,0,0,0-1.469.637A3.1,3.1,0,0,0,27.227,10h4.234V9.891a2.753,2.753,0,0,0-.594-1.707A1.815,1.815,0,0,0,29.43,7.578Zm6.516-1.031.047,1.063a3.08,3.08,0,0,1,2.531-1.219q2.68,0,2.7,3.023V15H39.781V9.406a1.946,1.946,0,0,0-.418-1.352,1.675,1.675,0,0,0-1.277-.437,2.086,2.086,0,0,0-1.234.375,2.546,2.546,0,0,0-.828.984V15H34.578V6.547ZM46.8,13.977a2.082,2.082,0,0,0,1.352-.469,1.649,1.649,0,0,0,.641-1.172h1.367a2.621,2.621,0,0,1-.5,1.383,3.293,3.293,0,0,1-1.23,1.047,3.55,3.55,0,0,1-1.629.391A3.482,3.482,0,0,1,44.051,14a4.59,4.59,0,0,1-1.02-3.152v-.242a5.089,5.089,0,0,1,.453-2.2,3.451,3.451,0,0,1,1.3-1.492,3.7,3.7,0,0,1,2-.531,3.39,3.39,0,0,1,2.363.852,3.043,3.043,0,0,1,1,2.211H48.789a1.992,1.992,0,0,0-.621-1.348,1.932,1.932,0,0,0-1.379-.527,2.023,2.023,0,0,0-1.707.793,3.724,3.724,0,0,0-.605,2.293v.273a3.65,3.65,0,0,0,.6,2.25A2.033,2.033,0,0,0,46.8,13.977ZM53.352,15H51.906V6.547h1.445ZM51.789,4.3A.863.863,0,0,1,52,3.711a.807.807,0,0,1,.637-.242.819.819,0,0,1,.641.242A.854.854,0,0,1,53.5,4.3a.826.826,0,0,1-.219.586.834.834,0,0,1-.641.234A.821.821,0,0,1,52,4.891.834.834,0,0,1,51.789,4.3ZM55.281,10.7a4.993,4.993,0,0,1,.488-2.234A3.643,3.643,0,0,1,57.129,6.93a3.7,3.7,0,0,1,1.988-.539,3.565,3.565,0,0,1,2.793,1.2,4.6,4.6,0,0,1,1.066,3.18v.1a5.036,5.036,0,0,1-.473,2.215,3.589,3.589,0,0,1-1.352,1.527,3.743,3.743,0,0,1-2.02.547,3.556,3.556,0,0,1-2.785-1.2A4.575,4.575,0,0,1,55.281,10.8Zm1.453.172a3.616,3.616,0,0,0,.652,2.258,2.211,2.211,0,0,0,3.5-.012,3.955,3.955,0,0,0,.648-2.418,3.61,3.61,0,0,0-.66-2.254,2.1,2.1,0,0,0-1.754-.863,2.075,2.075,0,0,0-1.727.852A3.925,3.925,0,0,0,56.734,10.867Zm3.039-7.852h1.75l-2.094,2.3-1.164,0Zm6.383,3.531L66.2,7.609a3.08,3.08,0,0,1,2.531-1.219q2.68,0,2.7,3.023V15H69.992V9.406a1.946,1.946,0,0,0-.418-1.352A1.675,1.675,0,0,0,68.3,7.617a2.086,2.086,0,0,0-1.234.375,2.546,2.546,0,0,0-.828.984V15H64.789V6.547ZM77.227,10.7a4.952,4.952,0,0,1,.922-3.129,3.137,3.137,0,0,1,4.766-.168V3h1.445V15H83.031l-.07-.906a2.943,2.943,0,0,1-2.414,1.063,2.887,2.887,0,0,1-2.395-1.2,5.008,5.008,0,0,1-.926-3.141Zm1.445.164a3.749,3.749,0,0,0,.594,2.25,1.92,1.92,0,0,0,1.641.813A2.108,2.108,0,0,0,82.914,12.7V8.813a2.125,2.125,0,0,0-1.992-1.2,1.929,1.929,0,0,0-1.656.82A4.128,4.128,0,0,0,78.672,10.867Zm11.438,4.289a3.693,3.693,0,0,1-2.8-1.129,4.19,4.19,0,0,1-1.078-3.02v-.266a5.073,5.073,0,0,1,.48-2.246,3.748,3.748,0,0,1,1.344-1.547,3.378,3.378,0,0,1,1.871-.559,3.166,3.166,0,0,1,2.563,1.086,4.7,4.7,0,0,1,.914,3.109v.6H87.68a3,3,0,0,0,.73,2.02,2.3,2.3,0,0,0,1.777.77,2.517,2.517,0,0,0,1.3-.312,3.259,3.259,0,0,0,.93-.828l.883.688A3.55,3.55,0,0,1,90.109,15.156Zm-.18-7.578a1.928,1.928,0,0,0-1.469.637A3.1,3.1,0,0,0,87.727,10h4.234V9.891a2.753,2.753,0,0,0-.594-1.707A1.815,1.815,0,0,0,89.93,7.578Zm14.328,6.586a3.07,3.07,0,0,1-2.477.992,2.628,2.628,0,0,1-2.059-.785,3.4,3.4,0,0,1-.715-2.324v-5.5h1.445v5.461q0,1.922,1.563,1.922a2.163,2.163,0,0,0,2.2-1.234V6.547h1.445V15h-1.375Zm7.688-6.32a4.331,4.331,0,0,0-.711-.055A1.9,1.9,0,0,0,109.3,9v6h-1.445V6.547h1.406l.023.977A2.251,2.251,0,0,1,111.3,6.391a1.477,1.477,0,0,1,.641.109Zm.836,2.859a4.968,4.968,0,0,1,.914-3.145,3.151,3.151,0,0,1,4.836-.074l.07-.937h1.32V14.8a3.439,3.439,0,0,1-.973,2.586,3.589,3.589,0,0,1-2.613.945,4.348,4.348,0,0,1-1.789-.391,3.08,3.08,0,0,1-1.336-1.07l.75-.867a2.826,2.826,0,0,0,2.273,1.148,2.214,2.214,0,0,0,1.645-.594,2.269,2.269,0,0,0,.59-1.672v-.727a2.971,2.971,0,0,1-2.367,1,2.887,2.887,0,0,1-2.4-1.2A5.224,5.224,0,0,1,112.781,10.7Zm1.453.164a3.79,3.79,0,0,0,.586,2.246,1.9,1.9,0,0,0,1.641.816,2.117,2.117,0,0,0,2.008-1.242V8.828a2.142,2.142,0,0,0-1.992-1.211,1.921,1.921,0,0,0-1.648.82A4.128,4.128,0,0,0,114.234,10.867Zm11.375,4.289a3.693,3.693,0,0,1-2.8-1.129,4.19,4.19,0,0,1-1.078-3.02v-.266a5.073,5.073,0,0,1,.48-2.246,3.748,3.748,0,0,1,1.344-1.547,3.378,3.378,0,0,1,1.871-.559,3.166,3.166,0,0,1,2.563,1.086,4.7,4.7,0,0,1,.914,3.109v.6H123.18a3,3,0,0,0,.73,2.02,2.3,2.3,0,0,0,1.777.77,2.517,2.517,0,0,0,1.3-.312,3.259,3.259,0,0,0,.93-.828l.883.688A3.55,3.55,0,0,1,125.609,15.156Zm-.18-7.578a1.928,1.928,0,0,0-1.469.637A3.1,3.1,0,0,0,123.227,10h4.234V9.891a2.753,2.753,0,0,0-.594-1.707A1.815,1.815,0,0,0,125.43,7.578Zm6.516-1.031.047,1.063a3.08,3.08,0,0,1,2.531-1.219q2.68,0,2.7,3.023V15h-1.445V9.406a1.946,1.946,0,0,0-.418-1.352,1.675,1.675,0,0,0-1.277-.437,2.086,2.086,0,0,0-1.234.375,2.546,2.546,0,0,0-.828.984V15h-1.445V6.547Zm10.852,7.43a2.082,2.082,0,0,0,1.352-.469,1.649,1.649,0,0,0,.641-1.172h1.367a2.621,2.621,0,0,1-.5,1.383,3.293,3.293,0,0,1-1.23,1.047,3.55,3.55,0,0,1-1.629.391A3.482,3.482,0,0,1,140.051,14a4.59,4.59,0,0,1-1.02-3.152v-.242a5.089,5.089,0,0,1,.453-2.2,3.451,3.451,0,0,1,1.3-1.492,3.7,3.7,0,0,1,2-.531,3.39,3.39,0,0,1,2.363.852,3.043,3.043,0,0,1,1,2.211h-1.367a1.992,1.992,0,0,0-.621-1.348,1.932,1.932,0,0,0-1.379-.527,2.023,2.023,0,0,0-1.707.793,3.724,3.724,0,0,0-.605,2.293v.273a3.65,3.65,0,0,0,.6,2.25A2.033,2.033,0,0,0,142.8,13.977ZM149.352,15h-1.445V6.547h1.445ZM147.789,4.3A.863.863,0,0,1,148,3.711a.807.807,0,0,1,.637-.242.819.819,0,0,1,.641.242.854.854,0,0,1,.219.594.826.826,0,0,1-.219.586.834.834,0,0,1-.641.234A.821.821,0,0,1,148,4.891.834.834,0,0,1,147.789,4.3ZM156.883,15a3.036,3.036,0,0,1-.2-.891,3.225,3.225,0,0,1-2.406,1.047,2.984,2.984,0,0,1-2.051-.707,2.287,2.287,0,0,1-.8-1.793,2.39,2.39,0,0,1,1-2.051,4.733,4.733,0,0,1,2.824-.73h1.406V9.211A1.623,1.623,0,0,0,156.2,8a1.821,1.821,0,0,0-1.336-.449,2.107,2.107,0,0,0-1.3.391,1.151,1.151,0,0,0-.523.945h-1.453a2,2,0,0,1,.449-1.223,3.066,3.066,0,0,1,1.219-.934,4.1,4.1,0,0,1,1.691-.344,3.342,3.342,0,0,1,2.289.73,2.635,2.635,0,0,1,.859,2.012v3.891a4.757,4.757,0,0,0,.3,1.852V15Zm-2.4-1.1a2.54,2.54,0,0,0,1.289-.352,2.127,2.127,0,0,0,.883-.914V10.9h-1.133q-2.656,0-2.656,1.555a1.316,1.316,0,0,0,.453,1.063A1.742,1.742,0,0,0,154.484,13.9Zm10.8-1.141a1.064,1.064,0,0,0-.441-.91,4.249,4.249,0,0,0-1.539-.559,7.277,7.277,0,0,1-1.742-.562,2.479,2.479,0,0,1-.953-.781,1.869,1.869,0,0,1-.309-1.078,2.193,2.193,0,0,1,.879-1.758,3.432,3.432,0,0,1,2.246-.719,3.532,3.532,0,0,1,2.332.742,2.357,2.357,0,0,1,.895,1.9H165.2a1.3,1.3,0,0,0-.5-1.023,1.888,1.888,0,0,0-1.27-.43,1.976,1.976,0,0,0-1.234.344,1.082,1.082,0,0,0-.445.9.877.877,0,0,0,.414.789,5.1,5.1,0,0,0,1.5.508,7.8,7.8,0,0,1,1.754.578,2.558,2.558,0,0,1,1,.809,1.988,1.988,0,0,1,.324,1.152,2.163,2.163,0,0,1-.906,1.816,3.8,3.8,0,0,1-2.352.684,4.257,4.257,0,0,1-1.8-.359,2.922,2.922,0,0,1-1.223-1,2.42,2.42,0,0,1-.441-1.395h1.445a1.5,1.5,0,0,0,.582,1.152,2.258,2.258,0,0,0,1.434.426,2.331,2.331,0,0,0,1.316-.332A1.02,1.02,0,0,0,165.289,12.758Z" transform="translate(262.256 10033)" fill="#fff"/>
    <g id="Grupo_134457" data-name="Grupo 134457" transform="translate(-45 112)">
      <circle id="Elipse_4925" data-name="Elipse 4925" cx="31.5" cy="31.5" r="31.5" transform="translate(225.256 9899)" fill="#fcd189"/>
      <g id="Grupo_134456" data-name="Grupo 134456" transform="translate(238.256 9912)">
        <g id="Grupo_134455" data-name="Grupo 134455" clip-path="url(#clip-path)">
          <path id="Trazado_127953" data-name="Trazado 127953" d="M35.718,19.931H31.086c-.11,1.958.111,3.9-.137,5.843h5.361V36.323H2.116A2.054,2.054,0,0,1,.01,34.254C0,28.871-.012,23.488.018,18.105A5.077,5.077,0,0,1,2.67,13.589c.134-.081.275-.152.456-.252A3.548,3.548,0,0,1,1.783,10.2,3.406,3.406,0,0,1,2.876,7.986a3.5,3.5,0,0,1,4.5-.258c1.506,1.124,1.8,2.868.784,4.874.232-.092.433-.168.632-.25,1.71-.712,3.415-1.437,5.132-2.129a7.023,7.023,0,0,1,1.164-.259.977.977,0,0,0,.241-.051c1.429-.736,2.852-1.485,4.286-2.212a15.443,15.443,0,0,1,3.819-1.569A3.546,3.546,0,0,1,22.3,3.127a3.429,3.429,0,0,1,1.228-2.3,3.515,3.515,0,0,1,4.65.1,3.555,3.555,0,0,1,.112,5.084c.093.037.176.075.261.1a5.27,5.27,0,0,1,3.686,5.015c.007.571,0,1.142,0,1.744h3.486Zm-.563,7.033c-.089-.006-.147-.014-.205-.014q-11.093,0-22.186.005a.639.639,0,0,0-.383.152c-.433.376-.825.8-1.277,1.151a1.411,1.411,0,0,0-.564,1.278A2.036,2.036,0,0,1,7.9,31.551a.548.548,0,0,0-.439.093q-1.644,1.483-3.259,3a2.365,2.365,0,0,0-.305.479h31.26ZM7.038,21.09H7.51a2.931,2.931,0,0,1,3.043,3.046c0,.891,0,1.782,0,2.673,0,.1.015.2.026.352.448-.412.838-.8,1.26-1.147a.989.989,0,0,1,.572-.226c2.624-.015,5.247-.01,7.872-.01h.363a7.8,7.8,0,0,1-.128-.976q-.016-3.46,0-6.919a2.84,2.84,0,0,1,1.633-2.655c.518-.271,1.039-.539,1.57-.783a.456.456,0,0,0,.315-.494c-.02-.7-.007-1.391-.007-2.087V10.041c-.158.072-.268.118-.374.172q-2.877,1.439-5.753,2.881a2.574,2.574,0,0,1-1.429.373.4.4,0,0,0-.2.053c-.639.325-1.268.672-1.915.98-2.334,1.108-4.675,2.2-7.008,3.309-.127.061-.292.219-.3.335-.024.963-.013,1.927-.013,2.946m7.508-9.857c-.034.013-.145.054-.255.1-1.417.59-2.86,1.126-4.244,1.785a9.79,9.79,0,0,1-4.684.968A4.024,4.024,0,0,0,1.18,18.258c-.006,1.489,0,2.978,0,4.467A1.762,1.762,0,0,0,3.056,24.6c1.086,0,2.172,0,3.258,0a1.185,1.185,0,0,1,1.309,1.319c0,1.184,0,2.368,0,3.551a.928.928,0,0,0,.352.8.815.815,0,0,0,.9.1.883.883,0,0,0,.512-.86c0-1.794,0-3.588,0-5.382A1.761,1.761,0,0,0,7.5,22.262c-.533,0-1.066,0-1.631,0V21.9c0-1.452.006-2.9-.006-4.357a.456.456,0,0,1,.309-.493q4.29-2,8.57-4.025c.14-.066.277-.137.327-.162l-.52-1.633M25.169,8.808A.407.407,0,0,1,25.2,8.9c0,1.964.008,3.929-.005,5.893a.488.488,0,0,1-.244.335c-.722.38-1.455.74-2.187,1.1a1.8,1.8,0,0,0-1.076,1.76c.008,1.208,0,2.416,0,3.624,0,1.074,0,2.147,0,3.221a.879.879,0,1,0,1.753-.011c.005-1.611,0-3.221,0-4.832A1.224,1.224,0,0,1,24.505,18.6c.62-.168,1.24-.34,1.887-.518v-5.2h2.3c.1-1.355.072-2.647-.9-3.6l.779-.885A4.528,4.528,0,0,1,29.882,11.5c.023,1.024,0,2.05.008,3.075a.587.587,0,1,0,1.167.012c0-1.208.022-2.417-.008-3.624a3.992,3.992,0,0,0-3.039-3.769,9.135,9.135,0,0,0-4.915.249,62.317,62.317,0,0,0-6.886,3.289.772.772,0,0,0-.341.956.832.832,0,0,0,1.264.474c1.986-.987,3.983-1.954,5.944-2.987a3.528,3.528,0,0,1,2.09-.365m2.4,5.272v4.649h6.984V14.083H32.231c0,.223.007.427,0,.631a1.756,1.756,0,0,1-3.511-.014c-.007-.2,0-.406,0-.619ZM5.284,12.886a2.343,2.343,0,1,0-2.346-2.348,2.351,2.351,0,0,0,2.346,2.348M28.13,3.53a2.343,2.343,0,1,0-2.383,2.324A2.348,2.348,0,0,0,28.13,3.53M1.179,25.292v.157q0,4.337,0,8.674a1.9,1.9,0,0,0,.009.256.875.875,0,0,0,1.737.01,2.274,2.274,0,0,0,.011-.329q0-3.953,0-7.906v-.272l-1.758-.59m2.939,7.823C5,32.3,5.825,31.549,6.64,30.783c.053-.05.052-.187.035-.276a7.629,7.629,0,0,1-.212-1.061c-.032-.852-.01-1.707-.01-2.56V25.8H4.118Zm20.5-13.331v1.069c0,1.291.008,2.583-.006,3.873a9.482,9.482,0,0,1-.117,1.023h2.568c-.035-.457-.094-.89-.1-1.323-.013-1.364,0-2.729,0-4.093v-.4l-.571-.027c-.013-.219-.023-.395-.035-.6l-1.738.476m3.521.149c0,1.7-.01,3.374.007,5.043a.848.848,0,0,0,.778.794.869.869,0,0,0,.921-.624,1.141,1.141,0,0,0,.044-.323q0-2.342,0-4.685a1.151,1.151,0,0,0-.038-.2Z" transform="translate(0 0)" fill="#133d60"/>
          <rect id="Rectángulo_36063" data-name="Rectángulo 36063" width="1.12" height="1.139" transform="translate(28.154 32.828)" fill="#133d60"/>
          <rect id="Rectángulo_36064" data-name="Rectángulo 36064" width="1.139" height="1.113" transform="translate(30.499 32.838)" fill="#133d60"/>
          <rect id="Rectángulo_36065" data-name="Rectángulo 36065" width="1.113" height="1.139" transform="translate(32.846 32.832)" fill="#133d60"/>
        </g>
      </g>
    </g>
  </g>
</svg>
