<svg xmlns="http://www.w3.org/2000/svg" xmlns:xlink="http://www.w3.org/1999/xlink" width="295" height="135" viewBox="0 0 295 135">
  <defs>
    <clipPath id="clip-path">
      <rect id="Rect치ngulo_36067" data-name="Rect치ngulo 36067" width="40.729" height="40.72" fill="#133d60"/>
    </clipPath>
  </defs>
  <g id="Grupo_134525" data-name="Grupo 134525" transform="translate(-495.256 -9975)">
    <rect id="Rect치ngulo_36090" data-name="Rect치ngulo 36090" width="271" height="135" rx="13" transform="translate(519.256 9975)" fill="#133d60"/>
    <path id="Trazado_128105" data-name="Trazado 128105" d="M56.215,12.023H51.449L50.379,15H48.832L53.176,3.625h1.313L58.84,15H57.3ZM51.9,10.8H55.77l-1.937-5.32Zm10.07-6.3V6.547h1.578V7.664H61.973v5.249a1.173,1.173,0,0,0,.211.763.888.888,0,0,0,.719.254,3.5,3.5,0,0,0,.688-.094V15a4.215,4.215,0,0,1-1.109.155,1.8,1.8,0,0,1-1.461-.586,2.517,2.517,0,0,1-.492-1.664V7.664H58.988V6.547h1.539V4.5Zm6.773,10.656a3.693,3.693,0,0,1-2.8-1.129,4.19,4.19,0,0,1-1.078-3.02v-.266a5.073,5.073,0,0,1,.48-2.246A3.748,3.748,0,0,1,66.7,6.949a3.378,3.378,0,0,1,1.871-.559,3.166,3.166,0,0,1,2.563,1.086,4.7,4.7,0,0,1,.914,3.109v.6H66.316a3,3,0,0,0,.73,2.02,2.3,2.3,0,0,0,1.777.77,2.517,2.517,0,0,0,1.3-.312,3.259,3.259,0,0,0,.93-.828l.883.688A3.55,3.55,0,0,1,68.746,15.156Zm-.18-7.578a1.928,1.928,0,0,0-1.469.637A3.1,3.1,0,0,0,66.363,10H70.6V9.891A2.753,2.753,0,0,0,70,8.184,1.815,1.815,0,0,0,68.566,7.578Zm6.516-1.031.047,1.063A3.08,3.08,0,0,1,77.66,6.391q2.68,0,2.7,3.023V15H78.918V9.406A1.946,1.946,0,0,0,78.5,8.055a1.675,1.675,0,0,0-1.277-.437,2.086,2.086,0,0,0-1.234.375,2.546,2.546,0,0,0-.828.984V15H73.715V6.547Zm10.852,7.43a2.082,2.082,0,0,0,1.352-.469,1.649,1.649,0,0,0,.641-1.172h1.367a2.621,2.621,0,0,1-.5,1.383,3.293,3.293,0,0,1-1.23,1.047,3.55,3.55,0,0,1-1.629.391A3.482,3.482,0,0,1,83.188,14a4.59,4.59,0,0,1-1.02-3.152v-.242a5.089,5.089,0,0,1,.453-2.2,3.451,3.451,0,0,1,1.3-1.492,3.7,3.7,0,0,1,2-.531,3.39,3.39,0,0,1,2.363.852,3.043,3.043,0,0,1,1,2.211H87.926A1.992,1.992,0,0,0,87.3,8.105a1.932,1.932,0,0,0-1.379-.527,2.023,2.023,0,0,0-1.707.793,3.724,3.724,0,0,0-.605,2.293v.273a3.65,3.65,0,0,0,.6,2.25A2.033,2.033,0,0,0,85.934,13.977ZM92.488,15H91.043V6.547h1.445ZM90.926,4.3a.863.863,0,0,1,.215-.594.807.807,0,0,1,.637-.242.819.819,0,0,1,.641.242.854.854,0,0,1,.219.594.826.826,0,0,1-.219.586.834.834,0,0,1-.641.234.821.821,0,0,1-.637-.234A.834.834,0,0,1,90.926,4.3ZM94.418,10.7a4.993,4.993,0,0,1,.488-2.234A3.643,3.643,0,0,1,96.266,6.93a3.7,3.7,0,0,1,1.988-.539,3.565,3.565,0,0,1,2.793,1.2,4.6,4.6,0,0,1,1.066,3.18v.1a5.036,5.036,0,0,1-.473,2.215,3.589,3.589,0,0,1-1.352,1.527,3.743,3.743,0,0,1-2.02.547,3.556,3.556,0,0,1-2.785-1.2A4.575,4.575,0,0,1,94.418,10.8Zm1.453.172a3.616,3.616,0,0,0,.652,2.258,2.211,2.211,0,0,0,3.5-.012,3.955,3.955,0,0,0,.648-2.418,3.61,3.61,0,0,0-.66-2.254,2.1,2.1,0,0,0-1.754-.863,2.075,2.075,0,0,0-1.727.852A3.925,3.925,0,0,0,95.871,10.867Zm9.422-4.32.047,1.063a3.08,3.08,0,0,1,2.531-1.219q2.68,0,2.7,3.023V15h-1.445V9.406a1.946,1.946,0,0,0-.418-1.352,1.675,1.675,0,0,0-1.277-.437,2.086,2.086,0,0,0-1.234.375,2.546,2.546,0,0,0-.828.984V15h-1.445V6.547Zm10.969,8.609a3.693,3.693,0,0,1-2.8-1.129,4.19,4.19,0,0,1-1.078-3.02v-.266a5.073,5.073,0,0,1,.48-2.246,3.748,3.748,0,0,1,1.344-1.547,3.378,3.378,0,0,1,1.871-.559,3.166,3.166,0,0,1,2.563,1.086,4.7,4.7,0,0,1,.914,3.109v.6h-5.727a3,3,0,0,0,.73,2.02,2.3,2.3,0,0,0,1.777.77,2.517,2.517,0,0,0,1.3-.312,3.259,3.259,0,0,0,.93-.828l.883.688A3.55,3.55,0,0,1,116.262,15.156Zm-.18-7.578a1.928,1.928,0,0,0-1.469.637A3.1,3.1,0,0,0,113.879,10h4.234V9.891a2.753,2.753,0,0,0-.594-1.707A1.815,1.815,0,0,0,116.082,7.578Zm10.07,5.18a1.064,1.064,0,0,0-.441-.91,4.249,4.249,0,0,0-1.539-.559,7.277,7.277,0,0,1-1.742-.562,2.479,2.479,0,0,1-.953-.781,1.869,1.869,0,0,1-.309-1.078,2.193,2.193,0,0,1,.879-1.758,3.432,3.432,0,0,1,2.246-.719,3.532,3.532,0,0,1,2.332.742,2.357,2.357,0,0,1,.895,1.9h-1.453a1.3,1.3,0,0,0-.5-1.023,1.888,1.888,0,0,0-1.27-.43,1.976,1.976,0,0,0-1.234.344,1.082,1.082,0,0,0-.445.9.877.877,0,0,0,.414.789,5.1,5.1,0,0,0,1.5.508,7.8,7.8,0,0,1,1.754.578,2.558,2.558,0,0,1,1,.809,1.988,1.988,0,0,1,.324,1.152,2.163,2.163,0,0,1-.906,1.816,3.8,3.8,0,0,1-2.352.684,4.257,4.257,0,0,1-1.8-.359,2.922,2.922,0,0,1-1.223-1,2.42,2.42,0,0,1-.441-1.395h1.445a1.5,1.5,0,0,0,.582,1.152,2.258,2.258,0,0,0,1.434.426,2.331,2.331,0,0,0,1.316-.332A1.02,1.02,0,0,0,126.152,12.758ZM48.035,39a3.036,3.036,0,0,1-.2-.891,3.225,3.225,0,0,1-2.406,1.047,2.984,2.984,0,0,1-2.051-.707,2.287,2.287,0,0,1-.8-1.793,2.39,2.39,0,0,1,1-2.051,4.733,4.733,0,0,1,2.824-.73h1.406v-.664A1.623,1.623,0,0,0,47.355,32a1.821,1.821,0,0,0-1.336-.449,2.107,2.107,0,0,0-1.3.391,1.151,1.151,0,0,0-.523.945H42.746a2,2,0,0,1,.449-1.223,3.066,3.066,0,0,1,1.219-.934,4.1,4.1,0,0,1,1.691-.344,3.342,3.342,0,0,1,2.289.73,2.635,2.635,0,0,1,.859,2.012v3.891a4.757,4.757,0,0,0,.3,1.852V39Zm-2.4-1.1a2.54,2.54,0,0,0,1.289-.352,2.127,2.127,0,0,0,.883-.914V34.9H46.676q-2.656,0-2.656,1.555a1.316,1.316,0,0,0,.453,1.063A1.742,1.742,0,0,0,45.637,37.9Zm7.242-7.352.039.938a3.122,3.122,0,0,1,2.508-1.094A2.417,2.417,0,0,1,57.84,31.75a3.2,3.2,0,0,1,1.1-.984,3.242,3.242,0,0,1,1.6-.375q2.781,0,2.828,2.945V39H61.918V33.422a1.941,1.941,0,0,0-.414-1.355,1.823,1.823,0,0,0-1.391-.449,1.916,1.916,0,0,0-1.336.48,1.949,1.949,0,0,0-.617,1.293V39H56.707V33.461a1.613,1.613,0,0,0-1.8-1.844,1.934,1.934,0,0,0-1.945,1.211V39H51.512V30.547Zm19.82,4.32a5.026,5.026,0,0,1-.891,3.113,2.846,2.846,0,0,1-2.391,1.176,2.947,2.947,0,0,1-2.477-1.133l-.07.977H65.543V27h1.445v4.477A2.93,2.93,0,0,1,69.4,30.391a2.863,2.863,0,0,1,2.418,1.164,5.177,5.177,0,0,1,.879,3.188ZM71.254,34.7a3.906,3.906,0,0,0-.57-2.281,1.888,1.888,0,0,0-1.641-.8,2.122,2.122,0,0,0-2.055,1.328V36.6a2.181,2.181,0,0,0,2.07,1.328,1.878,1.878,0,0,0,1.617-.8A4.153,4.153,0,0,0,71.254,34.7Zm8.484,3.461a3.07,3.07,0,0,1-2.477.992,2.628,2.628,0,0,1-2.059-.785,3.4,3.4,0,0,1-.715-2.324v-5.5h1.445v5.461q0,1.922,1.563,1.922A2.163,2.163,0,0,0,79.7,36.7V30.547h1.445V39H79.77ZM84.91,39H83.465V27H84.91Zm7.531,0a3.036,3.036,0,0,1-.2-.891,3.225,3.225,0,0,1-2.406,1.047,2.984,2.984,0,0,1-2.051-.707,2.288,2.288,0,0,1-.8-1.793,2.39,2.39,0,0,1,1-2.051,4.733,4.733,0,0,1,2.824-.73h1.406v-.664A1.623,1.623,0,0,0,91.762,32a1.821,1.821,0,0,0-1.336-.449,2.108,2.108,0,0,0-1.3.391,1.151,1.151,0,0,0-.523.945H87.152a2,2,0,0,1,.449-1.223,3.066,3.066,0,0,1,1.219-.934,4.1,4.1,0,0,1,1.691-.344,3.342,3.342,0,0,1,2.289.73,2.635,2.635,0,0,1,.859,2.012v3.891a4.757,4.757,0,0,0,.3,1.852V39Zm-2.4-1.1a2.54,2.54,0,0,0,1.289-.352,2.127,2.127,0,0,0,.883-.914V34.9H91.082q-2.656,0-2.656,1.555a1.316,1.316,0,0,0,.453,1.063A1.742,1.742,0,0,0,90.043,37.9Zm7.844-9.4v2.047h1.578v1.117H97.887v5.249a1.173,1.173,0,0,0,.211.763.888.888,0,0,0,.719.254,3.5,3.5,0,0,0,.688-.094V39a4.215,4.215,0,0,1-1.109.155,1.8,1.8,0,0,1-1.461-.586,2.517,2.517,0,0,1-.492-1.664V31.664H94.9V30.547h1.539V28.5Zm2.727,6.2a4.993,4.993,0,0,1,.488-2.234,3.643,3.643,0,0,1,1.359-1.531,3.7,3.7,0,0,1,1.988-.539,3.565,3.565,0,0,1,2.793,1.2,4.6,4.6,0,0,1,1.066,3.18v.1a5.036,5.036,0,0,1-.473,2.215,3.589,3.589,0,0,1-1.352,1.527,3.743,3.743,0,0,1-2.02.547,3.556,3.556,0,0,1-2.785-1.2,4.575,4.575,0,0,1-1.066-3.164Zm1.453.172a3.616,3.616,0,0,0,.652,2.258,2.211,2.211,0,0,0,3.5-.012,3.955,3.955,0,0,0,.648-2.418,3.61,3.61,0,0,0-.66-2.254,2.1,2.1,0,0,0-1.754-.863,2.075,2.075,0,0,0-1.727.852A3.925,3.925,0,0,0,102.066,34.867Zm12.141-3.023a4.331,4.331,0,0,0-.711-.055A1.9,1.9,0,0,0,111.566,33v6h-1.445V30.547h1.406l.023.977a2.251,2.251,0,0,1,2.016-1.133,1.477,1.477,0,0,1,.641.109Zm2.9,7.156H115.66V30.547h1.445Zm-1.562-10.7a.863.863,0,0,1,.215-.594.807.807,0,0,1,.637-.242.819.819,0,0,1,.641.242.854.854,0,0,1,.219.594.826.826,0,0,1-.219.586.834.834,0,0,1-.641.234.821.821,0,0,1-.637-.234A.834.834,0,0,1,115.543,28.3ZM124.637,39a3.036,3.036,0,0,1-.2-.891,3.225,3.225,0,0,1-2.406,1.047,2.984,2.984,0,0,1-2.051-.707,2.288,2.288,0,0,1-.8-1.793,2.39,2.39,0,0,1,1-2.051,4.733,4.733,0,0,1,2.824-.73h1.406v-.664A1.623,1.623,0,0,0,123.957,32a1.821,1.821,0,0,0-1.336-.449,2.108,2.108,0,0,0-1.3.391,1.151,1.151,0,0,0-.523.945h-1.453a2,2,0,0,1,.449-1.223,3.066,3.066,0,0,1,1.219-.934,4.1,4.1,0,0,1,1.691-.344,3.342,3.342,0,0,1,2.289.73,2.635,2.635,0,0,1,.859,2.012v3.891a4.757,4.757,0,0,0,.3,1.852V39Zm-2.4-1.1a2.54,2.54,0,0,0,1.289-.352,2.127,2.127,0,0,0,.883-.914V34.9h-1.133q-2.656,0-2.656,1.555a1.316,1.316,0,0,0,.453,1.063A1.742,1.742,0,0,0,122.238,37.9Zm10.8-1.141a1.064,1.064,0,0,0-.441-.91,4.249,4.249,0,0,0-1.539-.559,7.277,7.277,0,0,1-1.742-.562,2.479,2.479,0,0,1-.953-.781,1.869,1.869,0,0,1-.309-1.078,2.193,2.193,0,0,1,.879-1.758,3.432,3.432,0,0,1,2.246-.719,3.532,3.532,0,0,1,2.332.742,2.357,2.357,0,0,1,.895,1.9h-1.453a1.3,1.3,0,0,0-.5-1.023,1.888,1.888,0,0,0-1.27-.43,1.976,1.976,0,0,0-1.234.344,1.082,1.082,0,0,0-.445.9.877.877,0,0,0,.414.789,5.1,5.1,0,0,0,1.5.508,7.8,7.8,0,0,1,1.754.578,2.558,2.558,0,0,1,1,.809,1.988,1.988,0,0,1,.324,1.152,2.163,2.163,0,0,1-.906,1.816,3.8,3.8,0,0,1-2.352.684,4.257,4.257,0,0,1-1.8-.359,2.922,2.922,0,0,1-1.223-1,2.42,2.42,0,0,1-.441-1.395h1.445a1.5,1.5,0,0,0,.582,1.152,2.258,2.258,0,0,0,1.434.426,2.331,2.331,0,0,0,1.316-.332A1.02,1.02,0,0,0,133.043,36.758ZM40.9,63H39.453V54.547H40.9ZM39.336,52.3a.863.863,0,0,1,.215-.594.807.807,0,0,1,.637-.242.819.819,0,0,1,.641.242.854.854,0,0,1,.219.594.826.826,0,0,1-.219.586.834.834,0,0,1-.641.234.821.821,0,0,1-.637-.234A.834.834,0,0,1,39.336,52.3Zm5.242,2.242.047,1.063a3.08,3.08,0,0,1,2.531-1.219q2.68,0,2.7,3.023V63H48.414V57.406A1.946,1.946,0,0,0,48,56.055a1.675,1.675,0,0,0-1.277-.437,2.086,2.086,0,0,0-1.234.375,2.546,2.546,0,0,0-.828.984V63H43.211V54.547ZM54,52.5v2.047h1.578v1.117H54v5.249a1.173,1.173,0,0,0,.211.763.888.888,0,0,0,.719.254,3.5,3.5,0,0,0,.688-.094V63a4.215,4.215,0,0,1-1.109.155,1.8,1.8,0,0,1-1.461-.586,2.517,2.517,0,0,1-.492-1.664V55.664H51.016V54.547h1.539V52.5Zm7.352,3.344a4.331,4.331,0,0,0-.711-.055A1.9,1.9,0,0,0,58.711,57v6H57.266V54.547h1.406l.023.977a2.251,2.251,0,0,1,2.016-1.133,1.477,1.477,0,0,1,.641.109ZM67.586,63a3.036,3.036,0,0,1-.2-.891,3.225,3.225,0,0,1-2.406,1.047,2.984,2.984,0,0,1-2.051-.707,2.287,2.287,0,0,1-.8-1.793,2.39,2.39,0,0,1,1-2.051,4.733,4.733,0,0,1,2.824-.73h1.406v-.664A1.623,1.623,0,0,0,66.906,56a1.821,1.821,0,0,0-1.336-.449,2.107,2.107,0,0,0-1.3.391,1.151,1.151,0,0,0-.523.945H62.3a2,2,0,0,1,.449-1.223,3.066,3.066,0,0,1,1.219-.934,4.1,4.1,0,0,1,1.691-.344,3.342,3.342,0,0,1,2.289.73,2.635,2.635,0,0,1,.859,2.012v3.891a4.757,4.757,0,0,0,.3,1.852V63Zm-2.4-1.1a2.54,2.54,0,0,0,1.289-.352,2.127,2.127,0,0,0,.883-.914V58.9H66.227q-2.656,0-2.656,1.555a1.316,1.316,0,0,0,.453,1.063A1.742,1.742,0,0,0,65.188,61.9Zm7.242-7.352.039.938a3.122,3.122,0,0,1,2.508-1.094,2.417,2.417,0,0,1,2.414,1.359,3.2,3.2,0,0,1,1.1-.984,3.242,3.242,0,0,1,1.6-.375q2.781,0,2.828,2.945V63H81.469V57.422a1.941,1.941,0,0,0-.414-1.355,1.823,1.823,0,0,0-1.391-.449,1.916,1.916,0,0,0-1.336.48,1.949,1.949,0,0,0-.617,1.293V63H76.258V57.461a1.613,1.613,0,0,0-1.8-1.844,1.934,1.934,0,0,0-1.945,1.211V63H71.063V54.547Zm17.883,7.617a3.07,3.07,0,0,1-2.477.992,2.628,2.628,0,0,1-2.059-.785,3.4,3.4,0,0,1-.715-2.324v-5.5h1.445v5.461q0,1.922,1.563,1.922a2.163,2.163,0,0,0,2.2-1.234V54.547h1.445V63H90.344ZM98,55.844a4.331,4.331,0,0,0-.711-.055A1.9,1.9,0,0,0,95.359,57v6H93.914V54.547H95.32l.023.977a2.251,2.251,0,0,1,2.016-1.133A1.477,1.477,0,0,1,98,54.5ZM104.234,63a3.036,3.036,0,0,1-.2-.891,3.225,3.225,0,0,1-2.406,1.047,2.984,2.984,0,0,1-2.051-.707,2.288,2.288,0,0,1-.8-1.793,2.39,2.39,0,0,1,1-2.051,4.733,4.733,0,0,1,2.824-.73h1.406v-.664A1.623,1.623,0,0,0,103.555,56a1.821,1.821,0,0,0-1.336-.449,2.107,2.107,0,0,0-1.3.391,1.151,1.151,0,0,0-.523.945H98.945a2,2,0,0,1,.449-1.223,3.066,3.066,0,0,1,1.219-.934,4.1,4.1,0,0,1,1.691-.344,3.342,3.342,0,0,1,2.289.73,2.635,2.635,0,0,1,.859,2.012v3.891a4.757,4.757,0,0,0,.3,1.852V63Zm-2.4-1.1a2.54,2.54,0,0,0,1.289-.352,2.127,2.127,0,0,0,.883-.914V58.9h-1.133q-2.656,0-2.656,1.555a1.316,1.316,0,0,0,.453,1.063A1.742,1.742,0,0,0,101.836,61.9Zm7.453,1.1h-1.445V51h1.445Zm5.82.156a3.693,3.693,0,0,1-2.8-1.129,4.19,4.19,0,0,1-1.078-3.02v-.266a5.073,5.073,0,0,1,.48-2.246,3.748,3.748,0,0,1,1.344-1.547,3.378,3.378,0,0,1,1.871-.559,3.166,3.166,0,0,1,2.563,1.086,4.7,4.7,0,0,1,.914,3.109v.6H112.68a3,3,0,0,0,.73,2.02,2.3,2.3,0,0,0,1.777.77,2.517,2.517,0,0,0,1.3-.312,3.259,3.259,0,0,0,.93-.828l.883.688A3.55,3.55,0,0,1,115.109,63.156Zm-.18-7.578a1.928,1.928,0,0,0-1.469.637A3.1,3.1,0,0,0,112.727,58h4.234v-.109a2.753,2.753,0,0,0-.594-1.707A1.815,1.815,0,0,0,114.93,55.578ZM125,60.758a1.064,1.064,0,0,0-.441-.91,4.249,4.249,0,0,0-1.539-.559,7.277,7.277,0,0,1-1.742-.562,2.479,2.479,0,0,1-.953-.781,1.869,1.869,0,0,1-.309-1.078,2.193,2.193,0,0,1,.879-1.758,3.432,3.432,0,0,1,2.246-.719,3.532,3.532,0,0,1,2.332.742,2.357,2.357,0,0,1,.895,1.9h-1.453a1.3,1.3,0,0,0-.5-1.023,1.888,1.888,0,0,0-1.27-.43,1.976,1.976,0,0,0-1.234.344,1.082,1.082,0,0,0-.445.9.877.877,0,0,0,.414.789,5.1,5.1,0,0,0,1.5.508,7.8,7.8,0,0,1,1.754.578,2.558,2.558,0,0,1,1,.809,1.988,1.988,0,0,1,.324,1.152,2.163,2.163,0,0,1-.906,1.816,3.8,3.8,0,0,1-2.352.684,4.257,4.257,0,0,1-1.8-.359,2.922,2.922,0,0,1-1.223-1,2.42,2.42,0,0,1-.441-1.395h1.445a1.5,1.5,0,0,0,.582,1.152,2.258,2.258,0,0,0,1.434.426,2.331,2.331,0,0,0,1.316-.332A1.02,1.02,0,0,0,125,60.758Zm10.055.125,1.969-6.336h1.547l-3.4,9.758q-.789,2.109-2.508,2.109l-.273-.023-.539-.1V65.117l.391.031a1.923,1.923,0,0,0,1.145-.3,2.148,2.148,0,0,0,.676-1.086l.32-.859-3.016-8.359h1.578Zm-88.3,26.273a3.693,3.693,0,0,1-2.8-1.129,4.19,4.19,0,0,1-1.078-3.02v-.266a5.073,5.073,0,0,1,.48-2.246A3.748,3.748,0,0,1,44.7,78.949a3.378,3.378,0,0,1,1.871-.559,3.166,3.166,0,0,1,2.563,1.086,4.7,4.7,0,0,1,.914,3.109v.6H44.324a3,3,0,0,0,.73,2.02,2.3,2.3,0,0,0,1.777.77,2.517,2.517,0,0,0,1.3-.312,3.259,3.259,0,0,0,.93-.828l.883.688A3.55,3.55,0,0,1,46.754,87.156Zm-.18-7.578a1.928,1.928,0,0,0-1.469.637A3.1,3.1,0,0,0,44.371,82h4.234v-.109a2.753,2.753,0,0,0-.594-1.707A1.815,1.815,0,0,0,46.574,79.578Zm7.984,2.055,1.875-3.086h1.688l-2.766,4.18L58.207,87H56.535l-1.953-3.164L52.629,87h-1.68L53.8,82.727l-2.766-4.18h1.672ZM61.613,76.5v2.047h1.578v1.117H61.613v5.249a1.173,1.173,0,0,0,.211.763.888.888,0,0,0,.719.254,3.5,3.5,0,0,0,.688-.094V87a4.215,4.215,0,0,1-1.109.155,1.8,1.8,0,0,1-1.461-.586,2.517,2.517,0,0,1-.492-1.664V79.664H58.629V78.547h1.539V76.5Zm7.352,3.344a4.331,4.331,0,0,0-.711-.055A1.9,1.9,0,0,0,66.324,81v6H64.879V78.547h1.406l.023.977a2.251,2.251,0,0,1,2.016-1.133,1.477,1.477,0,0,1,.641.109ZM75.2,87a3.036,3.036,0,0,1-.2-.891,3.225,3.225,0,0,1-2.406,1.047,2.984,2.984,0,0,1-2.051-.707,2.287,2.287,0,0,1-.8-1.793,2.39,2.39,0,0,1,1-2.051,4.733,4.733,0,0,1,2.824-.73h1.406v-.664A1.623,1.623,0,0,0,74.52,80a1.821,1.821,0,0,0-1.336-.449,2.108,2.108,0,0,0-1.3.391,1.151,1.151,0,0,0-.523.945H69.91a2,2,0,0,1,.449-1.223,3.066,3.066,0,0,1,1.219-.934,4.1,4.1,0,0,1,1.691-.344,3.342,3.342,0,0,1,2.289.73,2.635,2.635,0,0,1,.859,2.012v3.891a4.757,4.757,0,0,0,.3,1.852V87Zm-2.4-1.1a2.54,2.54,0,0,0,1.289-.352,2.127,2.127,0,0,0,.883-.914V82.9H73.84q-2.656,0-2.656,1.555a1.316,1.316,0,0,0,.453,1.063A1.742,1.742,0,0,0,72.8,85.9Zm7.242-7.352.039.938a3.122,3.122,0,0,1,2.508-1.094A2.417,2.417,0,0,1,85,79.75a3.2,3.2,0,0,1,1.1-.984,3.242,3.242,0,0,1,1.6-.375q2.781,0,2.828,2.945V87H89.082V81.422a1.941,1.941,0,0,0-.414-1.355,1.823,1.823,0,0,0-1.391-.449,1.916,1.916,0,0,0-1.336.48,1.949,1.949,0,0,0-.617,1.293V87H83.871V81.461a1.613,1.613,0,0,0-1.8-1.844,1.934,1.934,0,0,0-1.945,1.211V87H78.676V78.547Zm17.883,7.617a3.07,3.07,0,0,1-2.477.992,2.628,2.628,0,0,1-2.059-.785,3.4,3.4,0,0,1-.715-2.324v-5.5h1.445v5.461q0,1.922,1.563,1.922a2.163,2.163,0,0,0,2.2-1.234V78.547h1.445V87H97.957Zm7.688-6.32a4.331,4.331,0,0,0-.711-.055A1.9,1.9,0,0,0,102.973,81v6h-1.445V78.547h1.406l.023.977a2.251,2.251,0,0,1,2.016-1.133,1.477,1.477,0,0,1,.641.109ZM111.848,87a3.036,3.036,0,0,1-.2-.891,3.225,3.225,0,0,1-2.406,1.047,2.984,2.984,0,0,1-2.051-.707,2.287,2.287,0,0,1-.8-1.793,2.39,2.39,0,0,1,1-2.051,4.733,4.733,0,0,1,2.824-.73h1.406v-.664A1.623,1.623,0,0,0,111.168,80a1.821,1.821,0,0,0-1.336-.449,2.108,2.108,0,0,0-1.3.391,1.151,1.151,0,0,0-.523.945h-1.453a2,2,0,0,1,.449-1.223,3.066,3.066,0,0,1,1.219-.934,4.1,4.1,0,0,1,1.691-.344,3.342,3.342,0,0,1,2.289.73,2.635,2.635,0,0,1,.859,2.012v3.891a4.757,4.757,0,0,0,.3,1.852V87Zm-2.4-1.1a2.54,2.54,0,0,0,1.289-.352,2.127,2.127,0,0,0,.883-.914V82.9h-1.133q-2.656,0-2.656,1.555a1.316,1.316,0,0,0,.453,1.063A1.742,1.742,0,0,0,109.449,85.9ZM116.9,87h-1.445V75H116.9Zm5.82.156a3.693,3.693,0,0,1-2.8-1.129,4.19,4.19,0,0,1-1.078-3.02v-.266a5.073,5.073,0,0,1,.48-2.246,3.748,3.748,0,0,1,1.344-1.547,3.378,3.378,0,0,1,1.871-.559,3.166,3.166,0,0,1,2.563,1.086,4.7,4.7,0,0,1,.914,3.109v.6h-5.727a3,3,0,0,0,.73,2.02,2.3,2.3,0,0,0,1.777.77,2.517,2.517,0,0,0,1.3-.312,3.259,3.259,0,0,0,.93-.828l.883.688A3.55,3.55,0,0,1,122.723,87.156Zm-.18-7.578a1.928,1.928,0,0,0-1.469.637A3.1,3.1,0,0,0,120.34,82h4.234v-.109a2.753,2.753,0,0,0-.594-1.707A1.815,1.815,0,0,0,122.543,79.578Zm10.07,5.18a1.064,1.064,0,0,0-.441-.91,4.249,4.249,0,0,0-1.539-.559,7.277,7.277,0,0,1-1.742-.562,2.479,2.479,0,0,1-.953-.781,1.869,1.869,0,0,1-.309-1.078,2.193,2.193,0,0,1,.879-1.758,3.432,3.432,0,0,1,2.246-.719,3.532,3.532,0,0,1,2.332.742,2.357,2.357,0,0,1,.895,1.9h-1.453a1.3,1.3,0,0,0-.5-1.023,1.888,1.888,0,0,0-1.27-.43,1.976,1.976,0,0,0-1.234.344,1.082,1.082,0,0,0-.445.9.877.877,0,0,0,.414.789,5.1,5.1,0,0,0,1.5.508,7.8,7.8,0,0,1,1.754.578,2.558,2.558,0,0,1,1,.809,1.988,1.988,0,0,1,.324,1.152,2.163,2.163,0,0,1-.906,1.816,3.8,3.8,0,0,1-2.352.684A4.257,4.257,0,0,1,129,86.8a2.922,2.922,0,0,1-1.223-1,2.42,2.42,0,0,1-.441-1.395h1.445a1.5,1.5,0,0,0,.582,1.152,2.258,2.258,0,0,0,1.434.426,2.331,2.331,0,0,0,1.316-.332A1.02,1.02,0,0,0,132.613,84.758Z" transform="translate(577.256 9997)" fill="#fff"/>
    <g id="Grupo_134507" data-name="Grupo 134507" transform="translate(8 112)">
      <circle id="Elipse_4933" data-name="Elipse 4933" cx="31.5" cy="31.5" r="31.5" transform="translate(487.256 9899)" fill="#fcd189"/>
      <g id="Grupo_134459" data-name="Grupo 134459" transform="translate(498.054 9909.797)">
        <g id="Grupo_134458" data-name="Grupo 134458" clip-path="url(#clip-path)">
          <path id="Trazado_127954" data-name="Trazado 127954" d="M90.355,49.1c0-2.279.012-4.559,0-6.839a2.663,2.663,0,1,0-5.322.046q-.007,4.493,0,8.985v.447c-.086-.065-.124-.093-.16-.122a2.738,2.738,0,0,0-3.417-.2c-1.182.777-2.389,1.526-3.5,2.406A11.226,11.226,0,0,0,73.971,59.8c-.6,2.221-.975,4.5-1.467,6.742-.146.671-.052.9.512,1.248h.477a1.3,1.3,0,0,0,.563-.8.417.417,0,0,1,.1-.069c.4-1.877.8-3.755,1.182-5.637a10.044,10.044,0,0,1,3.249-5.782,35.447,35.447,0,0,1,3.945-2.744.886.886,0,0,1,.652-.109,1.059,1.059,0,0,1,.882.712,1.2,1.2,0,0,1-.238,1.262c-.77.875-1.587,1.706-2.385,2.555-.453.482-.911.962-1.35,1.456a.886.886,0,0,0,.02,1.312.929.929,0,0,0,1.341-.137c1.146-1.195,2.257-2.422,3.412-3.607a6.156,6.156,0,0,0,1.865-4.535c-.034-3.034-.009-6.069-.009-9.1a2.1,2.1,0,0,1,.065-.669.9.9,0,0,1,1.016-.643.934.934,0,0,1,.833.782,3.1,3.1,0,0,1,.017.516c0,3.83-.013,7.659.007,11.489a6.867,6.867,0,0,1-1.255,4.143c-1.884,2.659-3.78,5.311-5.656,7.976a1.5,1.5,0,0,0-.327.819.4.4,0,0,1,.085.236c.066.276.313.4.494.572h.477a1.7,1.7,0,0,0,.529-.459q2.947-4.165,5.9-8.324a7.8,7.8,0,0,0,1.445-4.657c-.009-1.749,0-3.5,0-5.248" transform="translate(-49.63 -27.07)" fill="#133d60"/>
          <path id="Trazado_127955" data-name="Trazado 127955" d="M16.7,61.032a11.763,11.763,0,0,0-3.872-6.84,32.548,32.548,0,0,0-4.271-2.953,2.4,2.4,0,0,0-1.728-.26,3,3,0,0,0-1.5.773V51.3q0-3.936,0-7.871c0-.477.025-.957-.016-1.43a2.509,2.509,0,0,0-1.689-2.29,2.57,2.57,0,0,0-2.85.608A4.785,4.785,0,0,0,0,41.624v13.84a8.46,8.46,0,0,1,.307,1.2,8.327,8.327,0,0,0,1.2,2.437c.406.57.808,1.143,1.216,1.713a.847.847,0,0,0,1.247.368c.018.014.034.029.051.043l.014-.007a.854.854,0,0,0,.154-1.242c-.439-.711-.954-1.37-1.422-2.062a6.261,6.261,0,0,1-1.068-3.6q0-5.846,0-11.692a4.346,4.346,0,0,1,.011-.516.925.925,0,0,1,.9-.849.9.9,0,0,1,.994.776,2.772,2.772,0,0,1,.028.555q0,4.693,0,9.385a5.5,5.5,0,0,0,1.35,3.651c.98,1.149,2.069,2.2,3.082,3.319.293.324.611.626.91.945a.894.894,0,0,0,1.375-1.141,1.427,1.427,0,0,0-.2-.246c-.589-.555-1.112-1.174-1.662-1.765-.658-.707-1.361-1.375-1.974-2.125a1.232,1.232,0,0,1-.005-1.6,1.115,1.115,0,0,1,1.512-.124c.754.494,1.5,1,2.251,1.5a13.661,13.661,0,0,1,1.525,1.146,10.241,10.241,0,0,1,3.229,5.8c.375,1.87.773,3.736,1.175,5.6a.391.391,0,0,1,.1.071,1.3,1.3,0,0,0,.563.8h.477c.563-.343.654-.576.513-1.248-.387-1.837-.781-3.672-1.151-5.513" transform="translate(0 -27.073)" fill="#133d60"/>
          <path id="Trazado_127956" data-name="Trazado 127956" d="M2.809,95.757c.329.443.651.448,1.214.167-.017-.014-.033-.029-.051-.043a.848.848,0,0,1-1.247-.369c-.407-.57-.809-1.143-1.216-1.713a8.329,8.329,0,0,1-1.2-2.437A8.439,8.439,0,0,0,0,90.16a7.126,7.126,0,0,0,.458,1.947,16.684,16.684,0,0,0,2.351,3.65" transform="translate(0 -61.769)" fill="#133d60"/>
          <path id="Trazado_127957" data-name="Trazado 127957" d="M34.377,126.478l-.009-.041a.775.775,0,0,0-.345-.054q-3.246-.007-6.492,0a.662.662,0,0,0-.468.121.961.961,0,0,1-.049.226c-.066.276-.313.4-.493.572h8.511c-.434-.1-.55-.459-.656-.824" transform="translate(-18.17 -86.582)" fill="#133d60"/>
          <path id="Trazado_127958" data-name="Trazado 127958" d="M51.54,126.633a.4.4,0,0,0-.1-.071c0,.014.006.027.009.041.106.365.222.721.656.825a1.3,1.3,0,0,1-.563-.8" transform="translate(-35.241 -86.708)" fill="#133d60"/>
          <path id="Trazado_127959" data-name="Trazado 127959" d="M83.724,126.7a1.049,1.049,0,0,1-.014-.213c-.114-.133-.32-.112-.5-.113q-3.17-.009-6.339,0a.928.928,0,0,0-.424.058l-.009.043c-.107.363-.222.719-.655.822h8.511a.742.742,0,0,1-.565-.6" transform="translate(-51.916 -86.58)" fill="#133d60"/>
          <path id="Trazado_127960" data-name="Trazado 127960" d="M76.433,126.611l.009-.043a.427.427,0,0,0-.1.069,1.3,1.3,0,0,1-.563.8c.433-.1.549-.459.655-.822" transform="translate(-51.916 -86.712)" fill="#133d60"/>
          <path id="Trazado_127961" data-name="Trazado 127961" d="M101.051,126.983a.4.4,0,0,0-.085-.236,1.067,1.067,0,0,0,.014.212.742.742,0,0,0,.566.6c-.181-.177-.427-.3-.494-.572" transform="translate(-69.171 -86.835)" fill="#133d60"/>
          <path id="Trazado_127962" data-name="Trazado 127962" d="M22.475,121.2a1.135,1.135,0,0,0-.277-.8c-.268-.36-.516-.735-.776-1.1a1.956,1.956,0,0,0-.488-.514.691.691,0,0,0-.935.076c0,.012.007.022.009.034a1.1,1.1,0,0,0,.161,1.4,8.769,8.769,0,0,0,1.27,1.594.093.093,0,0,1,.017.108h.477c.082-.292.376-.444.476-.725a.423.423,0,0,1,.066-.074" transform="translate(-13.581 -81.279)" fill="#133d60"/>
          <path id="Trazado_127963" data-name="Trazado 127963" d="M21.136,122.374a8.768,8.768,0,0,1-1.269-1.594,1.1,1.1,0,0,1-.161-1.4c0-.012-.006-.022-.009-.034-.013.014-.027.025-.04.04a.847.847,0,0,0-.037,1.214c.309.445.633.88.937,1.328a1.6,1.6,0,0,0,.6.557.092.092,0,0,0-.017-.108" transform="translate(-13.279 -81.762)" fill="#133d60"/>
          <path id="Trazado_127964" data-name="Trazado 127964" d="M27.016,127a.946.946,0,0,0,.049-.226.423.423,0,0,0-.066.074c-.1.281-.395.432-.476.724.181-.176.427-.3.493-.572" transform="translate(-18.171 -86.855)" fill="#133d60"/>
          <path id="Trazado_127965" data-name="Trazado 127965" d="M43.95,34.48c.736,0,1.035-.3,1.038-1.034,0-.862.015-1.723-.008-2.584-.008-.291.08-.344.35-.34,1.06.016,2.121.011,3.181,0a.83.83,0,0,0,.927-.9c.015-.45.019-.9,0-1.352a3.709,3.709,0,0,0-2.19-3.414,10.693,10.693,0,0,0-1.786-.518c-.113-.032-.282.024-.308-.177-.021-.168.108-.229.205-.31a3.375,3.375,0,0,0,1.253-2.184,12.418,12.418,0,0,0,.027-2.7,3.531,3.531,0,0,0-5.628-2.557c-.322.24-.308-.08-.378-.208a4.488,4.488,0,0,0-4.151-2.527,4.432,4.432,0,0,0-4.1,2.528c-.168.314-.25.317-.522.122a3.533,3.533,0,0,0-5.326,1.78,9.17,9.17,0,0,0-.151,3.545,3.145,3.145,0,0,0,1.033,2c.095.092.2.168.3.262.184.185.223.336-.1.406s-.669.158-1,.238a3.762,3.762,0,0,0-2.815,2.38,6.885,6.885,0,0,0-.244,2.593c0,.694.306.985,1,.987,1.047,0,2.094.008,3.141,0,.237,0,.313.044.307.3-.02.9-.014,1.8-.006,2.7a.836.836,0,0,0,.917.952c1.511.014,3.022.011,4.533,0,.567,0,.8-.219.928-.779a.72.72,0,0,0-.552-.857,1.581,1.581,0,0,0-.394-.04c-.561-.014-.561-.014-.562-.587,0-.278.009-.557,0-.835a.908.908,0,1,0-1.8.012c-.008.159,0,.318,0,.477-.017,1.033.173.928-1.017.932-.255,0-.356-.114-.353-.362.006-.543-.025-1.088.01-1.63a3.254,3.254,0,0,1,2.7-3.157c.453-.1.9-.213,1.354-.322.48-.117.5-.1.693.331.4.893.787,1.8,1.189,2.69a.9.9,0,0,0,.817.6.912.912,0,0,0,.9-.537c.057-.105.1-.216.147-.326.348-.831.739-1.643,1.082-2.477.1-.239.227-.379.508-.31a20.314,20.314,0,0,1,2.151.569,2.976,2.976,0,0,1,1.786,1.7,5.585,5.585,0,0,1,.286,2.308c-.011,1.021.147.91-.945.924-.3,0-.44-.1-.428-.416s.01-.636,0-.954a.914.914,0,1,0-1.8-.016c-.01.252,0,.5,0,.755,0,.618,0,.618-.6.628a1.69,1.69,0,0,0-.434.04.72.72,0,0,0-.552.857c.128.579.377.779,1.007.781q2.207.007,4.414,0M41.45,18.2a2.011,2.011,0,0,1,2.1-.857,1.927,1.927,0,0,1,1.494,1.782,7.353,7.353,0,0,1-3.448-.509c-.231-.107-.3-.181-.15-.417m.321,2.182a8.406,8.406,0,0,0,2.9.339c.322-.013.432.058.412.4a1.985,1.985,0,0,1-1.93,1.934,1.937,1.937,0,0,1-2-1.846c-.011-.132-.013-.265-.02-.4.009-.634.008-.63.63-.433m-8.309-2.227A3.04,3.04,0,0,1,39.2,16.915a4.061,4.061,0,0,1,.2.473,3.567,3.567,0,0,1,.088.42c-.436-.255-.831-.5-1.234-.72a.767.767,0,0,0-1.1.147,4.005,4.005,0,0,1-3.5,1.207c-.235-.014-.2-.134-.2-.284m-5.413.409a1.86,1.86,0,0,1,1.525-1.237,1.9,1.9,0,0,1,1.909.8c.176.235.2.368-.126.508a6.719,6.719,0,0,1-2.672.5h-.239c-.612,0-.618,0-.4-.573M27.9,20.944c.015-.269.172-.214.318-.212a9.235,9.235,0,0,0,2.827-.3c.25-.076.5-.16.8-.257a7.272,7.272,0,0,1-.026,1.189,1.95,1.95,0,0,1-2.207,1.684,2.029,2.029,0,0,1-1.711-2.1m3.67,5.17A4.771,4.771,0,0,0,28.5,28.683a.393.393,0,0,1-.423.258c-.861-.013-1.722-.014-2.583,0-.263,0-.364-.047-.365-.341A2.259,2.259,0,0,1,27.1,26.082c.527-.126,1.057-.242,1.581-.378s.682-.305.735-.84c.016-.165.05-.242.229-.224a2.2,2.2,0,0,0,.436,0c.168-.017.235.032.238.211a.847.847,0,0,0,.777.859c.306.068.609.148.924.225a.877.877,0,0,1-.453.177m.524-1.8c-.227-.052-.229-.18-.114-.344a.429.429,0,0,1,.059-.052c.521-.5.52-.5,1,.03.142.156.293.3.45.445s.3.241.446.361c-.617-.163-1.231-.3-1.843-.439m5.342,1.351a1.326,1.326,0,0,1-.069.466c-.282.626-.556,1.255-.874,1.976-.328-.754-.639-1.408-.9-2.082-.177-.457-.045-.579.44-.536a3.516,3.516,0,0,0,1.147-.038c.189-.045.272.009.255.213m.844-2.333a3.037,3.037,0,0,1-4.8-2.169c-.038-.354-.145-.808.022-1.047.181-.259.661-.082,1.009-.088a4.953,4.953,0,0,0,3.155-1.112.385.385,0,0,1,.548-.025,5.776,5.776,0,0,0,.891.518.662.662,0,0,1,.452.8,2.409,2.409,0,0,0,0,.33,3.045,3.045,0,0,1-1.273,2.789m.8,1.442a6.07,6.07,0,0,0,1.2-1.214c.041-.059.1-.177.172-.09.191.245.55.342.627.673.037.158-.135.154-.248.183-.581.154-1.178.249-1.75.448M41.039,26c-.023-.006-.04-.031-.082-.065.368-.091.7-.175,1.034-.257a.789.789,0,0,0,.673-.773c.01-.232.085-.3.3-.264a1.17,1.17,0,0,0,.316,0c.184-.02.289,0,.287.239a.775.775,0,0,0,.676.805c.642.155,1.287.3,1.924.469a2.273,2.273,0,0,1,1.681,2.614c-.01.152-.094.164-.209.164-.953,0-1.906,0-2.859,0a.238.238,0,0,1-.251-.145A4.944,4.944,0,0,0,41.039,26" transform="translate(-16.127 -9.371)" fill="#133d60"/>
          <path id="Trazado_127966" data-name="Trazado 127966" d="M62.9,2.772a.8.8,0,0,0,.8-.729,5.422,5.422,0,0,0,0-.632h0a6.456,6.456,0,0,0,0-.672A.8.8,0,0,0,62.914,0a.774.774,0,0,0-.772.709,9.019,9.019,0,0,0,0,1.343.782.782,0,0,0,.763.721" transform="translate(-42.556 0)" fill="#133d60"/>
          <path id="Trazado_127967" data-name="Trazado 127967" d="M49.613,7.111A.777.777,0,0,0,50.827,6.5a2.626,2.626,0,0,0-1.612-1.658.82.82,0,0,0-.695.427.708.708,0,0,0,.032.785,4.869,4.869,0,0,0,1.061,1.061" transform="translate(-33.171 -3.314)" fill="#133d60"/>
          <path id="Trazado_127968" data-name="Trazado 127968" d="M73.466,7.158a.7.7,0,0,0,.912.052A5.029,5.029,0,0,0,75.461,6.12a.682.682,0,0,0,0-.784.763.763,0,0,0-.705-.389A.638.638,0,0,0,74.509,5a3.726,3.726,0,0,0-1.281,1.313.675.675,0,0,0,.239.849" transform="translate(-50.121 -3.389)" fill="#133d60"/>
          <path id="Trazado_127969" data-name="Trazado 127969" d="M62.891,74.715c-.423.009-.658.248-.785.8.145.523.4.771.8.771s.656-.245.806-.771c-.135-.564-.387-.807-.825-.8" transform="translate(-42.549 -51.187)" fill="#133d60"/>
          <path id="Trazado_127970" data-name="Trazado 127970" d="M15.668,111.759a.879.879,0,0,0-.941-.081l.006.012c-.008.139-.111.235-.163.355a.645.645,0,0,0,.048.707.656.656,0,0,0,.692.271.638.638,0,0,1,.348-.032l.007.007c.388-.487.39-.912,0-1.238" transform="translate(-9.926 -76.444)" fill="#133d60"/>
          <path id="Trazado_127971" data-name="Trazado 127971" d="M15.065,113.234a.657.657,0,0,1-.692-.271.645.645,0,0,1-.048-.707c.052-.119.155-.215.163-.354l-.006-.012-.015.005a2,2,0,0,0-.238.309.755.755,0,0,0,.126.911.818.818,0,0,0,1.048.119l.018-.025-.007-.007a.634.634,0,0,0-.348.032" transform="translate(-9.681 -76.656)" fill="#133d60"/>
        </g>
      </g>
    </g>
  </g>
</svg>
