<svg xmlns="http://www.w3.org/2000/svg" xmlns:xlink="http://www.w3.org/1999/xlink" width="295" height="135" viewBox="0 0 295 135">
  <defs>
    <clipPath id="clip-path">
      <rect id="Rect치ngulo_36076" data-name="Rect치ngulo 36076" width="47.593" height="41.049" fill="#133d60"/>
    </clipPath>
  </defs>
  <g id="Grupo_134518" data-name="Grupo 134518" transform="translate(-180.256 -10492)">
    <rect id="Rect치ngulo_36100" data-name="Rect치ngulo 36100" width="263" height="135" rx="13" transform="translate(212.256 10492)" fill="#133d60"/>
    <path id="Trazado_128086" data-name="Trazado 128086" d="M46.922,10.547V15h-1.5V3.625h4.2a4.215,4.215,0,0,1,2.926.953A3.231,3.231,0,0,1,53.6,7.1a3.189,3.189,0,0,1-1.035,2.551,4.4,4.4,0,0,1-2.965.895Zm0-1.227h2.7a2.7,2.7,0,0,0,1.844-.567,2.075,2.075,0,0,0,.641-1.64,2.143,2.143,0,0,0-.641-1.628A2.525,2.525,0,0,0,49.7,4.852H46.922Zm13.289,3.438a1.064,1.064,0,0,0-.441-.91,4.249,4.249,0,0,0-1.539-.559,7.277,7.277,0,0,1-1.742-.562,2.479,2.479,0,0,1-.953-.781,1.869,1.869,0,0,1-.309-1.078,2.193,2.193,0,0,1,.879-1.758,3.432,3.432,0,0,1,2.246-.719,3.532,3.532,0,0,1,2.332.742,2.357,2.357,0,0,1,.895,1.9H60.125a1.3,1.3,0,0,0-.5-1.023,1.888,1.888,0,0,0-1.27-.43,1.976,1.976,0,0,0-1.234.344,1.082,1.082,0,0,0-.445.9.877.877,0,0,0,.414.789,5.1,5.1,0,0,0,1.5.508,7.8,7.8,0,0,1,1.754.578,2.558,2.558,0,0,1,1,.809,1.988,1.988,0,0,1,.324,1.152,2.163,2.163,0,0,1-.906,1.816,3.8,3.8,0,0,1-2.352.684,4.257,4.257,0,0,1-1.8-.359,2.922,2.922,0,0,1-1.223-1,2.42,2.42,0,0,1-.441-1.395h1.445a1.5,1.5,0,0,0,.582,1.152,2.258,2.258,0,0,0,1.434.426,2.331,2.331,0,0,0,1.316-.332A1.02,1.02,0,0,0,60.211,12.758ZM65.109,15H63.664V6.547h1.445ZM63.547,4.3a.863.863,0,0,1,.215-.594.807.807,0,0,1,.637-.242.819.819,0,0,1,.641.242.854.854,0,0,1,.219.594.826.826,0,0,1-.219.586.834.834,0,0,1-.641.234.821.821,0,0,1-.637-.234A.834.834,0,0,1,63.547,4.3Zm7.266,9.672a2.082,2.082,0,0,0,1.352-.469,1.649,1.649,0,0,0,.641-1.172h1.367a2.621,2.621,0,0,1-.5,1.383,3.293,3.293,0,0,1-1.23,1.047,3.55,3.55,0,0,1-1.629.391A3.482,3.482,0,0,1,68.066,14a4.59,4.59,0,0,1-1.02-3.152v-.242a5.089,5.089,0,0,1,.453-2.2,3.451,3.451,0,0,1,1.3-1.492,3.7,3.7,0,0,1,2-.531,3.39,3.39,0,0,1,2.363.852,3.043,3.043,0,0,1,1,2.211H72.8a1.992,1.992,0,0,0-.621-1.348A1.932,1.932,0,0,0,70.8,7.578a2.023,2.023,0,0,0-1.707.793,3.724,3.724,0,0,0-.605,2.293v.273a3.65,3.65,0,0,0,.6,2.25A2.033,2.033,0,0,0,70.813,13.977Zm4.6-3.281A4.993,4.993,0,0,1,75.9,8.461,3.643,3.643,0,0,1,77.262,6.93a3.7,3.7,0,0,1,1.988-.539,3.565,3.565,0,0,1,2.793,1.2,4.6,4.6,0,0,1,1.066,3.18v.1a5.036,5.036,0,0,1-.473,2.215,3.589,3.589,0,0,1-1.352,1.527,3.743,3.743,0,0,1-2.02.547,3.556,3.556,0,0,1-2.785-1.2A4.575,4.575,0,0,1,75.414,10.8Zm1.453.172a3.616,3.616,0,0,0,.652,2.258,2.211,2.211,0,0,0,3.5-.012,3.955,3.955,0,0,0,.648-2.418A3.61,3.61,0,0,0,81,8.441a2.1,2.1,0,0,0-1.754-.863,2.075,2.075,0,0,0-1.727.852A3.925,3.925,0,0,0,76.867,10.867ZM86.883,4.5V6.547h1.578V7.664H86.883v5.249a1.173,1.173,0,0,0,.211.763.888.888,0,0,0,.719.254,3.5,3.5,0,0,0,.688-.094V15a4.215,4.215,0,0,1-1.109.155,1.8,1.8,0,0,1-1.461-.586,2.517,2.517,0,0,1-.492-1.664V7.664H83.9V6.547h1.539V4.5Zm6.773,10.656a3.693,3.693,0,0,1-2.8-1.129,4.19,4.19,0,0,1-1.078-3.02v-.266a5.073,5.073,0,0,1,.48-2.246,3.748,3.748,0,0,1,1.344-1.547,3.378,3.378,0,0,1,1.871-.559,3.166,3.166,0,0,1,2.563,1.086,4.7,4.7,0,0,1,.914,3.109v.6H91.227a3,3,0,0,0,.73,2.02,2.3,2.3,0,0,0,1.777.77,2.517,2.517,0,0,0,1.3-.312,3.259,3.259,0,0,0,.93-.828l.883.688A3.55,3.55,0,0,1,93.656,15.156Zm-.18-7.578a1.928,1.928,0,0,0-1.469.637A3.1,3.1,0,0,0,91.273,10h4.234V9.891a2.753,2.753,0,0,0-.594-1.707A1.815,1.815,0,0,0,93.477,7.578Zm9.234.266A4.331,4.331,0,0,0,102,7.789,1.9,1.9,0,0,0,100.07,9v6H98.625V6.547h1.406l.023.977a2.251,2.251,0,0,1,2.016-1.133,1.477,1.477,0,0,1,.641.109ZM108.945,15a3.036,3.036,0,0,1-.2-.891,3.225,3.225,0,0,1-2.406,1.047,2.984,2.984,0,0,1-2.051-.707,2.288,2.288,0,0,1-.8-1.793,2.39,2.39,0,0,1,1-2.051,4.733,4.733,0,0,1,2.824-.73h1.406V9.211A1.623,1.623,0,0,0,108.266,8a1.821,1.821,0,0,0-1.336-.449,2.108,2.108,0,0,0-1.3.391,1.151,1.151,0,0,0-.523.945h-1.453a2,2,0,0,1,.449-1.223,3.066,3.066,0,0,1,1.219-.934,4.1,4.1,0,0,1,1.691-.344,3.342,3.342,0,0,1,2.289.73,2.635,2.635,0,0,1,.859,2.012v3.891a4.757,4.757,0,0,0,.3,1.852V15Zm-2.4-1.1a2.54,2.54,0,0,0,1.289-.352,2.127,2.127,0,0,0,.883-.914V10.9h-1.133q-2.656,0-2.656,1.555a1.316,1.316,0,0,0,.453,1.063A1.742,1.742,0,0,0,106.547,13.9Zm13.023-3.031a5.062,5.062,0,0,1-.883,3.109,2.829,2.829,0,0,1-2.391,1.18,3.1,3.1,0,0,1-2.422-.977v4.07H112.43V6.547h1.32l.07.938a2.977,2.977,0,0,1,2.453-1.094,2.882,2.882,0,0,1,2.41,1.148,5.117,5.117,0,0,1,.887,3.2Zm-1.445-.164a3.735,3.735,0,0,0-.609-2.258,1.963,1.963,0,0,0-1.672-.828,2.125,2.125,0,0,0-1.969,1.164V12.82a2.129,2.129,0,0,0,1.984,1.156,1.954,1.954,0,0,0,1.652-.824A4.077,4.077,0,0,0,118.125,10.7Zm4.852,4.3h-1.445V6.547h1.445ZM121.414,4.3a.863.863,0,0,1,.215-.594.807.807,0,0,1,.637-.242.819.819,0,0,1,.641.242.854.854,0,0,1,.219.594.826.826,0,0,1-.219.586.834.834,0,0,1-.641.234.821.821,0,0,1-.637-.234A.834.834,0,0,1,121.414,4.3ZM130.508,15a3.036,3.036,0,0,1-.2-.891,3.225,3.225,0,0,1-2.406,1.047,2.984,2.984,0,0,1-2.051-.707,2.288,2.288,0,0,1-.8-1.793,2.39,2.39,0,0,1,1-2.051,4.733,4.733,0,0,1,2.824-.73h1.406V9.211A1.623,1.623,0,0,0,129.828,8a1.821,1.821,0,0,0-1.336-.449,2.108,2.108,0,0,0-1.3.391,1.151,1.151,0,0,0-.523.945h-1.453a2,2,0,0,1,.449-1.223,3.066,3.066,0,0,1,1.219-.934,4.1,4.1,0,0,1,1.691-.344,3.342,3.342,0,0,1,2.289.73,2.635,2.635,0,0,1,.859,2.012v3.891a4.757,4.757,0,0,0,.3,1.852V15Zm-2.4-1.1a2.54,2.54,0,0,0,1.289-.352,2.127,2.127,0,0,0,.883-.914V10.9h-1.133q-2.656,0-2.656,1.555a1.316,1.316,0,0,0,.453,1.063A1.742,1.742,0,0,0,128.109,13.9ZM13.691,39a3.036,3.036,0,0,1-.2-.891,3.225,3.225,0,0,1-2.406,1.047,2.984,2.984,0,0,1-2.051-.707,2.287,2.287,0,0,1-.8-1.793,2.39,2.39,0,0,1,1-2.051,4.733,4.733,0,0,1,2.824-.73h1.406v-.664A1.623,1.623,0,0,0,13.012,32a1.821,1.821,0,0,0-1.336-.449,2.108,2.108,0,0,0-1.3.391,1.151,1.151,0,0,0-.523.945H8.4a2,2,0,0,1,.449-1.223,3.066,3.066,0,0,1,1.219-.934,4.1,4.1,0,0,1,1.691-.344,3.342,3.342,0,0,1,2.289.73,2.635,2.635,0,0,1,.859,2.012v3.891a4.757,4.757,0,0,0,.3,1.852V39Zm-2.4-1.1a2.54,2.54,0,0,0,1.289-.352,2.127,2.127,0,0,0,.883-.914V34.9H12.332q-2.656,0-2.656,1.555a1.316,1.316,0,0,0,.453,1.063A1.742,1.742,0,0,0,11.293,37.9Zm7.242-7.352.039.938a3.122,3.122,0,0,1,2.508-1.094A2.417,2.417,0,0,1,23.5,31.75a3.2,3.2,0,0,1,1.1-.984,3.242,3.242,0,0,1,1.6-.375q2.781,0,2.828,2.945V39H27.574V33.422a1.941,1.941,0,0,0-.414-1.355,1.823,1.823,0,0,0-1.391-.449,1.916,1.916,0,0,0-1.336.48,1.949,1.949,0,0,0-.617,1.293V39H22.363V33.461a1.613,1.613,0,0,0-1.8-1.844,1.934,1.934,0,0,0-1.945,1.211V39H17.168V30.547Zm19.82,4.32a5.026,5.026,0,0,1-.891,3.113,2.846,2.846,0,0,1-2.391,1.176A2.947,2.947,0,0,1,32.6,38.023l-.07.977H31.2V27h1.445v4.477a2.93,2.93,0,0,1,2.414-1.086,2.863,2.863,0,0,1,2.418,1.164,5.177,5.177,0,0,1,.879,3.188ZM36.91,34.7a3.906,3.906,0,0,0-.57-2.281,1.888,1.888,0,0,0-1.641-.8,2.122,2.122,0,0,0-2.055,1.328V36.6a2.181,2.181,0,0,0,2.07,1.328,1.878,1.878,0,0,0,1.617-.8A4.153,4.153,0,0,0,36.91,34.7Zm8.484,3.461a3.07,3.07,0,0,1-2.477.992,2.628,2.628,0,0,1-2.059-.785,3.4,3.4,0,0,1-.715-2.324v-5.5H41.59v5.461q0,1.922,1.563,1.922a2.163,2.163,0,0,0,2.2-1.234V30.547H46.8V39H45.426ZM50.566,39H49.121V27h1.445ZM58.1,39a3.036,3.036,0,0,1-.2-.891,3.225,3.225,0,0,1-2.406,1.047,2.984,2.984,0,0,1-2.051-.707,2.287,2.287,0,0,1-.8-1.793,2.39,2.39,0,0,1,1-2.051,4.733,4.733,0,0,1,2.824-.73h1.406v-.664A1.623,1.623,0,0,0,57.418,32a1.821,1.821,0,0,0-1.336-.449,2.107,2.107,0,0,0-1.3.391,1.151,1.151,0,0,0-.523.945H52.809a2,2,0,0,1,.449-1.223,3.066,3.066,0,0,1,1.219-.934,4.1,4.1,0,0,1,1.691-.344,3.342,3.342,0,0,1,2.289.73,2.635,2.635,0,0,1,.859,2.012v3.891a4.757,4.757,0,0,0,.3,1.852V39Zm-2.4-1.1a2.54,2.54,0,0,0,1.289-.352,2.127,2.127,0,0,0,.883-.914V34.9H56.738q-2.656,0-2.656,1.555a1.316,1.316,0,0,0,.453,1.063A1.742,1.742,0,0,0,55.7,37.9Zm7.844-9.4v2.047h1.578v1.117H63.543v5.249a1.173,1.173,0,0,0,.211.763.888.888,0,0,0,.719.254,3.5,3.5,0,0,0,.688-.094V39a4.215,4.215,0,0,1-1.109.155,1.8,1.8,0,0,1-1.461-.586,2.517,2.517,0,0,1-.492-1.664V31.664H60.559V30.547H62.1V28.5Zm2.727,6.2a4.993,4.993,0,0,1,.488-2.234,3.643,3.643,0,0,1,1.359-1.531,3.7,3.7,0,0,1,1.988-.539,3.565,3.565,0,0,1,2.793,1.2,4.6,4.6,0,0,1,1.066,3.18v.1a5.036,5.036,0,0,1-.473,2.215,3.589,3.589,0,0,1-1.352,1.527,3.743,3.743,0,0,1-2.02.547,3.556,3.556,0,0,1-2.785-1.2A4.575,4.575,0,0,1,66.27,34.8Zm1.453.172a3.616,3.616,0,0,0,.652,2.258,2.211,2.211,0,0,0,3.5-.012A3.955,3.955,0,0,0,72.52,34.7a3.61,3.61,0,0,0-.66-2.254,2.1,2.1,0,0,0-1.754-.863,2.075,2.075,0,0,0-1.727.852A3.925,3.925,0,0,0,67.723,34.867Zm12.141-3.023a4.331,4.331,0,0,0-.711-.055A1.9,1.9,0,0,0,77.223,33v6H75.777V30.547h1.406l.023.977a2.251,2.251,0,0,1,2.016-1.133,1.477,1.477,0,0,1,.641.109ZM82.762,39H81.316V30.547h1.445ZM81.2,28.3a.863.863,0,0,1,.215-.594.807.807,0,0,1,.637-.242.819.819,0,0,1,.641.242.854.854,0,0,1,.219.594.826.826,0,0,1-.219.586.834.834,0,0,1-.641.234.821.821,0,0,1-.637-.234A.834.834,0,0,1,81.2,28.3ZM90.293,39a3.036,3.036,0,0,1-.2-.891,3.225,3.225,0,0,1-2.406,1.047,2.984,2.984,0,0,1-2.051-.707,2.288,2.288,0,0,1-.8-1.793,2.39,2.39,0,0,1,1-2.051,4.733,4.733,0,0,1,2.824-.73h1.406v-.664A1.623,1.623,0,0,0,89.613,32a1.821,1.821,0,0,0-1.336-.449,2.108,2.108,0,0,0-1.3.391,1.151,1.151,0,0,0-.523.945H85a2,2,0,0,1,.449-1.223,3.066,3.066,0,0,1,1.219-.934,4.1,4.1,0,0,1,1.691-.344,3.342,3.342,0,0,1,2.289.73,2.635,2.635,0,0,1,.859,2.012v3.891a4.757,4.757,0,0,0,.3,1.852V39Zm-2.4-1.1a2.54,2.54,0,0,0,1.289-.352,2.127,2.127,0,0,0,.883-.914V34.9H88.934q-2.656,0-2.656,1.555a1.316,1.316,0,0,0,.453,1.063A1.742,1.742,0,0,0,87.895,37.9ZM100.5,36.883l1.969-6.336h1.547l-3.4,9.758q-.789,2.109-2.508,2.109l-.273-.023-.539-.1V41.117l.391.031a1.923,1.923,0,0,0,1.145-.3,2.149,2.149,0,0,0,.676-1.086l.32-.859-3.016-8.359h1.578ZM114.488,39a3.036,3.036,0,0,1-.2-.891,3.225,3.225,0,0,1-2.406,1.047,2.984,2.984,0,0,1-2.051-.707,2.288,2.288,0,0,1-.8-1.793,2.39,2.39,0,0,1,1-2.051,4.733,4.733,0,0,1,2.824-.73h1.406v-.664A1.623,1.623,0,0,0,113.809,32a1.821,1.821,0,0,0-1.336-.449,2.108,2.108,0,0,0-1.3.391,1.151,1.151,0,0,0-.523.945H109.2a2,2,0,0,1,.449-1.223,3.066,3.066,0,0,1,1.219-.934,4.1,4.1,0,0,1,1.691-.344,3.342,3.342,0,0,1,2.289.73,2.635,2.635,0,0,1,.859,2.012v3.891a4.757,4.757,0,0,0,.3,1.852V39Zm-2.4-1.1a2.54,2.54,0,0,0,1.289-.352,2.127,2.127,0,0,0,.883-.914V34.9h-1.133q-2.656,0-2.656,1.555a1.316,1.316,0,0,0,.453,1.063A1.742,1.742,0,0,0,112.09,37.9Zm7.844-9.4v2.047h1.578v1.117h-1.578v5.249a1.173,1.173,0,0,0,.211.763.888.888,0,0,0,.719.254,3.5,3.5,0,0,0,.688-.094V39a4.215,4.215,0,0,1-1.109.155,1.8,1.8,0,0,1-1.461-.586,2.517,2.517,0,0,1-.492-1.664V31.664h-1.539V30.547h1.539V28.5Zm6.773,10.656a3.693,3.693,0,0,1-2.8-1.129,4.19,4.19,0,0,1-1.078-3.02v-.266a5.073,5.073,0,0,1,.48-2.246,3.748,3.748,0,0,1,1.344-1.547,3.378,3.378,0,0,1,1.871-.559,3.166,3.166,0,0,1,2.563,1.086A4.7,4.7,0,0,1,130,34.586v.6h-5.727a3,3,0,0,0,.73,2.02,2.3,2.3,0,0,0,1.777.77,2.517,2.517,0,0,0,1.3-.312,3.258,3.258,0,0,0,.93-.828l.883.688A3.55,3.55,0,0,1,126.707,39.156Zm-.18-7.578a1.928,1.928,0,0,0-1.469.637A3.1,3.1,0,0,0,124.324,34h4.234v-.109a2.753,2.753,0,0,0-.594-1.707A1.815,1.815,0,0,0,126.527,31.578Zm6.516-1.031.047,1.063a3.08,3.08,0,0,1,2.531-1.219q2.68,0,2.7,3.023V39h-1.445V33.406a1.946,1.946,0,0,0-.418-1.352,1.675,1.675,0,0,0-1.277-.437,2.086,2.086,0,0,0-1.234.375,2.546,2.546,0,0,0-.828.984V39h-1.445V30.547Zm10.852,7.43a2.082,2.082,0,0,0,1.352-.469,1.649,1.649,0,0,0,.641-1.172h1.367a2.621,2.621,0,0,1-.5,1.383,3.293,3.293,0,0,1-1.23,1.047,3.55,3.55,0,0,1-1.629.391A3.482,3.482,0,0,1,141.148,38a4.59,4.59,0,0,1-1.02-3.152v-.242a5.089,5.089,0,0,1,.453-2.2,3.451,3.451,0,0,1,1.3-1.492,3.7,3.7,0,0,1,2-.531,3.39,3.39,0,0,1,2.363.852,3.043,3.043,0,0,1,1,2.211h-1.367a1.992,1.992,0,0,0-.621-1.348,1.932,1.932,0,0,0-1.379-.527,2.023,2.023,0,0,0-1.707.793,3.724,3.724,0,0,0-.605,2.293v.273a3.65,3.65,0,0,0,.6,2.25A2.033,2.033,0,0,0,143.895,37.977ZM150.449,39H149V30.547h1.445Zm-1.562-10.7a.863.863,0,0,1,.215-.594.807.807,0,0,1,.637-.242.819.819,0,0,1,.641.242.854.854,0,0,1,.219.594.826.826,0,0,1-.219.586.834.834,0,0,1-.641.234.821.821,0,0,1-.637-.234A.834.834,0,0,1,148.887,28.3Zm3.492,6.391a4.993,4.993,0,0,1,.488-2.234,3.642,3.642,0,0,1,1.359-1.531,3.7,3.7,0,0,1,1.988-.539,3.565,3.565,0,0,1,2.793,1.2,4.6,4.6,0,0,1,1.066,3.18v.1a5.036,5.036,0,0,1-.473,2.215,3.589,3.589,0,0,1-1.352,1.527,3.743,3.743,0,0,1-2.02.547,3.556,3.556,0,0,1-2.785-1.2,4.575,4.575,0,0,1-1.066-3.164Zm1.453.172a3.616,3.616,0,0,0,.652,2.258,2.211,2.211,0,0,0,3.5-.012,3.954,3.954,0,0,0,.648-2.418,3.61,3.61,0,0,0-.66-2.254,2.1,2.1,0,0,0-1.754-.863,2.075,2.075,0,0,0-1.727.852A3.925,3.925,0,0,0,153.832,34.867Zm3.039-7.852h1.75l-2.094,2.3-1.164,0Zm6.383,3.531.047,1.063a3.08,3.08,0,0,1,2.531-1.219q2.68,0,2.7,3.023V39H167.09V33.406a1.946,1.946,0,0,0-.418-1.352,1.675,1.675,0,0,0-1.277-.437,2.086,2.086,0,0,0-1.234.375,2.546,2.546,0,0,0-.828.984V39h-1.445V30.547ZM6.1,61.977a2.082,2.082,0,0,0,1.352-.469,1.649,1.649,0,0,0,.641-1.172H9.461a2.621,2.621,0,0,1-.5,1.383,3.293,3.293,0,0,1-1.23,1.047,3.55,3.55,0,0,1-1.629.391A3.482,3.482,0,0,1,3.355,62a4.59,4.59,0,0,1-1.02-3.152v-.242a5.089,5.089,0,0,1,.453-2.2,3.451,3.451,0,0,1,1.3-1.492,3.7,3.7,0,0,1,2-.531,3.39,3.39,0,0,1,2.363.852,3.043,3.043,0,0,1,1,2.211H8.094a1.992,1.992,0,0,0-.621-1.348,1.932,1.932,0,0,0-1.379-.527,2.023,2.023,0,0,0-1.707.793,3.724,3.724,0,0,0-.605,2.293v.273a3.65,3.65,0,0,0,.6,2.25A2.033,2.033,0,0,0,6.1,61.977ZM10.7,58.7a4.993,4.993,0,0,1,.488-2.234,3.643,3.643,0,0,1,1.359-1.531,3.7,3.7,0,0,1,1.988-.539,3.565,3.565,0,0,1,2.793,1.2,4.6,4.6,0,0,1,1.066,3.18v.1a5.036,5.036,0,0,1-.473,2.215,3.589,3.589,0,0,1-1.352,1.527,3.743,3.743,0,0,1-2.02.547,3.556,3.556,0,0,1-2.785-1.2A4.575,4.575,0,0,1,10.7,58.8Zm1.453.172a3.616,3.616,0,0,0,.652,2.258,2.211,2.211,0,0,0,3.5-.012,3.955,3.955,0,0,0,.648-2.418,3.61,3.61,0,0,0-.66-2.254,2.1,2.1,0,0,0-1.754-.863,2.075,2.075,0,0,0-1.727.852A3.925,3.925,0,0,0,12.156,58.867Zm9.422-4.32.047,1.063a3.08,3.08,0,0,1,2.531-1.219q2.68,0,2.7,3.023V63H25.414V57.406A1.946,1.946,0,0,0,25,56.055a1.675,1.675,0,0,0-1.277-.437,2.086,2.086,0,0,0-1.234.375,2.546,2.546,0,0,0-.828.984V63H20.211V54.547ZM34.57,63H33.125V54.547H34.57ZM33.008,52.3a.863.863,0,0,1,.215-.594.807.807,0,0,1,.637-.242.819.819,0,0,1,.641.242.854.854,0,0,1,.219.594.826.826,0,0,1-.219.586.834.834,0,0,1-.641.234.821.821,0,0,1-.637-.234A.834.834,0,0,1,33.008,52.3Zm5.242,2.242.047,1.063a3.08,3.08,0,0,1,2.531-1.219q2.68,0,2.7,3.023V63H42.086V57.406a1.946,1.946,0,0,0-.418-1.352,1.675,1.675,0,0,0-1.277-.437,2.086,2.086,0,0,0-1.234.375,2.546,2.546,0,0,0-.828.984V63H36.883V54.547ZM47.672,52.5v2.047H49.25v1.117H47.672v5.249a1.173,1.173,0,0,0,.211.763.888.888,0,0,0,.719.254,3.5,3.5,0,0,0,.688-.094V63a4.215,4.215,0,0,1-1.109.155,1.8,1.8,0,0,1-1.461-.586,2.517,2.517,0,0,1-.492-1.664V55.664H44.688V54.547h1.539V52.5Zm6.773,10.656a3.693,3.693,0,0,1-2.8-1.129,4.19,4.19,0,0,1-1.078-3.02v-.266a5.073,5.073,0,0,1,.48-2.246,3.748,3.748,0,0,1,1.344-1.547,3.378,3.378,0,0,1,1.871-.559,3.166,3.166,0,0,1,2.563,1.086,4.7,4.7,0,0,1,.914,3.109v.6H52.016a3,3,0,0,0,.73,2.02,2.3,2.3,0,0,0,1.777.77,2.517,2.517,0,0,0,1.3-.312,3.258,3.258,0,0,0,.93-.828l.883.688A3.55,3.55,0,0,1,54.445,63.156Zm-.18-7.578a1.928,1.928,0,0,0-1.469.637A3.1,3.1,0,0,0,52.063,58H56.3v-.109a2.753,2.753,0,0,0-.594-1.707A1.815,1.815,0,0,0,54.266,55.578Zm9.234.266a4.331,4.331,0,0,0-.711-.055A1.9,1.9,0,0,0,60.859,57v6H59.414V54.547H60.82l.023.977a2.251,2.251,0,0,1,2.016-1.133,1.477,1.477,0,0,1,.641.109Zm2.7-1.3.047,1.063a3.08,3.08,0,0,1,2.531-1.219q2.68,0,2.7,3.023V63H70.031V57.406a1.946,1.946,0,0,0-.418-1.352,1.675,1.675,0,0,0-1.277-.437,2.086,2.086,0,0,0-1.234.375,2.546,2.546,0,0,0-.828.984V63H64.828V54.547ZM78.875,63a3.036,3.036,0,0,1-.2-.891,3.225,3.225,0,0,1-2.406,1.047,2.984,2.984,0,0,1-2.051-.707,2.288,2.288,0,0,1-.8-1.793,2.39,2.39,0,0,1,1-2.051,4.733,4.733,0,0,1,2.824-.73h1.406v-.664A1.623,1.623,0,0,0,78.2,56a1.821,1.821,0,0,0-1.336-.449,2.107,2.107,0,0,0-1.3.391,1.151,1.151,0,0,0-.523.945H73.586a2,2,0,0,1,.449-1.223,3.066,3.066,0,0,1,1.219-.934,4.1,4.1,0,0,1,1.691-.344,3.342,3.342,0,0,1,2.289.73,2.635,2.635,0,0,1,.859,2.012v3.891a4.757,4.757,0,0,0,.3,1.852V63Zm-2.4-1.1a2.54,2.54,0,0,0,1.289-.352,2.127,2.127,0,0,0,.883-.914V58.9H77.516q-2.656,0-2.656,1.555a1.316,1.316,0,0,0,.453,1.063A1.742,1.742,0,0,0,76.477,61.9Zm9.273.078a2.082,2.082,0,0,0,1.352-.469,1.649,1.649,0,0,0,.641-1.172h1.367a2.621,2.621,0,0,1-.5,1.383,3.293,3.293,0,0,1-1.23,1.047,3.55,3.55,0,0,1-1.629.391A3.482,3.482,0,0,1,83,62a4.59,4.59,0,0,1-1.02-3.152v-.242a5.089,5.089,0,0,1,.453-2.2,3.451,3.451,0,0,1,1.3-1.492,3.7,3.7,0,0,1,2-.531,3.39,3.39,0,0,1,2.363.852,3.043,3.043,0,0,1,1,2.211H87.742a1.992,1.992,0,0,0-.621-1.348,1.932,1.932,0,0,0-1.379-.527,2.023,2.023,0,0,0-1.707.793,3.724,3.724,0,0,0-.605,2.293v.273a3.65,3.65,0,0,0,.6,2.25A2.033,2.033,0,0,0,85.75,61.977ZM92.3,63H90.859V54.547H92.3ZM90.742,52.3a.863.863,0,0,1,.215-.594.807.807,0,0,1,.637-.242.819.819,0,0,1,.641.242.854.854,0,0,1,.219.594.826.826,0,0,1-.219.586.834.834,0,0,1-.641.234.821.821,0,0,1-.637-.234A.834.834,0,0,1,90.742,52.3ZM94.234,58.7a4.993,4.993,0,0,1,.488-2.234,3.643,3.643,0,0,1,1.359-1.531,3.7,3.7,0,0,1,1.988-.539,3.565,3.565,0,0,1,2.793,1.2,4.6,4.6,0,0,1,1.066,3.18v.1a5.036,5.036,0,0,1-.473,2.215,3.589,3.589,0,0,1-1.352,1.527,3.743,3.743,0,0,1-2.02.547,3.556,3.556,0,0,1-2.785-1.2A4.575,4.575,0,0,1,94.234,58.8Zm1.453.172a3.616,3.616,0,0,0,.652,2.258,2.211,2.211,0,0,0,3.5-.012,3.955,3.955,0,0,0,.648-2.418,3.61,3.61,0,0,0-.66-2.254,2.1,2.1,0,0,0-1.754-.863,2.075,2.075,0,0,0-1.727.852A3.925,3.925,0,0,0,95.688,58.867Zm3.039-7.852h1.75l-2.094,2.3-1.164,0Zm6.383,3.531.047,1.063a3.08,3.08,0,0,1,2.531-1.219q2.68,0,2.7,3.023V63h-1.445V57.406a1.946,1.946,0,0,0-.418-1.352,1.675,1.675,0,0,0-1.277-.437,2.086,2.086,0,0,0-1.234.375,2.546,2.546,0,0,0-.828.984V63h-1.445V54.547Zm14.93,8.609a3.693,3.693,0,0,1-2.8-1.129,4.19,4.19,0,0,1-1.078-3.02v-.266a5.073,5.073,0,0,1,.48-2.246,3.748,3.748,0,0,1,1.344-1.547,3.378,3.378,0,0,1,1.871-.559,3.166,3.166,0,0,1,2.563,1.086,4.7,4.7,0,0,1,.914,3.109v.6h-5.727a3,3,0,0,0,.73,2.02,2.3,2.3,0,0,0,1.777.77,2.517,2.517,0,0,0,1.3-.312,3.259,3.259,0,0,0,.93-.828l.883.688A3.55,3.55,0,0,1,120.039,63.156Zm-.18-7.578a1.928,1.928,0,0,0-1.469.637A3.1,3.1,0,0,0,117.656,58h4.234v-.109a2.753,2.753,0,0,0-.594-1.707A1.815,1.815,0,0,0,119.859,55.578Zm6.516-1.031.047,1.063a3.08,3.08,0,0,1,2.531-1.219q2.68,0,2.7,3.023V63h-1.445V57.406a1.946,1.946,0,0,0-.418-1.352,1.675,1.675,0,0,0-1.277-.437,2.086,2.086,0,0,0-1.234.375,2.546,2.546,0,0,0-.828.984V63h-1.445V54.547Zm16.344,6.211a1.064,1.064,0,0,0-.441-.91,4.249,4.249,0,0,0-1.539-.559A7.277,7.277,0,0,1,139,58.727a2.479,2.479,0,0,1-.953-.781,1.869,1.869,0,0,1-.309-1.078,2.193,2.193,0,0,1,.879-1.758,3.432,3.432,0,0,1,2.246-.719,3.532,3.532,0,0,1,2.332.742,2.357,2.357,0,0,1,.895,1.9h-1.453a1.3,1.3,0,0,0-.5-1.023,1.888,1.888,0,0,0-1.27-.43,1.976,1.976,0,0,0-1.234.344,1.082,1.082,0,0,0-.445.9.877.877,0,0,0,.414.789,5.1,5.1,0,0,0,1.5.508,7.8,7.8,0,0,1,1.754.578,2.558,2.558,0,0,1,1,.809,1.988,1.988,0,0,1,.324,1.152,2.163,2.163,0,0,1-.906,1.816,3.8,3.8,0,0,1-2.352.684,4.257,4.257,0,0,1-1.8-.359,2.922,2.922,0,0,1-1.223-1,2.42,2.42,0,0,1-.441-1.395h1.445a1.5,1.5,0,0,0,.582,1.152,2.258,2.258,0,0,0,1.434.426,2.331,2.331,0,0,0,1.316-.332A1.02,1.02,0,0,0,142.719,60.758ZM151.266,63a3.036,3.036,0,0,1-.2-.891,3.225,3.225,0,0,1-2.406,1.047,2.984,2.984,0,0,1-2.051-.707,2.287,2.287,0,0,1-.8-1.793,2.39,2.39,0,0,1,1-2.051,4.733,4.733,0,0,1,2.824-.73h1.406v-.664A1.623,1.623,0,0,0,150.586,56a1.821,1.821,0,0,0-1.336-.449,2.107,2.107,0,0,0-1.3.391,1.151,1.151,0,0,0-.523.945h-1.453a2,2,0,0,1,.449-1.223,3.066,3.066,0,0,1,1.219-.934,4.1,4.1,0,0,1,1.691-.344,3.342,3.342,0,0,1,2.289.73,2.635,2.635,0,0,1,.859,2.012v3.891a4.757,4.757,0,0,0,.3,1.852V63Zm-2.4-1.1a2.54,2.54,0,0,0,1.289-.352,2.127,2.127,0,0,0,.883-.914V58.9h-1.133q-2.656,0-2.656,1.555a1.316,1.316,0,0,0,.453,1.063A1.742,1.742,0,0,0,148.867,61.9ZM156.32,63h-1.445V51h1.445Zm7.531-.836a3.07,3.07,0,0,1-2.477.992,2.628,2.628,0,0,1-2.059-.785,3.4,3.4,0,0,1-.715-2.324v-5.5h1.445v5.461q0,1.922,1.563,1.922a2.163,2.163,0,0,0,2.2-1.234V54.547h1.445V63h-1.375ZM167.1,58.7a4.952,4.952,0,0,1,.922-3.129,3.137,3.137,0,0,1,4.766-.168V51h1.445V63h-1.328l-.07-.906a2.943,2.943,0,0,1-2.414,1.063,2.887,2.887,0,0,1-2.395-1.2,5.008,5.008,0,0,1-.926-3.141Zm1.445.164a3.749,3.749,0,0,0,.594,2.25,1.919,1.919,0,0,0,1.641.813,2.108,2.108,0,0,0,2.008-1.234V56.813a2.125,2.125,0,0,0-1.992-1.2,1.929,1.929,0,0,0-1.656.82A4.128,4.128,0,0,0,168.547,58.867ZM64.277,78.547l.039.938a3.122,3.122,0,0,1,2.508-1.094,2.417,2.417,0,0,1,2.414,1.359,3.2,3.2,0,0,1,1.1-.984,3.242,3.242,0,0,1,1.6-.375q2.781,0,2.828,2.945V87H73.316V81.422a1.941,1.941,0,0,0-.414-1.355,1.823,1.823,0,0,0-1.391-.449,1.916,1.916,0,0,0-1.336.48,1.949,1.949,0,0,0-.617,1.293V87H68.105V81.461a1.613,1.613,0,0,0-1.8-1.844,1.934,1.934,0,0,0-1.945,1.211V87H62.91V78.547Zm16.172,8.609a3.693,3.693,0,0,1-2.8-1.129,4.19,4.19,0,0,1-1.078-3.02v-.266a5.073,5.073,0,0,1,.48-2.246A3.748,3.748,0,0,1,78.4,78.949a3.378,3.378,0,0,1,1.871-.559,3.166,3.166,0,0,1,2.563,1.086,4.7,4.7,0,0,1,.914,3.109v.6H78.02a3,3,0,0,0,.73,2.02,2.3,2.3,0,0,0,1.777.77,2.517,2.517,0,0,0,1.3-.312,3.259,3.259,0,0,0,.93-.828l.883.688A3.55,3.55,0,0,1,80.449,87.156Zm-.18-7.578a1.928,1.928,0,0,0-1.469.637A3.1,3.1,0,0,0,78.066,82H82.3v-.109a2.753,2.753,0,0,0-.594-1.707A1.815,1.815,0,0,0,80.27,79.578Zm6.516-1.031.047,1.063a3.08,3.08,0,0,1,2.531-1.219q2.68,0,2.7,3.023V87H90.621V81.406a1.946,1.946,0,0,0-.418-1.352,1.675,1.675,0,0,0-1.277-.437,2.086,2.086,0,0,0-1.234.375,2.546,2.546,0,0,0-.828.984V87H85.418V78.547ZM96.207,76.5v2.047h1.578v1.117H96.207v5.249a1.173,1.173,0,0,0,.211.763.888.888,0,0,0,.719.254,3.5,3.5,0,0,0,.688-.094V87a4.215,4.215,0,0,1-1.109.155,1.8,1.8,0,0,1-1.461-.586,2.517,2.517,0,0,1-.492-1.664V79.664H93.223V78.547h1.539V76.5ZM104.691,87a3.036,3.036,0,0,1-.2-.891,3.225,3.225,0,0,1-2.406,1.047,2.984,2.984,0,0,1-2.051-.707,2.287,2.287,0,0,1-.8-1.793,2.39,2.39,0,0,1,1-2.051,4.733,4.733,0,0,1,2.824-.73h1.406v-.664A1.623,1.623,0,0,0,104.012,80a1.821,1.821,0,0,0-1.336-.449,2.108,2.108,0,0,0-1.3.391,1.151,1.151,0,0,0-.523.945H99.4a2,2,0,0,1,.449-1.223,3.066,3.066,0,0,1,1.219-.934,4.1,4.1,0,0,1,1.691-.344,3.342,3.342,0,0,1,2.289.73,2.635,2.635,0,0,1,.859,2.012v3.891a4.757,4.757,0,0,0,.3,1.852V87Zm-2.4-1.1a2.54,2.54,0,0,0,1.289-.352,2.127,2.127,0,0,0,.883-.914V82.9h-1.133q-2.656,0-2.656,1.555a1.316,1.316,0,0,0,.453,1.063A1.742,1.742,0,0,0,102.293,85.9Zm7.453,1.1H108.3V75h1.445Zm2.344-.758a.905.905,0,0,1,.223-.625.848.848,0,0,1,.668-.25.874.874,0,0,1,.676.25.887.887,0,0,1,.23.625.839.839,0,0,1-.23.6.89.89,0,0,1-.676.242.8.8,0,0,1-.891-.844Z" transform="translate(262.256 10514)" fill="#fff"/>
    <g id="Grupo_134488" data-name="Grupo 134488" transform="translate(-45 280)">
      <circle id="Elipse_4938" data-name="Elipse 4938" cx="31.5" cy="31.5" r="31.5" transform="translate(225.256 10248)" fill="#fcd189"/>
      <g id="Grupo_134487" data-name="Grupo 134487" transform="translate(233.256 10259)">
        <g id="Grupo_134486" data-name="Grupo 134486" transform="translate(0 0)" clip-path="url(#clip-path)">
          <path id="Trazado_128019" data-name="Trazado 128019" d="M25.584,2.6c.231-.089.416-.171.609-.233A12.533,12.533,0,0,1,39.409,5.411c3.942,3.765,4.977,8.452,3.6,13.689a1.438,1.438,0,0,0,.187,1.3c.58.845,1.122,1.715,1.678,2.576.236.366.468.735.719,1.13-1.445.795-2.827,1.574-4.229,2.314a1.225,1.225,0,0,0-.723,1.228c.02,1.914.007,3.829.007,5.744v.553c-.188,0-.306.009-.421,0q-3.827-.36-7.654-.723c-.757-.071-1.085.223-1.088.982,0,.991,0,1.983,0,2.975,0,.729,0,1.459,0,2.147-.073.049-.086.066-.1.066-.512.007-1.025.007-1.538.018-.578.012-.92.311-.93.8-.01.512.341.83.947.836.735.008,1.47,0,2.2,0,.772,0,1.053-.279,1.055-1.047,0-1.5,0-3.009,0-4.514v-.578c2.68.256,5.3.5,7.914.759.935.094,1.249-.164,1.25-1.12,0-2.034.014-4.069-.01-6.1a.9.9,0,0,1,.545-.955c1.362-.71,2.7-1.47,4.042-2.215.824-.456.918-.822.417-1.6-.8-1.235-1.587-2.473-2.4-3.7a1,1,0,0,1-.164-.895,15.011,15.011,0,0,0,.322-6.149C43.517,2.938,33.166-2.854,24.126,1.433a.878.878,0,0,1-.658,0,14.344,14.344,0,0,0-12.941.222A13.986,13.986,0,0,0,6.193,5.045a.844.844,0,0,0-.05,1.234.88.88,0,0,0,1.27-.133c.095-.1.181-.205.275-.3a12.614,12.614,0,0,1,9.121-4.163A12.778,12.778,0,0,1,28.1,7.583c.224.321.411.669.61,1.007.314.534.739.7,1.182.461s.53-.685.267-1.243c-.007-.016-.013-.032-.021-.047A12.955,12.955,0,0,0,26.795,3.53c-.378-.314-.777-.6-1.21-.935M1.991,24.094c.824-1.272,1.611-2.508,2.422-3.728a1.321,1.321,0,0,0,.184-1.2,13.683,13.683,0,0,1,.029-8.026c.2-.653.012-1.119-.487-1.256-.482-.133-.882.148-1.069.764a15.161,15.161,0,0,0-.221,8.34,1.215,1.215,0,0,1-.194,1.083C1.848,21.273,1.067,22.5.281,23.717c-.465.721-.366,1.105.4,1.527,1.374.76,2.744,1.527,4.13,2.266a.8.8,0,0,1,.5.825c-.025,2.119-.015,4.238-.009,6.358,0,.718.333,1.056.985,1,1.531-.139,3.06-.3,4.59-.442,1.181-.113,2.363-.222,3.587-.336v.613c0,1.521,0,3.042,0,4.563,0,.646.3.953.937.954q4.229.009,8.458,0a1.173,1.173,0,0,0,.255-.015.815.815,0,0,0-.012-1.611,2.9,2.9,0,0,0-.461-.014H16.106c0-1.8,0-3.523,0-5.247,0-.681-.334-1.009-.976-.951-1.8.163-3.6.34-5.407.511-.91.086-1.82.169-2.779.259v-.624c0-1.914-.01-3.829.006-5.743a1.189,1.189,0,0,0-.707-1.186c-.97-.5-1.919-1.043-2.876-1.569-.446-.245-.891-.492-1.373-.76m18.5-2.687h-.644c-1.094,0-2.187.017-3.28,0-1.586-.031-1.788.075-1.732,1.711.007.189,0,.38,0,.587l-5.51-5.51,5.471-4.916c.018.249.036.4.038.542.015,1.023.211,1.216,1.244,1.217q1.948,0,3.9,0c.278,0,.489,0,.66.326.262.494,1.073.544,1.268.062a2.9,2.9,0,0,0,.108-1.521c-.083-.465-.575-.509-1.006-.508-1.3,0-2.6,0-3.9,0h-.635c0-.7.014-1.309,0-1.921-.017-.543-.339-.919-.794-.875a1.346,1.346,0,0,0-.714.331Q11.285,14.2,7.636,17.5a.864.864,0,0,0-.016,1.446c.83.837,1.667,1.668,2.5,2.5q2.394,2.39,4.79,4.779c.429.427.91.546,1.211.221a1.46,1.46,0,0,0,.335-.857c.044-.828.015-1.661.015-2.542H17.1c1.333,0,2.666,0,4,0,.636,0,.967-.244,1-.784a12.45,12.45,0,0,0,0-1.689.8.8,0,0,0-.825-.751.809.809,0,0,0-.781.794c-.018.235,0,.473,0,.791m17.8-3.2c-.028.08-.031.12-.052.141-.346.354-.7.7-1.043,1.06-.433.445-.477.9-.127,1.262a.83.83,0,0,0,1.267-.088c.552-.535,1.1-1.08,1.636-1.628a.879.879,0,0,0-.048-1.483q-3.621-3.258-7.247-6.512c-.307-.276-.616-.5-1.053-.307-.455.2-.51.6-.505,1.028.007.557,0,1.114,0,1.714h-.635c-1.316,0-2.632-.005-3.948,0-.763,0-1.061.3-1.062,1.057q-.008,3.769,0,7.54c0,.759.3,1.051,1.062,1.055,1.333.007,2.667,0,4,0,.181,0,.362.017.584.028,0,.9,0,1.757,0,2.609a.829.829,0,0,0,.505.87.869.869,0,0,0,.98-.251c.456-.463.922-.915,1.38-1.376s.534-.948.211-1.308c-.306-.342-.769-.328-1.285.034-.021.015-.059,0-.154.009,0-.4,0-.809,0-1.213-.011-.779-.268-1.04-1.055-1.044-1.333-.007-2.667,0-4,0-.182,0-.364-.017-.56-.026V15.068c.179-.013.328-.033.477-.033,1.368,0,2.735,0,4.1,0,.753,0,1.02-.271,1.035-1.012,0-.214,0-.429,0-.782L38.288,18.2m-11.046,21.2a.817.817,0,0,0,.049,1.633.817.817,0,1,0-.049-1.633m-5.88-22.868a.815.815,0,0,0-.873.749.8.8,0,0,0,.733.881.817.817,0,0,0,.88-.743.831.831,0,0,0-.741-.887M5.678,8.4a.807.807,0,1,0-1.613.014A.807.807,0,1,0,5.678,8.4M35.312,23.235a.808.808,0,0,0,.029-1.616.808.808,0,1,0-.029,1.616" transform="translate(0 0)" fill="#133d60"/>
          <path id="Trazado_128020" data-name="Trazado 128020" d="M36.653,2.6c.432.333.832.622,1.209.935a12.956,12.956,0,0,1,3.345,4.232c.007.015.014.032.021.047.263.558.167,1.007-.267,1.243s-.868.073-1.183-.461c-.2-.339-.386-.687-.609-1.008a12.779,12.779,0,0,0-11.293-5.9,12.613,12.613,0,0,0-9.121,4.163c-.094.1-.18.206-.275.3a.88.88,0,0,1-1.27.133.844.844,0,0,1,.05-1.235A13.978,13.978,0,0,1,21.6,1.656a14.343,14.343,0,0,1,12.941-.223.878.878,0,0,0,.658,0c9.041-4.287,19.391,1.5,20.918,11.5a15,15,0,0,1-.321,6.149,1,1,0,0,0,.164.895c.812,1.224,1.6,2.462,2.4,3.7.5.777.407,1.143-.417,1.6-1.344.745-2.68,1.505-4.041,2.215a.906.906,0,0,0-.545.955c.024,2.034.012,4.069.01,6.1,0,.956-.314,1.214-1.25,1.121-2.617-.261-5.235-.5-7.914-.759v.578c0,1.5,0,3.009,0,4.513,0,.768-.284,1.044-1.056,1.047-.735,0-1.47.007-2.2,0-.605-.006-.956-.324-.946-.836.009-.49.352-.789.93-.8.512-.011,1.025-.011,1.537-.018.014,0,.027-.017.1-.066V37.175c0-.992,0-1.983,0-2.975,0-.759.331-1.053,1.089-.982q3.826.36,7.653.723c.116.011.233,0,.421,0V33.39c0-1.915.013-3.83-.007-5.744a1.225,1.225,0,0,1,.723-1.228c1.4-.74,2.783-1.52,4.229-2.314-.252-.4-.482-.764-.719-1.13-.556-.861-1.1-1.732-1.678-2.576a1.438,1.438,0,0,1-.186-1.3c1.372-5.236.338-9.924-3.6-13.689A12.532,12.532,0,0,0,37.262,2.363c-.192.061-.378.144-.609.233" transform="translate(-11.068 0)" fill="#133d60"/>
          <path id="Trazado_128021" data-name="Trazado 128021" d="M1.991,42.574c.483.267.928.514,1.373.759.957.526,1.907,1.067,2.876,1.57a1.189,1.189,0,0,1,.707,1.186c-.017,1.914-.006,3.828-.006,5.742v.624c.959-.089,1.869-.173,2.779-.259,1.8-.17,3.6-.348,5.407-.51.643-.058.974.27.976.951.006,1.724,0,3.448,0,5.247h7.539a2.941,2.941,0,0,1,.46.014.815.815,0,0,1,.013,1.611,1.134,1.134,0,0,1-.255.015q-4.229,0-8.458,0c-.635,0-.934-.309-.936-.954-.007-1.521,0-3.042,0-4.563v-.613c-1.225.115-2.406.223-3.587.336-1.53.147-3.059.3-4.59.442-.651.059-.983-.279-.985-1-.006-2.119-.016-4.239.009-6.358a.8.8,0,0,0-.5-.825c-1.385-.739-2.756-1.506-4.129-2.266-.763-.422-.863-.806-.4-1.527.787-1.22,1.567-2.444,2.373-3.651a1.213,1.213,0,0,0,.194-1.082,15.162,15.162,0,0,1,.221-8.341c.188-.616.587-.9,1.07-.763.5.138.681.6.486,1.256A13.685,13.685,0,0,0,4.6,37.641a1.321,1.321,0,0,1-.184,1.2c-.811,1.22-1.6,2.456-2.422,3.728" transform="translate(0 -18.48)" fill="#133d60"/>
          <path id="Trazado_128022" data-name="Trazado 128022" d="M34.07,41.287c0-.318-.015-.556,0-.791a.809.809,0,0,1,.782-.794.8.8,0,0,1,.825.751,12.449,12.449,0,0,1,0,1.689c-.037.54-.368.78-1,.784-1.332.007-2.665,0-4,0h-.626c0,.881.029,1.714-.015,2.542a1.457,1.457,0,0,1-.335.857c-.3.325-.782.205-1.211-.221q-2.4-2.387-4.79-4.779c-.834-.833-1.671-1.663-2.5-2.5a.864.864,0,0,1,.016-1.446q3.655-3.294,7.322-6.575a1.347,1.347,0,0,1,.714-.331c.455-.044.777.332.794.875.019.612,0,1.225,0,1.921h.635c1.3,0,2.6,0,3.9,0,.431,0,.923.042,1.006.508a2.891,2.891,0,0,1-.108,1.521c-.195.483-1.006.432-1.268-.062-.171-.322-.382-.327-.66-.326q-1.948.005-3.9,0c-1.033,0-1.229-.194-1.244-1.217,0-.147-.02-.294-.038-.542l-5.472,4.916,5.511,5.51c0-.208.006-.4,0-.587-.057-1.636.146-1.742,1.732-1.711,1.093.022,2.187,0,3.28,0h.644" transform="translate(-13.583 -19.88)" fill="#133d60"/>
          <path id="Trazado_128023" data-name="Trazado 128023" d="M86.088,38.056l-5.529-4.967c0,.353,0,.568,0,.782-.016.741-.282,1.009-1.035,1.012-1.368.006-2.735,0-4.1,0-.149,0-.3.02-.477.033v6.312c.2.009.378.026.56.026,1.333,0,2.667,0,4,0,.787,0,1.044.266,1.055,1.044.006.4,0,.808,0,1.213.095,0,.132.006.153-.009.517-.363.979-.376,1.285-.035.323.36.247.848-.212,1.308s-.924.913-1.38,1.376a.869.869,0,0,1-.98.251.83.83,0,0,1-.506-.87c0-.852,0-1.7,0-2.609-.223-.011-.4-.028-.584-.028-1.333,0-2.667,0-4,0-.764,0-1.061-.3-1.062-1.055q-.008-3.77,0-7.54c0-.757.3-1.053,1.062-1.057,1.316-.009,2.632,0,3.948,0h.635c0-.6,0-1.158,0-1.714,0-.431.05-.827.505-1.028.436-.193.746.031,1.053.307q3.62,3.259,7.247,6.512a.879.879,0,0,1,.048,1.483c-.54.548-1.083,1.093-1.636,1.628a.831.831,0,0,1-1.267.088c-.35-.357-.306-.816.127-1.262.346-.355.7-.705,1.043-1.06.021-.022.024-.062.052-.141" transform="translate(-47.799 -19.851)" fill="#133d60"/>
          <path id="Trazado_128024" data-name="Trazado 128024" d="M76.9,113.365A.817.817,0,1,1,76.945,115a.817.817,0,0,1-.049-1.633" transform="translate(-49.653 -73.957)" fill="#133d60"/>
          <path id="Trazado_128025" data-name="Trazado 128025" d="M59.812,47.577a.832.832,0,0,1,.741.887.817.817,0,0,1-.88.743.8.8,0,0,1-.734-.881.815.815,0,0,1,.873-.749" transform="translate(-38.449 -31.036)" fill="#133d60"/>
          <path id="Trazado_128026" data-name="Trazado 128026" d="M13.306,22.659a.807.807,0,1,1-1.613.014.807.807,0,1,1,1.613-.014" transform="translate(-7.628 -14.258)" fill="#133d60"/>
          <path id="Trazado_128027" data-name="Trazado 128027" d="M100.086,63.809a.808.808,0,1,1,.029-1.616.808.808,0,0,1-.029,1.616" transform="translate(-64.773 -40.573)" fill="#133d60"/>
        </g>
      </g>
    </g>
  </g>
</svg>
