<svg xmlns="http://www.w3.org/2000/svg" xmlns:xlink="http://www.w3.org/1999/xlink" width="295" height="135" viewBox="0 0 295 135">
  <defs>
    <clipPath id="clip-path">
      <rect id="Rect치ngulo_36083" data-name="Rect치ngulo 36083" width="43.287" height="38.235" fill="#133d60"/>
    </clipPath>
  </defs>
  <g id="Grupo_134529" data-name="Grupo 134529" transform="translate(-495.256 -10155)">
    <rect id="Rect치ngulo_36094" data-name="Rect치ngulo 36094" width="271" height="135" rx="13" transform="translate(519.256 10155)" fill="#133d60"/>
    <path id="Trazado_128109" data-name="Trazado 128109" d="M15.863,4.852H12.207V15H10.715V4.852H7.066V3.625h8.8Zm4.961,2.992a4.331,4.331,0,0,0-.711-.055A1.9,1.9,0,0,0,18.184,9v6H16.738V6.547h1.406l.023.977a2.251,2.251,0,0,1,2.016-1.133,1.477,1.477,0,0,1,.641.109ZM27.059,15a3.036,3.036,0,0,1-.2-.891,3.225,3.225,0,0,1-2.406,1.047,2.984,2.984,0,0,1-2.051-.707,2.287,2.287,0,0,1-.8-1.793,2.39,2.39,0,0,1,1-2.051,4.733,4.733,0,0,1,2.824-.73h1.406V9.211A1.623,1.623,0,0,0,26.379,8a1.821,1.821,0,0,0-1.336-.449,2.108,2.108,0,0,0-1.3.391,1.151,1.151,0,0,0-.523.945H21.77a2,2,0,0,1,.449-1.223,3.066,3.066,0,0,1,1.219-.934,4.1,4.1,0,0,1,1.691-.344,3.342,3.342,0,0,1,2.289.73,2.635,2.635,0,0,1,.859,2.012v3.891a4.757,4.757,0,0,0,.3,1.852V15Zm-2.4-1.1a2.54,2.54,0,0,0,1.289-.352,2.127,2.127,0,0,0,.883-.914V10.9H25.7q-2.656,0-2.656,1.555a1.316,1.316,0,0,0,.453,1.063A1.742,1.742,0,0,0,24.66,13.9Zm10.8-1.141a1.064,1.064,0,0,0-.441-.91,4.249,4.249,0,0,0-1.539-.559,7.277,7.277,0,0,1-1.742-.562,2.479,2.479,0,0,1-.953-.781,1.869,1.869,0,0,1-.309-1.078,2.193,2.193,0,0,1,.879-1.758,3.432,3.432,0,0,1,2.246-.719,3.532,3.532,0,0,1,2.332.742,2.357,2.357,0,0,1,.895,1.9H35.379a1.3,1.3,0,0,0-.5-1.023,1.888,1.888,0,0,0-1.27-.43,1.976,1.976,0,0,0-1.234.344,1.082,1.082,0,0,0-.445.9.877.877,0,0,0,.414.789,5.1,5.1,0,0,0,1.5.508,7.8,7.8,0,0,1,1.754.578,2.558,2.558,0,0,1,1,.809,1.988,1.988,0,0,1,.324,1.152A2.163,2.163,0,0,1,36,14.473a3.8,3.8,0,0,1-2.352.684,4.257,4.257,0,0,1-1.8-.359,2.922,2.922,0,0,1-1.223-1,2.42,2.42,0,0,1-.441-1.395h1.445a1.5,1.5,0,0,0,.582,1.152,2.258,2.258,0,0,0,1.434.426,2.331,2.331,0,0,0,1.316-.332A1.02,1.02,0,0,0,35.465,12.758ZM40.363,15H38.918V3h1.445Zm7.531,0a3.036,3.036,0,0,1-.2-.891,3.225,3.225,0,0,1-2.406,1.047,2.984,2.984,0,0,1-2.051-.707,2.287,2.287,0,0,1-.8-1.793,2.39,2.39,0,0,1,1-2.051,4.733,4.733,0,0,1,2.824-.73h1.406V9.211A1.623,1.623,0,0,0,47.215,8a1.821,1.821,0,0,0-1.336-.449,2.107,2.107,0,0,0-1.3.391,1.151,1.151,0,0,0-.523.945H42.605a2,2,0,0,1,.449-1.223,3.066,3.066,0,0,1,1.219-.934,4.1,4.1,0,0,1,1.691-.344,3.342,3.342,0,0,1,2.289.73,2.635,2.635,0,0,1,.859,2.012v3.891a4.757,4.757,0,0,0,.3,1.852V15Zm-2.4-1.1a2.54,2.54,0,0,0,1.289-.352,2.127,2.127,0,0,0,.883-.914V10.9H46.535q-2.656,0-2.656,1.555a1.316,1.316,0,0,0,.453,1.063A1.742,1.742,0,0,0,45.5,13.9Zm5.531-3.2a4.952,4.952,0,0,1,.922-3.129,3.137,3.137,0,0,1,4.766-.168V3H58.16V15H56.832l-.07-.906a2.943,2.943,0,0,1-2.414,1.063,2.887,2.887,0,0,1-2.395-1.2,5.008,5.008,0,0,1-.926-3.141Zm1.445.164a3.749,3.749,0,0,0,.594,2.25,1.92,1.92,0,0,0,1.641.813A2.108,2.108,0,0,0,56.715,12.7V8.813a2.125,2.125,0,0,0-1.992-1.2,1.929,1.929,0,0,0-1.656.82A4.128,4.128,0,0,0,52.473,10.867ZM60.02,10.7a4.993,4.993,0,0,1,.488-2.234A3.643,3.643,0,0,1,61.867,6.93a3.7,3.7,0,0,1,1.988-.539,3.565,3.565,0,0,1,2.793,1.2,4.6,4.6,0,0,1,1.066,3.18v.1a5.036,5.036,0,0,1-.473,2.215,3.589,3.589,0,0,1-1.352,1.527,3.743,3.743,0,0,1-2.02.547,3.556,3.556,0,0,1-2.785-1.2A4.575,4.575,0,0,1,60.02,10.8Zm1.453.172a3.616,3.616,0,0,0,.652,2.258,2.211,2.211,0,0,0,3.5-.012A3.955,3.955,0,0,0,66.27,10.7a3.61,3.61,0,0,0-.66-2.254,2.1,2.1,0,0,0-1.754-.863,2.075,2.075,0,0,0-1.727.852A3.925,3.925,0,0,0,61.473,10.867ZM78.707,15a3.036,3.036,0,0,1-.2-.891A3.225,3.225,0,0,1,76.1,15.156a2.984,2.984,0,0,1-2.051-.707,2.288,2.288,0,0,1-.8-1.793,2.39,2.39,0,0,1,1-2.051,4.733,4.733,0,0,1,2.824-.73H78.48V9.211A1.623,1.623,0,0,0,78.027,8a1.821,1.821,0,0,0-1.336-.449,2.108,2.108,0,0,0-1.3.391,1.151,1.151,0,0,0-.523.945H73.418a2,2,0,0,1,.449-1.223,3.066,3.066,0,0,1,1.219-.934,4.1,4.1,0,0,1,1.691-.344,3.342,3.342,0,0,1,2.289.73,2.635,2.635,0,0,1,.859,2.012v3.891a4.757,4.757,0,0,0,.3,1.852V15Zm-2.4-1.1a2.54,2.54,0,0,0,1.289-.352,2.127,2.127,0,0,0,.883-.914V10.9H77.348q-2.656,0-2.656,1.555a1.316,1.316,0,0,0,.453,1.063A1.742,1.742,0,0,0,76.309,13.9Zm10.8-1.141a1.064,1.064,0,0,0-.441-.91,4.249,4.249,0,0,0-1.539-.559,7.277,7.277,0,0,1-1.742-.562,2.479,2.479,0,0,1-.953-.781,1.869,1.869,0,0,1-.309-1.078,2.193,2.193,0,0,1,.879-1.758,3.432,3.432,0,0,1,2.246-.719,3.532,3.532,0,0,1,2.332.742,2.357,2.357,0,0,1,.895,1.9H87.027a1.3,1.3,0,0,0-.5-1.023,1.888,1.888,0,0,0-1.27-.43,1.976,1.976,0,0,0-1.234.344,1.082,1.082,0,0,0-.445.9.877.877,0,0,0,.414.789,5.1,5.1,0,0,0,1.5.508,7.8,7.8,0,0,1,1.754.578,2.558,2.558,0,0,1,1,.809,1.988,1.988,0,0,1,.324,1.152,2.163,2.163,0,0,1-.906,1.816,3.8,3.8,0,0,1-2.352.684,4.257,4.257,0,0,1-1.8-.359,2.922,2.922,0,0,1-1.223-1A2.42,2.42,0,0,1,81.84,12.4h1.445a1.5,1.5,0,0,0,.582,1.152,2.258,2.258,0,0,0,1.434.426,2.331,2.331,0,0,0,1.316-.332A1.02,1.02,0,0,0,87.113,12.758ZM92.012,15H90.566V6.547h1.445ZM90.449,4.3a.863.863,0,0,1,.215-.594.807.807,0,0,1,.637-.242.819.819,0,0,1,.641.242.854.854,0,0,1,.219.594.826.826,0,0,1-.219.586.834.834,0,0,1-.641.234.821.821,0,0,1-.637-.234A.834.834,0,0,1,90.449,4.3Zm8.8,8.453a1.064,1.064,0,0,0-.441-.91,4.249,4.249,0,0,0-1.539-.559,7.277,7.277,0,0,1-1.742-.562,2.479,2.479,0,0,1-.953-.781,1.869,1.869,0,0,1-.309-1.078,2.193,2.193,0,0,1,.879-1.758,3.432,3.432,0,0,1,2.246-.719,3.532,3.532,0,0,1,2.332.742,2.357,2.357,0,0,1,.895,1.9H99.16a1.3,1.3,0,0,0-.5-1.023,1.888,1.888,0,0,0-1.27-.43,1.976,1.976,0,0,0-1.234.344,1.082,1.082,0,0,0-.445.9.877.877,0,0,0,.414.789,5.1,5.1,0,0,0,1.5.508,7.8,7.8,0,0,1,1.754.578,2.558,2.558,0,0,1,1,.809,1.988,1.988,0,0,1,.324,1.152,2.163,2.163,0,0,1-.906,1.816,3.8,3.8,0,0,1-2.352.684,4.257,4.257,0,0,1-1.8-.359,2.922,2.922,0,0,1-1.223-1,2.42,2.42,0,0,1-.441-1.395h1.445A1.5,1.5,0,0,0,96,13.551a2.258,2.258,0,0,0,1.434.426,2.331,2.331,0,0,0,1.316-.332A1.02,1.02,0,0,0,99.246,12.758ZM104.535,4.5V6.547h1.578V7.664h-1.578v5.249a1.173,1.173,0,0,0,.211.763.888.888,0,0,0,.719.254,3.5,3.5,0,0,0,.688-.094V15a4.215,4.215,0,0,1-1.109.155,1.8,1.8,0,0,1-1.461-.586,2.517,2.517,0,0,1-.492-1.664V7.664h-1.539V6.547h1.539V4.5Zm6.773,10.656a3.693,3.693,0,0,1-2.8-1.129,4.19,4.19,0,0,1-1.078-3.02v-.266a5.073,5.073,0,0,1,.48-2.246,3.748,3.748,0,0,1,1.344-1.547,3.378,3.378,0,0,1,1.871-.559,3.166,3.166,0,0,1,2.563,1.086,4.7,4.7,0,0,1,.914,3.109v.6h-5.727a3,3,0,0,0,.73,2.02,2.3,2.3,0,0,0,1.777.77,2.517,2.517,0,0,0,1.3-.312,3.259,3.259,0,0,0,.93-.828l.883.688A3.55,3.55,0,0,1,111.309,15.156Zm-.18-7.578a1.928,1.928,0,0,0-1.469.637A3.1,3.1,0,0,0,108.926,10h4.234V9.891a2.753,2.753,0,0,0-.594-1.707A1.815,1.815,0,0,0,111.129,7.578Zm6.516-1.031.047,1.063a3.08,3.08,0,0,1,2.531-1.219q2.68,0,2.7,3.023V15H121.48V9.406a1.946,1.946,0,0,0-.418-1.352,1.675,1.675,0,0,0-1.277-.437,2.086,2.086,0,0,0-1.234.375,2.546,2.546,0,0,0-.828.984V15h-1.445V6.547Zm10.852,7.43a2.082,2.082,0,0,0,1.352-.469,1.649,1.649,0,0,0,.641-1.172h1.367a2.621,2.621,0,0,1-.5,1.383,3.293,3.293,0,0,1-1.23,1.047,3.55,3.55,0,0,1-1.629.391A3.482,3.482,0,0,1,125.75,14a4.59,4.59,0,0,1-1.02-3.152v-.242a5.089,5.089,0,0,1,.453-2.2,3.451,3.451,0,0,1,1.3-1.492,3.7,3.7,0,0,1,2-.531,3.39,3.39,0,0,1,2.363.852,3.043,3.043,0,0,1,1,2.211h-1.367a1.992,1.992,0,0,0-.621-1.348,1.932,1.932,0,0,0-1.379-.527,2.023,2.023,0,0,0-1.707.793,3.724,3.724,0,0,0-.605,2.293v.273a3.65,3.65,0,0,0,.6,2.25A2.033,2.033,0,0,0,128.5,13.977ZM135.051,15h-1.445V6.547h1.445ZM133.488,4.3a.863.863,0,0,1,.215-.594.807.807,0,0,1,.637-.242.819.819,0,0,1,.641.242.854.854,0,0,1,.219.594.826.826,0,0,1-.219.586.834.834,0,0,1-.641.234.821.821,0,0,1-.637-.234A.834.834,0,0,1,133.488,4.3ZM142.582,15a3.036,3.036,0,0,1-.2-.891,3.225,3.225,0,0,1-2.406,1.047,2.984,2.984,0,0,1-2.051-.707,2.287,2.287,0,0,1-.8-1.793,2.39,2.39,0,0,1,1-2.051,4.733,4.733,0,0,1,2.824-.73h1.406V9.211A1.623,1.623,0,0,0,141.9,8a1.821,1.821,0,0,0-1.336-.449,2.107,2.107,0,0,0-1.3.391,1.151,1.151,0,0,0-.523.945h-1.453a2,2,0,0,1,.449-1.223,3.066,3.066,0,0,1,1.219-.934,4.1,4.1,0,0,1,1.691-.344,3.342,3.342,0,0,1,2.289.73,2.635,2.635,0,0,1,.859,2.012v3.891a4.757,4.757,0,0,0,.3,1.852V15Zm-2.4-1.1a2.54,2.54,0,0,0,1.289-.352,2.127,2.127,0,0,0,.883-.914V10.9h-1.133q-2.656,0-2.656,1.555a1.316,1.316,0,0,0,.453,1.063A1.742,1.742,0,0,0,140.184,13.9Zm7.453,1.1h-1.445V3h1.445Zm5.922-4.3a4.952,4.952,0,0,1,.922-3.129,3.137,3.137,0,0,1,4.766-.168V3h1.445V15h-1.328l-.07-.906a2.943,2.943,0,0,1-2.414,1.063,2.887,2.887,0,0,1-2.395-1.2,5.008,5.008,0,0,1-.926-3.141Zm1.445.164a3.749,3.749,0,0,0,.594,2.25,1.919,1.919,0,0,0,1.641.813,2.108,2.108,0,0,0,2.008-1.234V8.813a2.125,2.125,0,0,0-1.992-1.2,1.929,1.929,0,0,0-1.656.82A4.128,4.128,0,0,0,155,10.867Zm11.438,4.289a3.693,3.693,0,0,1-2.8-1.129,4.19,4.19,0,0,1-1.078-3.02v-.266a5.073,5.073,0,0,1,.48-2.246,3.748,3.748,0,0,1,1.344-1.547,3.378,3.378,0,0,1,1.871-.559,3.166,3.166,0,0,1,2.563,1.086,4.7,4.7,0,0,1,.914,3.109v.6h-5.727a3,3,0,0,0,.73,2.02,2.3,2.3,0,0,0,1.777.77,2.517,2.517,0,0,0,1.3-.312,3.258,3.258,0,0,0,.93-.828l.883.688A3.55,3.55,0,0,1,166.441,15.156Zm-.18-7.578a1.928,1.928,0,0,0-1.469.637A3.1,3.1,0,0,0,164.059,10h4.234V9.891a2.753,2.753,0,0,0-.594-1.707A1.815,1.815,0,0,0,166.262,7.578ZM62.137,34.867a5.062,5.062,0,0,1-.883,3.109,2.829,2.829,0,0,1-2.391,1.18,3.1,3.1,0,0,1-2.422-.977v4.07H55v-11.7h1.32l.07.938a2.977,2.977,0,0,1,2.453-1.094,2.882,2.882,0,0,1,2.41,1.148,5.117,5.117,0,0,1,.887,3.2ZM60.691,34.7a3.735,3.735,0,0,0-.609-2.258,1.963,1.963,0,0,0-1.672-.828,2.125,2.125,0,0,0-1.969,1.164V36.82a2.129,2.129,0,0,0,1.984,1.156,1.954,1.954,0,0,0,1.652-.824A4.077,4.077,0,0,0,60.691,34.7Zm8.5,4.3a3.036,3.036,0,0,1-.2-.891,3.225,3.225,0,0,1-2.406,1.047,2.984,2.984,0,0,1-2.051-.707,2.287,2.287,0,0,1-.8-1.793,2.39,2.39,0,0,1,1-2.051,4.733,4.733,0,0,1,2.824-.73h1.406v-.664A1.623,1.623,0,0,0,68.512,32a1.821,1.821,0,0,0-1.336-.449,2.108,2.108,0,0,0-1.3.391,1.151,1.151,0,0,0-.523.945H63.9a2,2,0,0,1,.449-1.223,3.066,3.066,0,0,1,1.219-.934,4.1,4.1,0,0,1,1.691-.344,3.342,3.342,0,0,1,2.289.73,2.635,2.635,0,0,1,.859,2.012v3.891a4.757,4.757,0,0,0,.3,1.852V39Zm-2.4-1.1a2.54,2.54,0,0,0,1.289-.352,2.127,2.127,0,0,0,.883-.914V34.9H67.832q-2.656,0-2.656,1.555a1.316,1.316,0,0,0,.453,1.063A1.742,1.742,0,0,0,66.793,37.9Zm9.273.078a2.082,2.082,0,0,0,1.352-.469,1.649,1.649,0,0,0,.641-1.172h1.367a2.621,2.621,0,0,1-.5,1.383,3.293,3.293,0,0,1-1.23,1.047,3.55,3.55,0,0,1-1.629.391A3.482,3.482,0,0,1,73.32,38a4.59,4.59,0,0,1-1.02-3.152v-.242a5.089,5.089,0,0,1,.453-2.2,3.451,3.451,0,0,1,1.3-1.492,3.7,3.7,0,0,1,2-.531,3.39,3.39,0,0,1,2.363.852,3.043,3.043,0,0,1,1,2.211H78.059a1.992,1.992,0,0,0-.621-1.348,1.932,1.932,0,0,0-1.379-.527,2.023,2.023,0,0,0-1.707.793,3.724,3.724,0,0,0-.605,2.293v.273a3.65,3.65,0,0,0,.6,2.25A2.033,2.033,0,0,0,76.066,37.977ZM82.621,39H81.176V30.547h1.445ZM81.059,28.3a.863.863,0,0,1,.215-.594.807.807,0,0,1,.637-.242.819.819,0,0,1,.641.242.854.854,0,0,1,.219.594.826.826,0,0,1-.219.586.834.834,0,0,1-.641.234.821.821,0,0,1-.637-.234A.834.834,0,0,1,81.059,28.3Zm7.383,10.852a3.693,3.693,0,0,1-2.8-1.129,4.19,4.19,0,0,1-1.078-3.02v-.266a5.073,5.073,0,0,1,.48-2.246,3.748,3.748,0,0,1,1.344-1.547,3.378,3.378,0,0,1,1.871-.559,3.166,3.166,0,0,1,2.563,1.086,4.7,4.7,0,0,1,.914,3.109v.6H86.012a3,3,0,0,0,.73,2.02,2.3,2.3,0,0,0,1.777.77,2.517,2.517,0,0,0,1.3-.312,3.259,3.259,0,0,0,.93-.828l.883.688A3.55,3.55,0,0,1,88.441,39.156Zm-.18-7.578a1.928,1.928,0,0,0-1.469.637A3.1,3.1,0,0,0,86.059,34h4.234v-.109a2.753,2.753,0,0,0-.594-1.707A1.815,1.815,0,0,0,88.262,31.578Zm6.516-1.031.047,1.063a3.08,3.08,0,0,1,2.531-1.219q2.68,0,2.7,3.023V39H98.613V33.406a1.946,1.946,0,0,0-.418-1.352,1.675,1.675,0,0,0-1.277-.437,2.086,2.086,0,0,0-1.234.375,2.546,2.546,0,0,0-.828.984V39H93.41V30.547ZM104.2,28.5v2.047h1.578v1.117H104.2v5.249a1.173,1.173,0,0,0,.211.763.888.888,0,0,0,.719.254,3.5,3.5,0,0,0,.688-.094V39a4.215,4.215,0,0,1-1.109.155,1.8,1.8,0,0,1-1.461-.586,2.517,2.517,0,0,1-.492-1.664V31.664h-1.539V30.547h1.539V28.5Zm6.773,10.656a3.693,3.693,0,0,1-2.8-1.129,4.19,4.19,0,0,1-1.078-3.02v-.266a5.073,5.073,0,0,1,.48-2.246,3.748,3.748,0,0,1,1.344-1.547,3.378,3.378,0,0,1,1.871-.559,3.166,3.166,0,0,1,2.563,1.086,4.7,4.7,0,0,1,.914,3.109v.6h-5.727a3,3,0,0,0,.73,2.02,2.3,2.3,0,0,0,1.777.77,2.517,2.517,0,0,0,1.3-.312,3.259,3.259,0,0,0,.93-.828l.883.688A3.55,3.55,0,0,1,110.973,39.156Zm-.18-7.578a1.928,1.928,0,0,0-1.469.637A3.1,3.1,0,0,0,108.59,34h4.234v-.109a2.753,2.753,0,0,0-.594-1.707A1.815,1.815,0,0,0,110.793,31.578Zm10.07,5.18a1.064,1.064,0,0,0-.441-.91,4.249,4.249,0,0,0-1.539-.559,7.277,7.277,0,0,1-1.742-.562,2.479,2.479,0,0,1-.953-.781,1.869,1.869,0,0,1-.309-1.078,2.193,2.193,0,0,1,.879-1.758A3.432,3.432,0,0,1,119,30.391a3.532,3.532,0,0,1,2.332.742,2.357,2.357,0,0,1,.895,1.9h-1.453a1.3,1.3,0,0,0-.5-1.023,1.888,1.888,0,0,0-1.27-.43,1.976,1.976,0,0,0-1.234.344,1.082,1.082,0,0,0-.445.9.877.877,0,0,0,.414.789,5.1,5.1,0,0,0,1.5.508,7.8,7.8,0,0,1,1.754.578,2.558,2.558,0,0,1,1,.809,1.988,1.988,0,0,1,.324,1.152,2.163,2.163,0,0,1-.906,1.816,3.8,3.8,0,0,1-2.352.684,4.257,4.257,0,0,1-1.8-.359,2.922,2.922,0,0,1-1.223-1,2.42,2.42,0,0,1-.441-1.395h1.445a1.5,1.5,0,0,0,.582,1.152,2.258,2.258,0,0,0,1.434.426,2.331,2.331,0,0,0,1.316-.332A1.02,1.02,0,0,0,120.863,36.758Z" transform="translate(577.256 10201)" fill="#fff"/>
    <g id="Grupo_134511" data-name="Grupo 134511" transform="translate(8 178)">
      <circle id="Elipse_4933" data-name="Elipse 4933" cx="31.5" cy="31.5" r="31.5" transform="translate(487.256 10013)" fill="#fcd189"/>
      <g id="Grupo_134499" data-name="Grupo 134499" transform="translate(497.266 10023.57)">
        <g id="Grupo_134498" data-name="Grupo 134498" clip-path="url(#clip-path)">
          <path id="Trazado_128044" data-name="Trazado 128044" d="M15.163,20.562a3.916,3.916,0,0,1,1.177-3.423,3.6,3.6,0,0,1,5.185.351,4,4,0,0,1,.835,3.035h.755c1.172,0,2.343-.005,3.515,0a.721.721,0,1,1,0,1.436c-1.021.01-2.043,0-3.065,0-2.388,0-4.778-.038-7.165.011a7.776,7.776,0,0,0-6.688,3.764c-.1.149-.177.309-.3.518.17.014.293.033.416.034,1.232,0,2.464,0,3.7,0,.653,0,.909.25.911.89,0,1.578.015,3.156-.013,4.733a1.241,1.241,0,0,1-.31.752c-.62.673-1.268,1.324-1.943,1.943a1.321,1.321,0,0,1-.791.323c-1.364.032-2.73.015-4.155.015,0,.26,0,.494,0,.729a2.879,2.879,0,0,1-2.866,2.875c-.915.014-1.83,0-2.824,0v5.019H5.817a5.1,5.1,0,1,1,.011,1.474H5.363q-2.208,0-4.417,0c-.682,0-.933-.244-.934-.913,0-1.578-.031-3.156.007-4.733a5.437,5.437,0,0,1,2.961-4.918,5,5,0,0,0,2.291-2.5c.79-1.848,1.637-3.671,2.441-5.513a9.372,9.372,0,0,1,7.164-5.809,1.59,1.59,0,0,0,.174-.045.863.863,0,0,0,.112-.06m-2.17,7.178c-1.394,0-2.742,0-4.088.009a.363.363,0,0,0-.252.194C7.823,29.782,7,31.626,6.162,33.51c1.025,0,2.025,0,3.025,0a5.691,5.691,0,0,0,2.045-.075c.591-.247,1-.917,1.5-1.4a.419.419,0,0,0,.093-.1,1.048,1.048,0,0,0,.165-.389c.012-1.245.007-2.491.007-3.806M10.829,40.724a3.606,3.606,0,1,0,3.606,3.57,3.61,3.61,0,0,0-3.606-3.57m10.07-20.2a2.378,2.378,0,0,0-1-2.552,2.032,2.032,0,0,0-2.328.034,2.352,2.352,0,0,0-.943,2.5,1.736,1.736,0,0,0,.188.021H20.9M5.779,34.895a4.89,4.89,0,0,0-1.067.2,9.636,9.636,0,0,0-1.106.68,3.96,3.96,0,0,0-1.412,1.338c.8,0,1.537.026,2.267-.007a1.415,1.415,0,0,0,1.316-1.359c.014-.239,0-.479,0-.85" transform="translate(0 -11.151)" fill="#133d60"/>
          <path id="Trazado_128045" data-name="Trazado 128045" d="M78.435,47.375H54.351c-.746,0-1.083-.218-1.094-.706s.34-.736,1.108-.736H78.5v-.5q0-5.049,0-10.1a3.615,3.615,0,0,0-3.845-3.832q-4.034,0-8.068,0a3.44,3.44,0,0,1-.405-.007.706.706,0,0,1-.656-.729.7.7,0,0,1,.64-.7,2.16,2.16,0,0,1,.36-.008q4.08,0,8.159,0a5.047,5.047,0,0,1,5.258,5.245q.007,7.777,0,15.554a3.6,3.6,0,0,1-3.1,3.686,2.54,2.54,0,0,1-.448.036.719.719,0,1,1-.072-1.437A2.18,2.18,0,0,0,78.5,50.7q0-1.6-.009-3.2c0-.026-.022-.052-.052-.122" transform="translate(-36.654 -20.688)" fill="#133d60"/>
          <path id="Trazado_128046" data-name="Trazado 128046" d="M64.764,55.794V50.048H60.117c.084.105.143.2.219.272.657.661,1.32,1.315,1.973,1.978a.731.731,0,1,1-1.028,1.011c-1.013-1.005-2.012-2.025-3.036-3.018a1,1,0,0,0-.616-.257c-1.156-.024-2.313-.01-3.469-.012-.575,0-.9-.26-.912-.707-.009-.463.328-.734.929-.734q5.565,0,11.13,0c.674,0,.919.248.919.927q0,3.4,0,6.805c0,.675-.248.922-.926.922q-5.565,0-11.13,0c-.678,0-.923-.246-.925-.922q0-1.983,0-3.966c0-.557.288-.891.739-.879.434.012.7.334.7.872,0,1.126,0,2.253,0,3.416h3.948c-.1-.112-.171-.211-.258-.3-.625-.628-1.254-1.253-1.879-1.881-.432-.434-.477-.845-.136-1.174s.728-.273,1.142.139c1,1,1.991,2,3,2.985a1,1,0,0,0,.616.255c1.2.024,2.4.012,3.638.012" transform="translate(-36.644 -33.435)" fill="#133d60"/>
          <path id="Trazado_128047" data-name="Trazado 128047" d="M65.713,95.992H56.637a3.372,3.372,0,0,1-.4-.007.708.708,0,0,1-.653-.73.7.7,0,0,1,.642-.7,2.535,2.535,0,0,1,.4-.009h9.087a5.079,5.079,0,0,1,2.6-3.7,4.9,4.9,0,0,1,3.486-.511,5.053,5.053,0,1,1-6.082,5.657m4.995-4.328a3.606,3.606,0,1,0,3.614,3.562,3.611,3.611,0,0,0-3.614-3.562" transform="translate(-38.251 -62.092)" fill="#133d60"/>
          <path id="Trazado_128048" data-name="Trazado 128048" d="M108.313,50.74c.486,0,.919-.007,1.351,0a.724.724,0,1,1,0,1.438q-.99.014-1.982,0a.728.728,0,0,1-.811-.807c-.009-.433,0-.866,0-1.327h-1.443c0,.444.006.875,0,1.307a.74.74,0,0,1-.838.827c-.419.007-.838,0-1.291,0v1.443h1.152c.742,0,.975.231.978.959,0,.387,0,.773,0,1.182h1.443c0-.425,0-.853,0-1.282.007-.591.264-.852.851-.858.646-.007,1.291-.007,1.937,0a.724.724,0,1,1,.01,1.438c-.433.009-.866,0-1.357,0,0,.443,0,.858,0,1.272-.006.623-.258.887-.866.89q-1.307.009-2.612,0c-.585,0-.84-.269-.847-.862-.005-.417,0-.835,0-1.3-.468,0-.9.006-1.33,0a.736.736,0,0,1-.832-.832q-.011-1.329,0-2.658a.735.735,0,0,1,.828-.835c.42-.007.84,0,1.334,0,0-.425,0-.838,0-1.251,0-.655.249-.909.888-.912q1.284-.007,2.568,0c.613,0,.864.263.87.885,0,.4,0,.808,0,1.278" transform="translate(-70.076 -33.43)" fill="#133d60"/>
          <path id="Trazado_128049" data-name="Trazado 128049" d="M53.1,40.758c-.466,0-.932.011-1.4,0a.719.719,0,1,1,.014-1.435q1.4-.016,2.794,0a.711.711,0,0,1,.756.724.722.722,0,0,1-.77.711c-.465.012-.931,0-1.4,0" transform="translate(-35.063 -27.056)" fill="#133d60"/>
          <path id="Trazado_128050" data-name="Trazado 128050" d="M110.973,39.32c.436,0,.871-.006,1.307,0a.733.733,0,0,1,.821.706.724.724,0,0,1-.8.732q-1.374.014-2.749,0a.721.721,0,1,1,.019-1.436c.465-.01.931,0,1.4,0" transform="translate(-74.868 -27.06)" fill="#133d60"/>
          <path id="Trazado_128051" data-name="Trazado 128051" d="M57.869,1.755c0-.345-.013-.692,0-1.037A.711.711,0,0,1,58.586,0,.7.7,0,0,1,59.3.715q.027,1.081,0,2.163a.715.715,0,1,1-1.43,0c-.017-.375,0-.751,0-1.127" transform="translate(-39.824 0.001)" fill="#133d60"/>
          <path id="Trazado_128052" data-name="Trazado 128052" d="M34.238,80.97c.36,0,.722-.014,1.081,0a.715.715,0,1,1,0,1.431q-1.081.026-2.163,0a.715.715,0,1,1,0-1.431c.36-.017.721,0,1.081,0" transform="translate(-22.325 -55.724)" fill="#133d60"/>
          <path id="Trazado_128053" data-name="Trazado 128053" d="M70.1,5.286a3.824,3.824,0,0,1-.379.625c-.418.448-.856.878-1.3,1.3A.723.723,0,1,1,67.4,6.205q.67-.693,1.363-1.364a.622.622,0,0,1,.815-.144,3.2,3.2,0,0,1,.522.589" transform="translate(-46.201 -3.165)" fill="#133d60"/>
          <path id="Trazado_128054" data-name="Trazado 128054" d="M46.9,6.813c-.135.168-.258.453-.464.539a.847.847,0,0,1-.735-.067,18.154,18.154,0,0,1-1.562-1.547.629.629,0,0,1,.035-.9.61.61,0,0,1,.886-.131c.592.525,1.134,1.107,1.684,1.677.075.077.083.219.156.428" transform="translate(-30.262 -3.144)" fill="#133d60"/>
          <path id="Trazado_128055" data-name="Trazado 128055" d="M39.928,15.167c.016.652-.483,1.031-.956.832a15.782,15.782,0,0,1-1.569-.779.677.677,0,0,1-.266-.936.686.686,0,0,1,.917-.322,14.563,14.563,0,0,1,1.483.747,1.586,1.586,0,0,1,.39.457" transform="translate(-25.499 -9.563)" fill="#133d60"/>
          <path id="Trazado_128056" data-name="Trazado 128056" d="M74.869,16.239c-.245-.228-.549-.385-.623-.616a.822.822,0,0,1,.184-.747,8.392,8.392,0,0,1,1.757-.884.858.858,0,0,1,.735.327.786.786,0,0,1-.039.757c-.607.421-1.277.751-2.013,1.164" transform="translate(-51.083 -9.62)" fill="#133d60"/>
          <path id="Trazado_128057" data-name="Trazado 128057" d="M82.453,40.087a.718.718,0,1,1-.682-.753.729.729,0,0,1,.682.753" transform="translate(-55.76 -27.071)" fill="#133d60"/>
          <path id="Trazado_128058" data-name="Trazado 128058" d="M91.708,40.041a.717.717,0,1,1-.73-.705.727.727,0,0,1,.73.705" transform="translate(-62.131 -27.073)" fill="#133d60"/>
          <path id="Trazado_128059" data-name="Trazado 128059" d="M32.13,101.638a2.161,2.161,0,1,1-2.153-2.146,2.171,2.171,0,0,1,2.153,2.146m-1.444.051a.719.719,0,1,0-.743.683.728.728,0,0,0,.743-.683" transform="translate(-19.139 -68.475)" fill="#133d60"/>
          <path id="Trazado_128060" data-name="Trazado 128060" d="M99.376,99.492a2.162,2.162,0,1,1-2.165,2.181,2.167,2.167,0,0,1,2.165-2.181m.713,2.182a.719.719,0,1,0-.728.7.728.728,0,0,0,.728-.7" transform="translate(-66.905 -68.475)" fill="#133d60"/>
        </g>
      </g>
    </g>
  </g>
</svg>
