<svg xmlns="http://www.w3.org/2000/svg" width="510" height="339" viewBox="0 0 510 339">
  <g id="Grupo_133935" data-name="Grupo 133935" transform="translate(-915.256 -5124)">
    <rect id="Rectángulo_36009" data-name="Rectángulo 36009" width="510" height="339" transform="translate(915.256 5124)" fill="#ffeed2"/>
    <g id="Grupo_133934" data-name="Grupo 133934" transform="translate(3168.984 11380.723)">
      <path id="Trazado_126381" data-name="Trazado 126381" d="M417.862,302.157s-27.022-40.24-98.418-32.536-63.539,42.808-112.969,41.1S103.231,284.175,59.327,332.937C8.393,389.508,95.43,437.62,60.861,472.19c-61.936,61.937,0,134.943,138.319,121.083,114.713-11.49,115.74-27.614,182.327-8.085S508.638,532.6,484.449,476.137s-85.667-34.932-56.861-81.04S417.862,302.157,417.862,302.157Z" transform="translate(-2263.216 -6513.895)" fill="#fcd189"/>
      <path id="Trazado_126379" data-name="Trazado 126379" d="M5.221,45.441a4.316,4.316,0,0,1-2.5-.058,3.675,3.675,0,0,1-1.666-1.77c-2.26-4.323-.575-9.7,2.068-13.8s6.214-7.637,8.168-12.105c1.649-3.775,2.049-8.02,3.848-11.724S20.98-.948,24.919.257c8.837,2.7,6.071,21.085,3.552,27.488C24.929,36.759,14.424,43.693,5.221,45.441Z" transform="translate(-2244.979 -6079.201) rotate(-25)" fill="#fcd189"/>
      <path id="Trazado_126382" data-name="Trazado 126382" d="M5.221,45.441a4.316,4.316,0,0,1-2.5-.058,3.675,3.675,0,0,1-1.666-1.77c-2.26-4.323-.575-9.7,2.068-13.8s6.214-7.637,8.168-12.105c1.649-3.775,2.049-8.02,3.848-11.724S20.98-.948,24.919.257c8.837,2.7,6.071,21.085,3.552,27.488C24.929,36.759,14.424,43.693,5.221,45.441Z" transform="matrix(-0.951, 0.309, -0.309, -0.951, -1775.338, -6096.292)" fill="#fcd189"/>
    </g>
    <g id="Grupo_133933" data-name="Grupo 133933" transform="translate(981.256 5145)">
      <path id="Trazado_125124" data-name="Trazado 125124" d="M285.863,336.431c3.105-4.71,7.711-6.76,11.6-9.977,4.207-3.485,9.568-12.085,4.223-18.467a13.351,13.351,0,0,1-1.233-1.486,35.372,35.372,0,0,1-2.933-6.878,29.476,29.476,0,0,1-1.077-7.987,82.643,82.643,0,0,1,1.9-16.062,182.9,182.9,0,0,0,2.64-46.25c-1.749-24.875-7.671-54.433,6.157-74.573,6.01-8.754,14.273-14.273,21.951-19.813,8.79-6.342,17.886-11.544,28.034-12.154,9.843-.592,19.775,2.159,29.362,5.37,8.727,2.924,17.442,6.744,25.351,12.831,15.9,12.234,24.189,32.852,28.473,56.322,2.239,12.262,3.563,24.752,5.215,37.154,2.034,15.259,4.814,30.215,7.628,45.255,1.1,5.905,2,12.069.893,18.026a35.538,35.538,0,0,1-6.256,14c-3.347,4.746-5.253,11.017-8.353,16.031-4.259,6.889-7.848,4.447-13.485,1.207-9.9-5.689-22.467-8.347-32.507-2.878-12.634,6.881-24.4,16.522-37.7,21.147-18.2,6.33-37.1,8.381-55.98,7.75-4-.134-8.491.067-12.2-2.489-4.783-3.3-5.291-10.2-2.027-15.554Q285.7,336.687,285.863,336.431Z" transform="translate(-195.167 -57.293)" fill="#0b1724"/>
      <g id="Grupo_132092" data-name="Grupo 132092" transform="translate(101.106 74.283)">
        <g id="Grupo_132091" data-name="Grupo 132091" transform="translate(22.032)">
          <g id="Grupo_132068" data-name="Grupo 132068" transform="translate(0 24.222)">
            <path id="Trazado_125125" data-name="Trazado 125125" d="M457.884,180.991a8.037,8.037,0,1,1,15.807,2.914c-.126.686-13.748,48.648-13.748,48.648a6.8,6.8,0,0,1-13.366-2.465Z" transform="translate(-446.484 -172.966)" fill="#eda087"/>
            <g id="Grupo_132067" data-name="Grupo 132067" transform="translate(5.333)">
              <path id="Trazado_125126" data-name="Trazado 125126" d="M444.679,201.2,449.3,180a9.367,9.367,0,0,1,18.458,3.209c-.063.361-2.81,10.562-5.862,21.848A75.592,75.592,0,0,1,444.679,201.2Z" transform="translate(-444.679 -172.248)" fill="#188df8"/>
            </g>
          </g>
          <g id="Grupo_132083" data-name="Grupo 132083" transform="translate(8.965 95.015)">
            <path id="Trazado_125127" data-name="Trazado 125127" d="M440.315,316.752a19.736,19.736,0,0,0-.178-2.155q-.1-.794-.261-1.563c-3.39-18.626-13.17-34.8-13.17-34.8l-41.321.238s-11.014,12.686-12.765,34.377c-.132.841,0,4.556,0,4.556a16,16,0,0,0,14.436,15.56L424.3,333A16.5,16.5,0,0,0,440.315,316.752Z" transform="translate(-372.562 -278.235)" fill="#482932"/>
            <g id="Grupo_132082" data-name="Grupo 132082" transform="translate(2.586 3.992)">
              <g id="Grupo_132069" data-name="Grupo 132069" transform="translate(25.571 0.548)">
                <path id="Trazado_125128" data-name="Trazado 125128" d="M428.093,334.6a.471.471,0,0,1-.431-.282,104.943,104.943,0,0,1-4.562-14.967c-2.495-10.181-.114-32.939-.011-33.9a.469.469,0,1,1,.933.1c-.025.234-2.466,23.559-.011,33.58a104.144,104.144,0,0,0,4.511,14.816.469.469,0,0,1-.244.617A.46.46,0,0,1,428.093,334.6Z" transform="translate(-421.965 -285.031)" fill="#5f3b46"/>
              </g>
              <g id="Grupo_132070" data-name="Grupo 132070" transform="translate(19.589)">
                <path id="Trazado_125129" data-name="Trazado 125129" d="M436.174,325.758a.506.506,0,0,1-.07-.005c-4.7-.707-6.375-6.326-6.444-6.564-3.083-9.491-.029-33.549.1-34.568a.469.469,0,1,1,.931.12c-.032.248-3.158,24.868-.137,34.173.02.067,1.583,5.294,5.686,5.911a.469.469,0,0,1-.069.933Z" transform="translate(-428.288 -284.211)" fill="#5f3b46"/>
              </g>
              <g id="Grupo_132071" data-name="Grupo 132071" transform="translate(6.864 3.051)">
                <path id="Trazado_125130" data-name="Trazado 125130" d="M411.971,293.913c-13.592,0-21.666-4.187-21.785-4.251a.469.469,0,0,1,.442-.828c.176.095,17.974,9.3,45.386-.03a.47.47,0,0,1,.3.889A75.429,75.429,0,0,1,411.971,293.913Z" transform="translate(-389.937 -288.779)" fill="#5f3b46"/>
              </g>
              <ellipse id="Elipse_4836" data-name="Elipse 4836" cx="1.936" cy="1.936" rx="1.936" ry="1.936" transform="translate(21.837 1.819)" fill="#5f3b46"/>
              <path id="Trazado_125131" data-name="Trazado 125131" d="M384.77,294.786s.1,13.386,13.893,13.028c0,0-2.4-9.979-5.446-15.083C393.218,292.731,387.351,294.671,384.77,294.786Z" transform="translate(-341.651 -287.04)" fill="#5f3b46"/>
              <path id="Trazado_125132" data-name="Trazado 125132" d="M464.878,291.9s-1.486,7.508-7.43,9.385c0,0,2.386-7.446,4.419-10.88A31.7,31.7,0,0,0,464.878,291.9Z" transform="translate(-456.411 -286.269)" fill="#5f3b46"/>
              <g id="Grupo_132072" data-name="Grupo 132072" transform="translate(39.715 7.275)">
                <path id="Trazado_125133" data-name="Trazado 125133" d="M399.188,311.939c-4.96,0-8.935-1.4-11.832-4.171-5.016-4.8-4.976-11.9-4.972-12.2a.471.471,0,0,1,.47-.464h.007a.468.468,0,0,1,.463.476c0,.069-.033,7.009,4.688,11.517,3.014,2.879,7.311,4.178,12.767,3.857a.469.469,0,1,1,.055.937Q399.993,311.94,399.188,311.939Z" transform="translate(-382.384 -295.103)" fill="#5f3b46"/>
              </g>
              <g id="Grupo_132073" data-name="Grupo 132073" transform="translate(0 5.691)">
                <path id="Trazado_125134" data-name="Trazado 125134" d="M453.994,304.992a.469.469,0,0,1-.116-.924c8.513-2.184,9.788-10.844,9.8-10.931a.47.47,0,0,1,.93.127c-.013.093-1.381,9.374-10.5,11.713A.47.47,0,0,1,453.994,304.992Z" transform="translate(-453.525 -292.731)" fill="#5f3b46"/>
              </g>
              <g id="Grupo_132077" data-name="Grupo 132077" transform="translate(33.543 37.375)">
                <g id="Grupo_132074" data-name="Grupo 132074" transform="translate(0)">
                  <path id="Trazado_125135" data-name="Trazado 125135" d="M403.4,352.024a.469.469,0,0,1-.395-.722,45.776,45.776,0,0,1,10.521-11.05.469.469,0,0,1,.542.766,44.778,44.778,0,0,0-10.273,10.79A.47.47,0,0,1,403.4,352.024Z" transform="translate(-402.935 -340.166)" fill="#5f3b46"/>
                </g>
                <g id="Grupo_132075" data-name="Grupo 132075" transform="translate(2.771 1.579)">
                  <path id="Trazado_125136" data-name="Trazado 125136" d="M387.421,351.864a.47.47,0,0,1-.3-.833c.081-.066,8.192-6.617,18.517-8.494a.469.469,0,0,1,.168.924,45.051,45.051,0,0,0-18.09,8.3A.467.467,0,0,1,387.421,351.864Z" transform="translate(-386.951 -342.53)" fill="#5f3b46"/>
                </g>
                <g id="Grupo_132076" data-name="Grupo 132076" transform="translate(2.301 10.585)">
                  <path id="Trazado_125137" data-name="Trazado 125137" d="M392.689,358.172a.47.47,0,0,1-.09-.93c.416-.081,10.244-1.992,15.442-.883a.469.469,0,0,1-.2.918c-5.008-1.069-14.964.867-15.063.887A.5.5,0,0,1,392.689,358.172Z" transform="translate(-392.22 -356.013)" fill="#5f3b46"/>
                </g>
              </g>
              <g id="Grupo_132081" data-name="Grupo 132081" transform="translate(4.446 37.375)">
                <g id="Grupo_132078" data-name="Grupo 132078" transform="translate(10.677)">
                  <path id="Trazado_125138" data-name="Trazado 125138" d="M441.38,352.024a.469.469,0,0,1-.4-.216,44.778,44.778,0,0,0-10.273-10.79.469.469,0,1,1,.542-.766,45.792,45.792,0,0,1,10.521,11.05.469.469,0,0,1-.395.722Z" transform="translate(-430.513 -340.166)" fill="#5f3b46"/>
                </g>
                <g id="Grupo_132079" data-name="Grupo 132079" transform="translate(0 1.579)">
                  <path id="Trazado_125139" data-name="Trazado 125139" d="M453.433,351.864a.469.469,0,0,1-.3-.105,45.084,45.084,0,0,0-18.091-8.3.47.47,0,0,1,.169-.924c10.325,1.877,18.435,8.428,18.516,8.494a.469.469,0,0,1-.3.833Z" transform="translate(-434.661 -342.53)" fill="#5f3b46"/>
                </g>
                <g id="Grupo_132080" data-name="Grupo 132080" transform="translate(3.52 10.585)">
                  <path id="Trazado_125140" data-name="Trazado 125140" d="M449.681,358.172a.476.476,0,0,1-.091-.009c-.1-.02-10.057-1.956-15.064-.887a.469.469,0,1,1-.2-.918c5.2-1.109,15.026.8,15.441.883a.47.47,0,0,1-.09.93Z" transform="translate(-433.958 -356.013)" fill="#5f3b46"/>
                </g>
              </g>
            </g>
          </g>
          <g id="Grupo_132086" data-name="Grupo 132086" transform="translate(10.435)">
            <g id="Grupo_132085" data-name="Grupo 132085" transform="translate(26.399)">
              <g id="Grupo_132084" data-name="Grupo 132084" transform="translate(1.651)">
                <path id="Trazado_125141" data-name="Trazado 125141" d="M408.481,156.936l-.045,11.616,14.212.056.059-15.111A21.6,21.6,0,0,1,408.481,156.936Z" transform="translate(-408.436 -141.8)" fill="#f1a78f"/>
                <path id="Trazado_125142" data-name="Trazado 125142" d="M422.593,147.682l.046-11.64-14.212-.056-.06,15.136A21.6,21.6,0,0,0,422.593,147.682Z" transform="translate(-408.322 -135.986)" fill="#e28c79"/>
              </g>
              <path id="Trazado_125143" data-name="Trazado 125143" d="M413.16,170.252a14.505,14.505,0,0,0,10.521-4.5c-2.755-.493-6.893-1.457-9.293-1.484a51.473,51.473,0,0,0-7.994,1.152C406.491,166.546,407.7,170.125,413.16,170.252Z" transform="translate(-406.394 -145.378)" fill="#f1a78f"/>
            </g>
            <path id="Trazado_125144" data-name="Trazado 125144" d="M436.857,176.018c0-5.515-7.778-6.629-7.778-6.629-4.048-.762-10.611-1.737-14.906-2.773,0,0-2.028-.454-4.656-.925a12.36,12.36,0,0,1-9.707,3.992c-5.457-.127-6.227-3.118-6.325-4.243-2.487.438-4.392.9-4.392.9-7.637,1.606-13.719,3.052-13.719,3.052s-7.864,1.115-7.864,6.629c0,2.492,5.334,6.127,7.681,7.422v.609c-7.509,5.872-8.619,10.272-8.619,15.283,0,10.476,8.776,13.043,8.776,13.043l2.584,28.643c16.388,8.575,41.318-.238,41.318-.238,2.714-18.488,6.954-30.369,8.917-42.188a108.323,108.323,0,0,0,1.226-15.321C431.923,181.854,436.857,178.41,436.857,176.018Z" transform="translate(-366.573 -145.766)" fill="#188df8"/>
            <path id="Trazado_125145" data-name="Trazado 125145" d="M391.089,220.878s1.859,1.573,5.9,1.921c8.154.7,21.53,2.171,33.321.276,4.946-.795,8.583-3.294,12.309-6.214,0,0-2.221,12.679-17.722,12.423S392.061,230.933,391.089,220.878Z" transform="translate(-388.709 -162.84)" fill="#1683e8"/>
          </g>
          <path id="Trazado_125146" data-name="Trazado 125146" d="M411.875,258.419A6.8,6.8,0,0,1,404.032,253a7.009,7.009,0,0,1,5.379-8.076h0s11.253-4.245,48.526-9.232l1.633,8.527s-30.137,12.3-47.133,14.079C412.323,258.312,411.875,258.419,411.875,258.419Z" transform="translate(-403.793 -169.094)" fill="#eda087"/>
          <path id="Trazado_125147" data-name="Trazado 125147" d="M419.786,258.867a6.8,6.8,0,0,0,8.207-4.848,7.008,7.008,0,0,0-4.793-8.436h0s-8.522-5.457-45.348-13.072l-2.346,7.372s26.9,15.851,43.729,18.826C419.347,258.728,419.786,258.867,419.786,258.867Z" transform="translate(-353.467 -168.037)" fill="#f1a78f"/>
          <g id="Grupo_132088" data-name="Grupo 132088" transform="translate(61.613 23.839)">
            <path id="Trazado_125148" data-name="Trazado 125148" d="M385.7,183.141a8.037,8.037,0,0,0-15.9-2.39c-.1.691-2.836,50.474-2.836,50.474a6.8,6.8,0,0,0,13.441,2.02Z" transform="translate(-366.909 -172.417)" fill="#f1a78f"/>
            <g id="Grupo_132087" data-name="Grupo 132087" transform="translate(0.397)">
              <path id="Trazado_125149" data-name="Trazado 125149" d="M382.245,204l2.31-21.58a9.368,9.368,0,0,0-18.528-2.782c-.055.363-.667,10.909-1.334,22.581A75.553,75.553,0,0,0,382.245,204Z" transform="translate(-364.694 -171.676)" fill="#188df8"/>
            </g>
          </g>
          <g id="Grupo_132089" data-name="Grupo 132089" transform="translate(48.621 59.198)">
            <path id="Trazado_125150" data-name="Trazado 125150" d="M372.5,233.16s13.026-4.581,15.382-5.1c1.808-.4,5.466-1.417,7.938-2.268.741-.255,3.163-1.584,3.429-1.056.178.353.7,1.049-.705,2.46s-6.712,2.693-6.712,2.693,2.33.665,4.306,1.232,4.173.8,4.415,1.3c0,0,.723,1.706-2.1,1.878,0,0,1.881.246,1.818,1.027-.146,1.848-1.648,1.714-3.344,1.642s-4.794-.671-6.248-.381l4.9,2.523s1.872,1.026,2.065,1.466-.041,1.5-1.88,1.026c-2.073-.531-5.33-3.3-9.721-1.872L372.5,235.557Z" transform="translate(-372.505 -224.612)" fill="#eda087"/>
            <path id="Trazado_125151" data-name="Trazado 125151" d="M384.043,238.179s-8.272-.938-8.272-1.7S381.227,237.651,384.043,238.179Z" transform="translate(-358.089 -228.494)" fill="#df8372"/>
            <path id="Trazado_125152" data-name="Trazado 125152" d="M388.351,232.166s-2.851-.391-2.656-.625S387.448,231.736,388.351,232.166Z" transform="translate(-369.02 -226.891)" fill="#df8372"/>
            <path id="Trazado_125153" data-name="Trazado 125153" d="M389.116,242.121s-1.818-.415-1.7-.675C387.689,240.84,389.116,242.121,389.116,242.121Z" transform="translate(-370.935 -230.148)" fill="#df8372"/>
          </g>
          <g id="Grupo_132090" data-name="Grupo 132090" transform="translate(5.756 60.523)">
            <path id="Trazado_125154" data-name="Trazado 125154" d="M463.26,239.653a16.187,16.187,0,0,1-10.872-.42l-5.637.982a1.482,1.482,0,0,1-.813-2.3s-.777-.015-.763-1.071a6.262,6.262,0,0,1,.5-1.6c-.675-.279-.85-1.643.088-2.361a1.529,1.529,0,0,1,.13-2.009,21.766,21.766,0,0,1,4.887-4.165c1.284-.586,7.1,1.109,12.909,3C469.762,231.69,468.132,238.53,463.26,239.653Z" transform="translate(-445.113 -226.596)" fill="#f1a78f"/>
            <path id="Trazado_125155" data-name="Trazado 125155" d="M471.387,242.8s3.883-1.916,4.117-1.427S471.387,242.8,471.387,242.8Z" transform="translate(-470.561 -231.475)" fill="#e28c79"/>
            <path id="Trazado_125156" data-name="Trazado 125156" d="M471.4,238.288s4.225-3.021,4.381-2.474S471.4,238.288,471.4,238.288Z" transform="translate(-470.834 -229.635)" fill="#e28c79"/>
            <path id="Trazado_125157" data-name="Trazado 125157" d="M472.214,234.428s3.589-3.5,3.745-3.174S472.214,234.428,472.214,234.428Z" transform="translate(-471.565 -228.135)" fill="#e28c79"/>
          </g>
        </g>
        <path id="Trazado_125158" data-name="Trazado 125158" d="M433.817,254.454a12.056,12.056,0,0,1,7.3-8.492,13.572,13.572,0,0,1,11.045.275c7.661,3.465,12.586,11.989,17.051,19.671a141.117,141.117,0,0,1,12.652,27.431c2.475,7.663,6.178,19.234,2.081,26.991-3.879,7.345-13.926,8.5-20.409,7.994-9.1-.715-9.273-3.513-12.85-9.815A178.4,178.4,0,0,1,440.4,297.052a123.907,123.907,0,0,1-6.385-20.681,64.441,64.441,0,0,1-.572-19.826A16.425,16.425,0,0,1,433.817,254.454Z" transform="translate(-427.364 -172.157)" fill="#482932"/>
        <path id="Trazado_125159" data-name="Trazado 125159" d="M378.1,253.506a12.055,12.055,0,0,1,6.426-9.174,13.577,13.577,0,0,1,11.017-.822c7.967,2.689,13.713,10.682,18.918,17.884a141.144,141.144,0,0,1,15.31,26.042c3.222,7.379,8.054,18.526,4.747,26.651-3.133,7.694-13.061,9.245-19.516,9.979-6.834.776-10.785-4.338-14.971-10.254a148.127,148.127,0,0,1-11.158-18.57,123.967,123.967,0,0,1-8.4-19.946,64.44,64.44,0,0,1-2.536-19.671A16.557,16.557,0,0,1,378.1,253.506Z" transform="translate(-340.455 -171.427)" fill="#482932"/>
        <path id="Trazado_125160" data-name="Trazado 125160" d="M445.209,328.969c-6.371,2.636-13.1,3.133-19.822,2.918a1.228,1.228,0,0,1-1.09-1.231c-.6-9.474,1.835-49.522,2.492-58.261.511-6.8.144-17.677,5.026-22.48,2.813-2.767,7.12-3.942,10.7-4.076,8.252-.309,11.284,6.284,11.744,15.04.444,8.464,1.156,16.575.367,25.045a182.929,182.929,0,0,1-4.54,25.339c-1.095,4.608-2.308,9.174-3.366,13.795-.21.92-.438,2.037-.787,3.079A1.346,1.346,0,0,1,445.209,328.969Z" transform="translate(-390.728 -172.459)" fill="#482932"/>
        <path id="Trazado_125161" data-name="Trazado 125161" d="M479.279,265.858c1.667-7.762,3.886-17.048,10.734-20.453a.548.548,0,0,1,.3-.5c5.074-2.4,10.241,1.5,12.557,6.861,2.914,6.74,2.86,15.414,2.528,22.771a166.769,166.769,0,0,1-3.567,25.848c-1.023,5.008-4.778,27.932-8.033,28.992-5.945,1.934-16.048,6.062-18.053,1.71C475.321,330.171,476.97,276.616,479.279,265.858Z" transform="translate(-475.677 -171.911)" fill="#482932"/>
        <path id="Trazado_125162" data-name="Trazado 125162" d="M468.809,263.239s-5.744,48.376-4.241,57.312" transform="translate(-431.347 -178.24)" fill="none" stroke="#0b1724" stroke-miterlimit="10" stroke-width="1"/>
        <path id="Trazado_125163" data-name="Trazado 125163" d="M429.869,358.974s-7.269-3.546-8.369-6.078-3.1-4.32-3.28-3.483-2.212,9.87-2.461,10.894" transform="translate(-359.973 -206.785)" fill="none" stroke="#0b1724" stroke-miterlimit="10" stroke-width="1"/>
      </g>
      <path id="Trazado_125164" data-name="Trazado 125164" d="M476.223,358.19c2.023-1.806,4.766-2.508,7.265-3.371l12.224-4.226c7.965-2.753,16.116-5.213,23.937-8.353,9.478-3.805,14.219-11.576,19.29-19.98a258.571,258.571,0,0,0,30.143-73.7.675.675,0,0,1,.892-.486.7.7,0,0,1,.116-.03c2.832-.152,3.706-4.41,5.514-6.088A8.444,8.444,0,0,1,582.258,240c5.782.622,9.283,5.825,11.771,10.542,6.956,13.191,9.791,28.052,11.064,42.785.669,7.73.924,15.491,1.116,23.245.194,7.872-.112,15.427-2.335,23.029a122.928,122.928,0,0,1-7.329,19.713c-2.461,4.99-6.08,10.586-11.269,13.084-1.536.739-4.858,1.693-6.354.376-1.609-1.417-.432-3.865-1.548-5.5-1.341-1.962-4.714-2.46-6.85-2.862-6.3-1.187-12.777-.909-19.148-.936-16.91-.071-33.392,2.021-50.157,3.819-7.464.8-15.507,1.155-22.7-1.433C474.811,364.527,472.825,361.224,476.223,358.19Zm65.5-18.963c3.747,3.7,9-4.563,10.478-7.148,2.184-3.81,3.415-8.029,4.747-12.184a12.074,12.074,0,0,0,.691-5.362c-.3-1.9-2.013-3.761-3.983-2.439-1.782,1.2-2.356,3.439-3.105,5.319a76.291,76.291,0,0,1-7.492,15.079C541.843,334.265,539.708,337.238,541.722,339.227Z" transform="translate(-474.476 -96.221)" fill="#0b1724"/>
      <path id="Trazado_125165" data-name="Trazado 125165" d="M316.046,336.208c2.413-2.071,4.434-3.34,5.291-6.659.51-1.974.224-4.081.794-6.046,1.3-4.466,6.571-4.722,8.229-9.709,7.223-21.718-3.057-44.065-18.247-59.275a7.613,7.613,0,0,1-1.876-2.485c-1.081-2.784,1.478-3.619,3.716-3.441a13.835,13.835,0,0,1,3.161.648c8.377,2.852,13.131,10.148,17.85,17.144,2.864,4.247,4.791,4.463,5.214-2.188.212-.082,3.2,15.261,3.407,15.479,5.555,5.717,10.3,14.529,10.378,22.938.878,7.233.891,16.85-3.548,22.675-.017.023-.038.029-.056.049a.723.723,0,0,1-.279.231c-3.926,1.811-6.08,6.494-8.222,9.621a22.635,22.635,0,0,0,5.978-6.534c.466-.776,1.717-.123,1.248.659-3.586,5.972-9.466,9.834-16.116,11.684a49.075,49.075,0,0,1-12.654,1.589c-1.818.019-4.821.349-5.882-1.622C313.455,339.149,314.694,337.368,316.046,336.208Z" transform="translate(-112.766 -99.087)" fill="#0b1724"/>
      <path id="Trazado_125166" data-name="Trazado 125166" d="M411.582,93.394c4.932-4.478,11.586-2.628,16.754.435,6.157,3.649,8.535,9.388,9.2,16.291.422,4.4.665,8.818.964,13.224.256,3.764-.108,5.645-3.384,7.785-4.773,3.118-11.342,4.966-16.219,1.327-6.174-4.6-8.654-11.9-10.785-18.962-.018-.059-.054-.131-.115-.125s-.009.132.019.077c-.141-3.4-1.244-6.772-.954-10.178A14.715,14.715,0,0,1,411.582,93.394Z" transform="translate(-261.717 -46.673)" fill="#f7a887"/>
      <path id="Trazado_125167" data-name="Trazado 125167" d="M434.342,136.987a10.027,10.027,0,0,0,4.229.337.353.353,0,0,1,.217.672,5.7,5.7,0,0,1-4.775-.385C433.617,137.391,433.9,136.885,434.342,136.987Z" transform="translate(-280.089 -62.031)" fill="#2f1213"/>
      <path id="Trazado_125168" data-name="Trazado 125168" d="M432.2,130.155a3.163,3.163,0,0,1,1.659-1.35c1.046-.507,2.735-1.129,3.765-.253,1.325,1.128.227,2.555-1.028,2.789l-2.419.452C433.2,131.976,431.545,131.672,432.2,130.155Z" transform="translate(-278.102 -59.089)" fill="#3c1b21"/>
      <path id="Trazado_125169" data-name="Trazado 125169" d="M418.782,123.165a3.16,3.16,0,0,0-2.107-.372c-1.161.065-2.938.343-3.412,1.61-.609,1.63,1.045,2.343,2.254,1.938l2.333-.782C418.792,125.242,420.089,124.174,418.782,123.165Z" transform="translate(-246.579 -57.315)" fill="#3c1b21"/>
      <g id="Grupo_132093" data-name="Grupo 132093" transform="translate(162.525 80.746)">
        <path id="Trazado_125170" data-name="Trazado 125170" d="M421.391,147.59a.332.332,0,0,0,.232-.094c1.4-1.353,3.985-1.154,4.011-1.151a.338.338,0,0,0,.361-.3.333.333,0,0,0-.3-.361c-.119-.012-2.916-.23-4.532,1.337a.334.334,0,0,0,.232.574Z" transform="translate(-421.057 -145.663)" fill="#bc5b4a"/>
      </g>
      <path id="Trazado_125171" data-name="Trazado 125171" d="M417.093,130.993a10.03,10.03,0,0,1-3.921,1.62.353.353,0,0,0,0,.705,5.7,5.7,0,0,0,4.426-1.833C417.908,131.154,417.485,130.76,417.093,130.993Z" transform="translate(-244.749 -60.022)" fill="#2f1213"/>
      <path id="Trazado_125172" data-name="Trazado 125172" d="M161.495,117.893a20.571,20.571,0,0,1-1.62-9.391c.2-5.953,2.511-12.527.806-18.391a23.507,23.507,0,0,0-4.966-8.3c-.966-1.121-1.912-1.878-2.5-.574-.823,1.837.347,4.54.544,6.432a73.045,73.045,0,0,1,.164,9.711c-.215,7.076-.421,15.541-3.618,22-2.443,4.941-7.6,8.09-13.037,5.929-3.877-1.541-7.179-5.306-9.44-9.28-.027-.007-.053-.01-.079-.017-2.959-.8,4.307,10.77,2.145,11.578-.429.16-.843.347-1.25.546,1.351,1,3.7,3.248,1.532,4.608a3,3,0,0,1-2.23.08,1.81,1.81,0,0,1-.027,2.433c-.769.969-2.231,1.039-3.322,1.291-.484.112-.957.24-1.424.379q.215.073.416.156c1.8.751,2.419,2.659.932,4.11-1.023,1-2.467,1.073-3.774,1.432a11.651,11.651,0,0,0-2.149.82.026.026,0,0,0,0,.043c.846.79.639,2.032-.307,3.157a5.641,5.641,0,0,1-.969.9,2.324,2.324,0,0,0-.9,1.625c-.373,3.423.3,6.722.864,10.161.482,2.955,1.239,6.629-.1,9.478-1.156,2.469-3.871,3.883-5.4,6.119a14.742,14.742,0,0,0-2.489,9.734c.066.436.133.893.173,1.349.012.072.016.144.029.215a.627.627,0,0,1,0,.124c0,.727.063,2.27-.776,2.666-1.981.937-3.506-7.042-3.714-8.236a37.256,37.256,0,0,1-.029-11.816,68.22,68.22,0,0,1,2.32-9.866c.743-2.432,2.17-4.734,2.369-7.312,0-.031,0-.063.007-.095.159-2.427-.762-4.9,1-7.021a4.659,4.659,0,0,1,1.481-1.124,4.262,4.262,0,0,1,.687-4.649c-.18-2.145-.268-4.919,1.347-6.5.56-4.42,4.007-6.39,7.726-6.417a23.789,23.789,0,0,1,2.933-2.891c4.762-3.964-7.334-23.894-2.536-27.725,3.637-2.9,4.525-7.366,4.945-11.758.444-4.644,1.087-9.381,3.14-13.626,2.314-4.783,6.017-6.631,10.709-8.717,4.123-1.833,8.35-2.182,11.113-6.149,2.44-3.5,3.121-8.037,3.756-12.159.8-5.225,2.368-9.865,6.625-13.282,9.409-7.551,21.256-5.921,29.936,1.856,9.784,8.768,9.4,19.948,14.768,30.875,6.093,12.409,19.749,18.853,28.081,29.574,29.557,38.035,32.443,89.207,54.828,130.977,3.511,6.551,7.114,13.155,11.706,19.015a40.469,40.469,0,0,0,20.734,14.391c8.487,2.529,17.282,3.974,25.812,6.39,5.072,1.437,11.305,2.389,15.719,5.424,8.229,5.657-2.667,13.9-8.762,16.732,9.814,10.037-17.524,19.532-23.622,21.527-37.232,12.184-76.861,9.049-112.512-6.709-5.895-2.606-11.541-2.28-17.828-2.493-2.7-.091-.1-5.062.173-8.241s0,0,2.15-2.017c3.435-3.221,7.207-6.038,10.439-9.478a94.473,94.473,0,0,0,9.435-12.23c6.157-9.188,12.623-19.506,10.552-31.066a.662.662,0,0,1,0-.1.687.687,0,0,1-.228-.438c-.043-.348-.085-.7-.135-1.059-1.833-5.78-5.43-10.5-9.212-15.133-3.351-4.11-7.4-8.263-8.637-13.573-1.429-6.122-.546-12.425.2-18.575.377-3.1-23.891-4.085-23.876-7.209a35.5,35.5,0,0,0-.263-4.66c-.172-1.357-.588-2.636-.739-4-.232-2.1-2.513-3.473-3.991-4.743-1.6-1.375-3.293-2.95-3.65-5.135-.264-1.614.131-2.395.9-2.638-1.979-1.745-4.869-5.133-1.543-6.038-.019-.013-.038-.015-.057-.029-2.67-2.177-2.129-5.327.888-6.2-.566-3.3,1.53-5.054,4.881-5.246a13.566,13.566,0,0,1,4.323.461c-1.22-1.862-2-4.1-3.769-5.394-5.262-3.859-6.955,4.952-11.98,2.845-3.873-1.624-4.082-7.544-4.181-11-.064-2.212.447-6.512-.975-8.339-2.1-2.7-3.328.109-4.06,1.988m166.751,165.79a9.747,9.747,0,0,0,6.378-3.389c3.2-4.192.252-8.95-3.725-11.107-4.845-2.628-11.189-3.268-16.583-2.474-3.942.58-9.707,3.213-8.022,8.206C315.71,285.332,327.386,286.988,334.856,285.781Zm-25.072,2.348a5.881,5.881,0,0,0,3.823,2.61c1.589.31,3.655-.118,4.183-1.879.478-1.6-.678-3.092-2.008-3.854C313.469,283.681,307.484,284.058,309.784,288.129Zm-33.148-45.805c2.787,1.43,4.324-.87,3.964-3.489-.506-3.687-2.919-8-6.732-9.145a2.344,2.344,0,0,0-3.049,1.548C269.173,235.268,273.177,240.549,276.636,242.323Zm-28.092-40a104.074,104.074,0,0,0,5.827,17.553c1.578,3.6,9.5,16.874,12.276,6.84.854-3.093.034-6.435-.588-9.488A81.355,81.355,0,0,0,260.653,201c-1.92-4.4-3.952-12.048-8.575-14.428C244.511,182.68,247.881,199.548,248.544,202.324ZM201.939,67.2c1.367.594,1.986-.8,1.933-1.958a10.03,10.03,0,0,0-2.017-5.535c-.607-.8-3.3-3.7-3.878-1.19C197.283,61.494,199.032,65.935,201.939,67.2Zm-56.752,49.2c2.55-3.347,2.423-9.075,2.371-13.045a80.3,80.3,0,0,0-.684-8.934c-.191-1.52-.41-3.037-.639-4.552-.173-1.151-.145-2.326-.361-3.469-.1-.55-.552-1.139-1.156-.983a60.629,60.629,0,0,0-.367,7.218c-.319,6.193-.487,12.882-4.19,18.153a13.83,13.83,0,0,1-4.517,4.1C138.348,118.064,142.051,120.513,145.187,116.4Z" transform="translate(11.754 -24.776)" fill="#0b1724"/>
      <g id="Grupo_132094" data-name="Grupo 132094" transform="translate(157.715 34.677)">
        <path id="Trazado_125173" data-name="Trazado 125173" d="M406.922,124.06a.334.334,0,0,0,.25-.554,44.339,44.339,0,0,0-12.411-9.816c-1.5-.8-3.076-1.506-4.6-2.186a37.755,37.755,0,0,1-8.286-4.571c-5.506-4.386-8.812-11.041-11.469-16.388-4.757-9.575-10.864-13.854-19.787-13.854h-.15a.334.334,0,0,0,0,.668.872.872,0,0,1,.146,0c8.639,0,14.561,4.164,19.19,13.483,2.686,5.406,6.029,12.134,11.651,16.612a38.216,38.216,0,0,0,8.43,4.659c1.516.676,3.082,1.376,4.559,2.166a43.682,43.682,0,0,1,12.225,9.667A.333.333,0,0,0,406.922,124.06Z" transform="translate(-350.137 -76.692)" fill="#7c4851"/>
      </g>
      <g id="Grupo_132095" data-name="Grupo 132095" transform="translate(174.108 42.944)">
        <path id="Trazado_125174" data-name="Trazado 125174" d="M388.262,100.788a14.607,14.607,0,0,0,11.115-5.038.334.334,0,0,0-.52-.419c-2.982,3.714-8.021,5.056-11.718,4.742-2.919-.251-5.2-1.494-6.26-3.41-3.529-6.385-4.247-7.414-4.275-7.454a.334.334,0,0,0-.546.386c.029.041.75,1.085,4.236,7.392,1.169,2.114,3.642,3.482,6.788,3.752C387.473,100.772,387.867,100.788,388.262,100.788Z" transform="translate(-375.997 -89.068)" fill="#7c4851"/>
      </g>
      <g id="Grupo_132096" data-name="Grupo 132096" transform="translate(195.534 39.639)">
        <path id="Trazado_125175" data-name="Trazado 125175" d="M374.922,110.265a.334.334,0,0,0,.3-.486,69.6,69.6,0,0,1-6.891-25.338.334.334,0,1,0-.668.029,70.358,70.358,0,0,0,6.964,25.613A.335.335,0,0,0,374.922,110.265Z" transform="translate(-367.66 -84.121)" fill="#7c4851"/>
      </g>
      <g id="Grupo_132097" data-name="Grupo 132097" transform="translate(204.513 114.343)">
        <path id="Trazado_125176" data-name="Trazado 125176" d="M359.953,203.179a.335.335,0,0,0,.3-.491c-2.733-5.143-9.921-6.659-10.226-6.721a.334.334,0,1,0-.133.655c.071.015,7.185,1.518,9.769,6.38A.333.333,0,0,0,359.953,203.179Z" transform="translate(-349.622 -195.96)" fill="#7c4851"/>
      </g>
      <g id="Grupo_132098" data-name="Grupo 132098" transform="translate(196.127 118.951)">
        <path id="Trazado_125177" data-name="Trazado 125177" d="M371.379,208.323a.334.334,0,0,0,.266-.536c-4.561-6.016-12.506-4.839-12.587-4.828a.334.334,0,0,0,.1.66c.076-.011,7.635-1.121,11.951,4.571A.334.334,0,0,0,371.379,208.323Z" transform="translate(-358.776 -202.859)" fill="#7c4851"/>
      </g>
      <g id="Grupo_132099" data-name="Grupo 132099" transform="translate(195.044 125.266)">
        <path id="Trazado_125178" data-name="Trazado 125178" d="M374.474,215.856a.334.334,0,0,0,.186-.612c-3.544-2.357-9.219-2.908-9.459-2.93a.338.338,0,0,0-.363.3.334.334,0,0,0,.3.363c.057,0,5.748.558,9.15,2.82A.333.333,0,0,0,374.474,215.856Z" transform="translate(-364.836 -212.313)" fill="#7c4851"/>
      </g>
      <g id="Grupo_132100" data-name="Grupo 132100" transform="translate(196.67 131.615)">
        <path id="Trazado_125179" data-name="Trazado 125179" d="M372.686,226.555a.334.334,0,0,0,.249-.556c-2.827-3.159-7.976-4.135-8.193-4.176a.335.335,0,0,0-.122.658c.052.009,5.145.977,7.816,3.963A.333.333,0,0,0,372.686,226.555Z" transform="translate(-364.347 -221.818)" fill="#7c4851"/>
      </g>
      <g id="Grupo_132101" data-name="Grupo 132101" transform="translate(176.893 73.989)">
        <path id="Trazado_125180" data-name="Trazado 125180" d="M391.845,155.423c3.474,0,5.794-3.725,5.9-3.893a.334.334,0,0,0-.57-.349c-.024.04-2.492,4.016-5.918,3.532-2.827-.4-7.067-4-11.21-18.923a.334.334,0,0,0-.643.179c3.4,12.261,7.362,18.791,11.763,19.406A4.96,4.96,0,0,0,391.845,155.423Z" transform="translate(-379.389 -135.545)" fill="#7c4851"/>
      </g>
      <g id="Grupo_132102" data-name="Grupo 132102" transform="translate(133.8 66.559)">
        <path id="Trazado_125181" data-name="Trazado 125181" d="M465.608,132.147a.334.334,0,0,0,.25-.113,16.085,16.085,0,0,0,3.539-7.221.334.334,0,0,0-.659-.112,15.7,15.7,0,0,1-3.382,6.891.334.334,0,0,0,.25.555Z" transform="translate(-465.274 -124.423)" fill="#7c4851"/>
      </g>
      <g id="Grupo_132103" data-name="Grupo 132103" transform="translate(134.327 101.09)">
        <path id="Trazado_125182" data-name="Trazado 125182" d="M467.44,178.512a.334.334,0,0,0,.226-.579,7.888,7.888,0,0,0-5.386-1.808.334.334,0,0,0-.324.344.327.327,0,0,0,.343.324,7.313,7.313,0,0,1,4.914,1.63A.333.333,0,0,0,467.44,178.512Z" transform="translate(-461.956 -176.12)" fill="#7c4851"/>
      </g>
      <g id="Grupo_132104" data-name="Grupo 132104" transform="translate(126.626 105.117)">
        <path id="Trazado_125183" data-name="Trazado 125183" d="M475.373,185.027a.33.33,0,0,0,.228-.09.334.334,0,0,0,.017-.472c-.045-.048-4.521-4.71-12.775-.676a.334.334,0,1,0,.293.6c7.788-3.805,11.825.353,11.993.532A.336.336,0,0,0,475.373,185.027Z" transform="translate(-462.656 -182.148)" fill="#7c4851"/>
      </g>
      <g id="Grupo_132105" data-name="Grupo 132105" transform="translate(125.026 111.648)">
        <path id="Trazado_125184" data-name="Trazado 125184" d="M470.435,194.58a.328.328,0,0,0,.175-.049,14.547,14.547,0,0,1,8.785-1.844.334.334,0,0,0,.1-.661,14.928,14.928,0,0,0-9.235,1.936.334.334,0,0,0,.175.618Z" transform="translate(-470.101 -191.926)" fill="#7c4851"/>
      </g>
      <g id="Grupo_132106" data-name="Grupo 132106" transform="translate(124.567 117.805)">
        <path id="Trazado_125185" data-name="Trazado 125185" d="M477.161,202.339a.32.32,0,0,0,.1-.017,7.548,7.548,0,0,1,4.748-.257.334.334,0,0,0,.251-.619,8,8,0,0,0-5.207.241.334.334,0,0,0,.1.651Z" transform="translate(-476.827 -201.143)" fill="#7c4851"/>
      </g>
      <g id="Grupo_132107" data-name="Grupo 132107" transform="translate(225.075 171.474)">
        <path id="Trazado_125186" data-name="Trazado 125186" d="M328.978,311.56a.4.4,0,0,0,.048,0,.334.334,0,0,0,.283-.378c-1.268-8.782-4.578-18.158-10.415-29.5a.334.334,0,1,0-.593.305c5.8,11.28,9.09,20.588,10.347,29.294A.334.334,0,0,0,328.978,311.56Z" transform="translate(-318.263 -281.492)" fill="#7c4851"/>
      </g>
      <g id="Grupo_132108" data-name="Grupo 132108" transform="translate(235.667 151.954)">
        <path id="Trazado_125187" data-name="Trazado 125187" d="M297.576,329.287a.339.339,0,0,0,.124-.023c5.04-2.012,10.355-7.144,10.113-13.66a20.755,20.755,0,0,0-2.422-8.334c-1.2-2.469-2.652-4.855-4.052-7.164a65.834,65.834,0,0,1-5.224-9.823,104.438,104.438,0,0,1-3.916-13.394c-.44-1.8-.894-3.658-1.375-5.452-1.739-6.483-3.329-12.847-4.727-18.911a.334.334,0,0,0-.651.15c1.4,6.072,2.993,12.443,4.732,18.934.48,1.786.934,3.642,1.373,5.437a104.964,104.964,0,0,0,3.943,13.48,66.37,66.37,0,0,0,5.274,9.924c1.393,2.3,2.832,4.67,4.024,7.112a20.1,20.1,0,0,1,2.354,8.065c.221,5.917-4.709,11.026-9.693,13.014a.334.334,0,0,0,.124.645Z" transform="translate(-285.437 -252.268)" fill="#7c4851"/>
      </g>
      <g id="Grupo_132109" data-name="Grupo 132109" transform="translate(270.477 205.048)">
        <path id="Trazado_125188" data-name="Trazado 125188" d="M246.41,358.813a.334.334,0,0,0,.025-.667c-26.434-2.013-39.348-25.969-39.475-26.211a.334.334,0,0,0-.591.311c.13.245,13.217,24.525,40.016,26.566Z" transform="translate(-206.33 -331.756)" fill="#7c4851"/>
      </g>
      <g id="Grupo_132110" data-name="Grupo 132110" transform="translate(130.605 239.424)">
        <path id="Trazado_125189" data-name="Trazado 125189" d="M279.642,409.445c11.414,0,23.756-6.078,33.913-11.079,1.9-.936,3.7-1.821,5.44-2.645,13.169-6.231,27.366-12,43.375-8.2,26.941,6.388,38.212,3.14,46.846-3.7a.334.334,0,0,0-.415-.523c-8.482,6.721-19.6,9.9-46.278,3.575-16.221-3.846-30.539,1.967-43.815,8.249-1.746.826-3.544,1.712-5.448,2.65-11.449,5.638-25.7,12.66-38.1,10.666a.334.334,0,0,0-.106.66A28.988,28.988,0,0,0,279.642,409.445Z" transform="translate(-274.774 -383.221)" fill="#7c4851"/>
      </g>
      <g id="Grupo_132111" data-name="Grupo 132111" transform="translate(188.579 236.944)">
        <path id="Trazado_125190" data-name="Trazado 125190" d="M368.209,385.579c7.47,0,13.378-5.434,13.441-5.493a.334.334,0,1,0-.456-.488c-.066.06-6.635,6.085-14.534,5.23a.334.334,0,1,0-.071.664A14.983,14.983,0,0,0,368.209,385.579Z" transform="translate(-366.29 -379.509)" fill="#7c4851"/>
      </g>
      <path id="Trazado_125191" data-name="Trazado 125191" d="M396,359.085a36.212,36.212,0,0,0,25.608-3.507c3.342-1.848,6.392-4.232,9.892-5.758s7.714-2.093,11.047-.232c5.076,2.835,6.346,10.116,11.461,12.88,5.525,2.986,12.785-.718,18.5,1.886-3.774,4.585-9.719,6.839-15.573,7.837s-11.847.933-17.709,1.88c-11.066,1.786-21.692,7.16-32.872,6.356a9.964,9.964,0,0,1-4.1-1c-4.567-2.5-3.773-9.7-.273-13.555s8.637-5.767,12.676-9.053" transform="translate(-288.307 -132.24)" fill="#0b1724"/>
    </g>
  </g>
</svg>
