<svg xmlns="http://www.w3.org/2000/svg" width="49.259" height="42.438" viewBox="0 0 49.259 42.438">
  <g id="Grupo_78296" data-name="Grupo 78296" transform="translate(11034.756 12017.259)">
    <path id="Trazado_99257" data-name="Trazado 99257" d="M416.7,103.968a1.245,1.245,0,1,1-1.244-1.189A1.217,1.217,0,0,1,416.7,103.968Z" transform="translate(-11447.97 -12119.038)" fill="#fff"/>
    <path id="Trazado_99257_-_Contorno" data-name="Trazado 99257 - Contorno" d="M415.457,101.779a2.19,2.19,0,1,1-2.243,2.189A2.22,2.22,0,0,1,415.457,101.779Zm0,2.379a.2.2,0,1,0-.243-.19A.225.225,0,0,0,415.457,104.158Z" transform="translate(-11447.97 -12119.038)" fill="#fff"/>
    <path id="Trazado_99258" data-name="Trazado 99258" d="M425.147,103.968a1.245,1.245,0,1,1-1.243-1.189A1.217,1.217,0,0,1,425.147,103.968Z" transform="translate(-11445.224 -12119.038)" fill="#fff"/>
    <path id="Trazado_99258_-_Contorno" data-name="Trazado 99258 - Contorno" d="M423.9,101.779a2.19,2.19,0,1,1-2.244,2.189A2.219,2.219,0,0,1,423.9,101.779Zm0,2.379a.2.2,0,1,0-.244-.19A.224.224,0,0,0,423.9,104.158Z" transform="translate(-11445.224 -12119.038)" fill="#fff"/>
    <path id="Trazado_99259" data-name="Trazado 99259" d="M433.593,103.968a1.245,1.245,0,1,1-1.243-1.189A1.217,1.217,0,0,1,433.593,103.968Z" transform="translate(-11442.477 -12119.038)" fill="#fff"/>
    <path id="Trazado_99259_-_Contorno" data-name="Trazado 99259 - Contorno" d="M432.35,101.779a2.19,2.19,0,1,1-2.244,2.189A2.219,2.219,0,0,1,432.35,101.779Zm0,2.379a.2.2,0,1,0-.244-.19A.225.225,0,0,0,432.35,104.158Z" transform="translate(-11442.477 -12119.038)" fill="#fff"/>
    <path id="Trazado_99260" data-name="Trazado 99260" d="M442.04,103.968a1.245,1.245,0,1,1-1.244-1.189A1.217,1.217,0,0,1,442.04,103.968Z" transform="translate(-11439.729 -12119.038)" fill="#fff"/>
    <path id="Trazado_99260_-_Contorno" data-name="Trazado 99260 - Contorno" d="M440.8,101.779a2.19,2.19,0,1,1-2.243,2.189A2.22,2.22,0,0,1,440.8,101.779Zm0,2.379a.2.2,0,1,0-.243-.19A.225.225,0,0,0,440.8,104.158Z" transform="translate(-11439.729 -12119.038)" fill="#fff"/>
    <path id="Trazado_99261" data-name="Trazado 99261" d="M450.486,103.968a1.245,1.245,0,1,1-1.243-1.189A1.217,1.217,0,0,1,450.486,103.968Z" transform="translate(-11436.983 -12119.038)" fill="#fff"/>
    <path id="Trazado_99261_-_Contorno" data-name="Trazado 99261 - Contorno" d="M449.243,101.779A2.19,2.19,0,1,1,447,103.968,2.219,2.219,0,0,1,449.243,101.779Zm0,2.379a.2.2,0,1,0-.244-.19A.225.225,0,0,0,449.243,104.158Z" transform="translate(-11436.983 -12119.038)" fill="#fff"/>
    <ellipse id="Elipse_3975" data-name="Elipse 3975" cx="1.244" cy="1.189" rx="1.244" ry="1.189" transform="translate(-11033.756 -12006.744)" fill="#fff"/>
    <path id="Elipse_3975_-_Contorno" data-name="Elipse 3975 - Contorno" d="M1.244-1A2.22,2.22,0,0,1,3.487,1.189,2.22,2.22,0,0,1,1.244,3.379,2.22,2.22,0,0,1-1,1.189,2.22,2.22,0,0,1,1.244-1Zm0,2.379a.225.225,0,0,0,.244-.189A.225.225,0,0,0,1.244,1,.225.225,0,0,0,1,1.189.225.225,0,0,0,1.244,1.379Z" transform="translate(-11033.756 -12006.744)" fill="#fff"/>
    <path id="Trazado_99268" data-name="Trazado 99268" d="M425.147,111.476a1.245,1.245,0,1,1-1.243-1.189A1.218,1.218,0,0,1,425.147,111.476Z" transform="translate(-11445.224 -12117.031)" fill="#fff"/>
    <path id="Trazado_99268_-_Contorno" data-name="Trazado 99268 - Contorno" d="M423.9,109.287a2.19,2.19,0,1,1-2.244,2.189A2.219,2.219,0,0,1,423.9,109.287Zm0,2.379a.2.2,0,1,0-.244-.19A.224.224,0,0,0,423.9,111.666Z" transform="translate(-11445.224 -12117.031)" fill="#fff"/>
    <ellipse id="Elipse_3976" data-name="Elipse 3976" cx="1.244" cy="1.189" rx="1.244" ry="1.189" transform="translate(-11011.37 -12006.744)" fill="#fff"/>
    <path id="Elipse_3976_-_Contorno" data-name="Elipse 3976 - Contorno" d="M1.244-1A2.22,2.22,0,0,1,3.487,1.189,2.22,2.22,0,0,1,1.244,3.379,2.22,2.22,0,0,1-1,1.189,2.22,2.22,0,0,1,1.244-1Zm0,2.379a.225.225,0,0,0,.244-.189A.225.225,0,0,0,1.244,1,.225.225,0,0,0,1,1.189.225.225,0,0,0,1.244,1.379Z" transform="translate(-11011.37 -12006.744)" fill="#fff"/>
    <path id="Trazado_99269" data-name="Trazado 99269" d="M442.04,111.476a1.245,1.245,0,1,1-1.244-1.189A1.218,1.218,0,0,1,442.04,111.476Z" transform="translate(-11439.729 -12117.031)" fill="#fff"/>
    <path id="Trazado_99269_-_Contorno" data-name="Trazado 99269 - Contorno" d="M440.8,109.287a2.19,2.19,0,1,1-2.243,2.189A2.22,2.22,0,0,1,440.8,109.287Zm0,2.379a.2.2,0,1,0-.243-.19A.224.224,0,0,0,440.8,111.666Z" transform="translate(-11439.729 -12117.031)" fill="#fff"/>
    <path id="Trazado_99270" data-name="Trazado 99270" d="M450.486,111.476a1.245,1.245,0,1,1-1.243-1.189A1.218,1.218,0,0,1,450.486,111.476Z" transform="translate(-11436.983 -12117.031)" fill="#fff"/>
    <path id="Trazado_99270_-_Contorno" data-name="Trazado 99270 - Contorno" d="M449.243,109.287A2.19,2.19,0,1,1,447,111.476,2.219,2.219,0,0,1,449.243,109.287Zm0,2.379a.2.2,0,1,0-.244-.19A.225.225,0,0,0,449.243,111.666Z" transform="translate(-11436.983 -12117.031)" fill="#fff"/>
    <path id="Trazado_99274" data-name="Trazado 99274" d="M416.7,118.984a1.245,1.245,0,1,1-1.244-1.19A1.218,1.218,0,0,1,416.7,118.984Z" transform="translate(-11447.97 -12115.025)" fill="#fff"/>
    <path id="Trazado_99274_-_Contorno" data-name="Trazado 99274 - Contorno" d="M415.457,121.174a2.191,2.191,0,1,1,2.244-2.19A2.219,2.219,0,0,1,415.457,121.174Zm0-2.38a.2.2,0,1,0,.244.19A.225.225,0,0,0,415.457,118.794Z" transform="translate(-11447.97 -12115.025)" fill="#fff"/>
    <path id="Trazado_99275" data-name="Trazado 99275" d="M425.147,118.984a1.245,1.245,0,1,1-1.243-1.19A1.218,1.218,0,0,1,425.147,118.984Z" transform="translate(-11445.224 -12115.025)" fill="#fff"/>
    <path id="Trazado_99275_-_Contorno" data-name="Trazado 99275 - Contorno" d="M423.9,121.174a2.191,2.191,0,1,1,2.243-2.19A2.22,2.22,0,0,1,423.9,121.174Zm0-2.38a.2.2,0,1,0,.243.19A.224.224,0,0,0,423.9,118.794Z" transform="translate(-11445.224 -12115.025)" fill="#fff"/>
    <path id="Trazado_99276" data-name="Trazado 99276" d="M433.593,118.984a1.245,1.245,0,1,1-1.243-1.19A1.218,1.218,0,0,1,433.593,118.984Z" transform="translate(-11442.477 -12115.025)" fill="#fff"/>
    <path id="Trazado_99276_-_Contorno" data-name="Trazado 99276 - Contorno" d="M432.35,121.174a2.191,2.191,0,1,1,2.243-2.19A2.22,2.22,0,0,1,432.35,121.174Zm0-2.38a.2.2,0,1,0,0,.38.2.2,0,1,0,0-.38Z" transform="translate(-11442.477 -12115.025)" fill="#fff"/>
    <path id="Trazado_99277" data-name="Trazado 99277" d="M442.04,118.984a1.245,1.245,0,1,1-1.244-1.19A1.218,1.218,0,0,1,442.04,118.984Z" transform="translate(-11439.729 -12115.025)" fill="#fff"/>
    <path id="Trazado_99277_-_Contorno" data-name="Trazado 99277 - Contorno" d="M440.8,121.174a2.191,2.191,0,1,1,2.244-2.19A2.219,2.219,0,0,1,440.8,121.174Zm0-2.38a.2.2,0,1,0,.244.19A.224.224,0,0,0,440.8,118.794Z" transform="translate(-11439.729 -12115.025)" fill="#fff"/>
    <path id="Trazado_99278" data-name="Trazado 99278" d="M450.486,118.984a1.245,1.245,0,1,1-1.243-1.19A1.218,1.218,0,0,1,450.486,118.984Z" transform="translate(-11436.983 -12115.025)" fill="#fff"/>
    <path id="Trazado_99278_-_Contorno" data-name="Trazado 99278 - Contorno" d="M449.243,121.174a2.191,2.191,0,1,1,2.243-2.19A2.22,2.22,0,0,1,449.243,121.174Zm0-2.38a.2.2,0,1,0,.243.19A.224.224,0,0,0,449.243,118.794Z" transform="translate(-11436.983 -12115.025)" fill="#fff"/>
    <ellipse id="Elipse_3980" data-name="Elipse 3980" cx="1.244" cy="1.189" rx="1.244" ry="1.189" transform="translate(-11033.756 -11987.715)" fill="#fff"/>
    <path id="Elipse_3980_-_Contorno" data-name="Elipse 3980 - Contorno" d="M1.244-1A2.22,2.22,0,0,1,3.487,1.189,2.22,2.22,0,0,1,1.244,3.379,2.22,2.22,0,0,1-1,1.189,2.22,2.22,0,0,1,1.244-1Zm0,2.379a.225.225,0,0,0,.244-.189A.225.225,0,0,0,1.244,1,.225.225,0,0,0,1,1.189.225.225,0,0,0,1.244,1.379Z" transform="translate(-11033.756 -11987.715)" fill="#fff"/>
    <path id="Trazado_99285" data-name="Trazado 99285" d="M425.147,126.492a1.245,1.245,0,1,1-1.243-1.19A1.217,1.217,0,0,1,425.147,126.492Z" transform="translate(-11445.224 -12113.018)" fill="#fff"/>
    <path id="Trazado_99285_-_Contorno" data-name="Trazado 99285 - Contorno" d="M423.9,128.681a2.19,2.19,0,1,1,2.243-2.189A2.22,2.22,0,0,1,423.9,128.681Zm0-2.379a.2.2,0,1,0,.243.19A.224.224,0,0,0,423.9,126.3Z" transform="translate(-11445.224 -12113.018)" fill="#fff"/>
    <ellipse id="Elipse_3981" data-name="Elipse 3981" cx="1.244" cy="1.189" rx="1.244" ry="1.189" transform="translate(-11011.37 -11987.715)" fill="#fff"/>
    <path id="Elipse_3981_-_Contorno" data-name="Elipse 3981 - Contorno" d="M1.244-1A2.22,2.22,0,0,1,3.487,1.189,2.22,2.22,0,0,1,1.244,3.379,2.22,2.22,0,0,1-1,1.189,2.22,2.22,0,0,1,1.244-1Zm0,2.379a.225.225,0,0,0,.244-.189A.225.225,0,0,0,1.244,1,.225.225,0,0,0,1,1.189.225.225,0,0,0,1.244,1.379Z" transform="translate(-11011.37 -11987.715)" fill="#fff"/>
    <path id="Trazado_99286" data-name="Trazado 99286" d="M442.04,126.492a1.245,1.245,0,1,1-1.244-1.19A1.217,1.217,0,0,1,442.04,126.492Z" transform="translate(-11439.729 -12113.018)" fill="#fff"/>
    <path id="Trazado_99286_-_Contorno" data-name="Trazado 99286 - Contorno" d="M440.8,128.681a2.19,2.19,0,1,1,2.244-2.189A2.219,2.219,0,0,1,440.8,128.681Zm0-2.379a.2.2,0,1,0,.244.19A.224.224,0,0,0,440.8,126.3Z" transform="translate(-11439.729 -12113.018)" fill="#fff"/>
    <path id="Trazado_99287" data-name="Trazado 99287" d="M450.486,126.492a1.245,1.245,0,1,1-1.243-1.19A1.217,1.217,0,0,1,450.486,126.492Z" transform="translate(-11436.983 -12113.018)" fill="#fff"/>
    <path id="Trazado_99287_-_Contorno" data-name="Trazado 99287 - Contorno" d="M449.243,128.681a2.19,2.19,0,1,1,2.243-2.189A2.22,2.22,0,0,1,449.243,128.681Zm0-2.379a.2.2,0,1,0,.243.19A.224.224,0,0,0,449.243,126.3Z" transform="translate(-11436.983 -12113.018)" fill="#fff"/>
    <ellipse id="Elipse_3985" data-name="Elipse 3985" cx="1.244" cy="1.189" rx="1.244" ry="1.189" transform="translate(-11033.756 -11978.2)" fill="#fff"/>
    <path id="Elipse_3985_-_Contorno" data-name="Elipse 3985 - Contorno" d="M1.244-1A2.22,2.22,0,0,1,3.487,1.189,2.22,2.22,0,0,1,1.244,3.379,2.22,2.22,0,0,1-1,1.189,2.22,2.22,0,0,1,1.244-1Zm0,2.379a.225.225,0,0,0,.244-.189A.225.225,0,0,0,1.244,1,.225.225,0,0,0,1,1.189.225.225,0,0,0,1.244,1.379Z" transform="translate(-11033.756 -11978.2)" fill="#fff"/>
    <path id="Trazado_99291" data-name="Trazado 99291" d="M425.147,134a1.245,1.245,0,1,1-1.243-1.19A1.217,1.217,0,0,1,425.147,134Z" transform="translate(-11445.224 -12111.01)" fill="#fff"/>
    <path id="Trazado_99291_-_Contorno" data-name="Trazado 99291 - Contorno" d="M423.9,136.189A2.19,2.19,0,1,1,426.147,134,2.22,2.22,0,0,1,423.9,136.189Zm0-2.379a.2.2,0,1,0,.243.19A.225.225,0,0,0,423.9,133.81Z" transform="translate(-11445.224 -12111.01)" fill="#fff"/>
    <ellipse id="Elipse_3986" data-name="Elipse 3986" cx="1.244" cy="1.189" rx="1.244" ry="1.189" transform="translate(-11011.37 -11978.2)" fill="#fff"/>
    <path id="Elipse_3986_-_Contorno" data-name="Elipse 3986 - Contorno" d="M1.244-1A2.22,2.22,0,0,1,3.487,1.189,2.22,2.22,0,0,1,1.244,3.379,2.22,2.22,0,0,1-1,1.189,2.22,2.22,0,0,1,1.244-1Zm0,2.379a.225.225,0,0,0,.244-.189A.225.225,0,0,0,1.244,1,.225.225,0,0,0,1,1.189.225.225,0,0,0,1.244,1.379Z" transform="translate(-11011.37 -11978.2)" fill="#fff"/>
    <path id="Trazado_99292" data-name="Trazado 99292" d="M442.04,134a1.245,1.245,0,1,1-1.244-1.19A1.217,1.217,0,0,1,442.04,134Z" transform="translate(-11439.729 -12111.01)" fill="#fff"/>
    <path id="Trazado_99292_-_Contorno" data-name="Trazado 99292 - Contorno" d="M440.8,136.189A2.19,2.19,0,1,1,443.04,134,2.219,2.219,0,0,1,440.8,136.189Zm0-2.379a.2.2,0,1,0,.244.19A.224.224,0,0,0,440.8,133.81Z" transform="translate(-11439.729 -12111.01)" fill="#fff"/>
    <path id="Trazado_99293" data-name="Trazado 99293" d="M450.486,134a1.245,1.245,0,1,1-1.243-1.19A1.217,1.217,0,0,1,450.486,134Z" transform="translate(-11436.983 -12111.01)" fill="#fff"/>
    <path id="Trazado_99293_-_Contorno" data-name="Trazado 99293 - Contorno" d="M449.243,136.189A2.19,2.19,0,1,1,451.486,134,2.22,2.22,0,0,1,449.243,136.189Zm0-2.379a.2.2,0,1,0,.243.19A.225.225,0,0,0,449.243,133.81Z" transform="translate(-11436.983 -12111.01)" fill="#fff"/>
  </g>
</svg>
