<svg xmlns="http://www.w3.org/2000/svg" xmlns:xlink="http://www.w3.org/1999/xlink" width="1320.001" height="453.722" viewBox="0 0 1320.001 453.722">
  <defs>
    <linearGradient id="linear-gradient" x1="0.5" x2="0.5" y2="1" gradientUnits="objectBoundingBox">
      <stop offset="0" stop-color="#133d60"/>
      <stop offset="1" stop-color="#1b5d95"/>
    </linearGradient>
    <clipPath id="clip-path">
      <path id="Rectangle_652" data-name="Rectangle 652" d="M1299.214,0H20.787C9.307,0,0,7.524,0,16.8V436.917c0,9.281,9.307,16.8,20.787,16.8H1299.214c11.48,0,20.787-7.524,20.787-16.8V16.8C1320,7.524,1310.694,0,1299.214,0Z" transform="translate(140.331 70)" fill="#ffeed2"/>
    </clipPath>
    <clipPath id="clip-path-2">
      <path id="Trazado_126920" data-name="Trazado 126920" d="M0,0,782.116,6.69l4.759,544.168L4.759,544.168Z" fill="#fcd189"/>
    </clipPath>
  </defs>
  <g id="Grupo_133818" data-name="Grupo 133818" transform="translate(-140.331 -70)">
    <g id="Grupo_133808" data-name="Grupo 133808" transform="translate(140.331 70)">
      <g id="Grupo_78302" data-name="Grupo 78302" transform="translate(0)">
        <path id="Rectangle_652-2" data-name="Rectangle 652" d="M1299.214,0H20.787C9.307,0,0,7.524,0,16.8V436.917c0,9.281,9.307,16.8,20.787,16.8H1299.214c11.48,0,20.787-7.524,20.787-16.8V16.8C1320,7.524,1310.694,0,1299.214,0Z" fill="url(#linear-gradient)"/>
      </g>
    </g>
    <g id="Enmascarar_grupo_102" data-name="Enmascarar grupo 102" clip-path="url(#clip-path)">
      <path id="Trazado_126911" data-name="Trazado 126911" d="M5.8,124.666c6.193,84.1,29.247,130.366,49.058,212.342,16.73,69.235,40.077,140.4,90.3,189.948,71.2,70.234,178.7,80.966,276.951,80.887,63.069-.052,126.307-2.97,188.36-13.981,34.781-6.17,70.746-15.74,96.545-40.307,26.62-25.348,38.668-63.695,40.075-101.111s-6.706-74.538-14.961-111.1c-4.463-19.761-9.129-39.9-19.443-57.253s-27.419-31.763-47.091-33.275c-55.107-4.232-81.513,85.558-136.725,84.057-19.539-.528-37.222-13.445-49.068-29.516s-18.913-35.182-26.44-53.768c-11.506-28.4-24.718-56.638-44.75-79.557s-47.873-40.164-77.717-41.121c-51.117-1.638-92.81,42.619-143.176,51.163-9.749,1.653-20.337,1.781-28.929-3.347-17.012-10.155-18.115-34.339-18.526-54.459-.669-32.815-5.73-67.313-25.348-93.409S57.4-9.2,30.1,7.59C12.329,18.52,2.647,39.862.29,61.057Z" transform="matrix(0.174, -0.985, 0.985, 0.174, 786.103, 595.447)" fill="#95c0d9"/>
      <path id="Trazado_126919" data-name="Trazado 126919" d="M0,0,807.186,9.89l7.831,648.185L7.831,648.185Z" transform="translate(738.705 519.822) rotate(-60)" fill="none"/>
      <g id="Grupo_133813" data-name="Grupo 133813" transform="translate(747.142 235.387) rotate(-19)">
        <g id="Grupo_133813-2" data-name="Grupo 133813" transform="translate(0 0)" clip-path="url(#clip-path-2)">
          <path id="Trazado_126912" data-name="Trazado 126912" d="M36.8,247.93C70.5,222.867,117.61,230.4,143.085,265.6,192.949,334.5,271.091,379.441,358.423,380.188,506.991,381.459,626.74,254.36,625.362,96.868c-.012-1.347-.043-3.989-.092-7.555-.639-46.3,34.374-83.67,78.045-83.3,43.39.371,78.942,37.876,79.507,83.874.048,3.961.081,6.89.094,8.326,2.183,249.585-187.589,451-423.032,448.989C221.765,546.024,98.156,475.081,19.119,366.249-7.963,328.962-.59,275.753,35.146,249.16q.822-.615,1.651-1.23" transform="translate(0.001 0)" fill="#fcd189"/>
        </g>
      </g>
      <path id="Trazado_126913" data-name="Trazado 126913" d="M3.469,63.815c3.522,43.057,15.637,66.823,26.206,108.846,8.925,35.493,21.286,72,47.489,97.546,37.146,36.214,92.879,42.12,143.782,42.458,32.674.217,65.425-1.033,97.532-6.428,18-3.023,36.593-7.781,49.867-20.253,13.7-12.868,19.8-32.444,20.385-51.585s-3.752-38.168-8.165-56.911c-2.386-10.129-4.878-20.451-10.286-29.372s-14.323-16.359-24.521-17.209c-28.565-2.378-41.911,43.467-70.52,42.485-10.125-.346-19.334-7.023-25.531-15.293s-9.929-18.076-13.9-27.615c-6.067-14.575-13.016-29.078-23.48-40.883s-24.951-20.737-40.416-21.342c-26.488-1.035-47.924,21.451-73.985,25.629-5.044.808-10.529.833-15-1.825-8.851-5.262-9.513-17.642-9.8-27.939-.469-16.794-3.219-34.467-13.48-47.9S29.7-4.488,15.62,4C6.457,9.524,1.52,20.408.377,31.244Z" transform="translate(1170.674 562.747) rotate(-60)" fill="#95c0d9"/>
      <path id="Trazado_126914" data-name="Trazado 126914" d="M5.651,242.728c2.537-42.366,14.26-65.505,23.974-106.683,8.2-34.778,19.868-70.472,45.845-95.03,36.826-34.81,93.245-39.291,144.9-38.4C253.522,3.19,286.789,5.21,319.5,11.3c18.336,3.414,37.324,8.553,51.1,21.169,14.21,13.017,20.871,32.464,21.931,51.349s-2.888,37.54-6.915,55.913c-2.177,9.929-4.458,20.046-9.732,28.71s-14.142,15.784-24.471,16.376c-28.933,1.657-43.581-43.864-72.592-43.585-10.267.1-19.452,6.459-25.542,14.463s-9.641,17.582-13.44,26.892c-5.806,14.224-12.509,28.355-22.844,39.742s-24.822,19.844-40.5,20.068c-26.857.383-49.153-22.3-75.7-27.049-5.139-.919-10.706-1.075-15.179,1.438-8.856,4.975-9.229,17.164-9.273,27.309-.071,16.547-2.437,33.9-12.527,46.9s-29.894,19.708-44.388,11C9.991,296.327,4.719,285.477,3.3,274.766Z" transform="matrix(0.875, -0.485, 0.485, 0.875, -82.67, 113.915)" fill="#e2f1ff" opacity="0.494"/>
    </g>
  </g>
</svg>
