<svg xmlns="http://www.w3.org/2000/svg" xmlns:xlink="http://www.w3.org/1999/xlink" width="295" height="135" viewBox="0 0 295 135">
  <defs>
    <clipPath id="clip-path">
      <rect id="Rectángulo_36082" data-name="Rectángulo 36082" width="39.32" height="39.342" fill="#133d60"/>
    </clipPath>
  </defs>
  <g id="Grupo_134533" data-name="Grupo 134533" transform="translate(-495.256 -10324)">
    <rect id="Rectángulo_36098" data-name="Rectángulo 36098" width="271" height="135" rx="13" transform="translate(519.256 10324)" fill="#133d60"/>
    <path id="Trazado_128113" data-name="Trazado 128113" d="M7.84,9.93A7.053,7.053,0,0,1,5.031,8.566a2.6,2.6,0,0,1-.879-2A2.751,2.751,0,0,1,5.227,4.348,4.269,4.269,0,0,1,8.02,3.469a4.66,4.66,0,0,1,2.09.453,3.436,3.436,0,0,1,1.422,1.25,3.2,3.2,0,0,1,.5,1.742H10.527a2.08,2.08,0,0,0-.656-1.627A2.669,2.669,0,0,0,8.02,4.7a2.732,2.732,0,0,0-1.73.489,1.632,1.632,0,0,0-.621,1.358,1.468,1.468,0,0,0,.59,1.178,5.785,5.785,0,0,0,2.008.88,9.316,9.316,0,0,1,2.219.88A3.367,3.367,0,0,1,11.672,10.6a2.861,2.861,0,0,1,.387,1.508,2.658,2.658,0,0,1-1.078,2.215,4.6,4.6,0,0,1-2.883.832,5.347,5.347,0,0,1-2.187-.449,3.681,3.681,0,0,1-1.566-1.23A3,3,0,0,1,3.793,11.7H5.3a1.959,1.959,0,0,0,.762,1.629,3.207,3.207,0,0,0,2.035.6,2.948,2.948,0,0,0,1.82-.484,1.573,1.573,0,0,0,.633-1.32,1.545,1.545,0,0,0-.586-1.293A6.755,6.755,0,0,0,7.84,9.93Zm9.422,5.227a3.693,3.693,0,0,1-2.8-1.129,4.19,4.19,0,0,1-1.078-3.02v-.266a5.073,5.073,0,0,1,.48-2.246,3.748,3.748,0,0,1,1.344-1.547,3.378,3.378,0,0,1,1.871-.559,3.166,3.166,0,0,1,2.563,1.086,4.7,4.7,0,0,1,.914,3.109v.6H14.832a3,3,0,0,0,.73,2.02,2.3,2.3,0,0,0,1.777.77,2.517,2.517,0,0,0,1.3-.312,3.259,3.259,0,0,0,.93-.828l.883.688A3.55,3.55,0,0,1,17.262,15.156Zm-.18-7.578a1.928,1.928,0,0,0-1.469.637A3.1,3.1,0,0,0,14.879,10h4.234V9.891a2.753,2.753,0,0,0-.594-1.707A1.815,1.815,0,0,0,17.082,7.578Zm9.234.266a4.331,4.331,0,0,0-.711-.055A1.9,1.9,0,0,0,23.676,9v6H22.23V6.547h1.406l.023.977a2.251,2.251,0,0,1,2.016-1.133,1.477,1.477,0,0,1,.641.109Zm4.258,5.2,2.094-6.492h1.477L31.113,15h-1.1L26.949,6.547h1.477ZM37.105,15H35.66V6.547h1.445ZM35.543,4.3a.863.863,0,0,1,.215-.594.807.807,0,0,1,.637-.242.819.819,0,0,1,.641.242.854.854,0,0,1,.219.594.826.826,0,0,1-.219.586.834.834,0,0,1-.641.234.821.821,0,0,1-.637-.234A.834.834,0,0,1,35.543,4.3Zm7.266,9.672a2.082,2.082,0,0,0,1.352-.469,1.649,1.649,0,0,0,.641-1.172h1.367a2.621,2.621,0,0,1-.5,1.383,3.293,3.293,0,0,1-1.23,1.047,3.55,3.55,0,0,1-1.629.391A3.482,3.482,0,0,1,40.063,14a4.59,4.59,0,0,1-1.02-3.152v-.242a5.089,5.089,0,0,1,.453-2.2,3.451,3.451,0,0,1,1.3-1.492,3.7,3.7,0,0,1,2-.531,3.39,3.39,0,0,1,2.363.852,3.043,3.043,0,0,1,1,2.211H44.8a1.992,1.992,0,0,0-.621-1.348A1.932,1.932,0,0,0,42.8,7.578a2.023,2.023,0,0,0-1.707.793,3.724,3.724,0,0,0-.605,2.293v.273a3.65,3.65,0,0,0,.6,2.25A2.033,2.033,0,0,0,42.809,13.977ZM49.363,15H47.918V6.547h1.445ZM47.8,4.3a.863.863,0,0,1,.215-.594.807.807,0,0,1,.637-.242.819.819,0,0,1,.641.242.854.854,0,0,1,.219.594.826.826,0,0,1-.219.586.834.834,0,0,1-.641.234.821.821,0,0,1-.637-.234A.834.834,0,0,1,47.8,4.3ZM51.293,10.7a4.993,4.993,0,0,1,.488-2.234A3.643,3.643,0,0,1,53.141,6.93a3.7,3.7,0,0,1,1.988-.539,3.565,3.565,0,0,1,2.793,1.2,4.6,4.6,0,0,1,1.066,3.18v.1a5.036,5.036,0,0,1-.473,2.215,3.589,3.589,0,0,1-1.352,1.527,3.743,3.743,0,0,1-2.02.547,3.556,3.556,0,0,1-2.785-1.2A4.575,4.575,0,0,1,51.293,10.8Zm1.453.172a3.616,3.616,0,0,0,.652,2.258,2.211,2.211,0,0,0,3.5-.012,3.955,3.955,0,0,0,.648-2.418,3.61,3.61,0,0,0-.66-2.254,2.1,2.1,0,0,0-1.754-.863A2.075,2.075,0,0,0,53.4,8.43,3.925,3.925,0,0,0,52.746,10.867Zm12.977,1.891a1.064,1.064,0,0,0-.441-.91,4.249,4.249,0,0,0-1.539-.559A7.277,7.277,0,0,1,62,10.727a2.479,2.479,0,0,1-.953-.781,1.869,1.869,0,0,1-.309-1.078,2.193,2.193,0,0,1,.879-1.758,3.432,3.432,0,0,1,2.246-.719,3.532,3.532,0,0,1,2.332.742,2.357,2.357,0,0,1,.895,1.9H65.637a1.3,1.3,0,0,0-.5-1.023,1.888,1.888,0,0,0-1.27-.43,1.976,1.976,0,0,0-1.234.344,1.082,1.082,0,0,0-.445.9.877.877,0,0,0,.414.789,5.1,5.1,0,0,0,1.5.508,7.8,7.8,0,0,1,1.754.578,2.558,2.558,0,0,1,1,.809,1.988,1.988,0,0,1,.324,1.152,2.163,2.163,0,0,1-.906,1.816,3.8,3.8,0,0,1-2.352.684,4.257,4.257,0,0,1-1.8-.359,2.922,2.922,0,0,1-1.223-1,2.42,2.42,0,0,1-.441-1.395h1.445a1.5,1.5,0,0,0,.582,1.152,2.258,2.258,0,0,0,1.434.426,2.331,2.331,0,0,0,1.316-.332A1.02,1.02,0,0,0,65.723,12.758ZM72.629,10.7a4.993,4.993,0,0,1,.488-2.234A3.643,3.643,0,0,1,74.477,6.93a3.7,3.7,0,0,1,1.988-.539,3.565,3.565,0,0,1,2.793,1.2,4.6,4.6,0,0,1,1.066,3.18v.1a5.036,5.036,0,0,1-.473,2.215A3.589,3.589,0,0,1,78.5,14.609a3.743,3.743,0,0,1-2.02.547,3.556,3.556,0,0,1-2.785-1.2A4.575,4.575,0,0,1,72.629,10.8Zm1.453.172a3.616,3.616,0,0,0,.652,2.258,2.211,2.211,0,0,0,3.5-.012,3.955,3.955,0,0,0,.648-2.418,3.61,3.61,0,0,0-.66-2.254,2.1,2.1,0,0,0-1.754-.863,2.075,2.075,0,0,0-1.727.852A3.925,3.925,0,0,0,74.082,10.867Zm7.7-.164a4.952,4.952,0,0,1,.922-3.129,3.137,3.137,0,0,1,4.766-.168V3h1.445V15H87.59l-.07-.906a2.943,2.943,0,0,1-2.414,1.063,2.887,2.887,0,0,1-2.395-1.2,5.008,5.008,0,0,1-.926-3.141Zm1.445.164a3.749,3.749,0,0,0,.594,2.25,1.92,1.92,0,0,0,1.641.813A2.108,2.108,0,0,0,87.473,12.7V8.813a2.125,2.125,0,0,0-1.992-1.2,1.929,1.929,0,0,0-1.656.82A4.128,4.128,0,0,0,83.23,10.867Zm7.547-.172a4.993,4.993,0,0,1,.488-2.234A3.643,3.643,0,0,1,92.625,6.93a3.7,3.7,0,0,1,1.988-.539,3.565,3.565,0,0,1,2.793,1.2,4.6,4.6,0,0,1,1.066,3.18v.1A5.036,5.036,0,0,1,98,13.082a3.589,3.589,0,0,1-1.352,1.527,3.743,3.743,0,0,1-2.02.547,3.556,3.556,0,0,1-2.785-1.2A4.575,4.575,0,0,1,90.777,10.8Zm1.453.172a3.616,3.616,0,0,0,.652,2.258,2.211,2.211,0,0,0,3.5-.012,3.955,3.955,0,0,0,.648-2.418,3.61,3.61,0,0,0-.66-2.254,2.1,2.1,0,0,0-1.754-.863,2.075,2.075,0,0,0-1.727.852A3.925,3.925,0,0,0,92.23,10.867Zm9.422-4.32.047,1.063a3.08,3.08,0,0,1,2.531-1.219q2.68,0,2.7,3.023V15h-1.445V9.406a1.946,1.946,0,0,0-.418-1.352,1.675,1.675,0,0,0-1.277-.437,2.086,2.086,0,0,0-1.234.375,2.546,2.546,0,0,0-.828.984V15h-1.445V6.547ZM111.074,4.5V6.547h1.578V7.664h-1.578v5.249a1.173,1.173,0,0,0,.211.763.888.888,0,0,0,.719.254,3.5,3.5,0,0,0,.688-.094V15a4.215,4.215,0,0,1-1.109.155,1.8,1.8,0,0,1-1.461-.586,2.517,2.517,0,0,1-.492-1.664V7.664H108.09V6.547h1.539V4.5Zm2.727,6.2a4.993,4.993,0,0,1,.488-2.234,3.643,3.643,0,0,1,1.359-1.531,3.7,3.7,0,0,1,1.988-.539,3.565,3.565,0,0,1,2.793,1.2,4.6,4.6,0,0,1,1.066,3.18v.1a5.036,5.036,0,0,1-.473,2.215,3.589,3.589,0,0,1-1.352,1.527,3.743,3.743,0,0,1-2.02.547,3.556,3.556,0,0,1-2.785-1.2A4.575,4.575,0,0,1,113.8,10.8Zm1.453.172a3.616,3.616,0,0,0,.652,2.258,2.211,2.211,0,0,0,3.5-.012,3.955,3.955,0,0,0,.648-2.418,3.61,3.61,0,0,0-.66-2.254,2.1,2.1,0,0,0-1.754-.863,2.075,2.075,0,0,0-1.727.852A3.925,3.925,0,0,0,115.254,10.867ZM124.879,15h-1.445V3h1.445Zm1.93-4.3a4.993,4.993,0,0,1,.488-2.234,3.643,3.643,0,0,1,1.359-1.531,3.7,3.7,0,0,1,1.988-.539,3.565,3.565,0,0,1,2.793,1.2,4.6,4.6,0,0,1,1.066,3.18v.1a5.036,5.036,0,0,1-.473,2.215,3.589,3.589,0,0,1-1.352,1.527,3.743,3.743,0,0,1-2.02.547,3.556,3.556,0,0,1-2.785-1.2,4.575,4.575,0,0,1-1.066-3.164Zm1.453.172a3.616,3.616,0,0,0,.652,2.258,2.211,2.211,0,0,0,3.5-.012,3.954,3.954,0,0,0,.648-2.418,3.61,3.61,0,0,0-.66-2.254,2.1,2.1,0,0,0-1.754-.863,2.075,2.075,0,0,0-1.727.852A3.925,3.925,0,0,0,128.262,10.867ZM131.3,3.016h1.75l-2.094,2.3-1.164,0Zm4.672,7.688a4.968,4.968,0,0,1,.914-3.145,3.151,3.151,0,0,1,4.836-.074l.07-.937h1.32V14.8a3.439,3.439,0,0,1-.973,2.586,3.589,3.589,0,0,1-2.613.945,4.348,4.348,0,0,1-1.789-.391,3.08,3.08,0,0,1-1.336-1.07l.75-.867a2.826,2.826,0,0,0,2.273,1.148,2.214,2.214,0,0,0,1.645-.594,2.269,2.269,0,0,0,.59-1.672v-.727a2.971,2.971,0,0,1-2.367,1,2.887,2.887,0,0,1-2.4-1.2A5.224,5.224,0,0,1,135.973,10.7Zm1.453.164a3.79,3.79,0,0,0,.586,2.246,1.9,1.9,0,0,0,1.641.816,2.117,2.117,0,0,0,2.008-1.242V8.828a2.142,2.142,0,0,0-1.992-1.211,1.921,1.921,0,0,0-1.648.82A4.128,4.128,0,0,0,137.426,10.867ZM146.863,15h-1.445V6.547h1.445ZM145.3,4.3a.863.863,0,0,1,.215-.594.807.807,0,0,1,.637-.242.819.819,0,0,1,.641.242.854.854,0,0,1,.219.594.826.826,0,0,1-.219.586.834.834,0,0,1-.641.234.821.821,0,0,1-.637-.234A.834.834,0,0,1,145.3,4.3Zm7.266,9.672a2.082,2.082,0,0,0,1.352-.469,1.649,1.649,0,0,0,.641-1.172h1.367a2.621,2.621,0,0,1-.5,1.383,3.293,3.293,0,0,1-1.23,1.047,3.55,3.55,0,0,1-1.629.391A3.482,3.482,0,0,1,149.82,14a4.59,4.59,0,0,1-1.02-3.152v-.242a5.089,5.089,0,0,1,.453-2.2,3.451,3.451,0,0,1,1.3-1.492,3.7,3.7,0,0,1,2-.531,3.39,3.39,0,0,1,2.363.852,3.043,3.043,0,0,1,1,2.211h-1.367a1.992,1.992,0,0,0-.621-1.348,1.932,1.932,0,0,0-1.379-.527,2.023,2.023,0,0,0-1.707.793,3.724,3.724,0,0,0-.605,2.293v.273a3.65,3.65,0,0,0,.6,2.25A2.033,2.033,0,0,0,152.566,13.977Zm4.6-3.281a4.993,4.993,0,0,1,.488-2.234,3.642,3.642,0,0,1,1.359-1.531A3.7,3.7,0,0,1,161,6.391a3.565,3.565,0,0,1,2.793,1.2,4.6,4.6,0,0,1,1.066,3.18v.1a5.036,5.036,0,0,1-.473,2.215,3.589,3.589,0,0,1-1.352,1.527,3.743,3.743,0,0,1-2.02.547,3.556,3.556,0,0,1-2.785-1.2,4.575,4.575,0,0,1-1.066-3.164Zm1.453.172a3.616,3.616,0,0,0,.652,2.258,2.211,2.211,0,0,0,3.5-.012,3.954,3.954,0,0,0,.648-2.418,3.61,3.61,0,0,0-.66-2.254A2.1,2.1,0,0,0,161,7.578a2.075,2.075,0,0,0-1.727.852A3.925,3.925,0,0,0,158.621,10.867ZM171.6,12.758a1.064,1.064,0,0,0-.441-.91,4.249,4.249,0,0,0-1.539-.559,7.277,7.277,0,0,1-1.742-.562,2.479,2.479,0,0,1-.953-.781,1.869,1.869,0,0,1-.309-1.078,2.193,2.193,0,0,1,.879-1.758,3.432,3.432,0,0,1,2.246-.719,3.532,3.532,0,0,1,2.332.742,2.357,2.357,0,0,1,.895,1.9h-1.453a1.3,1.3,0,0,0-.5-1.023,1.888,1.888,0,0,0-1.27-.43,1.976,1.976,0,0,0-1.234.344,1.082,1.082,0,0,0-.445.9.877.877,0,0,0,.414.789,5.1,5.1,0,0,0,1.5.508,7.8,7.8,0,0,1,1.754.578,2.558,2.558,0,0,1,1,.809,1.988,1.988,0,0,1,.324,1.152,2.163,2.163,0,0,1-.906,1.816,3.8,3.8,0,0,1-2.352.684,4.257,4.257,0,0,1-1.8-.359,2.922,2.922,0,0,1-1.223-1,2.42,2.42,0,0,1-.441-1.395h1.445a1.5,1.5,0,0,0,.582,1.152,2.258,2.258,0,0,0,1.434.426,2.331,2.331,0,0,0,1.316-.332A1.02,1.02,0,0,0,171.6,12.758Z" transform="translate(577.256 10370)" fill="#fff"/>
    <g id="Grupo_134497" data-name="Grupo 134497" transform="translate(-64 226)">
      <circle id="Elipse_4936" data-name="Elipse 4936" cx="31.5" cy="31.5" r="31.5" transform="translate(559.256 10134)" fill="#fcd189"/>
      <g id="Grupo_134496" data-name="Grupo 134496" transform="translate(571.256 10146)">
        <g id="Grupo_134495" data-name="Grupo 134495" clip-path="url(#clip-path)">
          <path id="Trazado_128040" data-name="Trazado 128040" d="M3.457,0a2.574,2.574,0,0,1,.488.684A2.573,2.573,0,0,0,5.924,2.611c.339.082.592.245.612.632.018.37-.155.58-.621.7a2.532,2.532,0,0,0-1.86,1.612,4.11,4.11,0,0,0-.129.44.625.625,0,0,1-.644.543c-.365,0-.528-.23-.659-.539a4.109,4.109,0,0,0-.631-1.241A3.821,3.821,0,0,0,.747,3.993C.448,3.86.156,3.768,0,3.458V3.073a1.174,1.174,0,0,1,.767-.5A2.551,2.551,0,0,0,2.6.738,3.348,3.348,0,0,1,3.073,0Zm.575,3.272-.724-.746-.818.706.748.841.794-.8" fill="#133d60"/>
          <path id="Trazado_128041" data-name="Trazado 128041" d="M58,36.124a19.4,19.4,0,0,1-2.364,9.056A17.855,17.855,0,0,0,53.9,50.252q-1.023,4.565-2.075,9.124A3.025,3.025,0,0,1,47.2,61.321a3.281,3.281,0,0,1-1.439-2.464q-.915-5.623-1.863-11.241a1.675,1.675,0,0,0-3.338,0C39.932,51.358,39.3,55.1,38.7,58.853a3.18,3.18,0,0,1-2.086,2.788,3.03,3.03,0,0,1-3.995-2.334c-.924-4.011-1.831-8.026-2.75-12.038a1.774,1.774,0,0,0-.214-.525,20.621,20.621,0,0,1-2.981-8.351,12.444,12.444,0,0,1,.1-4.806,9.153,9.153,0,0,1,7.051-6.937,8.574,8.574,0,0,1,5.171.323,8.667,8.667,0,0,0,3.576.733,8.058,8.058,0,0,0,2.488-.59,9.354,9.354,0,0,1,12.765,7.178c.107.6.121,1.22.177,1.83m-30.178.131a19.3,19.3,0,0,0,3.083,10.019,1.97,1.97,0,0,1,.227.6c.425,1.844.84,3.69,1.259,5.534q.761,3.347,1.524,6.693a1.688,1.688,0,0,0,1.245,1.328,1.733,1.733,0,0,0,2.2-1.591c.427-2.522.835-5.047,1.259-7.569.244-1.45.455-2.908.769-4.343a2.939,2.939,0,0,1,5.669.007c.364,1.751.631,3.523.931,5.288.385,2.269.755,4.542,1.146,6.81a1.651,1.651,0,0,0,1.3,1.406,1.741,1.741,0,0,0,2.148-1.5c.7-3.092,1.392-6.186,2.1-9.276a16.678,16.678,0,0,1,1.625-4.787,17.047,17.047,0,0,0,2.28-9.765,7.56,7.56,0,0,0-3.8-6.2,7.768,7.768,0,0,0-7.142-.627,9.9,9.9,0,0,1-2.93.713,9,9,0,0,1-3.928-.716,8,8,0,0,0-4.256-.452,8.108,8.108,0,0,0-6.716,8.412" transform="translate(-22.561 -22.48)" fill="#133d60"/>
          <path id="Trazado_128042" data-name="Trazado 128042" d="M224.5,192.372c-.361.007-.584-.192-.7-.677a2.468,2.468,0,0,0-1.224-1.637,4.013,4.013,0,0,0-.785-.291c-.32-.1-.556-.263-.568-.63a.629.629,0,0,1,.55-.677,2.573,2.573,0,0,0,2.062-2.07.618.618,0,0,1,.644-.541.626.626,0,0,1,.648.542,2.559,2.559,0,0,0,2.061,2.069.652.652,0,0,1,.018,1.287,2.577,2.577,0,0,0-2.083,2.094.629.629,0,0,1-.619.531m.743-3.259-.742-.746-.794.738.749.778.787-.77" transform="translate(-188.416 -158.293)" fill="#133d60"/>
          <path id="Trazado_128043" data-name="Trazado 128043" d="M52.882,54.694a3.872,3.872,0,0,0-2.755,3.947H48.864a4.925,4.925,0,0,1,3.767-5.167l.251,1.22" transform="translate(-41.611 -45.545)" fill="#133d60"/>
          <rect id="Rectángulo_36081" data-name="Rectángulo 36081" width="1.251" height="1.266" transform="translate(12.481 7.884)" fill="#133d60"/>
        </g>
      </g>
    </g>
  </g>
</svg>
