<svg xmlns="http://www.w3.org/2000/svg" xmlns:xlink="http://www.w3.org/1999/xlink" width="297" height="135" viewBox="0 0 297 135">
  <defs>
    <clipPath id="clip-path">
      <rect id="Rect치ngulo_36072" data-name="Rect치ngulo 36072" width="36.783" height="36.789" fill="#133d60"/>
    </clipPath>
  </defs>
  <g id="Grupo_134531" data-name="Grupo 134531" transform="translate(-1123.256 -10155)">
    <rect id="Rect치ngulo_36096" data-name="Rect치ngulo 36096" width="279" height="135" rx="13" transform="translate(1141.256 10155)" fill="#133d60"/>
    <path id="Trazado_128111" data-name="Trazado 128111" d="M42.531,9.977H37.758V15h-1.5V3.625H43.3V4.852H37.758v3.9h4.773Zm7.391,4.188a3.07,3.07,0,0,1-2.477.992,2.628,2.628,0,0,1-2.059-.785,3.4,3.4,0,0,1-.715-2.324v-5.5h1.445v5.461q0,1.922,1.563,1.922a2.163,2.163,0,0,0,2.2-1.234V6.547h1.445V15H49.953Zm4.969-7.617.047,1.063a3.08,3.08,0,0,1,2.531-1.219q2.68,0,2.7,3.023V15H58.727V9.406a1.946,1.946,0,0,0-.418-1.352,1.675,1.675,0,0,0-1.277-.437,2.086,2.086,0,0,0-1.234.375,2.546,2.546,0,0,0-.828.984V15H53.523V6.547Zm10.852,7.43a2.082,2.082,0,0,0,1.352-.469,1.649,1.649,0,0,0,.641-1.172H69.1a2.621,2.621,0,0,1-.5,1.383,3.293,3.293,0,0,1-1.23,1.047,3.55,3.55,0,0,1-1.629.391A3.482,3.482,0,0,1,63,14a4.59,4.59,0,0,1-1.02-3.152v-.242a5.089,5.089,0,0,1,.453-2.2,3.451,3.451,0,0,1,1.3-1.492,3.7,3.7,0,0,1,2-.531,3.39,3.39,0,0,1,2.363.852,3.043,3.043,0,0,1,1,2.211H67.734a1.992,1.992,0,0,0-.621-1.348,1.932,1.932,0,0,0-1.379-.527,2.023,2.023,0,0,0-1.707.793,3.724,3.724,0,0,0-.605,2.293v.273a3.65,3.65,0,0,0,.6,2.25A2.033,2.033,0,0,0,65.742,13.977ZM72.3,15H70.852V6.547H72.3ZM70.734,4.3a.863.863,0,0,1,.215-.594.807.807,0,0,1,.637-.242.819.819,0,0,1,.641.242.854.854,0,0,1,.219.594.826.826,0,0,1-.219.586.834.834,0,0,1-.641.234.821.821,0,0,1-.637-.234A.834.834,0,0,1,70.734,4.3ZM74.227,10.7a4.993,4.993,0,0,1,.488-2.234A3.643,3.643,0,0,1,76.074,6.93a3.7,3.7,0,0,1,1.988-.539,3.565,3.565,0,0,1,2.793,1.2,4.6,4.6,0,0,1,1.066,3.18v.1a5.036,5.036,0,0,1-.473,2.215A3.589,3.589,0,0,1,80.1,14.609a3.743,3.743,0,0,1-2.02.547,3.556,3.556,0,0,1-2.785-1.2A4.575,4.575,0,0,1,74.227,10.8Zm1.453.172a3.616,3.616,0,0,0,.652,2.258,2.211,2.211,0,0,0,3.5-.012,3.955,3.955,0,0,0,.648-2.418,3.61,3.61,0,0,0-.66-2.254,2.1,2.1,0,0,0-1.754-.863,2.075,2.075,0,0,0-1.727.852A3.925,3.925,0,0,0,75.68,10.867ZM85.1,6.547l.047,1.063A3.08,3.08,0,0,1,87.68,6.391q2.68,0,2.7,3.023V15H88.938V9.406a1.946,1.946,0,0,0-.418-1.352,1.675,1.675,0,0,0-1.277-.437,2.086,2.086,0,0,0-1.234.375,2.546,2.546,0,0,0-.828.984V15H83.734V6.547ZM97.781,15a3.036,3.036,0,0,1-.2-.891,3.225,3.225,0,0,1-2.406,1.047,2.984,2.984,0,0,1-2.051-.707,2.288,2.288,0,0,1-.8-1.793,2.39,2.39,0,0,1,1-2.051,4.733,4.733,0,0,1,2.824-.73h1.406V9.211A1.623,1.623,0,0,0,97.1,8a1.821,1.821,0,0,0-1.336-.449,2.108,2.108,0,0,0-1.3.391,1.151,1.151,0,0,0-.523.945H92.492a2,2,0,0,1,.449-1.223,3.066,3.066,0,0,1,1.219-.934,4.1,4.1,0,0,1,1.691-.344,3.342,3.342,0,0,1,2.289.73A2.635,2.635,0,0,1,99,9.133v3.891a4.757,4.757,0,0,0,.3,1.852V15Zm-2.4-1.1a2.54,2.54,0,0,0,1.289-.352,2.127,2.127,0,0,0,.883-.914V10.9H96.422q-2.656,0-2.656,1.555a1.316,1.316,0,0,0,.453,1.063A1.742,1.742,0,0,0,95.383,13.9Zm7.453,1.1h-1.445V3h1.445Zm5.922-4.3a4.952,4.952,0,0,1,.922-3.129,3.137,3.137,0,0,1,4.766-.168V3h1.445V15h-1.328l-.07-.906a2.943,2.943,0,0,1-2.414,1.063,2.887,2.887,0,0,1-2.395-1.2,5.008,5.008,0,0,1-.926-3.141Zm1.445.164a3.749,3.749,0,0,0,.594,2.25,1.92,1.92,0,0,0,1.641.813,2.108,2.108,0,0,0,2.008-1.234V8.813a2.125,2.125,0,0,0-1.992-1.2,1.929,1.929,0,0,0-1.656.82A4.128,4.128,0,0,0,110.2,10.867Zm11.438,4.289a3.693,3.693,0,0,1-2.8-1.129,4.19,4.19,0,0,1-1.078-3.02v-.266a5.073,5.073,0,0,1,.48-2.246,3.748,3.748,0,0,1,1.344-1.547,3.378,3.378,0,0,1,1.871-.559,3.166,3.166,0,0,1,2.563,1.086,4.7,4.7,0,0,1,.914,3.109v.6h-5.727a3,3,0,0,0,.73,2.02,2.3,2.3,0,0,0,1.777.77,2.517,2.517,0,0,0,1.3-.312,3.259,3.259,0,0,0,.93-.828l.883.688A3.55,3.55,0,0,1,121.641,15.156Zm-.18-7.578a1.928,1.928,0,0,0-1.469.637A3.1,3.1,0,0,0,119.258,10h4.234V9.891a2.753,2.753,0,0,0-.594-1.707A1.815,1.815,0,0,0,121.461,7.578ZM132.141,15H130.7V3h1.445Zm7.531,0a3.036,3.036,0,0,1-.2-.891,3.225,3.225,0,0,1-2.406,1.047,2.984,2.984,0,0,1-2.051-.707,2.287,2.287,0,0,1-.8-1.793,2.39,2.39,0,0,1,1-2.051,4.733,4.733,0,0,1,2.824-.73h1.406V9.211A1.623,1.623,0,0,0,138.992,8a1.821,1.821,0,0,0-1.336-.449,2.107,2.107,0,0,0-1.3.391,1.151,1.151,0,0,0-.523.945h-1.453a2,2,0,0,1,.449-1.223,3.066,3.066,0,0,1,1.219-.934,4.1,4.1,0,0,1,1.691-.344,3.342,3.342,0,0,1,2.289.73,2.635,2.635,0,0,1,.859,2.012v3.891a4.757,4.757,0,0,0,.3,1.852V15Zm-2.4-1.1a2.54,2.54,0,0,0,1.289-.352,2.127,2.127,0,0,0,.883-.914V10.9h-1.133q-2.656,0-2.656,1.555a1.316,1.316,0,0,0,.453,1.063A1.742,1.742,0,0,0,137.273,13.9ZM1.133,34.7a4.952,4.952,0,0,1,.922-3.129,2.915,2.915,0,0,1,2.414-1.184A2.932,2.932,0,0,1,6.82,31.406V27H8.266V39H6.938l-.07-.906a2.943,2.943,0,0,1-2.414,1.063,2.887,2.887,0,0,1-2.395-1.2,5.008,5.008,0,0,1-.926-3.141Zm1.445.164a3.749,3.749,0,0,0,.594,2.25,1.92,1.92,0,0,0,1.641.813A2.108,2.108,0,0,0,6.82,36.7V32.813a2.125,2.125,0,0,0-1.992-1.2,1.929,1.929,0,0,0-1.656.82A4.128,4.128,0,0,0,2.578,34.867Zm11.438,4.289a3.693,3.693,0,0,1-2.8-1.129,4.19,4.19,0,0,1-1.078-3.02v-.266a5.073,5.073,0,0,1,.48-2.246,3.748,3.748,0,0,1,1.344-1.547,3.378,3.378,0,0,1,1.871-.559A3.166,3.166,0,0,1,16.4,31.477a4.7,4.7,0,0,1,.914,3.109v.6H11.586a3,3,0,0,0,.73,2.02,2.3,2.3,0,0,0,1.777.77,2.517,2.517,0,0,0,1.3-.312,3.258,3.258,0,0,0,.93-.828l.883.688A3.55,3.55,0,0,1,14.016,39.156Zm-.18-7.578a1.928,1.928,0,0,0-1.469.637A3.1,3.1,0,0,0,11.633,34h4.234v-.109a2.753,2.753,0,0,0-.594-1.707A1.815,1.815,0,0,0,13.836,31.578ZM19.469,39V31.664H18.133V30.547h1.336v-.719a2.937,2.937,0,0,1,.809-2.2,3.136,3.136,0,0,1,2.285-.789,6.881,6.881,0,0,1,2.211.477l-.242,1.219a5.008,5.008,0,0,0-1.859-.391,1.819,1.819,0,0,0-1.34.418,1.723,1.723,0,0,0-.41,1.254v.734h1.727v1.117H20.922V39Zm6.023,0H24.039V30.547h1.453Zm5.742-1.023a2.082,2.082,0,0,0,1.352-.469,1.649,1.649,0,0,0,.641-1.172h1.367a2.621,2.621,0,0,1-.5,1.383,3.293,3.293,0,0,1-1.23,1.047,3.55,3.55,0,0,1-1.629.391A3.482,3.482,0,0,1,28.488,38a4.59,4.59,0,0,1-1.02-3.152v-.242a5.089,5.089,0,0,1,.453-2.2,3.451,3.451,0,0,1,1.3-1.492,3.7,3.7,0,0,1,2-.531,3.39,3.39,0,0,1,2.363.852,3.043,3.043,0,0,1,1,2.211H33.227a1.992,1.992,0,0,0-.621-1.348,1.932,1.932,0,0,0-1.379-.527,2.023,2.023,0,0,0-1.707.793,3.724,3.724,0,0,0-.605,2.293v.273a3.65,3.65,0,0,0,.6,2.25A2.033,2.033,0,0,0,31.234,37.977ZM37.789,39H36.344V30.547h1.445ZM36.227,28.3a.863.863,0,0,1,.215-.594.807.807,0,0,1,.637-.242.819.819,0,0,1,.641.242.854.854,0,0,1,.219.594.826.826,0,0,1-.219.586.834.834,0,0,1-.641.234.821.821,0,0,1-.637-.234A.834.834,0,0,1,36.227,28.3Zm7.383,10.852a3.693,3.693,0,0,1-2.8-1.129,4.19,4.19,0,0,1-1.078-3.02v-.266a5.073,5.073,0,0,1,.48-2.246,3.748,3.748,0,0,1,1.344-1.547,3.378,3.378,0,0,1,1.871-.559,3.166,3.166,0,0,1,2.563,1.086,4.7,4.7,0,0,1,.914,3.109v.6H41.18a3,3,0,0,0,.73,2.02,2.3,2.3,0,0,0,1.777.77,2.517,2.517,0,0,0,1.3-.312,3.258,3.258,0,0,0,.93-.828l.883.688A3.55,3.55,0,0,1,43.609,39.156Zm-.18-7.578a1.928,1.928,0,0,0-1.469.637A3.1,3.1,0,0,0,41.227,34h4.234v-.109a2.753,2.753,0,0,0-.594-1.707A1.815,1.815,0,0,0,43.43,31.578Zm6.516-1.031.047,1.063a3.08,3.08,0,0,1,2.531-1.219q2.68,0,2.7,3.023V39H53.781V33.406a1.946,1.946,0,0,0-.418-1.352,1.675,1.675,0,0,0-1.277-.437,2.086,2.086,0,0,0-1.234.375,2.546,2.546,0,0,0-.828.984V39H48.578V30.547ZM60.8,37.977a2.082,2.082,0,0,0,1.352-.469,1.649,1.649,0,0,0,.641-1.172h1.367a2.621,2.621,0,0,1-.5,1.383,3.293,3.293,0,0,1-1.23,1.047,3.55,3.55,0,0,1-1.629.391A3.482,3.482,0,0,1,58.051,38a4.59,4.59,0,0,1-1.02-3.152v-.242a5.089,5.089,0,0,1,.453-2.2,3.451,3.451,0,0,1,1.3-1.492,3.7,3.7,0,0,1,2-.531,3.39,3.39,0,0,1,2.363.852,3.043,3.043,0,0,1,1,2.211H62.789a1.992,1.992,0,0,0-.621-1.348,1.932,1.932,0,0,0-1.379-.527,2.023,2.023,0,0,0-1.707.793,3.724,3.724,0,0,0-.605,2.293v.273a3.65,3.65,0,0,0,.6,2.25A2.033,2.033,0,0,0,60.8,37.977ZM67.352,39H65.906V30.547h1.445ZM65.789,28.3A.863.863,0,0,1,66,27.711a.807.807,0,0,1,.637-.242.819.819,0,0,1,.641.242.854.854,0,0,1,.219.594.826.826,0,0,1-.219.586.834.834,0,0,1-.641.234A.821.821,0,0,1,66,28.891.834.834,0,0,1,65.789,28.3ZM74.883,39a3.036,3.036,0,0,1-.2-.891,3.225,3.225,0,0,1-2.406,1.047,2.984,2.984,0,0,1-2.051-.707,2.288,2.288,0,0,1-.8-1.793,2.39,2.39,0,0,1,1-2.051,4.733,4.733,0,0,1,2.824-.73h1.406v-.664A1.623,1.623,0,0,0,74.2,32a1.821,1.821,0,0,0-1.336-.449,2.108,2.108,0,0,0-1.3.391,1.151,1.151,0,0,0-.523.945H69.594a2,2,0,0,1,.449-1.223,3.066,3.066,0,0,1,1.219-.934,4.1,4.1,0,0,1,1.691-.344,3.342,3.342,0,0,1,2.289.73,2.635,2.635,0,0,1,.859,2.012v3.891a4.757,4.757,0,0,0,.3,1.852V39Zm-2.4-1.1a2.54,2.54,0,0,0,1.289-.352,2.127,2.127,0,0,0,.883-.914V34.9H73.523q-2.656,0-2.656,1.555a1.316,1.316,0,0,0,.453,1.063A1.742,1.742,0,0,0,72.484,37.9Zm8.891-3.141H77.563v-1.18h3.813ZM82.43,34.7a4.952,4.952,0,0,1,.922-3.129,3.137,3.137,0,0,1,4.766-.168V27h1.445V39H88.234l-.07-.906a2.943,2.943,0,0,1-2.414,1.063,2.887,2.887,0,0,1-2.395-1.2,5.008,5.008,0,0,1-.926-3.141Zm1.445.164a3.749,3.749,0,0,0,.594,2.25,1.92,1.92,0,0,0,1.641.813A2.108,2.108,0,0,0,88.117,36.7V32.813a2.125,2.125,0,0,0-1.992-1.2,1.929,1.929,0,0,0-1.656.82A4.128,4.128,0,0,0,83.875,34.867ZM93.375,39H91.93V30.547h1.445ZM91.813,28.3a.863.863,0,0,1,.215-.594.807.807,0,0,1,.637-.242.819.819,0,0,1,.641.242.854.854,0,0,1,.219.594.826.826,0,0,1-.219.586.834.834,0,0,1-.641.234.821.821,0,0,1-.637-.234A.834.834,0,0,1,91.813,28.3Zm8.8,8.453a1.064,1.064,0,0,0-.441-.91,4.249,4.249,0,0,0-1.539-.559,7.277,7.277,0,0,1-1.742-.562,2.479,2.479,0,0,1-.953-.781,1.869,1.869,0,0,1-.309-1.078,2.193,2.193,0,0,1,.879-1.758,3.432,3.432,0,0,1,2.246-.719,3.532,3.532,0,0,1,2.332.742,2.357,2.357,0,0,1,.895,1.9h-1.453a1.3,1.3,0,0,0-.5-1.023,1.888,1.888,0,0,0-1.27-.43,1.976,1.976,0,0,0-1.234.344,1.082,1.082,0,0,0-.445.9.877.877,0,0,0,.414.789,5.1,5.1,0,0,0,1.5.508,7.8,7.8,0,0,1,1.754.578,2.558,2.558,0,0,1,1,.809,1.988,1.988,0,0,1,.324,1.152,2.163,2.163,0,0,1-.906,1.816,3.8,3.8,0,0,1-2.352.684A4.257,4.257,0,0,1,97,38.8a2.922,2.922,0,0,1-1.223-1,2.42,2.42,0,0,1-.441-1.395h1.445a1.5,1.5,0,0,0,.582,1.152,2.258,2.258,0,0,0,1.434.426,2.331,2.331,0,0,0,1.316-.332A1.02,1.02,0,0,0,100.609,36.758Zm6.719,1.219a2.082,2.082,0,0,0,1.352-.469,1.649,1.649,0,0,0,.641-1.172h1.367a2.621,2.621,0,0,1-.5,1.383,3.293,3.293,0,0,1-1.23,1.047,3.55,3.55,0,0,1-1.629.391A3.482,3.482,0,0,1,104.582,38a4.59,4.59,0,0,1-1.02-3.152v-.242a5.089,5.089,0,0,1,.453-2.2,3.451,3.451,0,0,1,1.3-1.492,3.7,3.7,0,0,1,2-.531,3.39,3.39,0,0,1,2.363.852,3.043,3.043,0,0,1,1,2.211H109.32a1.992,1.992,0,0,0-.621-1.348,1.932,1.932,0,0,0-1.379-.527,2.023,2.023,0,0,0-1.707.793,3.724,3.724,0,0,0-.605,2.293v.273a3.65,3.65,0,0,0,.6,2.25A2.033,2.033,0,0,0,107.328,37.977ZM117.531,39a3.036,3.036,0,0,1-.2-.891,3.225,3.225,0,0,1-2.406,1.047,2.984,2.984,0,0,1-2.051-.707,2.288,2.288,0,0,1-.8-1.793,2.39,2.39,0,0,1,1-2.051,4.733,4.733,0,0,1,2.824-.73H117.3v-.664A1.623,1.623,0,0,0,116.852,32a1.821,1.821,0,0,0-1.336-.449,2.108,2.108,0,0,0-1.3.391,1.151,1.151,0,0,0-.523.945h-1.453a2,2,0,0,1,.449-1.223,3.066,3.066,0,0,1,1.219-.934,4.1,4.1,0,0,1,1.691-.344,3.342,3.342,0,0,1,2.289.73,2.635,2.635,0,0,1,.859,2.012v3.891a4.757,4.757,0,0,0,.3,1.852V39Zm-2.4-1.1a2.54,2.54,0,0,0,1.289-.352,2.127,2.127,0,0,0,.883-.914V34.9h-1.133q-2.656,0-2.656,1.555a1.316,1.316,0,0,0,.453,1.063A1.742,1.742,0,0,0,115.133,37.9Zm13.023-3.031a5.062,5.062,0,0,1-.883,3.109,2.829,2.829,0,0,1-2.391,1.18,3.1,3.1,0,0,1-2.422-.977v4.07h-1.445v-11.7h1.32l.07.938a2.977,2.977,0,0,1,2.453-1.094,2.882,2.882,0,0,1,2.41,1.148,5.117,5.117,0,0,1,.887,3.2Zm-1.445-.164a3.735,3.735,0,0,0-.609-2.258,1.963,1.963,0,0,0-1.672-.828,2.125,2.125,0,0,0-1.969,1.164V36.82a2.129,2.129,0,0,0,1.984,1.156,1.954,1.954,0,0,0,1.652-.824A4.077,4.077,0,0,0,126.711,34.7Zm8.5,4.3a3.036,3.036,0,0,1-.2-.891,3.225,3.225,0,0,1-2.406,1.047,2.984,2.984,0,0,1-2.051-.707,2.287,2.287,0,0,1-.8-1.793,2.39,2.39,0,0,1,1-2.051,4.733,4.733,0,0,1,2.824-.73h1.406v-.664A1.623,1.623,0,0,0,134.531,32a1.821,1.821,0,0,0-1.336-.449,2.107,2.107,0,0,0-1.3.391,1.151,1.151,0,0,0-.523.945h-1.453a2,2,0,0,1,.449-1.223,3.066,3.066,0,0,1,1.219-.934,4.1,4.1,0,0,1,1.691-.344,3.342,3.342,0,0,1,2.289.73,2.635,2.635,0,0,1,.859,2.012v3.891a4.757,4.757,0,0,0,.3,1.852V39Zm-2.4-1.1a2.54,2.54,0,0,0,1.289-.352,2.127,2.127,0,0,0,.883-.914V34.9h-1.133q-2.656,0-2.656,1.555a1.316,1.316,0,0,0,.453,1.063A1.742,1.742,0,0,0,132.813,37.9Zm9.273.078a2.082,2.082,0,0,0,1.352-.469,1.649,1.649,0,0,0,.641-1.172h1.367a2.621,2.621,0,0,1-.5,1.383,3.293,3.293,0,0,1-1.23,1.047,3.55,3.55,0,0,1-1.629.391A3.482,3.482,0,0,1,139.34,38a4.59,4.59,0,0,1-1.02-3.152v-.242a5.089,5.089,0,0,1,.453-2.2,3.451,3.451,0,0,1,1.3-1.492,3.7,3.7,0,0,1,2-.531,3.39,3.39,0,0,1,2.363.852,3.043,3.043,0,0,1,1,2.211h-1.367a1.992,1.992,0,0,0-.621-1.348,1.932,1.932,0,0,0-1.379-.527,2.023,2.023,0,0,0-1.707.793,3.724,3.724,0,0,0-.605,2.293v.273a3.65,3.65,0,0,0,.6,2.25A2.033,2.033,0,0,0,142.086,37.977ZM148.641,39H147.2V30.547h1.445Zm-1.562-10.7a.863.863,0,0,1,.215-.594.807.807,0,0,1,.637-.242.819.819,0,0,1,.641.242.854.854,0,0,1,.219.594.826.826,0,0,1-.219.586.834.834,0,0,1-.641.234.821.821,0,0,1-.637-.234A.834.834,0,0,1,147.078,28.3Zm3.523,6.4a4.952,4.952,0,0,1,.922-3.129,3.137,3.137,0,0,1,4.766-.168V27h1.445V39h-1.328l-.07-.906a2.943,2.943,0,0,1-2.414,1.063,2.887,2.887,0,0,1-2.395-1.2,5.008,5.008,0,0,1-.926-3.141Zm1.445.164a3.749,3.749,0,0,0,.594,2.25,1.919,1.919,0,0,0,1.641.813,2.108,2.108,0,0,0,2.008-1.234V32.813a2.125,2.125,0,0,0-1.992-1.2,1.929,1.929,0,0,0-1.656.82A4.128,4.128,0,0,0,152.047,34.867ZM165.2,39a3.036,3.036,0,0,1-.2-.891,3.225,3.225,0,0,1-2.406,1.047,2.984,2.984,0,0,1-2.051-.707,2.287,2.287,0,0,1-.8-1.793,2.39,2.39,0,0,1,1-2.051,4.733,4.733,0,0,1,2.824-.73h1.406v-.664A1.623,1.623,0,0,0,164.516,32a1.821,1.821,0,0,0-1.336-.449,2.107,2.107,0,0,0-1.3.391,1.151,1.151,0,0,0-.523.945h-1.453a2,2,0,0,1,.449-1.223,3.066,3.066,0,0,1,1.219-.934,4.1,4.1,0,0,1,1.691-.344,3.342,3.342,0,0,1,2.289.73,2.635,2.635,0,0,1,.859,2.012v3.891a4.757,4.757,0,0,0,.3,1.852V39Zm-2.4-1.1a2.54,2.54,0,0,0,1.289-.352,2.127,2.127,0,0,0,.883-.914V34.9h-1.133q-2.656,0-2.656,1.555a1.316,1.316,0,0,0,.453,1.063A1.742,1.742,0,0,0,162.8,37.9Zm5.531-3.2a4.952,4.952,0,0,1,.922-3.129,3.137,3.137,0,0,1,4.766-.168V27h1.445V39h-1.328l-.07-.906a2.943,2.943,0,0,1-2.414,1.063,2.887,2.887,0,0,1-2.395-1.2,5.008,5.008,0,0,1-.926-3.141Zm1.445.164a3.749,3.749,0,0,0,.594,2.25,1.919,1.919,0,0,0,1.641.813,2.108,2.108,0,0,0,2.008-1.234V32.813a2.125,2.125,0,0,0-1.992-1.2,1.929,1.929,0,0,0-1.656.82A4.128,4.128,0,0,0,169.773,34.867ZM24.945,58.383a12.079,12.079,0,0,1,.473-3.391,9.85,9.85,0,0,1,1.41-2.953,6,6,0,0,1,1.945-1.875l.3.953A6.222,6.222,0,0,0,27.2,53.789a11.583,11.583,0,0,0-.8,4.023l-.008.664a11.643,11.643,0,0,0,1.1,5.234,6.252,6.252,0,0,0,1.578,2.078l-.3.883a6.192,6.192,0,0,1-1.984-1.937A10.859,10.859,0,0,1,24.945,58.383ZM31.18,63V55.664H29.844V54.547H31.18V53.68a2.878,2.878,0,0,1,.727-2.1,2.745,2.745,0,0,1,2.055-.742,3.816,3.816,0,0,1,.992.132l-.078,1.165a4.151,4.151,0,0,0-.781-.07,1.41,1.41,0,0,0-1.086.411,1.669,1.669,0,0,0-.383,1.18v.893h1.8v1.117h-1.8V63Zm6.414,0H36.141V54.547h1.453Zm.016-11.977h1.75l-2.094,2.3-1.164,0ZM44.9,60.758a1.064,1.064,0,0,0-.441-.91,4.249,4.249,0,0,0-1.539-.559,7.277,7.277,0,0,1-1.742-.562,2.479,2.479,0,0,1-.953-.781,1.869,1.869,0,0,1-.309-1.078,2.193,2.193,0,0,1,.879-1.758,3.432,3.432,0,0,1,2.246-.719,3.532,3.532,0,0,1,2.332.742,2.357,2.357,0,0,1,.895,1.9H44.813a1.3,1.3,0,0,0-.5-1.023,1.888,1.888,0,0,0-1.27-.43,1.976,1.976,0,0,0-1.234.344,1.082,1.082,0,0,0-.445.9.877.877,0,0,0,.414.789,5.1,5.1,0,0,0,1.5.508,7.8,7.8,0,0,1,1.754.578,2.558,2.558,0,0,1,1,.809,1.988,1.988,0,0,1,.324,1.152,2.163,2.163,0,0,1-.906,1.816,3.8,3.8,0,0,1-2.352.684,4.257,4.257,0,0,1-1.8-.359,2.922,2.922,0,0,1-1.223-1,2.42,2.42,0,0,1-.441-1.395H41.07a1.5,1.5,0,0,0,.582,1.152,2.258,2.258,0,0,0,1.434.426,2.331,2.331,0,0,0,1.316-.332A1.02,1.02,0,0,0,44.9,60.758ZM49.8,63H48.352V54.547H49.8ZM48.234,52.3a.863.863,0,0,1,.215-.594.807.807,0,0,1,.637-.242.819.819,0,0,1,.641.242.854.854,0,0,1,.219.594.826.826,0,0,1-.219.586.834.834,0,0,1-.641.234.821.821,0,0,1-.637-.234A.834.834,0,0,1,48.234,52.3ZM55.5,61.977a2.082,2.082,0,0,0,1.352-.469,1.649,1.649,0,0,0,.641-1.172h1.367a2.621,2.621,0,0,1-.5,1.383,3.293,3.293,0,0,1-1.23,1.047,3.55,3.55,0,0,1-1.629.391A3.482,3.482,0,0,1,52.754,62a4.59,4.59,0,0,1-1.02-3.152v-.242a5.089,5.089,0,0,1,.453-2.2,3.451,3.451,0,0,1,1.3-1.492,3.7,3.7,0,0,1,2-.531,3.39,3.39,0,0,1,2.363.852,3.043,3.043,0,0,1,1,2.211H57.492a1.992,1.992,0,0,0-.621-1.348,1.932,1.932,0,0,0-1.379-.527,2.023,2.023,0,0,0-1.707.793,3.724,3.724,0,0,0-.605,2.293v.273a3.65,3.65,0,0,0,.6,2.25A2.033,2.033,0,0,0,55.5,61.977ZM65.7,63a3.036,3.036,0,0,1-.2-.891,3.225,3.225,0,0,1-2.406,1.047,2.984,2.984,0,0,1-2.051-.707,2.287,2.287,0,0,1-.8-1.793,2.39,2.39,0,0,1,1-2.051,4.733,4.733,0,0,1,2.824-.73h1.406v-.664A1.623,1.623,0,0,0,65.023,56a1.821,1.821,0,0,0-1.336-.449,2.107,2.107,0,0,0-1.3.391,1.151,1.151,0,0,0-.523.945H60.414a2,2,0,0,1,.449-1.223,3.066,3.066,0,0,1,1.219-.934,4.1,4.1,0,0,1,1.691-.344,3.342,3.342,0,0,1,2.289.73,2.635,2.635,0,0,1,.859,2.012v3.891a4.757,4.757,0,0,0,.3,1.852V63Zm-2.4-1.1a2.54,2.54,0,0,0,1.289-.352,2.127,2.127,0,0,0,.883-.914V58.9H64.344q-2.656,0-2.656,1.555a1.316,1.316,0,0,0,.453,1.063A1.742,1.742,0,0,0,63.3,61.9Zm5.836,3.367-.82-.562a3.77,3.77,0,0,0,.766-2.109v-1.3H70.5v1.133A3.559,3.559,0,0,1,70.113,64,3.7,3.7,0,0,1,69.141,65.266Zm12.07-4.508a1.064,1.064,0,0,0-.441-.91,4.249,4.249,0,0,0-1.539-.559,7.277,7.277,0,0,1-1.742-.562,2.479,2.479,0,0,1-.953-.781,1.869,1.869,0,0,1-.309-1.078,2.193,2.193,0,0,1,.879-1.758,3.432,3.432,0,0,1,2.246-.719,3.532,3.532,0,0,1,2.332.742,2.357,2.357,0,0,1,.895,1.9H81.125a1.3,1.3,0,0,0-.5-1.023,1.888,1.888,0,0,0-1.27-.43,1.976,1.976,0,0,0-1.234.344,1.082,1.082,0,0,0-.445.9.877.877,0,0,0,.414.789,5.1,5.1,0,0,0,1.5.508,7.8,7.8,0,0,1,1.754.578,2.558,2.558,0,0,1,1,.809,1.988,1.988,0,0,1,.324,1.152,2.163,2.163,0,0,1-.906,1.816,3.8,3.8,0,0,1-2.352.684,4.257,4.257,0,0,1-1.8-.359,2.922,2.922,0,0,1-1.223-1,2.42,2.42,0,0,1-.441-1.395h1.445a1.5,1.5,0,0,0,.582,1.152,2.258,2.258,0,0,0,1.434.426,2.331,2.331,0,0,0,1.316-.332A1.02,1.02,0,0,0,81.211,60.758Zm6.836,2.4a3.693,3.693,0,0,1-2.8-1.129,4.19,4.19,0,0,1-1.078-3.02v-.266a5.073,5.073,0,0,1,.48-2.246A3.748,3.748,0,0,1,86,54.949a3.378,3.378,0,0,1,1.871-.559,3.166,3.166,0,0,1,2.563,1.086,4.7,4.7,0,0,1,.914,3.109v.6H85.617a3,3,0,0,0,.73,2.02,2.3,2.3,0,0,0,1.777.77,2.517,2.517,0,0,0,1.3-.312,3.259,3.259,0,0,0,.93-.828l.883.688A3.55,3.55,0,0,1,88.047,63.156Zm-.18-7.578a1.928,1.928,0,0,0-1.469.637A3.1,3.1,0,0,0,85.664,58H89.9v-.109a2.753,2.753,0,0,0-.594-1.707A1.815,1.815,0,0,0,87.867,55.578Zm6.516-1.031.047,1.063a3.08,3.08,0,0,1,2.531-1.219q2.68,0,2.7,3.023V63H98.219V57.406a1.946,1.946,0,0,0-.418-1.352,1.675,1.675,0,0,0-1.277-.437,2.086,2.086,0,0,0-1.234.375,2.546,2.546,0,0,0-.828.984V63H93.016V54.547Zm12.383,6.211a1.064,1.064,0,0,0-.441-.91,4.249,4.249,0,0,0-1.539-.559,7.277,7.277,0,0,1-1.742-.562,2.479,2.479,0,0,1-.953-.781,1.869,1.869,0,0,1-.309-1.078,2.193,2.193,0,0,1,.879-1.758,3.432,3.432,0,0,1,2.246-.719,3.532,3.532,0,0,1,2.332.742,2.357,2.357,0,0,1,.895,1.9H106.68a1.3,1.3,0,0,0-.5-1.023,1.888,1.888,0,0,0-1.27-.43,1.976,1.976,0,0,0-1.234.344,1.082,1.082,0,0,0-.445.9.877.877,0,0,0,.414.789,5.1,5.1,0,0,0,1.5.508,7.8,7.8,0,0,1,1.754.578,2.558,2.558,0,0,1,1,.809,1.988,1.988,0,0,1,.324,1.152,2.163,2.163,0,0,1-.906,1.816,3.8,3.8,0,0,1-2.352.684,4.257,4.257,0,0,1-1.8-.359,2.922,2.922,0,0,1-1.223-1,2.42,2.42,0,0,1-.441-1.395h1.445a1.5,1.5,0,0,0,.582,1.152,2.258,2.258,0,0,0,1.434.426,2.331,2.331,0,0,0,1.316-.332A1.02,1.02,0,0,0,106.766,60.758Zm2.945-2.062a4.993,4.993,0,0,1,.488-2.234,3.643,3.643,0,0,1,1.359-1.531,3.7,3.7,0,0,1,1.988-.539,3.565,3.565,0,0,1,2.793,1.2,4.6,4.6,0,0,1,1.066,3.18v.1a5.036,5.036,0,0,1-.473,2.215,3.589,3.589,0,0,1-1.352,1.527,3.743,3.743,0,0,1-2.02.547,3.556,3.556,0,0,1-2.785-1.2,4.575,4.575,0,0,1-1.066-3.164Zm1.453.172a3.616,3.616,0,0,0,.652,2.258,2.211,2.211,0,0,0,3.5-.012,3.955,3.955,0,0,0,.648-2.418,3.61,3.61,0,0,0-.66-2.254,2.1,2.1,0,0,0-1.754-.863,2.075,2.075,0,0,0-1.727.852A3.925,3.925,0,0,0,111.164,58.867ZM123.3,55.844a4.331,4.331,0,0,0-.711-.055A1.9,1.9,0,0,0,120.664,57v6h-1.445V54.547h1.406l.023.977a2.251,2.251,0,0,1,2.016-1.133,1.477,1.477,0,0,1,.641.109ZM126.2,63h-1.445V54.547H126.2Zm-1.562-10.7a.863.863,0,0,1,.215-.594.807.807,0,0,1,.637-.242.819.819,0,0,1,.641.242.854.854,0,0,1,.219.594.826.826,0,0,1-.219.586.834.834,0,0,1-.641.234.821.821,0,0,1-.637-.234A.834.834,0,0,1,124.641,52.3ZM133.734,63a3.036,3.036,0,0,1-.2-.891,3.225,3.225,0,0,1-2.406,1.047,2.984,2.984,0,0,1-2.051-.707,2.287,2.287,0,0,1-.8-1.793,2.39,2.39,0,0,1,1-2.051,4.733,4.733,0,0,1,2.824-.73h1.406v-.664A1.623,1.623,0,0,0,133.055,56a1.821,1.821,0,0,0-1.336-.449,2.107,2.107,0,0,0-1.3.391,1.151,1.151,0,0,0-.523.945h-1.453a2,2,0,0,1,.449-1.223,3.066,3.066,0,0,1,1.219-.934,4.1,4.1,0,0,1,1.691-.344,3.342,3.342,0,0,1,2.289.73,2.635,2.635,0,0,1,.859,2.012v3.891a4.757,4.757,0,0,0,.3,1.852V63Zm-2.4-1.1a2.54,2.54,0,0,0,1.289-.352,2.127,2.127,0,0,0,.883-.914V58.9h-1.133q-2.656,0-2.656,1.555a1.316,1.316,0,0,0,.453,1.063A1.742,1.742,0,0,0,131.336,61.9Zm7.453,1.1h-1.445V51h1.445Zm5.891-4.3a4.993,4.993,0,0,1,.488-2.234,3.642,3.642,0,0,1,1.359-1.531,3.7,3.7,0,0,1,1.988-.539,3.565,3.565,0,0,1,2.793,1.2,4.6,4.6,0,0,1,1.066,3.18v.1a5.036,5.036,0,0,1-.473,2.215,3.589,3.589,0,0,1-1.352,1.527,3.743,3.743,0,0,1-2.02.547,3.556,3.556,0,0,1-2.785-1.2A4.575,4.575,0,0,1,144.68,58.8Zm1.453.172a3.616,3.616,0,0,0,.652,2.258,2.211,2.211,0,0,0,3.5-.012,3.954,3.954,0,0,0,.648-2.418,3.61,3.61,0,0,0-.66-2.254,2.1,2.1,0,0,0-1.754-.863,2.075,2.075,0,0,0-1.727.852A3.925,3.925,0,0,0,146.133,58.867ZM63.6,78.547l.039.938a3.122,3.122,0,0,1,2.508-1.094,2.417,2.417,0,0,1,2.414,1.359,3.2,3.2,0,0,1,1.1-.984,3.242,3.242,0,0,1,1.6-.375q2.781,0,2.828,2.945V87H72.641V81.422a1.941,1.941,0,0,0-.414-1.355,1.823,1.823,0,0,0-1.391-.449,1.916,1.916,0,0,0-1.336.48,1.949,1.949,0,0,0-.617,1.293V87H67.43V81.461a1.613,1.613,0,0,0-1.8-1.844,1.934,1.934,0,0,0-1.945,1.211V87H62.234V78.547Zm16.172,8.609a3.693,3.693,0,0,1-2.8-1.129,4.19,4.19,0,0,1-1.078-3.02v-.266a5.073,5.073,0,0,1,.48-2.246,3.748,3.748,0,0,1,1.344-1.547,3.378,3.378,0,0,1,1.871-.559,3.166,3.166,0,0,1,2.563,1.086,4.7,4.7,0,0,1,.914,3.109v.6H77.344a3,3,0,0,0,.73,2.02,2.3,2.3,0,0,0,1.777.77,2.517,2.517,0,0,0,1.3-.312,3.259,3.259,0,0,0,.93-.828l.883.688A3.55,3.55,0,0,1,79.773,87.156Zm-.18-7.578a1.928,1.928,0,0,0-1.469.637A3.1,3.1,0,0,0,77.391,82h4.234v-.109a2.753,2.753,0,0,0-.594-1.707A1.815,1.815,0,0,0,79.594,79.578Zm6.516-1.031.047,1.063a3.08,3.08,0,0,1,2.531-1.219q2.68,0,2.7,3.023V87H89.945V81.406a1.946,1.946,0,0,0-.418-1.352,1.675,1.675,0,0,0-1.277-.437,2.086,2.086,0,0,0-1.234.375,2.546,2.546,0,0,0-.828.984V87H84.742V78.547ZM95.531,76.5v2.047h1.578v1.117H95.531v5.249a1.173,1.173,0,0,0,.211.763.888.888,0,0,0,.719.254,3.5,3.5,0,0,0,.688-.094V87a4.215,4.215,0,0,1-1.109.155,1.8,1.8,0,0,1-1.461-.586,2.517,2.517,0,0,1-.492-1.664V79.664H92.547V78.547h1.539V76.5ZM104.016,87a3.036,3.036,0,0,1-.2-.891,3.225,3.225,0,0,1-2.406,1.047,2.984,2.984,0,0,1-2.051-.707,2.287,2.287,0,0,1-.8-1.793,2.39,2.39,0,0,1,1-2.051,4.733,4.733,0,0,1,2.824-.73h1.406v-.664A1.623,1.623,0,0,0,103.336,80,1.821,1.821,0,0,0,102,79.555a2.108,2.108,0,0,0-1.3.391,1.151,1.151,0,0,0-.523.945H98.727a2,2,0,0,1,.449-1.223,3.066,3.066,0,0,1,1.219-.934,4.1,4.1,0,0,1,1.691-.344,3.342,3.342,0,0,1,2.289.73,2.635,2.635,0,0,1,.859,2.012v3.891a4.757,4.757,0,0,0,.3,1.852V87Zm-2.4-1.1a2.54,2.54,0,0,0,1.289-.352,2.127,2.127,0,0,0,.883-.914V82.9h-1.133Q100,82.9,100,84.453a1.316,1.316,0,0,0,.453,1.063A1.742,1.742,0,0,0,101.617,85.9ZM109.07,87h-1.445V75h1.445Zm5.648-4.539a12.084,12.084,0,0,1-.457,3.34,9.876,9.876,0,0,1-1.4,2.949,6.127,6.127,0,0,1-1.973,1.922l-.3-.883a6.281,6.281,0,0,0,1.934-2.863,12.387,12.387,0,0,0,.746-4.309v-.25a12.861,12.861,0,0,0-.344-3.051,10.3,10.3,0,0,0-.957-2.527,5.838,5.838,0,0,0-1.379-1.742l.3-.883a6.1,6.1,0,0,1,1.965,1.906,9.9,9.9,0,0,1,1.4,2.945A12.363,12.363,0,0,1,114.719,82.461Z" transform="translate(1210.256 10177)" fill="#fff"/>
    <g id="Grupo_134513" data-name="Grupo 134513" transform="translate(-2 178)">
      <circle id="Elipse_4935" data-name="Elipse 4935" cx="31.5" cy="31.5" r="31.5" transform="translate(1125.256 10013)" fill="#fcd189"/>
      <g id="Grupo_134475" data-name="Grupo 134475" transform="translate(1138.365 10026)">
        <g id="Grupo_134474" data-name="Grupo 134474" clip-path="url(#clip-path)">
          <path id="Trazado_127990" data-name="Trazado 127990" d="M6.322,0h.862A3,3,0,0,1,9.357,1.756c.126.268.238.543.363.83.091-.053.174-.1.252-.146A15.371,15.371,0,0,1,15.23.326C15.919.189,16.619.107,17.314,0h2.155a1.9,1.9,0,0,0,.275.063,14.246,14.246,0,0,1,4.513,1.084c.961.414,1.886.912,2.841,1.38a.257.257,0,0,0,.042-.076A3.275,3.275,0,0,1,29.6,0h.862c.118.048.236.1.355.143a2.3,2.3,0,0,1,1.519,2.146A2.613,2.613,0,0,1,31,4.67c-.3.181-.627.316-.938.47l1.316,1.718c.14-.1.261-.2.393-.277a13.073,13.073,0,0,1,1.483-.866,2.52,2.52,0,0,1,3.531,2.36,2.631,2.631,0,0,1-3.027,2.315c-.232-.034-.463-.075-.719-.117a1.526,1.526,0,0,0,.031.207,13.974,13.974,0,0,1,.558,5.814,3.953,3.953,0,0,0-.063.6c.041.892.111,1.782.148,2.674a2.244,2.244,0,0,1-.651,1.695A.338.338,0,0,0,33,21.7c.21.495.417.992.6,1.5a16.916,16.916,0,0,1,1.238,8,.742.742,0,0,0,.225.662,6.575,6.575,0,0,1,1.713,4.014c.054.673-.164.9-.826.9q-17.559,0-35.117.006A.834.834,0,0,1,0,36.352v-.719A.593.593,0,0,0,.052,35.5a6.7,6.7,0,0,1,1.8-3.791.537.537,0,0,0,.1-.381,14.16,14.16,0,0,1,.109-4.075A25.8,25.8,0,0,1,3.75,21.788.453.453,0,0,0,3.67,21.2a1.948,1.948,0,0,1-.579-1.356,10.441,10.441,0,0,1,.129-2.925.722.722,0,0,0-.012-.284A13.781,13.781,0,0,1,3.5,11.261c.081-.319.171-.635.268-1-.138.024-.229.037-.318.055a3.019,3.019,0,0,1-1.865-.115A2.8,2.8,0,0,1,0,8.333v-.79A2.861,2.861,0,0,1,.768,6.195a2.644,2.644,0,0,1,2.942-.4c.593.3,1.146.682,1.725,1.032L6.7,5.17a10.508,10.508,0,0,1-1.295-.78,2.484,2.484,0,0,1-.918-2.5A2.236,2.236,0,0,1,6.206.068.556.556,0,0,0,6.322,0M27.247,25.129a12.163,12.163,0,0,0,2.111-6.449c.027-1.933-.163-3.87-.3-5.8-.067-.966-.467-1.3-1.452-1.373a21.576,21.576,0,0,1-4.476-.8A10.455,10.455,0,0,1,18.961,8.55c-.191-.172-.357-.372-.545-.57a10.358,10.358,0,0,1-5.1,2.817,26.056,26.056,0,0,1-4.451.748,1.135,1.135,0,0,0-1.124,1.138c-.116,1.251-.188,2.506-.3,3.757a13.5,13.5,0,0,0,.769,6.07,12.238,12.238,0,0,0,1.333,2.613,2.742,2.742,0,0,1,2.691-1.217c1.208.04,2.418.03,3.627,0a2.906,2.906,0,0,1,2.529.851,2.743,2.743,0,0,1,2.27-.852c1.34.029,2.682.035,4.022,0a2.686,2.686,0,0,1,2.566,1.223M32.456,15.5a.485.485,0,0,0,.013-.1,12.972,12.972,0,0,0-.812-5.247.671.671,0,0,0-.5-.484,1.25,1.25,0,0,1-.75-2.066c-.41-.523-.848-1.046-1.244-1.6A.824.824,0,0,0,28.1,5.675a1.173,1.173,0,0,1-1.514-1.541.385.385,0,0,0-.2-.514,14.589,14.589,0,0,0-15.906-.061.508.508,0,0,0-.269.682,1.174,1.174,0,0,1-1.4,1.488c-.176-.035-.345-.109-.521-.128a.442.442,0,0,0-.335.079c-.544.634-1.07,1.283-1.588,1.911a1.254,1.254,0,0,1-.7,2.077c-.035.009-.067.028-.1.034a.483.483,0,0,0-.4.4c-.227.841-.5,1.671-.683,2.521a10.421,10.421,0,0,0-.149,2.9L6.3,15.249c.033-.446.063-.91.1-1.373s.083-.93.132-1.394a2.423,2.423,0,0,1,2.118-2.154c1.348-.2,2.708-.348,4.032-.651a8.939,8.939,0,0,0,4.842-2.553,1.215,1.215,0,0,1,1.773.024c.214.208.414.434.641.627a9.36,9.36,0,0,0,3.372,1.7,24.673,24.673,0,0,0,4.829.865,2.358,2.358,0,0,1,2.115,2.147c.084.845.137,1.694.222,2.539.011.1.122.271.2.283.583.083,1.17.132,1.777.195m-16.5,9.638c-.007.107-.014.166-.014.224,0,.922,0,1.844,0,2.766a.618.618,0,0,1-.628.68.606.606,0,0,1-.592-.671c-.007-.443,0-.886,0-1.329q0-.82,0-1.642H13.492c0,1.008.007,1.989,0,2.97a.617.617,0,0,1-.637.671.6.6,0,0,1-.583-.678c-.007-.862,0-1.724,0-2.586v-.4h-.48a1.237,1.237,0,0,0-1.367,1.384c0,.527,0,1.054,0,1.58,0,.432-.235.7-.6.7s-.618-.267-.623-.717c0-.365,0-.73,0-1.1-.149-.007-.244-.015-.338-.015-.711-.005-.885.17-.886.891q0,1.275,0,2.55a1.851,1.851,0,0,0,2.051,2.071q3.663,0,7.327,0h.426v-.424q0-1.635,0-3.269c0-.8.012-1.6-.005-2.406a1.2,1.2,0,0,0-1.281-1.247c-.166,0-.332,0-.531,0m7.332.029H22.064c0,1,0,1.966,0,2.935,0,.436-.23.7-.595.7s-.624-.27-.627-.717c-.006-.778,0-1.556,0-2.335V25.17c-1.256-.189-1.878.4-1.846,1.577.049,1.759.013,3.52.013,5.279v.414a.684.684,0,0,0,.14.041c2.658,0,5.316.012,7.973-.009A1.747,1.747,0,0,0,28.8,30.808c.034-1.076.017-2.155.007-3.232a.566.566,0,0,0-.559-.589,6.063,6.063,0,0,0-.619,0,.356.356,0,0,0-.027.069c0,.359-.006.718-.014,1.076a.619.619,0,0,1-.624.681.61.61,0,0,1-.6-.67c-.007-.515,0-1.03,0-1.544A1.337,1.337,0,0,0,24.516,25.2c0,.266,0,.539,0,.812,0,.73.006,1.461-.007,2.191a.583.583,0,0,1-.581.605.613.613,0,0,1-.629-.566,2.775,2.775,0,0,1-.009-.358c0-.9,0-1.794,0-2.715m6.734,4.621a3.805,3.805,0,0,1-.582,2.675A3.119,3.119,0,0,1,27,33.725v1.808h8.48c-.19-2.4-3-4.744-5.459-5.743M6.759,29.676c-.812.491-1.556.892-2.248,1.37a7.587,7.587,0,0,0-2.955,3.422c-.132.336-.2.7-.312,1.072H9.788V33.725A3.142,3.142,0,0,1,7.365,32.5a3.972,3.972,0,0,1-.606-2.822m1.66-3.929a.863.863,0,0,0-.058-.147A13.371,13.371,0,0,1,6.8,22.269a.4.4,0,0,0-.3-.2c-.441-.028-.885-.034-1.327-.02a.376.376,0,0,0-.273.19A21.481,21.481,0,0,0,3.12,28.605c-.056.62-.009,1.251-.009,1.884a.358.358,0,0,0,.094-.026A16.832,16.832,0,0,1,6.558,28.47a.459.459,0,0,0,.182-.328c.035-.308-.013-.629.052-.928a1.837,1.837,0,0,1,1.627-1.467m25.26,4.8a18.993,18.993,0,0,0-1.849-8.478H30.156l-1.723,3.7A1.806,1.806,0,0,1,30,27.271c.058.288.009.6.039.894a.412.412,0,0,0,.171.3,16.977,16.977,0,0,1,3.465,2.081M17.755,33.736H11.067v1.8h6.688Zm7.965,0H19.038v1.8H25.72ZM6.105,16.537a7.416,7.416,0,0,0-.859.057,1.143,1.143,0,0,0-.938,1.079q-.03,1.022,0,2.044a1.151,1.151,0,0,0,1,1.1,8.874,8.874,0,0,0,1.036.008c-.08-1.42-.158-2.823-.24-4.289m24.333,4.3c.239,0,.548.008.856,0a1.19,1.19,0,0,0,1.186-1.19c.014-.633.012-1.267,0-1.9a1.145,1.145,0,0,0-.838-1.125,6.137,6.137,0,0,0-.966-.088c-.081,1.467-.158,2.869-.238,4.3M8.97,4.561l.138-.121C8.743,3.589,8.4,2.728,8,1.893a1.267,1.267,0,0,0-1.09-.662,1.1,1.1,0,0,0-1.239,1.2A1.332,1.332,0,0,0,6.52,3.659c.807.325,1.632.6,2.45.9M31.342,8.354l.039.122c.157.055.311.119.471.162.692.184,1.377.405,2.08.53a1.313,1.313,0,0,0,1.559-1.611,1.323,1.323,0,0,0-1.827-.674c-.8.438-1.55.977-2.321,1.472M5.413,8.511c0-.043,0-.087.006-.13-.4-.294-.8-.606-1.214-.876a7.437,7.437,0,0,0-1.216-.679,1.324,1.324,0,0,0-1.705.767,1.232,1.232,0,0,0,.935,1.53,1.482,1.482,0,0,0,.7.031c.835-.194,1.662-.425,2.491-.643M27.705,4.448l.11.073a9.495,9.495,0,0,0,2.692-1.011,1.362,1.362,0,0,0,.456-1.737,1.182,1.182,0,0,0-1.664-.36,1.436,1.436,0,0,0-.566.57c-.372.808-.69,1.641-1.028,2.464" fill="#133d60"/>
          <path id="Trazado_127991" data-name="Trazado 127991" d="M95.391,72.846c.243.039.467.065.687.111a.605.605,0,0,1,.533.748.618.618,0,0,1-.775.454,4.14,4.14,0,0,0-3.12.611,5.616,5.616,0,0,0-.5.406.63.63,0,0,1-.9.072c-.264-.239-.26-.571.012-.923a.67.67,0,0,0,.05-.09A2.517,2.517,0,0,1,90.885,71a2.467,2.467,0,0,1,2.753-1.046c1.182.338,1.729,1.228,1.754,2.888m-1.217-.514a1.2,1.2,0,0,0-.952-1.185,1.213,1.213,0,0,0-1.354.633,1.229,1.229,0,0,0,.3,1.5.448.448,0,0,0,.575.081,2.921,2.921,0,0,1,.871-.314c.515-.091.518-.239.557-.71" transform="translate(-69.661 -53.78)" fill="#133d60"/>
          <path id="Trazado_127992" data-name="Trazado 127992" d="M47.863,74.324c.037.047.066.084.094.121a.619.619,0,0,1-.024.871.592.592,0,0,1-.868-.035,3.642,3.642,0,0,0-2.048-1.028,8.435,8.435,0,0,0-1.568,0c-.429.03-.731-.109-.8-.462-.079-.381.132-.66.574-.746.209-.041.42-.068.665-.107a2.549,2.549,0,0,1,.637-2.189,2.375,2.375,0,0,1,1.3-.716,2.449,2.449,0,0,1,2.639,1.228,2.488,2.488,0,0,1-.592,3.063m-2.779-1.9c0,.462.093.574.519.7a5.78,5.78,0,0,1,.937.341.428.428,0,0,0,.515-.07,1.224,1.224,0,0,0,.347-1.482,1.218,1.218,0,0,0-2.319.515" transform="translate(-32.814 -53.873)" fill="#133d60"/>
          <path id="Trazado_127993" data-name="Trazado 127993" d="M46.881,59.32a.627.627,0,0,1,.643.6.609.609,0,0,1-.575.62,7.53,7.53,0,0,0-3.37,1.125.607.607,0,0,1-.7-.993,8.268,8.268,0,0,1,4-1.346" transform="translate(-32.809 -45.663)" fill="#133d60"/>
          <path id="Trazado_127994" data-name="Trazado 127994" d="M100.746,61.028a.635.635,0,0,1-.954.648,20.084,20.084,0,0,0-1.926-.853,7.959,7.959,0,0,0-1.4-.271.634.634,0,0,1-.606-.664.624.624,0,0,1,.712-.553,8.146,8.146,0,0,1,3.836,1.285,1.543,1.543,0,0,1,.343.409" transform="translate(-73.784 -45.671)" fill="#133d60"/>
          <path id="Trazado_127995" data-name="Trazado 127995" d="M73.739,91.728c-.393,0-.787.007-1.181,0a.611.611,0,1,1,.006-1.218q1.18-.014,2.361,0a.611.611,0,1,1-.006,1.218c-.393.008-.787,0-1.181,0" transform="translate(-55.351 -69.664)" fill="#133d60"/>
        </g>
      </g>
    </g>
  </g>
</svg>
