<svg xmlns="http://www.w3.org/2000/svg" xmlns:xlink="http://www.w3.org/1999/xlink" width="295" height="135" viewBox="0 0 295 135">
  <defs>
    <clipPath id="clip-path">
      <rect id="Rect치ngulo_36073" data-name="Rect치ngulo 36073" width="41" height="41" transform="translate(-0.008 0)" fill="#133d60"/>
    </clipPath>
  </defs>
  <g id="Grupo_134530" data-name="Grupo 134530" transform="translate(-810.256 -10155)">
    <rect id="Rect치ngulo_36095" data-name="Rect치ngulo 36095" width="271" height="135" rx="13" transform="translate(834.256 10155)" fill="#133d60"/>
    <path id="Trazado_128110" data-name="Trazado 128110" d="M10.785,9.93A7.053,7.053,0,0,1,7.977,8.566a2.6,2.6,0,0,1-.879-2A2.751,2.751,0,0,1,8.172,4.348a4.269,4.269,0,0,1,2.793-.879,4.66,4.66,0,0,1,2.09.453,3.436,3.436,0,0,1,1.422,1.25,3.2,3.2,0,0,1,.5,1.742H13.473a2.08,2.08,0,0,0-.656-1.627A2.669,2.669,0,0,0,10.965,4.7a2.732,2.732,0,0,0-1.73.489,1.632,1.632,0,0,0-.621,1.358A1.468,1.468,0,0,0,9.2,7.72a5.785,5.785,0,0,0,2.008.88,9.316,9.316,0,0,1,2.219.88A3.367,3.367,0,0,1,14.617,10.6,2.861,2.861,0,0,1,15,12.109a2.658,2.658,0,0,1-1.078,2.215,4.6,4.6,0,0,1-2.883.832,5.347,5.347,0,0,1-2.187-.449,3.681,3.681,0,0,1-1.566-1.23A3,3,0,0,1,6.738,11.7H8.246a1.959,1.959,0,0,0,.762,1.629,3.207,3.207,0,0,0,2.035.6,2.948,2.948,0,0,0,1.82-.484,1.573,1.573,0,0,0,.633-1.32,1.545,1.545,0,0,0-.586-1.293A6.755,6.755,0,0,0,10.785,9.93Zm9.422,5.227a3.693,3.693,0,0,1-2.8-1.129,4.19,4.19,0,0,1-1.078-3.02v-.266a5.073,5.073,0,0,1,.48-2.246,3.748,3.748,0,0,1,1.344-1.547,3.378,3.378,0,0,1,1.871-.559A3.166,3.166,0,0,1,22.59,7.477a4.7,4.7,0,0,1,.914,3.109v.6H17.777a3,3,0,0,0,.73,2.02,2.3,2.3,0,0,0,1.777.77,2.517,2.517,0,0,0,1.3-.312,3.259,3.259,0,0,0,.93-.828l.883.688A3.55,3.55,0,0,1,20.207,15.156Zm-.18-7.578a1.928,1.928,0,0,0-1.469.637A3.1,3.1,0,0,0,17.824,10h4.234V9.891a2.753,2.753,0,0,0-.594-1.707A1.815,1.815,0,0,0,20.027,7.578Zm9.234.266a4.331,4.331,0,0,0-.711-.055A1.9,1.9,0,0,0,26.621,9v6H25.176V6.547h1.406l.023.977a2.251,2.251,0,0,1,2.016-1.133,1.477,1.477,0,0,1,.641.109Zm4.258,5.2,2.094-6.492H37.09L34.059,15h-1.1L29.895,6.547h1.477ZM40.051,15H38.605V6.547h1.445ZM38.488,4.3a.863.863,0,0,1,.215-.594.807.807,0,0,1,.637-.242.819.819,0,0,1,.641.242A.854.854,0,0,1,40.2,4.3a.826.826,0,0,1-.219.586.834.834,0,0,1-.641.234.821.821,0,0,1-.637-.234A.834.834,0,0,1,38.488,4.3Zm7.266,9.672a2.082,2.082,0,0,0,1.352-.469,1.649,1.649,0,0,0,.641-1.172h1.367a2.621,2.621,0,0,1-.5,1.383,3.293,3.293,0,0,1-1.23,1.047,3.55,3.55,0,0,1-1.629.391A3.482,3.482,0,0,1,43.008,14a4.59,4.59,0,0,1-1.02-3.152v-.242a5.089,5.089,0,0,1,.453-2.2,3.451,3.451,0,0,1,1.3-1.492,3.7,3.7,0,0,1,2-.531,3.39,3.39,0,0,1,2.363.852,3.043,3.043,0,0,1,1,2.211H47.746a1.992,1.992,0,0,0-.621-1.348,1.932,1.932,0,0,0-1.379-.527,2.023,2.023,0,0,0-1.707.793,3.724,3.724,0,0,0-.605,2.293v.273a3.65,3.65,0,0,0,.6,2.25A2.033,2.033,0,0,0,45.754,13.977ZM52.309,15H50.863V6.547h1.445ZM50.746,4.3a.863.863,0,0,1,.215-.594.807.807,0,0,1,.637-.242.819.819,0,0,1,.641.242.854.854,0,0,1,.219.594.826.826,0,0,1-.219.586.834.834,0,0,1-.641.234.821.821,0,0,1-.637-.234A.834.834,0,0,1,50.746,4.3ZM54.238,10.7a4.993,4.993,0,0,1,.488-2.234A3.643,3.643,0,0,1,56.086,6.93a3.7,3.7,0,0,1,1.988-.539,3.565,3.565,0,0,1,2.793,1.2,4.6,4.6,0,0,1,1.066,3.18v.1a5.036,5.036,0,0,1-.473,2.215,3.589,3.589,0,0,1-1.352,1.527,3.743,3.743,0,0,1-2.02.547,3.556,3.556,0,0,1-2.785-1.2A4.575,4.575,0,0,1,54.238,10.8Zm1.453.172a3.616,3.616,0,0,0,.652,2.258,2.211,2.211,0,0,0,3.5-.012,3.955,3.955,0,0,0,.648-2.418,3.61,3.61,0,0,0-.66-2.254,2.1,2.1,0,0,0-1.754-.863,2.075,2.075,0,0,0-1.727.852A3.925,3.925,0,0,0,55.691,10.867Zm12.977,1.891a1.064,1.064,0,0,0-.441-.91,4.249,4.249,0,0,0-1.539-.559,7.277,7.277,0,0,1-1.742-.562,2.479,2.479,0,0,1-.953-.781,1.869,1.869,0,0,1-.309-1.078,2.193,2.193,0,0,1,.879-1.758,3.432,3.432,0,0,1,2.246-.719,3.532,3.532,0,0,1,2.332.742,2.357,2.357,0,0,1,.895,1.9H68.582a1.3,1.3,0,0,0-.5-1.023,1.888,1.888,0,0,0-1.27-.43,1.976,1.976,0,0,0-1.234.344,1.082,1.082,0,0,0-.445.9.877.877,0,0,0,.414.789,5.1,5.1,0,0,0,1.5.508,7.8,7.8,0,0,1,1.754.578,2.558,2.558,0,0,1,1,.809,1.988,1.988,0,0,1,.324,1.152,2.163,2.163,0,0,1-.906,1.816,3.8,3.8,0,0,1-2.352.684,4.257,4.257,0,0,1-1.8-.359,2.922,2.922,0,0,1-1.223-1,2.42,2.42,0,0,1-.441-1.395H64.84a1.5,1.5,0,0,0,.582,1.152,2.258,2.258,0,0,0,1.434.426,2.331,2.331,0,0,0,1.316-.332A1.02,1.02,0,0,0,68.668,12.758ZM80.043,7.844a4.331,4.331,0,0,0-.711-.055A1.9,1.9,0,0,0,77.4,9v6H75.957V6.547h1.406l.023.977A2.251,2.251,0,0,1,79.4,6.391a1.477,1.477,0,0,1,.641.109Zm4.688,7.313a3.693,3.693,0,0,1-2.8-1.129,4.19,4.19,0,0,1-1.078-3.02v-.266a5.073,5.073,0,0,1,.48-2.246A3.748,3.748,0,0,1,82.68,6.949a3.378,3.378,0,0,1,1.871-.559,3.166,3.166,0,0,1,2.563,1.086,4.7,4.7,0,0,1,.914,3.109v.6H82.3a3,3,0,0,0,.73,2.02,2.3,2.3,0,0,0,1.777.77,2.517,2.517,0,0,0,1.3-.312,3.259,3.259,0,0,0,.93-.828l.883.688A3.55,3.55,0,0,1,84.73,15.156Zm-.18-7.578a1.928,1.928,0,0,0-1.469.637A3.1,3.1,0,0,0,82.348,10h4.234V9.891a2.753,2.753,0,0,0-.594-1.707A1.815,1.815,0,0,0,84.551,7.578Zm6.594-.008a3.073,3.073,0,0,1,2.5-1.18q2.68,0,2.7,3.023V15H94.9V9.406a1.946,1.946,0,0,0-.418-1.352,1.675,1.675,0,0,0-1.277-.437,2.086,2.086,0,0,0-1.234.375,2.546,2.546,0,0,0-.828.984V15H89.7V3h1.445ZM103.73,15a3.036,3.036,0,0,1-.2-.891,3.225,3.225,0,0,1-2.406,1.047,2.984,2.984,0,0,1-2.051-.707,2.288,2.288,0,0,1-.8-1.793,2.39,2.39,0,0,1,1-2.051,4.733,4.733,0,0,1,2.824-.73H103.5V9.211A1.623,1.623,0,0,0,103.051,8a1.821,1.821,0,0,0-1.336-.449,2.108,2.108,0,0,0-1.3.391,1.151,1.151,0,0,0-.523.945H98.441a2,2,0,0,1,.449-1.223,3.066,3.066,0,0,1,1.219-.934,4.1,4.1,0,0,1,1.691-.344,3.342,3.342,0,0,1,2.289.73,2.635,2.635,0,0,1,.859,2.012v3.891a4.757,4.757,0,0,0,.3,1.852V15Zm-2.4-1.1a2.54,2.54,0,0,0,1.289-.352,2.127,2.127,0,0,0,.883-.914V10.9h-1.133q-2.656,0-2.656,1.555a1.316,1.316,0,0,0,.453,1.063A1.742,1.742,0,0,0,101.332,13.9Zm13.039-3.031a5.026,5.026,0,0,1-.891,3.113,2.846,2.846,0,0,1-2.391,1.176,2.947,2.947,0,0,1-2.477-1.133l-.07.977h-1.328V3h1.445V7.477a2.93,2.93,0,0,1,2.414-1.086,2.863,2.863,0,0,1,2.418,1.164,5.177,5.177,0,0,1,.879,3.188Zm-1.445-.164a3.906,3.906,0,0,0-.57-2.281,1.888,1.888,0,0,0-1.641-.8,2.122,2.122,0,0,0-2.055,1.328V12.6a2.181,2.181,0,0,0,2.07,1.328,1.878,1.878,0,0,0,1.617-.8A4.153,4.153,0,0,0,112.926,10.7Zm4.836,4.3h-1.445V6.547h1.445ZM116.2,4.3a.863.863,0,0,1,.215-.594.807.807,0,0,1,.637-.242.819.819,0,0,1,.641.242.854.854,0,0,1,.219.594.826.826,0,0,1-.219.586.834.834,0,0,1-.641.234.821.821,0,0,1-.637-.234A.834.834,0,0,1,116.2,4.3ZM121.645,15H120.2V3h1.445Zm3.883,0h-1.445V6.547h1.445ZM123.965,4.3a.863.863,0,0,1,.215-.594.807.807,0,0,1,.637-.242.819.819,0,0,1,.641.242.854.854,0,0,1,.219.594.826.826,0,0,1-.219.586.834.834,0,0,1-.641.234.821.821,0,0,1-.637-.234A.834.834,0,0,1,123.965,4.3Zm5.836.2V6.547h1.578V7.664H129.8v5.249a1.173,1.173,0,0,0,.211.763.888.888,0,0,0,.719.254,3.5,3.5,0,0,0,.688-.094V15a4.215,4.215,0,0,1-1.109.155,1.8,1.8,0,0,1-1.461-.586,2.517,2.517,0,0,1-.492-1.664V7.664h-1.539V6.547h1.539V4.5ZM138.285,15a3.036,3.036,0,0,1-.2-.891,3.225,3.225,0,0,1-2.406,1.047,2.984,2.984,0,0,1-2.051-.707,2.287,2.287,0,0,1-.8-1.793,2.39,2.39,0,0,1,1-2.051,4.733,4.733,0,0,1,2.824-.73h1.406V9.211A1.623,1.623,0,0,0,137.605,8a1.821,1.821,0,0,0-1.336-.449,2.107,2.107,0,0,0-1.3.391,1.151,1.151,0,0,0-.523.945H133a2,2,0,0,1,.449-1.223,3.066,3.066,0,0,1,1.219-.934,4.1,4.1,0,0,1,1.691-.344,3.342,3.342,0,0,1,2.289.73,2.635,2.635,0,0,1,.859,2.012v3.891a4.757,4.757,0,0,0,.3,1.852V15Zm-2.4-1.1a2.54,2.54,0,0,0,1.289-.352,2.127,2.127,0,0,0,.883-.914V10.9h-1.133q-2.656,0-2.656,1.555a1.316,1.316,0,0,0,.453,1.063A1.742,1.742,0,0,0,135.887,13.9Zm9.273.078a2.082,2.082,0,0,0,1.352-.469,1.649,1.649,0,0,0,.641-1.172h1.367a2.621,2.621,0,0,1-.5,1.383,3.293,3.293,0,0,1-1.23,1.047,3.55,3.55,0,0,1-1.629.391A3.482,3.482,0,0,1,142.414,14a4.59,4.59,0,0,1-1.02-3.152v-.242a5.089,5.089,0,0,1,.453-2.2,3.451,3.451,0,0,1,1.3-1.492,3.7,3.7,0,0,1,2-.531,3.39,3.39,0,0,1,2.363.852,3.043,3.043,0,0,1,1,2.211h-1.367a1.992,1.992,0,0,0-.621-1.348,1.932,1.932,0,0,0-1.379-.527,2.023,2.023,0,0,0-1.707.793,3.724,3.724,0,0,0-.605,2.293v.273a3.65,3.65,0,0,0,.6,2.25A2.033,2.033,0,0,0,145.16,13.977ZM151.715,15H150.27V6.547h1.445ZM150.152,4.3a.863.863,0,0,1,.215-.594A.807.807,0,0,1,151,3.469a.819.819,0,0,1,.641.242.854.854,0,0,1,.219.594.826.826,0,0,1-.219.586.834.834,0,0,1-.641.234.821.821,0,0,1-.637-.234A.834.834,0,0,1,150.152,4.3Zm3.492,6.391a4.993,4.993,0,0,1,.488-2.234,3.642,3.642,0,0,1,1.359-1.531,3.7,3.7,0,0,1,1.988-.539,3.565,3.565,0,0,1,2.793,1.2,4.6,4.6,0,0,1,1.066,3.18v.1a5.036,5.036,0,0,1-.473,2.215,3.589,3.589,0,0,1-1.352,1.527,3.743,3.743,0,0,1-2.02.547,3.556,3.556,0,0,1-2.785-1.2,4.575,4.575,0,0,1-1.066-3.164Zm1.453.172a3.616,3.616,0,0,0,.652,2.258,2.211,2.211,0,0,0,3.5-.012,3.954,3.954,0,0,0,.648-2.418,3.61,3.61,0,0,0-.66-2.254,2.1,2.1,0,0,0-1.754-.863,2.075,2.075,0,0,0-1.727.852A3.925,3.925,0,0,0,155.1,10.867Zm3.039-7.852h1.75l-2.094,2.3-1.164,0Zm6.383,3.531.047,1.063A3.08,3.08,0,0,1,167.1,6.391q2.68,0,2.7,3.023V15h-1.445V9.406a1.946,1.946,0,0,0-.418-1.352,1.675,1.675,0,0,0-1.277-.437,2.086,2.086,0,0,0-1.234.375,2.546,2.546,0,0,0-.828.984V15h-1.445V6.547ZM7.434,34.7a4.952,4.952,0,0,1,.922-3.129,2.915,2.915,0,0,1,2.414-1.184,2.932,2.932,0,0,1,2.352,1.016V27h1.445V39H13.238l-.07-.906a2.943,2.943,0,0,1-2.414,1.063,2.887,2.887,0,0,1-2.395-1.2,5.008,5.008,0,0,1-.926-3.141Zm1.445.164a3.749,3.749,0,0,0,.594,2.25,1.92,1.92,0,0,0,1.641.813A2.108,2.108,0,0,0,13.121,36.7V32.813a2.125,2.125,0,0,0-1.992-1.2,1.929,1.929,0,0,0-1.656.82A4.128,4.128,0,0,0,8.879,34.867Zm11.438,4.289a3.693,3.693,0,0,1-2.8-1.129,4.19,4.19,0,0,1-1.078-3.02v-.266a5.073,5.073,0,0,1,.48-2.246,3.748,3.748,0,0,1,1.344-1.547,3.378,3.378,0,0,1,1.871-.559A3.166,3.166,0,0,1,22.7,31.477a4.7,4.7,0,0,1,.914,3.109v.6H17.887a3,3,0,0,0,.73,2.02,2.3,2.3,0,0,0,1.777.77,2.517,2.517,0,0,0,1.3-.312,3.259,3.259,0,0,0,.93-.828l.883.688A3.55,3.55,0,0,1,20.316,39.156Zm-.18-7.578a1.928,1.928,0,0,0-1.469.637A3.1,3.1,0,0,0,17.934,34h4.234v-.109a2.753,2.753,0,0,0-.594-1.707A1.815,1.815,0,0,0,20.137,31.578ZM34.465,39a3.036,3.036,0,0,1-.2-.891,3.225,3.225,0,0,1-2.406,1.047,2.984,2.984,0,0,1-2.051-.707,2.287,2.287,0,0,1-.8-1.793,2.39,2.39,0,0,1,1-2.051,4.733,4.733,0,0,1,2.824-.73h1.406v-.664A1.623,1.623,0,0,0,33.785,32a1.821,1.821,0,0,0-1.336-.449,2.108,2.108,0,0,0-1.3.391,1.151,1.151,0,0,0-.523.945H29.176a2,2,0,0,1,.449-1.223,3.066,3.066,0,0,1,1.219-.934,4.1,4.1,0,0,1,1.691-.344,3.342,3.342,0,0,1,2.289.73,2.635,2.635,0,0,1,.859,2.012v3.891a4.757,4.757,0,0,0,.3,1.852V39Zm-2.4-1.1a2.54,2.54,0,0,0,1.289-.352,2.127,2.127,0,0,0,.883-.914V34.9H33.105q-2.656,0-2.656,1.555a1.316,1.316,0,0,0,.453,1.063A1.742,1.742,0,0,0,32.066,37.9ZM45.09,34.867a5.062,5.062,0,0,1-.883,3.109,2.829,2.829,0,0,1-2.391,1.18,3.1,3.1,0,0,1-2.422-.977v4.07H37.949v-11.7h1.32l.07.938a2.977,2.977,0,0,1,2.453-1.094,2.882,2.882,0,0,1,2.41,1.148,5.117,5.117,0,0,1,.887,3.2ZM43.645,34.7a3.735,3.735,0,0,0-.609-2.258,1.963,1.963,0,0,0-1.672-.828,2.125,2.125,0,0,0-1.969,1.164V36.82a2.129,2.129,0,0,0,1.984,1.156,1.954,1.954,0,0,0,1.652-.824A4.077,4.077,0,0,0,43.645,34.7Zm2.9-.008a4.993,4.993,0,0,1,.488-2.234,3.643,3.643,0,0,1,1.359-1.531,3.7,3.7,0,0,1,1.988-.539,3.565,3.565,0,0,1,2.793,1.2,4.6,4.6,0,0,1,1.066,3.18v.1a5.036,5.036,0,0,1-.473,2.215,3.589,3.589,0,0,1-1.352,1.527,3.743,3.743,0,0,1-2.02.547,3.556,3.556,0,0,1-2.785-1.2A4.575,4.575,0,0,1,46.543,34.8ZM48,34.867a3.616,3.616,0,0,0,.652,2.258,2.211,2.211,0,0,0,3.5-.012,3.955,3.955,0,0,0,.648-2.418,3.61,3.61,0,0,0-.66-2.254,2.1,2.1,0,0,0-1.754-.863,2.075,2.075,0,0,0-1.727.852A3.925,3.925,0,0,0,48,34.867Zm10.7,2.016,1.969-6.336h1.547l-3.4,9.758q-.789,2.109-2.508,2.109l-.273-.023-.539-.1V41.117l.391.031a1.923,1.923,0,0,0,1.145-.3,2.148,2.148,0,0,0,.676-1.086l.32-.859-3.016-8.359H56.59ZM63,34.7a4.993,4.993,0,0,1,.488-2.234,3.643,3.643,0,0,1,1.359-1.531,3.7,3.7,0,0,1,1.988-.539,3.565,3.565,0,0,1,2.793,1.2,4.6,4.6,0,0,1,1.066,3.18v.1a5.036,5.036,0,0,1-.473,2.215,3.589,3.589,0,0,1-1.352,1.527,3.743,3.743,0,0,1-2.02.547,3.556,3.556,0,0,1-2.785-1.2A4.575,4.575,0,0,1,63,34.8Zm1.453.172a3.616,3.616,0,0,0,.652,2.258,2.211,2.211,0,0,0,3.5-.012,3.955,3.955,0,0,0,.648-2.418,3.61,3.61,0,0,0-.66-2.254,2.1,2.1,0,0,0-1.754-.863,2.075,2.075,0,0,0-1.727.852A3.925,3.925,0,0,0,64.457,34.867ZM76.121,34.7a4.952,4.952,0,0,1,.922-3.129,3.137,3.137,0,0,1,4.766-.168V27h1.445V39H81.926l-.07-.906a2.943,2.943,0,0,1-2.414,1.063,2.887,2.887,0,0,1-2.395-1.2,5.008,5.008,0,0,1-.926-3.141Zm1.445.164a3.749,3.749,0,0,0,.594,2.25,1.92,1.92,0,0,0,1.641.813A2.108,2.108,0,0,0,81.809,36.7V32.813a2.125,2.125,0,0,0-1.992-1.2,1.929,1.929,0,0,0-1.656.82A4.128,4.128,0,0,0,77.566,34.867ZM87.066,39H85.621V30.547h1.445ZM85.5,28.3a.863.863,0,0,1,.215-.594.807.807,0,0,1,.637-.242.819.819,0,0,1,.641.242.854.854,0,0,1,.219.594.826.826,0,0,1-.219.586.834.834,0,0,1-.641.234.821.821,0,0,1-.637-.234A.834.834,0,0,1,85.5,28.3ZM94.6,39a3.036,3.036,0,0,1-.2-.891,3.225,3.225,0,0,1-2.406,1.047,2.984,2.984,0,0,1-2.051-.707,2.288,2.288,0,0,1-.8-1.793,2.39,2.39,0,0,1,1-2.051,4.733,4.733,0,0,1,2.824-.73h1.406v-.664A1.623,1.623,0,0,0,93.918,32a1.821,1.821,0,0,0-1.336-.449,2.108,2.108,0,0,0-1.3.391,1.151,1.151,0,0,0-.523.945H89.309a2,2,0,0,1,.449-1.223,3.066,3.066,0,0,1,1.219-.934,4.1,4.1,0,0,1,1.691-.344,3.342,3.342,0,0,1,2.289.73,2.635,2.635,0,0,1,.859,2.012v3.891a4.757,4.757,0,0,0,.3,1.852V39Zm-2.4-1.1a2.54,2.54,0,0,0,1.289-.352,2.127,2.127,0,0,0,.883-.914V34.9H93.238q-2.656,0-2.656,1.555a1.316,1.316,0,0,0,.453,1.063A1.742,1.742,0,0,0,92.2,37.9Zm5.539-3.2a4.968,4.968,0,0,1,.914-3.145,3.151,3.151,0,0,1,4.836-.074l.07-.937h1.32V38.8a3.439,3.439,0,0,1-.973,2.586,3.589,3.589,0,0,1-2.613.945,4.348,4.348,0,0,1-1.789-.391,3.08,3.08,0,0,1-1.336-1.07l.75-.867a2.826,2.826,0,0,0,2.273,1.148,2.214,2.214,0,0,0,1.645-.594,2.269,2.269,0,0,0,.59-1.672v-.727a2.971,2.971,0,0,1-2.367,1,2.887,2.887,0,0,1-2.4-1.2A5.224,5.224,0,0,1,97.738,34.7Zm1.453.164a3.79,3.79,0,0,0,.586,2.246,1.9,1.9,0,0,0,1.641.816,2.117,2.117,0,0,0,2.008-1.242V32.828a2.142,2.142,0,0,0-1.992-1.211,1.921,1.921,0,0,0-1.648.82A4.128,4.128,0,0,0,99.191,34.867Zm9.234-4.32.047,1.063A3.08,3.08,0,0,1,111,30.391q2.68,0,2.7,3.023V39h-1.445V33.406a1.946,1.946,0,0,0-.418-1.352,1.675,1.675,0,0,0-1.277-.437,2.086,2.086,0,0,0-1.234.375,2.546,2.546,0,0,0-.828.984V39h-1.445V30.547ZM115.5,34.7a4.993,4.993,0,0,1,.488-2.234,3.643,3.643,0,0,1,1.359-1.531,3.7,3.7,0,0,1,1.988-.539,3.565,3.565,0,0,1,2.793,1.2,4.6,4.6,0,0,1,1.066,3.18v.1a5.036,5.036,0,0,1-.473,2.215,3.589,3.589,0,0,1-1.352,1.527,3.743,3.743,0,0,1-2.02.547,3.556,3.556,0,0,1-2.785-1.2A4.575,4.575,0,0,1,115.5,34.8Zm1.453.172a3.616,3.616,0,0,0,.652,2.258,2.211,2.211,0,0,0,3.5-.012,3.955,3.955,0,0,0,.648-2.418,3.61,3.61,0,0,0-.66-2.254,2.1,2.1,0,0,0-1.754-.863,2.075,2.075,0,0,0-1.727.852A3.925,3.925,0,0,0,116.957,34.867ZM120,27.016h1.75l-2.094,2.3-1.164,0Zm9.938,9.742a1.064,1.064,0,0,0-.441-.91,4.249,4.249,0,0,0-1.539-.559,7.277,7.277,0,0,1-1.742-.562,2.479,2.479,0,0,1-.953-.781,1.869,1.869,0,0,1-.309-1.078,2.193,2.193,0,0,1,.879-1.758,3.432,3.432,0,0,1,2.246-.719,3.532,3.532,0,0,1,2.332.742,2.357,2.357,0,0,1,.895,1.9h-1.453a1.3,1.3,0,0,0-.5-1.023,1.888,1.888,0,0,0-1.27-.43,1.976,1.976,0,0,0-1.234.344,1.082,1.082,0,0,0-.445.9.877.877,0,0,0,.414.789,5.1,5.1,0,0,0,1.5.508,7.8,7.8,0,0,1,1.754.578,2.558,2.558,0,0,1,1,.809,1.988,1.988,0,0,1,.324,1.152,2.163,2.163,0,0,1-.906,1.816,3.8,3.8,0,0,1-2.352.684,4.257,4.257,0,0,1-1.8-.359,2.922,2.922,0,0,1-1.223-1,2.42,2.42,0,0,1-.441-1.395h1.445a1.5,1.5,0,0,0,.582,1.152,2.258,2.258,0,0,0,1.434.426,2.331,2.331,0,0,0,1.316-.332A1.02,1.02,0,0,0,129.934,36.758Zm5.289-8.258v2.047H136.8v1.117h-1.578v5.249a1.173,1.173,0,0,0,.211.763.888.888,0,0,0,.719.254,3.5,3.5,0,0,0,.688-.094V39a4.215,4.215,0,0,1-1.109.155,1.8,1.8,0,0,1-1.461-.586,2.517,2.517,0,0,1-.492-1.664V31.664h-1.539V30.547h1.539V28.5ZM140.059,39h-1.445V30.547h1.445ZM138.5,28.3a.863.863,0,0,1,.215-.594.807.807,0,0,1,.637-.242.819.819,0,0,1,.641.242.854.854,0,0,1,.219.594.826.826,0,0,1-.219.586.834.834,0,0,1-.641.234.821.821,0,0,1-.637-.234A.834.834,0,0,1,138.5,28.3Zm7.266,9.672a2.082,2.082,0,0,0,1.352-.469,1.649,1.649,0,0,0,.641-1.172h1.367a2.621,2.621,0,0,1-.5,1.383,3.293,3.293,0,0,1-1.23,1.047,3.55,3.55,0,0,1-1.629.391A3.482,3.482,0,0,1,143.016,38,4.59,4.59,0,0,1,142,34.852v-.242a5.089,5.089,0,0,1,.453-2.2,3.451,3.451,0,0,1,1.3-1.492,3.7,3.7,0,0,1,2-.531,3.39,3.39,0,0,1,2.363.852,3.043,3.043,0,0,1,1,2.211h-1.367a1.992,1.992,0,0,0-.621-1.348,1.932,1.932,0,0,0-1.379-.527,2.023,2.023,0,0,0-1.707.793,3.724,3.724,0,0,0-.605,2.293v.273a3.65,3.65,0,0,0,.6,2.25A2.033,2.033,0,0,0,145.762,37.977Zm4.6-3.281a4.993,4.993,0,0,1,.488-2.234,3.642,3.642,0,0,1,1.359-1.531,3.7,3.7,0,0,1,1.988-.539,3.565,3.565,0,0,1,2.793,1.2,4.6,4.6,0,0,1,1.066,3.18v.1a5.036,5.036,0,0,1-.473,2.215,3.589,3.589,0,0,1-1.352,1.527,3.743,3.743,0,0,1-2.02.547,3.556,3.556,0,0,1-2.785-1.2,4.575,4.575,0,0,1-1.066-3.164Zm1.453.172a3.616,3.616,0,0,0,.652,2.258,2.211,2.211,0,0,0,3.5-.012,3.954,3.954,0,0,0,.648-2.418,3.61,3.61,0,0,0-.66-2.254,2.1,2.1,0,0,0-1.754-.863,2.075,2.075,0,0,0-1.727.852A3.925,3.925,0,0,0,151.816,34.867ZM166.6,36.883l1.969-6.336h1.547l-3.4,9.758q-.789,2.109-2.508,2.109l-.273-.023-.539-.1V41.117l.391.031a1.923,1.923,0,0,0,1.145-.3,2.148,2.148,0,0,0,.676-1.086l.32-.859-3.016-8.359h1.578ZM51.359,52.5v2.047h1.578v1.117H51.359v5.249a1.173,1.173,0,0,0,.211.763.888.888,0,0,0,.719.254,3.5,3.5,0,0,0,.688-.094V63a4.215,4.215,0,0,1-1.109.155,1.8,1.8,0,0,1-1.461-.586,2.517,2.517,0,0,1-.492-1.664V55.664H48.375V54.547h1.539V52.5Zm6.773,10.656a3.693,3.693,0,0,1-2.8-1.129,4.19,4.19,0,0,1-1.078-3.02v-.266a5.073,5.073,0,0,1,.48-2.246,3.748,3.748,0,0,1,1.344-1.547,3.378,3.378,0,0,1,1.871-.559,3.166,3.166,0,0,1,2.563,1.086,4.7,4.7,0,0,1,.914,3.109v.6H55.7a3,3,0,0,0,.73,2.02,2.3,2.3,0,0,0,1.777.77,2.517,2.517,0,0,0,1.3-.312,3.258,3.258,0,0,0,.93-.828l.883.688A3.55,3.55,0,0,1,58.133,63.156Zm-.18-7.578a1.928,1.928,0,0,0-1.469.637A3.1,3.1,0,0,0,55.75,58h4.234v-.109a2.753,2.753,0,0,0-.594-1.707A1.815,1.815,0,0,0,57.953,55.578Zm9.234.266a4.331,4.331,0,0,0-.711-.055A1.9,1.9,0,0,0,64.547,57v6H63.1V54.547h1.406l.023.977a2.251,2.251,0,0,1,2.016-1.133,1.477,1.477,0,0,1,.641.109ZM73.422,63a3.036,3.036,0,0,1-.2-.891,3.225,3.225,0,0,1-2.406,1.047,2.984,2.984,0,0,1-2.051-.707,2.288,2.288,0,0,1-.8-1.793,2.39,2.39,0,0,1,1-2.051,4.733,4.733,0,0,1,2.824-.73H73.2v-.664A1.623,1.623,0,0,0,72.742,56a1.821,1.821,0,0,0-1.336-.449,2.107,2.107,0,0,0-1.3.391,1.151,1.151,0,0,0-.523.945H68.133a2,2,0,0,1,.449-1.223,3.066,3.066,0,0,1,1.219-.934,4.1,4.1,0,0,1,1.691-.344,3.342,3.342,0,0,1,2.289.73,2.635,2.635,0,0,1,.859,2.012v3.891a4.757,4.757,0,0,0,.3,1.852V63Zm-2.4-1.1a2.54,2.54,0,0,0,1.289-.352,2.127,2.127,0,0,0,.883-.914V58.9H72.063q-2.656,0-2.656,1.555a1.316,1.316,0,0,0,.453,1.063A1.742,1.742,0,0,0,71.023,61.9Zm13.023-3.031a5.062,5.062,0,0,1-.883,3.109,2.829,2.829,0,0,1-2.391,1.18,3.1,3.1,0,0,1-2.422-.977v4.07H76.906v-11.7h1.32l.07.938a2.977,2.977,0,0,1,2.453-1.094,2.882,2.882,0,0,1,2.41,1.148,5.117,5.117,0,0,1,.887,3.2ZM82.6,58.7a3.735,3.735,0,0,0-.609-2.258,1.963,1.963,0,0,0-1.672-.828,2.125,2.125,0,0,0-1.969,1.164V60.82a2.129,2.129,0,0,0,1.984,1.156,1.954,1.954,0,0,0,1.652-.824A4.077,4.077,0,0,0,82.6,58.7Zm6.789,4.453a3.693,3.693,0,0,1-2.8-1.129,4.19,4.19,0,0,1-1.078-3.02v-.266A5.073,5.073,0,0,1,86,56.5a3.748,3.748,0,0,1,1.344-1.547,3.378,3.378,0,0,1,1.871-.559,3.166,3.166,0,0,1,2.563,1.086,4.7,4.7,0,0,1,.914,3.109v.6H86.961a3,3,0,0,0,.73,2.02,2.3,2.3,0,0,0,1.777.77,2.517,2.517,0,0,0,1.3-.312,3.259,3.259,0,0,0,.93-.828l.883.688A3.55,3.55,0,0,1,89.391,63.156Zm-.18-7.578a1.928,1.928,0,0,0-1.469.637A3.1,3.1,0,0,0,87.008,58h4.234v-.109a2.753,2.753,0,0,0-.594-1.707A1.815,1.815,0,0,0,89.211,55.578Zm.7-4.562h1.75l-2.094,2.3-1.164,0Zm9.664,11.148a3.07,3.07,0,0,1-2.477.992,2.628,2.628,0,0,1-2.059-.785,3.4,3.4,0,0,1-.715-2.324v-5.5h1.445v5.461q0,1.922,1.563,1.922a2.163,2.163,0,0,0,2.2-1.234V54.547h1.445V63H99.609Zm5.563-9.664v2.047h1.578v1.117h-1.578v5.249a1.173,1.173,0,0,0,.211.763.888.888,0,0,0,.719.254,3.5,3.5,0,0,0,.688-.094V63a4.215,4.215,0,0,1-1.109.155,1.8,1.8,0,0,1-1.461-.586,2.517,2.517,0,0,1-.492-1.664V55.664h-1.539V54.547H103.7V52.5ZM109.977,63h-1.445V54.547h1.445Zm-1.562-10.7a.863.863,0,0,1,.215-.594.807.807,0,0,1,.637-.242.819.819,0,0,1,.641.242.854.854,0,0,1,.219.594.826.826,0,0,1-.219.586.834.834,0,0,1-.641.234.821.821,0,0,1-.637-.234A.834.834,0,0,1,108.414,52.3Zm7.266,9.672a2.082,2.082,0,0,0,1.352-.469,1.649,1.649,0,0,0,.641-1.172h1.367a2.621,2.621,0,0,1-.5,1.383,3.293,3.293,0,0,1-1.23,1.047,3.55,3.55,0,0,1-1.629.391A3.482,3.482,0,0,1,112.934,62a4.59,4.59,0,0,1-1.02-3.152v-.242a5.089,5.089,0,0,1,.453-2.2,3.451,3.451,0,0,1,1.3-1.492,3.7,3.7,0,0,1,2-.531,3.39,3.39,0,0,1,2.363.852,3.043,3.043,0,0,1,1,2.211h-1.367a1.992,1.992,0,0,0-.621-1.348,1.932,1.932,0,0,0-1.379-.527,2.023,2.023,0,0,0-1.707.793,3.724,3.724,0,0,0-.605,2.293v.273a3.65,3.65,0,0,0,.6,2.25A2.033,2.033,0,0,0,115.68,61.977Zm4.6-3.281a4.993,4.993,0,0,1,.488-2.234,3.643,3.643,0,0,1,1.359-1.531,3.7,3.7,0,0,1,1.988-.539,3.565,3.565,0,0,1,2.793,1.2,4.6,4.6,0,0,1,1.066,3.18v.1a5.036,5.036,0,0,1-.473,2.215,3.589,3.589,0,0,1-1.352,1.527,3.743,3.743,0,0,1-2.02.547,3.556,3.556,0,0,1-2.785-1.2,4.575,4.575,0,0,1-1.066-3.164Zm1.453.172a3.616,3.616,0,0,0,.652,2.258,2.211,2.211,0,0,0,3.5-.012,3.955,3.955,0,0,0,.648-2.418,3.61,3.61,0,0,0-.66-2.254,2.1,2.1,0,0,0-1.754-.863,2.075,2.075,0,0,0-1.727.852A3.925,3.925,0,0,0,121.734,58.867Z" transform="translate(892.256 10189)" fill="#fff"/>
    <g id="Grupo_134512" data-name="Grupo 134512" transform="translate(44 178)">
      <circle id="Elipse_4934" data-name="Elipse 4934" cx="31.5" cy="31.5" r="31.5" transform="translate(766.256 10013)" fill="#fcd189"/>
      <g id="Grupo_134478" data-name="Grupo 134478" transform="translate(777.264 10022)">
        <g id="Grupo_134477" data-name="Grupo 134477" clip-path="url(#clip-path)">
          <path id="Trazado_127996" data-name="Trazado 127996" d="M4.014,40.991c-.21-.193-.416-.392-.283-.716s.408-.334.7-.333q2.921.006,5.843,0h.5a4.861,4.861,0,0,1-.342-2.618,19.811,19.811,0,0,1,.2-4.306A9.926,9.926,0,0,1,16.8,25.681c.275-.116.419-.237.375-.544a3.457,3.457,0,0,1,0-.48c0-.7,0-.7-.681-1.126.047.283.072.523.13.756a.563.563,0,0,1-.231.7.552.552,0,0,1-.692-.112,11.688,11.688,0,0,1-2.363-2.538l-.241-.35a3.316,3.316,0,0,1-4.031,1.656c-1.523-.453-2.135-1.51-2.342-3.866-.13.054-.248.1-.36.151a8.807,8.807,0,0,0-5.289,7.989c-.067,1.344-.016,2.694-.012,4.041a1.231,1.231,0,0,0,1.316,1.335c1.161.011,2.321,0,3.482,0,.463,0,.708.183.708.517s-.262.529-.707.53c-1.161,0-2.321.008-3.482,0A2.256,2.256,0,0,1,.015,31.97C.023,30.33,0,28.687.09,27.051a8.787,8.787,0,0,1,1.488-4.3A1.457,1.457,0,0,0,1.8,21.94c.033-1.226.1-2.45.181-3.674.079-1.278.187-2.554.262-3.831a.757.757,0,0,0-.182-.484,2.321,2.321,0,0,1,.169-3.276.839.839,0,0,0,.234-.536c.026-1.187,0-2.375.031-3.561A6.861,6.861,0,0,1,7.312.43,1.932,1.932,0,0,1,8.858.605a.519.519,0,0,0,.58.024,2.682,2.682,0,0,1,2.02-.2,8.026,8.026,0,0,1,4.734,3.39.772.772,0,0,1,.163.507c-.036.161-.213.387-.354.407a.772.772,0,0,1-.576-.211c-.294-.3-.507-.686-.792-1a6.909,6.909,0,0,0-3.482-2.083,1.752,1.752,0,0,0-1.579.341C9.147,2.108,9,2.1,8.618,1.72a1.021,1.021,0,0,0-1.1-.252A5.771,5.771,0,0,0,3.556,6.429c-.081,1.273-.015,2.556-.015,3.877a3.454,3.454,0,0,0,2.63-1.814c.1-.174.165-.365.264-.538a1.645,1.645,0,0,1,1.491-.91c1.24-.01,2.481-.014,3.721-.028a1.7,1.7,0,0,1,1.646.989c.171.326.384.63.6.986a9.008,9.008,0,0,1,6.6-2.617,7.531,7.531,0,0,1,6.23,3.168.551.551,0,0,0,.112-.1,22.925,22.925,0,0,1,4.137-4.593c.355-.332.709-.239.924.21.386.8.728,1.632,1.169,2.4a4.205,4.205,0,0,0,2.988,2.265,14.809,14.809,0,0,0,1.7.086c0-.249.012-.442,0-.634a16.462,16.462,0,0,0-.261-3.093A6.539,6.539,0,0,0,32.08,1.243a7.24,7.24,0,0,0-6.987,2,10.574,10.574,0,0,0-.939,1.191c-.255.345-.526.446-.8.268s-.3-.495-.077-.844A8.086,8.086,0,0,1,29.89.022a8.206,8.206,0,0,1,5.923,1.719,7.8,7.8,0,0,1,3,6.15c.007.333,0,.667,0,1a5.124,5.124,0,0,0,.257,1.832,2.462,2.462,0,0,1-1.625,3.215.423.423,0,0,0-.249.2,7.694,7.694,0,0,1-2.325,3.79c.631.4,1.3.767,1.894,1.22a9.959,9.959,0,0,1,4.168,7.008.842.842,0,0,0,.064.183v6.164c-.03.071-.066.14-.091.213a2.127,2.127,0,0,1-1.955,1.589c-1.41.075-2.827.035-4.24.024a.51.51,0,0,1-.506-.657c.09-.308.326-.386.622-.385,1.267.005,2.535.01,3.8,0a1.231,1.231,0,0,0,1.32-1.331c0-1.628.057-3.257-.012-4.882a8.812,8.812,0,0,0-5.217-8c-.135-.067-.28-.115-.459-.188,0,.557.007,1.05,0,1.542a3.34,3.34,0,0,1-4.414,3.18,3.3,3.3,0,0,1-2.229-2.984c-.016-.379,0-.758,0-1.163a5.518,5.518,0,0,1-.761.32.466.466,0,0,0-.381.422,5.435,5.435,0,0,1-1.92,3.194,1.683,1.683,0,0,0-.73,1.642.642.642,0,0,0,.447.666,9.713,9.713,0,0,1,6.156,7.776,31.094,31.094,0,0,1,.152,4.15,4.034,4.034,0,0,1-.351,2.309h.495q3.042,0,6.083,0c.292,0,.566.01.7.329s-.077.519-.273.719ZM17.132,26.644a8.809,8.809,0,0,0-5.571,7.408,42.522,42.522,0,0,0-.077,4.636,1.228,1.228,0,0,0,1.355,1.257q7.661,0,15.322,0a1.247,1.247,0,0,0,1.365-1.332c.01-1.24.024-2.481-.005-3.72a8.86,8.86,0,0,0-2.611-6.218,8.545,8.545,0,0,0-3.042-2c-.607,2.164-1.675,3.146-3.384,3.135s-2.782-1-3.353-3.166m9.935-10.906c0-.651.007-1.278,0-1.9a6.093,6.093,0,0,0-.983-3.33,6.435,6.435,0,0,0-6.155-3.058,7.323,7.323,0,0,0-6.836,4.7,9.855,9.855,0,0,0,1.03,9.457c.337.531.762,1.007,1.147,1.508a.3.3,0,0,0,.09-.238A13.355,13.355,0,0,1,16.57,16.07a14.971,14.971,0,0,1,3.786-4.9c.561-.506.85-.441,1.169.235A21.228,21.228,0,0,0,22.8,13.886a4,4,0,0,0,4.272,1.851m-1.51,1.09a4.35,4.35,0,0,1-3.014-1.5,22.044,22.044,0,0,1-1.491-2.352,7.176,7.176,0,0,1-.33-.7,12.5,12.5,0,0,0-4.363,9.279.732.732,0,0,0,.152.43,5.1,5.1,0,0,0,8.018-.051c1.191-1.544,1.081-3.306,1.027-5.108M31.176,6.133a17.86,17.86,0,0,0-3.55,4.023.917.917,0,0,0-.069.954,8.653,8.653,0,0,1,.561,3.882,3.367,3.367,0,0,0,.239,1.715,1.272,1.272,0,0,1,.118.583.453.453,0,0,0,.334.468,5.393,5.393,0,0,0,6.082-1.311c1.492-1.631,1.455-3.6,1.347-5.6a5.221,5.221,0,0,1-4.2-2.98c-.311-.556-.57-1.142-.861-1.731M13.2,9.8c-.29-.452-.576-.854-.815-1.282a.779.779,0,0,0-.77-.449c-1.173.017-2.346.026-3.518.016a.77.77,0,0,0-.8.521A4.433,4.433,0,0,1,4.75,11.063a.361.361,0,0,0-.271.407c.014.693,0,1.386.007,2.079a5.534,5.534,0,0,0,3.447,5.084,5.377,5.377,0,0,0,3.756.162,10.619,10.619,0,0,1,1.507-9m5.045,14.747c0,.743-.027,1.42.006,2.095a2.238,2.238,0,0,0,1.949,2.1,2.178,2.178,0,0,0,2.475-1.658,18.18,18.18,0,0,0,.142-2.554,6.41,6.41,0,0,1-4.572.015m14.927-5.689a6.689,6.689,0,0,1-4.509-.018c0,.614-.014,1.172,0,1.729a2.258,2.258,0,0,0,2.107,2.17A2.227,2.227,0,0,0,33.156,20.8a18.007,18.007,0,0,0,.012-1.939m-21.19.957a6.738,6.738,0,0,1-4.118-.071A2.366,2.366,0,0,0,9.7,22.706a2.164,2.164,0,0,0,2.211-.9,1.52,1.52,0,0,0,.068-1.992M6.062,18.77A6.65,6.65,0,0,1,3.57,14.883c-.021-.091-.117-.164-.179-.246l-.109.034c-.151,2.125-.3,4.251-.447,6.305L6.062,18.77M3.413,11.4c-.523-.029-.857.322-.9.9a1.127,1.127,0,0,0,.9,1.214Zm33.918,1.42a1.3,1.3,0,0,0,.831-1.329c-.009-.662-.166-.778-.831-.6ZM26.674,16.855v1.889a1.341,1.341,0,0,0,.756-1.224c.04-.627-.087-.739-.756-.665" transform="translate(-0.01 0)" fill="#133d60"/>
          <path id="Trazado_127997" data-name="Trazado 127997" d="M.321,127.014c-.2-.2-.414-.387-.28-.712s.4-.343.693-.337c.37.008.741.006,1.112,0,.3,0,.589-.009.737.329s-.085.512-.261.719Z" transform="translate(0 -86.022)" fill="#133d60"/>
          <path id="Trazado_127998" data-name="Trazado 127998" d="M122.012,127c-.185-.2-.41-.386-.271-.714s.432-.341.732-.334.582.018.871,0a.776.776,0,0,1,.749.331V127Z" transform="translate(-83.108 -86.012)" fill="#133d60"/>
          <path id="Trazado_127999" data-name="Trazado 127999" d="M25.729,105.681a.585.585,0,0,1-.62.58.608.608,0,0,1-.591-.619.621.621,0,0,1,.63-.586.6.6,0,0,1,.582.625" transform="translate(-16.743 -71.744)" fill="#133d60"/>
          <path id="Trazado_128000" data-name="Trazado 128000" d="M101.705,105.662a.588.588,0,0,1-.6.6.608.608,0,0,1-.609-.6.617.617,0,0,1,.61-.605.6.6,0,0,1,.6.606" transform="translate(-68.628 -71.744)" fill="#133d60"/>
          <path id="Trazado_128001" data-name="Trazado 128001" d="M57.16,54.672a.709.709,0,1,1-.693-.868.788.788,0,0,1,.693.868" transform="translate(-38.091 -36.743)" fill="#133d60"/>
          <path id="Trazado_128002" data-name="Trazado 128002" d="M71.3,54.667a.8.8,0,0,1,.708-.861.893.893,0,1,1-.708.861" transform="translate(-48.693 -36.744)" fill="#133d60"/>
          <path id="Trazado_128003" data-name="Trazado 128003" d="M88.344,35.876a.82.82,0,0,1,.727-.894.923.923,0,1,1-.727.894" transform="translate(-60.331 -23.89)" fill="#133d60"/>
          <path id="Trazado_128004" data-name="Trazado 128004" d="M105.938,35.878a.837.837,0,0,1-.722.9.923.923,0,0,1-.007-1.8.83.83,0,0,1,.729.9" transform="translate(-71.359 -23.889)" fill="#133d60"/>
          <path id="Trazado_128005" data-name="Trazado 128005" d="M22.089,37.42a.776.776,0,0,1-.693.869.882.882,0,0,1-.018-1.72.768.768,0,0,1,.711.851" transform="translate(-14.138 -24.973)" fill="#133d60"/>
        </g>
      </g>
    </g>
  </g>
</svg>
