<svg xmlns="http://www.w3.org/2000/svg" xmlns:xlink="http://www.w3.org/1999/xlink" width="297" height="135" viewBox="0 0 297 135">
  <defs>
    <clipPath id="clip-path">
      <rect id="Rectángulo_36080" data-name="Rectángulo 36080" width="41.848" height="41.81" fill="#133d60"/>
    </clipPath>
  </defs>
  <g id="Grupo_134518" data-name="Grupo 134518" transform="translate(-1123.256 -10492)">
    <rect id="Rectángulo_36102" data-name="Rectángulo 36102" width="279" height="135" rx="13" transform="translate(1141.256 10492)" fill="#133d60"/>
    <path id="Trazado_128086" data-name="Trazado 128086" d="M22.535,12.023H17.77L16.7,15H15.152L19.5,3.625h1.313L25.16,15H23.621ZM18.223,10.8H22.09l-1.937-5.32Zm11.633,3.18a2.082,2.082,0,0,0,1.352-.469,1.649,1.649,0,0,0,.641-1.172h1.367a2.621,2.621,0,0,1-.5,1.383,3.293,3.293,0,0,1-1.23,1.047,3.55,3.55,0,0,1-1.629.391A3.482,3.482,0,0,1,27.109,14a4.59,4.59,0,0,1-1.02-3.152v-.242a5.089,5.089,0,0,1,.453-2.2,3.451,3.451,0,0,1,1.3-1.492,3.7,3.7,0,0,1,2-.531,3.39,3.39,0,0,1,2.363.852,3.043,3.043,0,0,1,1,2.211H31.848a1.992,1.992,0,0,0-.621-1.348,1.932,1.932,0,0,0-1.379-.527,2.023,2.023,0,0,0-1.707.793,3.724,3.724,0,0,0-.605,2.293v.273a3.65,3.65,0,0,0,.6,2.25A2.033,2.033,0,0,0,29.855,13.977ZM36.8,4.5V6.547h1.578V7.664H36.8v5.249a1.173,1.173,0,0,0,.211.763.888.888,0,0,0,.719.254,3.5,3.5,0,0,0,.688-.094V15a4.215,4.215,0,0,1-1.109.155,1.8,1.8,0,0,1-1.461-.586,2.517,2.517,0,0,1-.492-1.664V7.664H33.816V6.547h1.539V4.5ZM41.637,15H40.191V6.547h1.445ZM40.074,4.3a.863.863,0,0,1,.215-.594.807.807,0,0,1,.637-.242.819.819,0,0,1,.641.242.854.854,0,0,1,.219.594.826.826,0,0,1-.219.586.834.834,0,0,1-.641.234.821.821,0,0,1-.637-.234A.834.834,0,0,1,40.074,4.3Zm6.664,8.734,2.094-6.492h1.477L47.277,15h-1.1L43.113,6.547H44.59ZM53.27,15H51.824V6.547H53.27ZM51.707,4.3a.863.863,0,0,1,.215-.594.807.807,0,0,1,.637-.242.819.819,0,0,1,.641.242.854.854,0,0,1,.219.594.826.826,0,0,1-.219.586.834.834,0,0,1-.641.234.821.821,0,0,1-.637-.234A.834.834,0,0,1,51.707,4.3Zm3.523,6.4a4.952,4.952,0,0,1,.922-3.129,3.137,3.137,0,0,1,4.766-.168V3h1.445V15H61.035l-.07-.906a2.943,2.943,0,0,1-2.414,1.063,2.887,2.887,0,0,1-2.395-1.2,5.008,5.008,0,0,1-.926-3.141Zm1.445.164a3.749,3.749,0,0,0,.594,2.25,1.92,1.92,0,0,0,1.641.813A2.108,2.108,0,0,0,60.918,12.7V8.813a2.125,2.125,0,0,0-1.992-1.2,1.929,1.929,0,0,0-1.656.82A4.128,4.128,0,0,0,56.676,10.867ZM69.824,15a3.036,3.036,0,0,1-.2-.891,3.225,3.225,0,0,1-2.406,1.047,2.984,2.984,0,0,1-2.051-.707,2.288,2.288,0,0,1-.8-1.793,2.39,2.39,0,0,1,1-2.051,4.733,4.733,0,0,1,2.824-.73H69.6V9.211A1.623,1.623,0,0,0,69.145,8a1.821,1.821,0,0,0-1.336-.449,2.108,2.108,0,0,0-1.3.391,1.151,1.151,0,0,0-.523.945H64.535a2,2,0,0,1,.449-1.223A3.066,3.066,0,0,1,66.2,6.734a4.1,4.1,0,0,1,1.691-.344,3.342,3.342,0,0,1,2.289.73,2.635,2.635,0,0,1,.859,2.012v3.891a4.757,4.757,0,0,0,.3,1.852V15Zm-2.4-1.1a2.54,2.54,0,0,0,1.289-.352,2.127,2.127,0,0,0,.883-.914V10.9H68.465q-2.656,0-2.656,1.555a1.316,1.316,0,0,0,.453,1.063A1.742,1.742,0,0,0,67.426,13.9Zm5.531-3.2a4.952,4.952,0,0,1,.922-3.129,3.137,3.137,0,0,1,4.766-.168V3H80.09V15H78.762l-.07-.906a2.943,2.943,0,0,1-2.414,1.063,2.887,2.887,0,0,1-2.395-1.2,5.008,5.008,0,0,1-.926-3.141Zm1.445.164A3.749,3.749,0,0,0,75,13.117a1.92,1.92,0,0,0,1.641.813A2.108,2.108,0,0,0,78.645,12.7V8.813a2.125,2.125,0,0,0-1.992-1.2A1.929,1.929,0,0,0,75,8.438,4.128,4.128,0,0,0,74.4,10.867ZM85.84,15.156a3.693,3.693,0,0,1-2.8-1.129,4.19,4.19,0,0,1-1.078-3.02v-.266a5.073,5.073,0,0,1,.48-2.246,3.748,3.748,0,0,1,1.344-1.547,3.378,3.378,0,0,1,1.871-.559,3.166,3.166,0,0,1,2.563,1.086,4.7,4.7,0,0,1,.914,3.109v.6H83.41a3,3,0,0,0,.73,2.02,2.3,2.3,0,0,0,1.777.77,2.517,2.517,0,0,0,1.3-.312,3.259,3.259,0,0,0,.93-.828l.883.688A3.55,3.55,0,0,1,85.84,15.156Zm-.18-7.578a1.928,1.928,0,0,0-1.469.637A3.1,3.1,0,0,0,83.457,10h4.234V9.891A2.753,2.753,0,0,0,87.1,8.184,1.815,1.815,0,0,0,85.66,7.578Zm10.07,5.18a1.064,1.064,0,0,0-.441-.91,4.249,4.249,0,0,0-1.539-.559,7.277,7.277,0,0,1-1.742-.562,2.479,2.479,0,0,1-.953-.781,1.869,1.869,0,0,1-.309-1.078,2.193,2.193,0,0,1,.879-1.758,3.432,3.432,0,0,1,2.246-.719,3.532,3.532,0,0,1,2.332.742,2.357,2.357,0,0,1,.895,1.9H95.645a1.3,1.3,0,0,0-.5-1.023,1.888,1.888,0,0,0-1.27-.43,1.976,1.976,0,0,0-1.234.344,1.082,1.082,0,0,0-.445.9.877.877,0,0,0,.414.789,5.1,5.1,0,0,0,1.5.508,7.8,7.8,0,0,1,1.754.578,2.558,2.558,0,0,1,1,.809,1.988,1.988,0,0,1,.324,1.152,2.163,2.163,0,0,1-.906,1.816,3.8,3.8,0,0,1-2.352.684,4.257,4.257,0,0,1-1.8-.359,2.922,2.922,0,0,1-1.223-1,2.42,2.42,0,0,1-.441-1.395H91.9a1.5,1.5,0,0,0,.582,1.152,2.258,2.258,0,0,0,1.434.426,2.331,2.331,0,0,0,1.316-.332A1.02,1.02,0,0,0,95.73,12.758Zm6.938-2.055a4.952,4.952,0,0,1,.922-3.129,3.137,3.137,0,0,1,4.766-.168V3H109.8V15h-1.328l-.07-.906a2.943,2.943,0,0,1-2.414,1.063,2.887,2.887,0,0,1-2.395-1.2,5.008,5.008,0,0,1-.926-3.141Zm1.445.164a3.749,3.749,0,0,0,.594,2.25,1.92,1.92,0,0,0,1.641.813,2.108,2.108,0,0,0,2.008-1.234V8.813a2.125,2.125,0,0,0-1.992-1.2,1.929,1.929,0,0,0-1.656.82A4.128,4.128,0,0,0,104.113,10.867Zm11.438,4.289a3.693,3.693,0,0,1-2.8-1.129,4.19,4.19,0,0,1-1.078-3.02v-.266a5.073,5.073,0,0,1,.48-2.246A3.748,3.748,0,0,1,113.5,6.949a3.378,3.378,0,0,1,1.871-.559,3.166,3.166,0,0,1,2.563,1.086,4.7,4.7,0,0,1,.914,3.109v.6h-5.727a3,3,0,0,0,.73,2.02,2.3,2.3,0,0,0,1.777.77,2.517,2.517,0,0,0,1.3-.312,3.259,3.259,0,0,0,.93-.828l.883.688A3.55,3.55,0,0,1,115.551,15.156Zm-.18-7.578a1.928,1.928,0,0,0-1.469.637A3.1,3.1,0,0,0,113.168,10H117.4V9.891a2.753,2.753,0,0,0-.594-1.707A1.815,1.815,0,0,0,115.371,7.578Zm14.031,5.18a1.064,1.064,0,0,0-.441-.91,4.249,4.249,0,0,0-1.539-.559,7.277,7.277,0,0,1-1.742-.562,2.479,2.479,0,0,1-.953-.781,1.869,1.869,0,0,1-.309-1.078,2.193,2.193,0,0,1,.879-1.758,3.432,3.432,0,0,1,2.246-.719,3.532,3.532,0,0,1,2.332.742,2.357,2.357,0,0,1,.895,1.9h-1.453a1.3,1.3,0,0,0-.5-1.023,1.888,1.888,0,0,0-1.27-.43,1.976,1.976,0,0,0-1.234.344,1.082,1.082,0,0,0-.445.9.877.877,0,0,0,.414.789,5.1,5.1,0,0,0,1.5.508,7.8,7.8,0,0,1,1.754.578,2.558,2.558,0,0,1,1,.809,1.988,1.988,0,0,1,.324,1.152,2.163,2.163,0,0,1-.906,1.816,3.8,3.8,0,0,1-2.352.684,4.257,4.257,0,0,1-1.8-.359,2.922,2.922,0,0,1-1.223-1,2.42,2.42,0,0,1-.441-1.395h1.445a1.5,1.5,0,0,0,.582,1.152,2.258,2.258,0,0,0,1.434.426,2.331,2.331,0,0,0,1.316-.332A1.02,1.02,0,0,0,129.4,12.758ZM137.949,15a3.036,3.036,0,0,1-.2-.891,3.225,3.225,0,0,1-2.406,1.047,2.984,2.984,0,0,1-2.051-.707,2.287,2.287,0,0,1-.8-1.793,2.39,2.39,0,0,1,1-2.051,4.733,4.733,0,0,1,2.824-.73h1.406V9.211A1.623,1.623,0,0,0,137.27,8a1.821,1.821,0,0,0-1.336-.449,2.107,2.107,0,0,0-1.3.391,1.151,1.151,0,0,0-.523.945H132.66a2,2,0,0,1,.449-1.223,3.066,3.066,0,0,1,1.219-.934,4.1,4.1,0,0,1,1.691-.344,3.342,3.342,0,0,1,2.289.73,2.635,2.635,0,0,1,.859,2.012v3.891a4.757,4.757,0,0,0,.3,1.852V15Zm-2.4-1.1a2.54,2.54,0,0,0,1.289-.352,2.127,2.127,0,0,0,.883-.914V10.9H136.59q-2.656,0-2.656,1.555a1.316,1.316,0,0,0,.453,1.063A1.742,1.742,0,0,0,135.551,13.9ZM143,15h-1.445V3H143Zm7.531-.836a3.07,3.07,0,0,1-2.477.992A2.628,2.628,0,0,1,146,14.371a3.4,3.4,0,0,1-.715-2.324v-5.5h1.445v5.461q0,1.922,1.563,1.922a2.163,2.163,0,0,0,2.2-1.234V6.547h1.445V15h-1.375Zm3.25-3.461a4.952,4.952,0,0,1,.922-3.129,3.137,3.137,0,0,1,4.766-.168V3h1.445V15H159.59l-.07-.906a2.943,2.943,0,0,1-2.414,1.063,2.887,2.887,0,0,1-2.395-1.2,5.008,5.008,0,0,1-.926-3.141Zm1.445.164a3.749,3.749,0,0,0,.594,2.25,1.919,1.919,0,0,0,1.641.813,2.108,2.108,0,0,0,2.008-1.234V8.813a2.125,2.125,0,0,0-1.992-1.2,1.929,1.929,0,0,0-1.656.82A4.128,4.128,0,0,0,155.23,10.867Zm-118.125,24a5.062,5.062,0,0,1-.883,3.109,2.829,2.829,0,0,1-2.391,1.18,3.1,3.1,0,0,1-2.422-.977v4.07H29.965v-11.7h1.32l.07.938a2.977,2.977,0,0,1,2.453-1.094,2.882,2.882,0,0,1,2.41,1.148,5.117,5.117,0,0,1,.887,3.2ZM35.66,34.7a3.735,3.735,0,0,0-.609-2.258,1.963,1.963,0,0,0-1.672-.828,2.125,2.125,0,0,0-1.969,1.164V36.82a2.129,2.129,0,0,0,1.984,1.156,1.954,1.954,0,0,0,1.652-.824A4.077,4.077,0,0,0,35.66,34.7Zm8.5,3.461a3.07,3.07,0,0,1-2.477.992,2.628,2.628,0,0,1-2.059-.785,3.4,3.4,0,0,1-.715-2.324v-5.5h1.445v5.461q0,1.922,1.563,1.922a2.163,2.163,0,0,0,2.2-1.234V30.547h1.445V39H44.191ZM42.988,27.016h1.75l-2.094,2.3-1.164,0Zm11.93,7.852a5.026,5.026,0,0,1-.891,3.113,2.846,2.846,0,0,1-2.391,1.176,2.947,2.947,0,0,1-2.477-1.133L49.09,39H47.762V27h1.445v4.477a2.93,2.93,0,0,1,2.414-1.086,2.863,2.863,0,0,1,2.418,1.164,5.177,5.177,0,0,1,.879,3.188ZM53.473,34.7a3.906,3.906,0,0,0-.57-2.281,1.888,1.888,0,0,0-1.641-.8,2.122,2.122,0,0,0-2.055,1.328V36.6a2.181,2.181,0,0,0,2.07,1.328,1.878,1.878,0,0,0,1.617-.8A4.153,4.153,0,0,0,53.473,34.7ZM58.309,39H56.863V27h1.445Zm3.883,0H60.746V30.547h1.445ZM60.629,28.3a.863.863,0,0,1,.215-.594.807.807,0,0,1,.637-.242.819.819,0,0,1,.641.242.854.854,0,0,1,.219.594.826.826,0,0,1-.219.586.834.834,0,0,1-.641.234.821.821,0,0,1-.637-.234A.834.834,0,0,1,60.629,28.3Zm7.266,9.672a2.082,2.082,0,0,0,1.352-.469,1.649,1.649,0,0,0,.641-1.172h1.367a2.621,2.621,0,0,1-.5,1.383,3.293,3.293,0,0,1-1.23,1.047,3.55,3.55,0,0,1-1.629.391A3.482,3.482,0,0,1,65.148,38a4.59,4.59,0,0,1-1.02-3.152v-.242a5.089,5.089,0,0,1,.453-2.2,3.451,3.451,0,0,1,1.3-1.492,3.7,3.7,0,0,1,2-.531,3.39,3.39,0,0,1,2.363.852,3.043,3.043,0,0,1,1,2.211H69.887a1.992,1.992,0,0,0-.621-1.348,1.932,1.932,0,0,0-1.379-.527,2.023,2.023,0,0,0-1.707.793,3.724,3.724,0,0,0-.605,2.293v.273a3.65,3.65,0,0,0,.6,2.25A2.033,2.033,0,0,0,67.895,37.977ZM78.1,39a3.036,3.036,0,0,1-.2-.891,3.225,3.225,0,0,1-2.406,1.047,2.984,2.984,0,0,1-2.051-.707,2.288,2.288,0,0,1-.8-1.793,2.39,2.39,0,0,1,1-2.051,4.733,4.733,0,0,1,2.824-.73h1.406v-.664A1.623,1.623,0,0,0,77.418,32a1.821,1.821,0,0,0-1.336-.449,2.108,2.108,0,0,0-1.3.391,1.151,1.151,0,0,0-.523.945H72.809a2,2,0,0,1,.449-1.223,3.066,3.066,0,0,1,1.219-.934,4.1,4.1,0,0,1,1.691-.344,3.342,3.342,0,0,1,2.289.73,2.635,2.635,0,0,1,.859,2.012v3.891a4.757,4.757,0,0,0,.3,1.852V39Zm-2.4-1.1a2.54,2.54,0,0,0,1.289-.352,2.127,2.127,0,0,0,.883-.914V34.9H76.738q-2.656,0-2.656,1.555a1.316,1.316,0,0,0,.453,1.063A1.742,1.742,0,0,0,75.7,37.9Zm13.234.078a2.082,2.082,0,0,0,1.352-.469,1.649,1.649,0,0,0,.641-1.172h1.367a2.621,2.621,0,0,1-.5,1.383,3.293,3.293,0,0,1-1.23,1.047,3.55,3.55,0,0,1-1.629.391A3.482,3.482,0,0,1,86.188,38a4.59,4.59,0,0,1-1.02-3.152v-.242a5.089,5.089,0,0,1,.453-2.2,3.451,3.451,0,0,1,1.3-1.492,3.7,3.7,0,0,1,2-.531,3.39,3.39,0,0,1,2.363.852,3.043,3.043,0,0,1,1,2.211H90.926a1.992,1.992,0,0,0-.621-1.348,1.932,1.932,0,0,0-1.379-.527,2.023,2.023,0,0,0-1.707.793,3.724,3.724,0,0,0-.605,2.293v.273a3.65,3.65,0,0,0,.6,2.25A2.033,2.033,0,0,0,88.934,37.977Zm4.6-3.281a4.993,4.993,0,0,1,.488-2.234,3.643,3.643,0,0,1,1.359-1.531,3.7,3.7,0,0,1,1.988-.539,3.565,3.565,0,0,1,2.793,1.2,4.6,4.6,0,0,1,1.066,3.18v.1a5.036,5.036,0,0,1-.473,2.215,3.589,3.589,0,0,1-1.352,1.527,3.743,3.743,0,0,1-2.02.547,3.556,3.556,0,0,1-2.785-1.2A4.575,4.575,0,0,1,93.535,34.8Zm1.453.172a3.616,3.616,0,0,0,.652,2.258,2.211,2.211,0,0,0,3.5-.012,3.955,3.955,0,0,0,.648-2.418,3.61,3.61,0,0,0-.66-2.254,2.1,2.1,0,0,0-1.754-.863,2.075,2.075,0,0,0-1.727.852A3.925,3.925,0,0,0,94.988,34.867ZM104.613,39h-1.445V27h1.445Zm5.82.156a3.693,3.693,0,0,1-2.8-1.129,4.19,4.19,0,0,1-1.078-3.02v-.266a5.073,5.073,0,0,1,.48-2.246,3.748,3.748,0,0,1,1.344-1.547,3.378,3.378,0,0,1,1.871-.559,3.166,3.166,0,0,1,2.563,1.086,4.7,4.7,0,0,1,.914,3.109v.6H108a3,3,0,0,0,.73,2.02,2.3,2.3,0,0,0,1.777.77,2.517,2.517,0,0,0,1.3-.312,3.259,3.259,0,0,0,.93-.828l.883.688A3.55,3.55,0,0,1,110.434,39.156Zm-.18-7.578a1.928,1.928,0,0,0-1.469.637A3.1,3.1,0,0,0,108.051,34h4.234v-.109a2.753,2.753,0,0,0-.594-1.707A1.815,1.815,0,0,0,110.254,31.578Zm8.539,6.4a2.082,2.082,0,0,0,1.352-.469,1.649,1.649,0,0,0,.641-1.172h1.367a2.621,2.621,0,0,1-.5,1.383,3.293,3.293,0,0,1-1.23,1.047,3.55,3.55,0,0,1-1.629.391A3.482,3.482,0,0,1,116.047,38a4.59,4.59,0,0,1-1.02-3.152v-.242a5.089,5.089,0,0,1,.453-2.2,3.451,3.451,0,0,1,1.3-1.492,3.7,3.7,0,0,1,2-.531,3.39,3.39,0,0,1,2.363.852,3.043,3.043,0,0,1,1,2.211h-1.367a1.992,1.992,0,0,0-.621-1.348,1.932,1.932,0,0,0-1.379-.527,2.023,2.023,0,0,0-1.707.793,3.724,3.724,0,0,0-.605,2.293v.273a3.65,3.65,0,0,0,.6,2.25A2.033,2.033,0,0,0,118.793,37.977Zm6.945-9.477v2.047h1.578v1.117h-1.578v5.249a1.173,1.173,0,0,0,.211.763.888.888,0,0,0,.719.254,3.5,3.5,0,0,0,.688-.094V39a4.215,4.215,0,0,1-1.109.155,1.8,1.8,0,0,1-1.461-.586,2.517,2.517,0,0,1-.492-1.664V31.664h-1.539V30.547h1.539V28.5ZM130.574,39h-1.445V30.547h1.445Zm-1.562-10.7a.863.863,0,0,1,.215-.594.807.807,0,0,1,.637-.242.819.819,0,0,1,.641.242.854.854,0,0,1,.219.594.826.826,0,0,1-.219.586.834.834,0,0,1-.641.234.821.821,0,0,1-.637-.234A.834.834,0,0,1,129.012,28.3Zm6.664,8.734,2.094-6.492h1.477L136.215,39h-1.1l-3.062-8.453h1.477ZM145.738,39a3.036,3.036,0,0,1-.2-.891,3.225,3.225,0,0,1-2.406,1.047,2.984,2.984,0,0,1-2.051-.707,2.287,2.287,0,0,1-.8-1.793,2.39,2.39,0,0,1,1-2.051,4.733,4.733,0,0,1,2.824-.73h1.406v-.664A1.623,1.623,0,0,0,145.059,32a1.821,1.821,0,0,0-1.336-.449,2.107,2.107,0,0,0-1.3.391,1.151,1.151,0,0,0-.523.945h-1.453a2,2,0,0,1,.449-1.223,3.066,3.066,0,0,1,1.219-.934,4.1,4.1,0,0,1,1.691-.344,3.342,3.342,0,0,1,2.289.73,2.635,2.635,0,0,1,.859,2.012v3.891a4.757,4.757,0,0,0,.3,1.852V39Zm-2.4-1.1a2.54,2.54,0,0,0,1.289-.352,2.127,2.127,0,0,0,.883-.914V34.9h-1.133q-2.656,0-2.656,1.555a1.316,1.316,0,0,0,.453,1.063A1.742,1.742,0,0,0,143.34,37.9Z" transform="translate(1207.256 10538)" fill="#fff"/>
    <g id="Grupo_134494" data-name="Grupo 134494" transform="translate(104 277)">
      <circle id="Elipse_4940" data-name="Elipse 4940" cx="31.5" cy="31.5" r="31.5" transform="translate(1019.256 10251)" fill="#fcd189"/>
      <g id="Grupo_134493" data-name="Grupo 134493" transform="translate(1030.256 10262)">
        <g id="Grupo_134492" data-name="Grupo 134492" clip-path="url(#clip-path)">
          <path id="Trazado_128035" data-name="Trazado 128035" d="M7.657,42.787V39.3H7.179q-2.7,0-5.4,0A1.593,1.593,0,0,1,0,37.52q0-3.073,0-6.146v-.414H1.4v.475c0,1.99.008,3.981-.007,5.971,0,.365.075.512.478.508,1.915-.02,3.831-.009,5.776-.009v-1.38H6.313V35.143h8.312v1.35H13.279V37.9h.309c1.83,0,3.661-.007,5.492.006.334,0,.458-.082.456-.439q-.018-5.144,0-10.287c0-.349-.108-.446-.45-.445q-8.629.014-17.259,0c-.362,0-.443.132-.435.46.019.755.006,1.51.006,2.3H.032c0-.955-.064-1.927.02-2.886a1.488,1.488,0,0,1,1.632-1.261q5.535,0,11.07,0,3.2,0,6.407,0A1.587,1.587,0,0,1,20.923,27.1q0,5.231,0,10.461A1.589,1.589,0,0,1,19.157,39.3q-2.877,0-5.753,0a.867.867,0,0,0-.118.02v3.435h16.7V40.1c0-.683,0-1.366,0-2.049,0-.6.252-.843.853-.844q4.38,0,8.76,0c.595,0,.842.252.844.854,0,1.553,0,3.107,0,4.725.231,0,.442-.008.652,0a.689.689,0,0,1,.738.738q.018,1.351,0,2.7a.691.691,0,0,1-.737.739c-.2.009-.4,0-.649,0v4.862H39.067V47H2.827V58.1H39.04V53.282h1.382c.009.1.026.215.026.326q0,2.507,0,5.013c0,.659-.238.9-.883.9q-18.632,0-37.264,0c-.674,0-.9-.236-.9-.927q0-5.536,0-11.072v-.555c-.239,0-.439.007-.638,0A.7.7,0,0,1,.006,46.2C0,45.345,0,44.488,0,43.631c0-.595.252-.842.855-.842q3.138,0,6.276,0ZM1.419,45.548h39V44.2h-39Zm30-2.8h7.616V38.621H31.415ZM11.828,36.545H9.091v6.222h2.736Z" transform="translate(0 -17.715)" fill="#133d60"/>
          <path id="Trazado_128036" data-name="Trazado 128036" d="M78.8,15.472c-.927.465-1.848.921-2.762,1.391a1.063,1.063,0,0,0-.561,1.05c.007,1.742,0,3.485,0,5.228v.5H74.1c-.007-.143-.019-.283-.019-.424,0-1.728.015-3.456-.006-5.184a2.562,2.562,0,0,1,1.589-2.561c.693-.325,1.37-.683,2.108-1.054a3.02,3.02,0,0,1-.91-2.638c.033-1.131.008-2.264.008-3.423-.483-.07-.644-.425-.775-.829-.4-1.227-.814-2.449-1.219-3.673-.192-.581-.1-.814.428-1.108C76.535,2.069,77.753,1.364,79,.713a5.682,5.682,0,0,1,5.51,0c1.261.654,2.492,1.367,3.733,2.06a.73.73,0,0,1,.4,1.05c-.423,1.28-.86,2.555-1.276,3.838a.854.854,0,0,1-.729.689c0,1.241-.023,2.473.008,3.7a2.817,2.817,0,0,1-.92,2.361c.471.239.9.459,1.334.677.323.163.651.319.972.487a2.478,2.478,0,0,1,1.391,2.49h-1.4c.146-.876-.468-1.2-1.126-1.5s-1.294-.654-1.951-.961a.465.465,0,0,0-.4.018,3.991,3.991,0,0,1-5.745-.146m7.42-8.788.965-2.907c-1.071-.595-2.106-1.176-3.147-1.746a4.473,4.473,0,0,0-4.563,0c-.953.524-1.9,1.055-2.851,1.584-.1.054-.186.122-.29.192L77.3,6.689c1.474-.57,2.823-1.386,4.436-1.392,1.63-.006,2.994.811,4.487,1.387m-.977,4.4c0-.718,0-1.254,0-1.79-.005-.491.149-1.093-.08-1.441s-.844-.441-1.29-.644a4.154,4.154,0,0,0-2.785-.426,27.242,27.242,0,0,0-2.687.967.262.262,0,0,0-.123.2c-.008.99-.005,1.98-.005,3.138a5.28,5.28,0,0,1,6.972-.006m.067,1.489c-.815-.407-1.55-.78-2.291-1.142a2.747,2.747,0,0,0-2.516,0c-.665.322-1.317.673-1.987.985-.252.117-.286.263-.168.475a1.994,1.994,0,0,0,.292.427c.476.489.992.942,1.441,1.454a2.764,2.764,0,0,0,3.364-.023c.442-.517.969-.961,1.432-1.462a4.289,4.289,0,0,0,.434-.709" transform="translate(-51.765 0)" fill="#133d60"/>
          <path id="Trazado_128037" data-name="Trazado 128037" d="M57.658,108.032c-.465,0-.87.005-1.275,0-.548-.008-.81-.258-.815-.793q-.012-1.307,0-2.613a.7.7,0,0,1,.789-.775c.417-.008.836,0,1.3,0,0-.452-.005-.869,0-1.285a.71.71,0,0,1,.8-.805q1.284-.011,2.569,0a.714.714,0,0,1,.81.8c.005.2,0,.407,0,.61v.681c.409,0,.808,0,1.208,0,.633,0,.88.241.883.858q.007,1.241,0,2.483c0,.592-.255.836-.855.843-.363,0-.726,0-1.089,0a1.186,1.186,0,0,0-.147.03c0,.4,0,.814,0,1.229-.008.569-.259.823-.826.828q-1.263.009-2.526,0c-.571,0-.821-.256-.83-.823-.006-.4,0-.808,0-1.267m1.395-4.873c0,.413,0,.786,0,1.161,0,.686-.232.919-.906.923-.386,0-.772,0-1.154,0v1.368a.827.827,0,0,0,.116.023c.348,0,.7,0,1.044,0,.656,0,.9.238.9.884,0,.4,0,.8,0,1.183h1.395c0-.4,0-.772,0-1.146,0-.687.229-.918.905-.922.386,0,.772,0,1.187,0v-1.395H61.479c-.835,0-1.031-.193-1.031-1.014,0-.355,0-.71,0-1.069Z" transform="translate(-38.827 -71.104)" fill="#133d60"/>
          <path id="Trazado_128038" data-name="Trazado 128038" d="M31.056,37.42a2.789,2.789,0,1,1-2.783-2.805,2.8,2.8,0,0,1,2.783,2.805M28.274,38.8a1.393,1.393,0,1,0-1.4-1.375,1.4,1.4,0,0,0,1.4,1.375" transform="translate(-17.805 -24.189)" fill="#133d60"/>
          <rect id="Rectángulo_36078" data-name="Rectángulo 36078" width="3.439" height="1.341" transform="translate(25.135 19.516)" fill="#133d60"/>
          <rect id="Rectángulo_36079" data-name="Rectángulo 36079" width="4.826" height="1.341" transform="translate(32.814 22.313)" fill="#133d60"/>
          <path id="Trazado_128039" data-name="Trazado 128039" d="M97.761,7.578V8.958L97.1,9c-.011.22-.021.429-.033.656H95.707c-.012-.206-.024-.414-.038-.654l-.657-.043V7.6h.651c.013-.236.025-.445.039-.681h1.376v.66Z" transform="translate(-66.394 -4.834)" fill="#133d60"/>
        </g>
      </g>
    </g>
  </g>
</svg>
