<svg xmlns="http://www.w3.org/2000/svg" xmlns:xlink="http://www.w3.org/1999/xlink" width="295" height="135" viewBox="0 0 295 135">
  <defs>
    <clipPath id="clip-path">
      <rect id="Rect치ngulo_36074" data-name="Rect치ngulo 36074" width="34.127" height="45.925" fill="#133d60"/>
    </clipPath>
  </defs>
  <g id="Grupo_134532" data-name="Grupo 134532" transform="translate(-180.256 -10324)">
    <rect id="Rect치ngulo_36097" data-name="Rect치ngulo 36097" width="263" height="135" rx="13" transform="translate(212.256 10324)" fill="#133d60"/>
    <path id="Trazado_128112" data-name="Trazado 128112" d="M9.3,10.4H6.629V15H5.121V3.625H8.887a4.457,4.457,0,0,1,2.957.875,3.148,3.148,0,0,1,1.035,2.547A3.062,3.062,0,0,1,12.3,8.9a3.428,3.428,0,0,1-1.6,1.18l2.672,4.828V15H11.77ZM6.629,9.172h2.3a2.6,2.6,0,0,0,1.777-.579,1.959,1.959,0,0,0,.66-1.55,2.062,2.062,0,0,0-.629-1.62,2.663,2.663,0,0,0-1.816-.571h-2.3Zm11.633,5.984a3.693,3.693,0,0,1-2.8-1.129,4.19,4.19,0,0,1-1.078-3.02v-.266a5.073,5.073,0,0,1,.48-2.246,3.748,3.748,0,0,1,1.344-1.547,3.378,3.378,0,0,1,1.871-.559,3.166,3.166,0,0,1,2.563,1.086,4.7,4.7,0,0,1,.914,3.109v.6H15.832a3,3,0,0,0,.73,2.02,2.3,2.3,0,0,0,1.777.77,2.517,2.517,0,0,0,1.3-.312,3.259,3.259,0,0,0,.93-.828l.883.688A3.55,3.55,0,0,1,18.262,15.156Zm-.18-7.578a1.928,1.928,0,0,0-1.469.637A3.1,3.1,0,0,0,15.879,10h4.234V9.891a2.753,2.753,0,0,0-.594-1.707A1.815,1.815,0,0,0,18.082,7.578Zm6.594-.008a3.073,3.073,0,0,1,2.5-1.18q2.68,0,2.7,3.023V15H28.434V9.406a1.946,1.946,0,0,0-.418-1.352,1.675,1.675,0,0,0-1.277-.437,2.086,2.086,0,0,0-1.234.375,2.546,2.546,0,0,0-.828.984V15H23.23V3h1.445ZM37.262,15a3.036,3.036,0,0,1-.2-.891,3.225,3.225,0,0,1-2.406,1.047,2.984,2.984,0,0,1-2.051-.707,2.287,2.287,0,0,1-.8-1.793,2.39,2.39,0,0,1,1-2.051,4.733,4.733,0,0,1,2.824-.73h1.406V9.211A1.623,1.623,0,0,0,36.582,8a1.821,1.821,0,0,0-1.336-.449,2.107,2.107,0,0,0-1.3.391,1.151,1.151,0,0,0-.523.945H31.973a2,2,0,0,1,.449-1.223,3.066,3.066,0,0,1,1.219-.934,4.1,4.1,0,0,1,1.691-.344,3.342,3.342,0,0,1,2.289.73,2.635,2.635,0,0,1,.859,2.012v3.891a4.757,4.757,0,0,0,.3,1.852V15Zm-2.4-1.1a2.54,2.54,0,0,0,1.289-.352,2.127,2.127,0,0,0,.883-.914V10.9H35.9q-2.656,0-2.656,1.555a1.316,1.316,0,0,0,.453,1.063A1.742,1.742,0,0,0,34.863,13.9ZM47.9,10.867a5.026,5.026,0,0,1-.891,3.113,2.846,2.846,0,0,1-2.391,1.176,2.947,2.947,0,0,1-2.477-1.133l-.07.977H40.746V3h1.445V7.477a2.93,2.93,0,0,1,2.414-1.086,2.863,2.863,0,0,1,2.418,1.164,5.177,5.177,0,0,1,.879,3.188ZM46.457,10.7a3.906,3.906,0,0,0-.57-2.281,1.888,1.888,0,0,0-1.641-.8,2.122,2.122,0,0,0-2.055,1.328V12.6a2.181,2.181,0,0,0,2.07,1.328,1.878,1.878,0,0,0,1.617-.8A4.153,4.153,0,0,0,46.457,10.7ZM51.293,15H49.848V6.547h1.445ZM49.73,4.3a.863.863,0,0,1,.215-.594.807.807,0,0,1,.637-.242.819.819,0,0,1,.641.242.854.854,0,0,1,.219.594.826.826,0,0,1-.219.586.834.834,0,0,1-.641.234.821.821,0,0,1-.637-.234A.834.834,0,0,1,49.73,4.3ZM55.176,15H53.73V3h1.445Zm3.883,0H57.613V6.547h1.445ZM57.5,4.3a.863.863,0,0,1,.215-.594.807.807,0,0,1,.637-.242.819.819,0,0,1,.641.242.854.854,0,0,1,.219.594.826.826,0,0,1-.219.586.834.834,0,0,1-.641.234.821.821,0,0,1-.637-.234A.834.834,0,0,1,57.5,4.3Zm5.836.2V6.547H64.91V7.664H63.332v5.249a1.173,1.173,0,0,0,.211.763.888.888,0,0,0,.719.254,3.5,3.5,0,0,0,.688-.094V15a4.215,4.215,0,0,1-1.109.155,1.8,1.8,0,0,1-1.461-.586,2.517,2.517,0,0,1-.492-1.664V7.664H60.348V6.547h1.539V4.5ZM71.816,15a3.036,3.036,0,0,1-.2-.891,3.225,3.225,0,0,1-2.406,1.047,2.984,2.984,0,0,1-2.051-.707,2.288,2.288,0,0,1-.8-1.793,2.39,2.39,0,0,1,1-2.051,4.733,4.733,0,0,1,2.824-.73H71.59V9.211A1.623,1.623,0,0,0,71.137,8,1.821,1.821,0,0,0,69.8,7.555a2.108,2.108,0,0,0-1.3.391,1.151,1.151,0,0,0-.523.945H66.527a2,2,0,0,1,.449-1.223A3.066,3.066,0,0,1,68.2,6.734a4.1,4.1,0,0,1,1.691-.344,3.342,3.342,0,0,1,2.289.73,2.635,2.635,0,0,1,.859,2.012v3.891a4.757,4.757,0,0,0,.3,1.852V15Zm-2.4-1.1a2.54,2.54,0,0,0,1.289-.352,2.127,2.127,0,0,0,.883-.914V10.9H70.457q-2.656,0-2.656,1.555a1.316,1.316,0,0,0,.453,1.063A1.742,1.742,0,0,0,69.418,13.9Zm9.273.078a2.082,2.082,0,0,0,1.352-.469,1.649,1.649,0,0,0,.641-1.172h1.367a2.621,2.621,0,0,1-.5,1.383,3.293,3.293,0,0,1-1.23,1.047,3.55,3.55,0,0,1-1.629.391A3.482,3.482,0,0,1,75.945,14a4.59,4.59,0,0,1-1.02-3.152v-.242a5.089,5.089,0,0,1,.453-2.2,3.451,3.451,0,0,1,1.3-1.492,3.7,3.7,0,0,1,2-.531,3.39,3.39,0,0,1,2.363.852,3.043,3.043,0,0,1,1,2.211H80.684a1.992,1.992,0,0,0-.621-1.348,1.932,1.932,0,0,0-1.379-.527,2.023,2.023,0,0,0-1.707.793,3.724,3.724,0,0,0-.605,2.293v.273a3.65,3.65,0,0,0,.6,2.25A2.033,2.033,0,0,0,78.691,13.977ZM85.246,15H83.8V6.547h1.445ZM83.684,4.3a.863.863,0,0,1,.215-.594.807.807,0,0,1,.637-.242.819.819,0,0,1,.641.242.854.854,0,0,1,.219.594.826.826,0,0,1-.219.586.834.834,0,0,1-.641.234.821.821,0,0,1-.637-.234A.834.834,0,0,1,83.684,4.3ZM87.176,10.7a4.993,4.993,0,0,1,.488-2.234A3.643,3.643,0,0,1,89.023,6.93a3.7,3.7,0,0,1,1.988-.539,3.565,3.565,0,0,1,2.793,1.2,4.6,4.6,0,0,1,1.066,3.18v.1a5.036,5.036,0,0,1-.473,2.215,3.589,3.589,0,0,1-1.352,1.527,3.743,3.743,0,0,1-2.02.547,3.556,3.556,0,0,1-2.785-1.2A4.575,4.575,0,0,1,87.176,10.8Zm1.453.172a3.616,3.616,0,0,0,.652,2.258,2.211,2.211,0,0,0,3.5-.012,3.955,3.955,0,0,0,.648-2.418,3.61,3.61,0,0,0-.66-2.254,2.1,2.1,0,0,0-1.754-.863,2.075,2.075,0,0,0-1.727.852A3.925,3.925,0,0,0,88.629,10.867Zm3.039-7.852h1.75l-2.094,2.3-1.164,0Zm6.383,3.531L98.1,7.609a3.08,3.08,0,0,1,2.531-1.219q2.68,0,2.7,3.023V15h-1.445V9.406a1.946,1.946,0,0,0-.418-1.352,1.675,1.675,0,0,0-1.277-.437,2.086,2.086,0,0,0-1.234.375,2.546,2.546,0,0,0-.828.984V15H96.684V6.547Zm16.344,6.211a1.064,1.064,0,0,0-.441-.91,4.249,4.249,0,0,0-1.539-.559,7.277,7.277,0,0,1-1.742-.562,2.479,2.479,0,0,1-.953-.781,1.869,1.869,0,0,1-.309-1.078,2.193,2.193,0,0,1,.879-1.758,3.432,3.432,0,0,1,2.246-.719,3.532,3.532,0,0,1,2.332.742,2.357,2.357,0,0,1,.895,1.9h-1.453a1.3,1.3,0,0,0-.5-1.023,1.888,1.888,0,0,0-1.27-.43,1.976,1.976,0,0,0-1.234.344,1.082,1.082,0,0,0-.445.9.877.877,0,0,0,.414.789,5.1,5.1,0,0,0,1.5.508,7.8,7.8,0,0,1,1.754.578,2.558,2.558,0,0,1,1,.809,1.988,1.988,0,0,1,.324,1.152,2.163,2.163,0,0,1-.906,1.816,3.8,3.8,0,0,1-2.352.684,4.257,4.257,0,0,1-1.8-.359,2.922,2.922,0,0,1-1.223-1,2.42,2.42,0,0,1-.441-1.395h1.445a1.5,1.5,0,0,0,.582,1.152,2.258,2.258,0,0,0,1.434.426,2.331,2.331,0,0,0,1.316-.332A1.02,1.02,0,0,0,114.395,12.758Zm6.836,2.4a3.693,3.693,0,0,1-2.8-1.129,4.19,4.19,0,0,1-1.078-3.02v-.266a5.073,5.073,0,0,1,.48-2.246,3.748,3.748,0,0,1,1.344-1.547,3.378,3.378,0,0,1,1.871-.559,3.166,3.166,0,0,1,2.563,1.086,4.7,4.7,0,0,1,.914,3.109v.6H118.8a3,3,0,0,0,.73,2.02,2.3,2.3,0,0,0,1.777.77,2.517,2.517,0,0,0,1.3-.312,3.259,3.259,0,0,0,.93-.828l.883.688A3.55,3.55,0,0,1,121.23,15.156Zm-.18-7.578a1.928,1.928,0,0,0-1.469.637A3.1,3.1,0,0,0,118.848,10h4.234V9.891a2.753,2.753,0,0,0-.594-1.707A1.815,1.815,0,0,0,121.051,7.578Zm6.516-1.031.047,1.063a3.08,3.08,0,0,1,2.531-1.219q2.68,0,2.7,3.023V15H131.4V9.406a1.946,1.946,0,0,0-.418-1.352,1.675,1.675,0,0,0-1.277-.437,2.086,2.086,0,0,0-1.234.375,2.546,2.546,0,0,0-.828.984V15H126.2V6.547Zm12.383,6.211a1.064,1.064,0,0,0-.441-.91,4.249,4.249,0,0,0-1.539-.559,7.277,7.277,0,0,1-1.742-.562,2.479,2.479,0,0,1-.953-.781,1.869,1.869,0,0,1-.309-1.078,2.193,2.193,0,0,1,.879-1.758,3.432,3.432,0,0,1,2.246-.719,3.532,3.532,0,0,1,2.332.742,2.357,2.357,0,0,1,.895,1.9h-1.453a1.3,1.3,0,0,0-.5-1.023,1.888,1.888,0,0,0-1.27-.43,1.976,1.976,0,0,0-1.234.344,1.082,1.082,0,0,0-.445.9.877.877,0,0,0,.414.789,5.1,5.1,0,0,0,1.5.508,7.8,7.8,0,0,1,1.754.578,2.558,2.558,0,0,1,1,.809,1.988,1.988,0,0,1,.324,1.152,2.163,2.163,0,0,1-.906,1.816,3.8,3.8,0,0,1-2.352.684,4.257,4.257,0,0,1-1.8-.359,2.922,2.922,0,0,1-1.223-1,2.42,2.42,0,0,1-.441-1.395h1.445a1.5,1.5,0,0,0,.582,1.152,2.258,2.258,0,0,0,1.434.426,2.331,2.331,0,0,0,1.316-.332A1.02,1.02,0,0,0,139.949,12.758Zm2.945-2.062a4.993,4.993,0,0,1,.488-2.234,3.642,3.642,0,0,1,1.359-1.531,3.7,3.7,0,0,1,1.988-.539,3.565,3.565,0,0,1,2.793,1.2,4.6,4.6,0,0,1,1.066,3.18v.1a5.036,5.036,0,0,1-.473,2.215,3.589,3.589,0,0,1-1.352,1.527,3.743,3.743,0,0,1-2.02.547,3.556,3.556,0,0,1-2.785-1.2,4.575,4.575,0,0,1-1.066-3.164Zm1.453.172A3.616,3.616,0,0,0,145,13.125a2.211,2.211,0,0,0,3.5-.012,3.954,3.954,0,0,0,.648-2.418,3.61,3.61,0,0,0-.66-2.254,2.1,2.1,0,0,0-1.754-.863A2.075,2.075,0,0,0,145,8.43,3.925,3.925,0,0,0,144.348,10.867Zm12.141-3.023a4.331,4.331,0,0,0-.711-.055A1.9,1.9,0,0,0,153.848,9v6H152.4V6.547h1.406l.023.977a2.251,2.251,0,0,1,2.016-1.133,1.477,1.477,0,0,1,.641.109Zm2.9,7.156h-1.445V6.547h1.445ZM157.824,4.3a.863.863,0,0,1,.215-.594.807.807,0,0,1,.637-.242.819.819,0,0,1,.641.242.854.854,0,0,1,.219.594.826.826,0,0,1-.219.586.834.834,0,0,1-.641.234.821.821,0,0,1-.637-.234A.834.834,0,0,1,157.824,4.3ZM166.918,15a3.036,3.036,0,0,1-.2-.891,3.225,3.225,0,0,1-2.406,1.047,2.984,2.984,0,0,1-2.051-.707,2.287,2.287,0,0,1-.8-1.793,2.39,2.39,0,0,1,1-2.051,4.733,4.733,0,0,1,2.824-.73h1.406V9.211A1.623,1.623,0,0,0,166.238,8a1.821,1.821,0,0,0-1.336-.449,2.107,2.107,0,0,0-1.3.391,1.151,1.151,0,0,0-.523.945h-1.453a2,2,0,0,1,.449-1.223,3.066,3.066,0,0,1,1.219-.934,4.1,4.1,0,0,1,1.691-.344,3.342,3.342,0,0,1,2.289.73,2.635,2.635,0,0,1,.859,2.012v3.891a4.757,4.757,0,0,0,.3,1.852V15Zm-2.4-1.1a2.54,2.54,0,0,0,1.289-.352,2.127,2.127,0,0,0,.883-.914V10.9h-1.133q-2.656,0-2.656,1.555a1.316,1.316,0,0,0,.453,1.063A1.742,1.742,0,0,0,164.52,13.9Zm7.453,1.1h-1.445V3h1.445Z" transform="translate(262.256 10370)" fill="#fff"/>
    <g id="Grupo_134482" data-name="Grupo 134482" transform="translate(-107 226)">
      <circle id="Elipse_4939" data-name="Elipse 4939" cx="31.5" cy="31.5" r="31.5" transform="translate(287.256 10134)" fill="#fcd189"/>
      <g id="Grupo_134481" data-name="Grupo 134481" transform="translate(301.256 10143.037)">
        <g id="Grupo_134480" data-name="Grupo 134480" clip-path="url(#clip-path)">
          <path id="Trazado_128006" data-name="Trazado 128006" d="M2.357,45.926a.916.916,0,0,1-.463-.893c.02-1.36.006-2.721.012-4.081,0-.558.259-.867.689-.855s.655.321.654.889c0,1.179,0,2.358,0,3.565h5q0-.825,0-1.648c0-.179-.007-.359.006-.538a.664.664,0,1,1,1.328-.007c.026.507.01,1.016.011,1.524,0,.209,0,.417,0,.662H24.543c0-.567,0-1.143,0-1.718a3.293,3.293,0,0,1,.027-.58.61.61,0,0,1,.7-.547.587.587,0,0,1,.6.6c.024.612.011,1.225.017,1.838,0,.132.014.263.023.417h5.029a33.86,33.86,0,0,0-.215-4.7,6.27,6.27,0,0,0-4.867-5.121c-.531-.149-1.072-.263-1.61-.39a.428.428,0,0,0-.121,0c-1.1,3.471-3.374,5.564-7.082,5.555-3.688-.009-5.947-2.1-7.042-5.554-2.445.369-4.6,1.235-5.9,3.533-.285.5-.634.649-1.011.445a.678.678,0,0,1-.211-1A7.636,7.636,0,0,1,7.57,33.548c1.578-.451,3.178-.823,4.774-1.208.316-.076.442-.186.431-.529-.028-.806,0-1.614-.019-2.421a.575.575,0,0,0-.207-.428,9.823,9.823,0,0,1-5.211-7.916,8.475,8.475,0,0,1-.953-.125A3.234,3.234,0,0,1,3.8,18.311a3.222,3.222,0,0,1,1.4-3.479.65.65,0,0,0,.329-.612c-.02-.837-.018-1.674,0-2.511A.478.478,0,0,0,5.2,11.2c-.943-.45-1.877-.918-2.812-1.384-.672-.335-.729-.842-.151-1.316.273-.224.551-.442.878-.7L.668,6.578C-.169,6.16-.219,5.693.516,5.115c1.1-.869,2.212-1.733,3.314-2.6.259-.2.567-.418.844-.179a2.42,2.42,0,0,1,.744,1c.133.416-.384.792-.821.627a.519.519,0,0,0-.59.125C3.367,4.6,2.717,5.1,2.072,5.609a.814.814,0,0,0-.089.118c.735.366,1.443.769,2.19,1.08,1.115.463,1.16,1.12.187,1.738-.187.119-.349.275-.581.46l4.343,2.141.076-.067c-.105-.143-.208-.288-.316-.429C7.445,10.08,7,9.516,6.573,8.942a.687.687,0,0,1,.136-1.087c.229-.189.465-.369.744-.589-.319-.351-.613-.682-.915-1-.278-.3-.449-.61-.177-1,.221-.315.55-.343.967-.138A26.282,26.282,0,0,1,9.683,2.721a1.947,1.947,0,0,0,.932-1.96.637.637,0,0,1,.637-.755.689.689,0,0,1,.691.725c.008.132,0,.266,0,.43.494-.192.953-.36,1.4-.552a.678.678,0,0,0,.231-.252.675.675,0,0,1,.93-.26A.937.937,0,0,0,15,.18a12.242,12.242,0,0,1,4.1,0,1.011,1.011,0,0,0,.535-.093c.317-.137.644-.126.8.153A1.343,1.343,0,0,0,21.26.8c.29.113.576.237.907.374.008-.187.008-.344.024-.5a.677.677,0,0,1,.7-.663.615.615,0,0,1,.62.68,2.09,2.09,0,0,0,1.047,2.131,23.209,23.209,0,0,1,2.229,2.305c.148-.157.362-.379.569-.6.606-.661,1.2-1.33,1.816-1.985a.657.657,0,0,1,1.026-.1q1.806,1.4,3.6,2.825a.671.671,0,0,1-.142,1.218c-.422.224-.855.427-1.282.64L31.026,7.8c.316.255.6.481.879.712.559.462.514.97-.128,1.3-.932.472-1.866.943-2.813,1.383a.527.527,0,0,0-.351.579c.019.822.016,1.644,0,2.466a.6.6,0,0,0,.3.582,3.332,3.332,0,0,1,1.374,3.729A3.369,3.369,0,0,1,27.115,21c-.1,0-.2.016-.2.016-.3,1.073-.579,2.089-.891,3.094a.787.787,0,0,1-.412.482.937.937,0,0,1-.693-.105c-.282-.179-.25-.486-.166-.806.245-.933.471-1.873.661-2.819a1.551,1.551,0,0,0-.106-.782q-1.152-3.2-2.338-6.39a1.665,1.665,0,0,0-.334-.571c-.339-.351-.605-.306-.891.083a9.214,9.214,0,0,1-7.634,3.824c-.628.015-1.256-.007-1.884.009a2.824,2.824,0,0,0-2.5,1.48,12.992,12.992,0,0,0-.921,1.79A2.193,2.193,0,0,0,8.751,21.4a8.088,8.088,0,0,0,5.5,6.814,8.067,8.067,0,0,0,8.669-1.874c.066-.061.125-.129.194-.187a.655.655,0,0,1,.962-.011.637.637,0,0,1-.029.957c-.744.618-1.511,1.211-2.3,1.765a.677.677,0,0,0-.387.654c.028.791.018,1.584,0,2.376,0,.256.076.354.334.417q2.284.551,4.559,1.144A7.882,7.882,0,0,1,32.23,41.13c.008,1.3-.011,2.6.009,3.9a.92.92,0,0,1-.462.894ZM20.645,1.973v.575q0,2.713,0,5.425a2.7,2.7,0,0,1-.012.4.654.654,0,0,1-.713.6.631.631,0,0,1-.616-.645c-.01-.134,0-.269,0-.4,0-1.973,0-3.946-.01-5.919,0-.153-.11-.411-.216-.438a12.287,12.287,0,0,0-1.31-.205c-.01.214-.023.375-.023.534,0,1,0,2,0,3,0,.4.012.808-.011,1.21a.659.659,0,0,1-.646.67A.673.673,0,0,1,16.4,6.1c-.012-.134-.007-.269-.007-.4q0-1.906,0-3.811c0-.159-.015-.318-.026-.521-.4.054-.75.123-1.1.144s-.442.164-.438.506c.018,1.659.009,3.318.008,4.977,0,.448.012.9-.008,1.345a.613.613,0,0,1-.621.636.63.63,0,0,1-.7-.559,2.055,2.055,0,0,1-.018-.447q0-2.713,0-5.425V1.972c-.46.216-.845.4-1.236.577a.477.477,0,0,0-.312.518c.018.807.01,1.614.005,2.421,0,.523-.257.833-.668.838s-.67-.295-.674-.821c0-.577,0-1.153,0-1.755A7.446,7.446,0,0,0,8.384,6.282c.154.171.317.345.473.525a.7.7,0,0,1-.1,1.15c-.251.2-.507.4-.776.614,1.012,1.315,1.995,2.594,2.98,3.871.261.338.545.672.209,1.116-.243.321-.544.326-1.13.037q-1.365-.673-2.73-1.346c-.128-.063-.262-.115-.417-.181v2.169c.373,0,.714-.01,1.054,0a.653.653,0,0,1,.726.723c.017.478.006.956.006,1.434q0,.54,0,1.08a4.739,4.739,0,0,1,4.2-1.8c.447.025.9.016,1.345,0a7.938,7.938,0,0,0,6.761-3.743.964.964,0,0,1,.718-.407,15.813,15.813,0,0,1,1.893.368L26.1,8.632A4.933,4.933,0,0,1,25.077,7.49c-.247-.568.469-.821.681-1.272a10.068,10.068,0,0,0-2.226-2.547c0,.679,0,1.254,0,1.83,0,.528-.251.828-.671.825s-.669-.312-.672-.833c-.005-.822.005-1.644-.008-2.466a.492.492,0,0,0-.151-.371c-.425-.237-.871-.435-1.384-.682M14.122,29.622c0,1.166-.053,2.272.013,3.372a2.917,2.917,0,0,0,2.8,2.7,2.884,2.884,0,0,0,3.018-2.438,17.457,17.457,0,0,0,.072-2.277c.008-.438,0-.875,0-1.357a10.134,10.134,0,0,1-5.9,0m7.19,3.977c-.63,2.085-1.947,3.368-4.121,3.421-2.3.056-3.7-1.242-4.378-3.417l-1.422.358a5.786,5.786,0,0,0,11.34,0L21.312,33.6m8.5-29.768-3.127,3.43c.229.183.4.323.576.462.641.509.67.747.164,1.408-.436.569-.875,1.134-1.309,1.7-.062.081-.1.177-.218.374L30.359,9c-.316-.249-.573-.45-.829-.653-.656-.519-.6-1.011.148-1.389.82-.412,1.642-.821,2.511-1.256L29.808,3.832M7.3,15.635a1.91,1.91,0,0,0-1.948.92,2.023,2.023,0,0,0,.1,2.269,1.823,1.823,0,0,0,1.853.763Zm19.523,4.015a2,2,0,0,0,2.026-1.124,1.908,1.908,0,0,0-.229-2.176,1.879,1.879,0,0,0-1.8-.742Zm.42-7.607L24.329,13.48l1.031,2.8a6.97,6.97,0,0,0,.1-1.3c.017-.513.238-.73.746-.746.338-.011.677,0,1.041,0Z" transform="translate(0 0)" fill="#133d60"/>
          <path id="Trazado_128007" data-name="Trazado 128007" d="M46.739,78.081a2.132,2.132,0,0,1-2.126-1.954.707.707,0,0,1,.576-.825.674.674,0,0,1,.76.637q.137.771.754.794c.434.016.7-.237.81-.778.1-.462.369-.7.75-.655.4.048.614.369.576.858a2.1,2.1,0,0,1-2.1,1.922" transform="translate(-33.45 -56.458)" fill="#133d60"/>
          <path id="Trazado_128008" data-name="Trazado 128008" d="M77,78.082a2.109,2.109,0,0,1-2.1-2.012.668.668,0,1,1,1.325-.156c.129.591.375.838.818.821.421-.017.645-.266.757-.84a.669.669,0,0,1,.757-.591.7.7,0,0,1,.577.781,2.131,2.131,0,0,1-2.13,2" transform="translate(-56.157 -56.459)" fill="#133d60"/>
          <path id="Trazado_128009" data-name="Trazado 128009" d="M60.126,99.162a3.457,3.457,0,0,1,2.4.933.686.686,0,0,1,.127,1.022.671.671,0,0,1-1,0,2.178,2.178,0,0,0-3.04-.01.676.676,0,0,1-1.028-.015.683.683,0,0,1,.138-.988,3.451,3.451,0,0,1,2.4-.944" transform="translate(-43.067 -74.355)" fill="#133d60"/>
          <path id="Trazado_128010" data-name="Trazado 128010" d="M65.566,34.452a3.422,3.422,0,0,1,0-.491.615.615,0,0,1,.671-.583.6.6,0,0,1,.631.573,5.856,5.856,0,0,1,0,1.072.655.655,0,0,1-1.3.01,4.362,4.362,0,0,1,0-.581h0" transform="translate(-49.158 -25.027)" fill="#133d60"/>
          <path id="Trazado_128011" data-name="Trazado 128011" d="M43.692,32.658a3.28,3.28,0,0,1,0,.537.664.664,0,0,1-1.324-.063c-.016-.283-.012-.568,0-.852a.667.667,0,0,1,.63-.726.674.674,0,0,1,.709.7c.009.134,0,.269,0,.4Z" transform="translate(-31.757 -23.66)" fill="#133d60"/>
          <path id="Trazado_128012" data-name="Trazado 128012" d="M90,32.676c0,.149.008.3,0,.448a.671.671,0,0,1-.646.67.664.664,0,0,1-.685-.634,6.172,6.172,0,0,1,0-.985.653.653,0,0,1,.692-.62.66.66,0,0,1,.638.673c.009.149,0,.3,0,.448" transform="translate(-66.472 -23.66)" fill="#133d60"/>
        </g>
      </g>
    </g>
  </g>
</svg>
