<svg xmlns="http://www.w3.org/2000/svg" width="504" height="247" viewBox="0 0 504 247">
  <g id="Grupo_133929" data-name="Grupo 133929" transform="translate(-599.999 -1638)">
    <rect id="Rectángulo_35648" data-name="Rectángulo 35648" width="504" height="247" transform="translate(599.999 1638)" fill="#95c0d9"/>
    <path id="Trazado_126310" data-name="Trazado 126310" d="M106.976,292.8s26.317-29.007,95.85-23.453,61.881,30.858,110.021,29.624S413.4,279.839,456.154,314.989c49.6,40.779-35.161,75.461-1.495,100.38,60.319,44.647,0,97.274-134.709,87.283-111.719-8.283-112.719-19.906-177.568-5.828S18.569,458.916,42.127,418.214,125.558,393.034,97.5,359.8,106.976,292.8,106.976,292.8Z" transform="translate(583.455 1374.435)" fill="#b3dcf5"/>
    <g id="Grupo_133057" data-name="Grupo 133057" transform="translate(654.064 1656.685)">
      <path id="Trazado_126311" data-name="Trazado 126311" d="M26.5,413.019s19.846,11.347,31.755,9.811,34.68-63.6,25.929-64.939S34.437,360.538,26.5,413.019Z" transform="translate(-24.724 -246.456)" fill="#2d3339"/>
      <path id="Trazado_126312" data-name="Trazado 126312" d="M102.873,307.081s11.556,1.826,17.36,14.7c4.4,9.773-1.18,18.137,9.055,29.123s10.872,27.539-9.223,29.545c-12.47,1.245-18.118,10.767-29.23,8.554s-11.2-3.741-21.787-2.992c-12.367.874-18.469-1.6-22.7-9.689-7.043-13.463,4.521-20.652,3.964-32.892C49.729,330.625,57.086,294.085,102.873,307.081Z" transform="translate(-12.175 -284.586)" fill="#352b4c"/>
      <path id="Trazado_126313" data-name="Trazado 126313" d="M96.412,334.6s-.782,30.672-.087,35.212,36.733,8.58,46.009,16.521-28.265,24.6-45.991,35.992c-13.586,8.734-51.4-44.356-40.032-45.242s13.619-4.269,17.043-11.844c3.45-7.631-1.509-15.915-1.509-15.915S94.813,335.94,96.412,334.6Z" transform="translate(-4.929 -262.958)" fill="#eaac90"/>
      <path id="Trazado_126314" data-name="Trazado 126314" d="M100.369,321.267s9.686,50.226-18.894,53.309C61.815,376.7,50.294,344.2,54.292,328.163S87.668,309.934,100.369,321.267Z" transform="translate(-5.432 -277.554)" fill="#eaac90"/>
      <ellipse id="Elipse_4902" data-name="Elipse 4902" cx="1.752" cy="2.244" rx="1.752" ry="2.244" transform="translate(56.771 67.332) rotate(-6.188)" fill="#2e1f35"/>
      <ellipse id="Elipse_4903" data-name="Elipse 4903" cx="1.752" cy="2.244" rx="1.752" ry="2.244" transform="translate(80.813 67.332) rotate(-6.188)" fill="#2e1f35"/>
      <path id="Trazado_126315" data-name="Trazado 126315" d="M59.6,336.078s-4.235-9.108-8.014-4.545,2.1,15.412,6.142,14.932S61.916,339.732,59.6,336.078Z" transform="translate(-7.669 -266.061)" fill="#eaac90"/>
      <path id="Trazado_126316" data-name="Trazado 126316" d="M89.8,337.006s1.711-9.9-3.993-8.3-7.059,13.862-3.467,15.77S89.617,341.328,89.8,337.006Z" transform="translate(13.752 -267.293)" fill="#eaac90"/>
      <path id="Trazado_126317" data-name="Trazado 126317" d="M95.412,309.776s14.764,6.647,15.176,23.217c.159,6.45-22.418,8.965-26.54,3.992s-5.013-19.2-5.013-19.2.77,17.007-5.543,21.693-23.98,3.3-22.514,1.187,2.783-27.358,18.188-33.2S95.412,309.776,95.412,309.776Z" transform="translate(-7.298 -283.853)" fill="#352b4c"/>
      <path id="Trazado_126318" data-name="Trazado 126318" d="M71.077,352.913a13.6,13.6,0,0,1-6.308-1.54l1.012-1.708c.293.171,7.242,4.123,13.876-2.656l1.418,1.387A13.7,13.7,0,0,1,71.077,352.913Z" transform="translate(2.618 -254.087)" fill="#e1916e"/>
      <ellipse id="Elipse_4904" data-name="Elipse 4904" cx="5.16" cy="5.16" rx="5.16" ry="5.16" transform="translate(81.163 71.41)" fill="#e1916e"/>
      <ellipse id="Elipse_4905" data-name="Elipse 4905" cx="5.16" cy="5.16" rx="5.16" ry="5.16" transform="translate(53.648 72.025)" fill="#e1916e"/>
      <path id="Trazado_126319" data-name="Trazado 126319" d="M76.1,357.962s.6,14.747,8.286,16.729c10.1,2.606,30.291-17.492,30.291-17.492,11.3-.2,40.771.458,50.365,14.44,7.968,11.608,4.825,38.91-1.531,40.74-7.3,2.1-120.844,7.013-124.8,4.242s6.3-45.275,15.575-51.673C66.557,356.48,76.1,357.962,76.1,357.962Z" transform="translate(-16.631 -246.825)" fill="#2d3339"/>
      <ellipse id="Elipse_4906" data-name="Elipse 4906" cx="15.063" cy="15.063" rx="15.063" ry="15.063" transform="translate(81.455 0)" fill="#352b4c"/>
      <path id="Trazado_126320" data-name="Trazado 126320" d="M32.856,378.312h0c7.381.456,24.913,6.186,26.852,13.742s14.217,55.42-15.81,44.287C10.347,423.9,32.856,378.312,32.856,378.312Z" transform="translate(-25.466 -231.72)" fill="#eaac90"/>
      <path id="Trazado_126321" data-name="Trazado 126321" d="M54.432,370.51s-6.628,21.1-7.374,37.5-13.245,48.083-8.223,47.3,114.365,6.258,116.784.014C192.006,361.366,73.314,366.3,54.432,370.51Z" transform="translate(-16.761 -238.602)" fill="#2d3339"/>
      <path id="Trazado_126322" data-name="Trazado 126322" d="M78.941,335.312c-5.547-5.37-4.95-27.369-4.921-28.3l1.985.06c-.185,6.119.231,22.864,4.316,26.817Z" transform="translate(9.206 -282.671)" fill="#443965"/>
      <path id="Trazado_126323" data-name="Trazado 126323" d="M60.218,332.625c-.051-.141-4.842-14.313,12.89-25.725l1.073,1.67c-16.424,10.57-12.139,23.263-12.093,23.39Z" transform="translate(-1.081 -282.748)" fill="#443965"/>
      <path id="Trazado_126324" data-name="Trazado 126324" d="M53.279,333.049l-1.907-.55c.267-.924,6.731-22.677,22.929-26.049l.4,1.944C59.665,311.524,53.34,332.834,53.279,333.049Z" transform="translate(-6.955 -283.071)" fill="#443965"/>
      <path id="Trazado_126325" data-name="Trazado 126325" d="M86.844,332.192l-1.9-.557c.039-.134,3.77-13.437-5.514-22.706l1.4-1.406C90.959,317.641,87.017,331.6,86.844,332.192Z" transform="translate(13.091 -282.303)" fill="#443965"/>
      <path id="Trazado_126326" data-name="Trazado 126326" d="M58.9,357.3c-.247-.163-6.027-4.113-5.5-16.715l1.982.084C54.9,352.161,59.944,355.611,60,355.643Z" transform="translate(-5.526 -258.676)" fill="#443965"/>
      <path id="Trazado_126327" data-name="Trazado 126327" d="M92.024,334.6c.2.219,4.772,5.521,1.027,17.566l-1.895-.59c3.414-10.982-.571-15.608-.612-15.652Z" transform="translate(21.036 -262.958)" fill="#443965"/>
      <path id="Trazado_126328" data-name="Trazado 126328" d="M90.237,337.112c.1.278,2.387,6.9-5.552,16.7l-1.541-1.248c7.237-8.936,5.25-14.709,5.228-14.766Z" transform="translate(15.748 -261.16)" fill="#443965"/>
      <path id="Trazado_126329" data-name="Trazado 126329" d="M52.994,357.808c-.362-.117-8.806-3.093-2.952-22.49l1.9.574c-5.212,17.272,1.595,20,1.663,20.028Z" transform="translate(-9.377 -262.442)" fill="#443965"/>
      <path id="Trazado_126330" data-name="Trazado 126330" d="M76.737,310.292c-1.106-11.164,9.569-14.145,9.677-14.174l.514,1.917c-.374.1-9.154,2.6-8.216,12.062Z" transform="translate(11.113 -290.453)" fill="#443965"/>
      <path id="Trazado_126331" data-name="Trazado 126331" d="M85.129,312.672a12.565,12.565,0,0,1-4.434-.809l-1.375-.591,1.08-1.037c3.5-3.357,7.376-12.12,7.415-12.208l1.816.8c-.147.338-3.349,7.566-6.749,11.642a8.255,8.255,0,0,0,9.62-4.451l1.747.941C91.751,311.595,88.037,312.67,85.129,312.672Z" transform="translate(13.016 -289.089)" fill="#443965"/>
      <path id="Trazado_126332" data-name="Trazado 126332" d="M92.38,337.4a21.669,21.669,0,0,1-5.44-13.344l1.985,0a20,20,0,0,0,4.933,12.021Z" transform="translate(18.461 -270.493)" fill="#443965"/>
      <path id="Trazado_126333" data-name="Trazado 126333" d="M93.149,376.727s34.67-.1,41.146,9.317-13.78,41.367-14.356,42.713-39.491-14.43-36.7-21.152S93.149,376.727,93.149,376.727Z" transform="translate(15.712 -232.853)" fill="#eaac90"/>
      <path id="Trazado_126334" data-name="Trazado 126334" d="M153.447,419.4s-8.82,15.7-24.861,16.684-65.417-39.546-82.023-40.518-6.08-6.421,13.931-9.075S146.538,394.826,153.447,419.4Z" transform="translate(-16.267 -226.155)" fill="#eaac90"/>
      <path id="Trazado_126335" data-name="Trazado 126335" d="M25.472,401.116S24.9,429.6,55.331,432.556s70.87-36.124,78.992-38.025-70.791-9.812-86.788-4.377S25.472,401.116,25.472,401.116Z" transform="translate(-25.462 -224.6)" fill="#eaac90"/>
      <path id="Trazado_126336" data-name="Trazado 126336" d="M68.035,344.584l-1.49-1.075c.117-.163,2.9-3.98,6.591-4.382a5.992,5.992,0,0,1,4.751,1.663l-1.224,1.372a4.18,4.18,0,0,0-3.323-1.211C70.471,341.262,68.061,344.549,68.035,344.584Z" transform="translate(3.887 -259.745)" fill="#261e35"/>
      <path id="Trazado_126337" data-name="Trazado 126337" d="M62.757,332.629c-.787-1.236-3.664-1.66-4.609-1.711l.1-1.833c.47.022,4.626.3,6.063,2.556Z" transform="translate(-2.113 -266.896)" fill="#261e35"/>
      <path id="Trazado_126338" data-name="Trazado 126338" d="M73.821,332.629l-1.55-.988c1.439-2.256,5.595-2.534,6.063-2.556l.1,1.833C77.485,330.969,74.608,331.393,73.821,332.629Z" transform="translate(7.979 -266.896)" fill="#261e35"/>
      <path id="Trazado_126339" data-name="Trazado 126339" d="M67.948,332.469s-5.382,8.369-4.009,9.5,4.434,2.279,5.373,1.046S69.328,330.194,67.948,332.469Z" transform="translate(1.865 -264.689)" fill="#e1916e"/>
      <path id="Trazado_126340" data-name="Trazado 126340" d="M90.255,381.312l-1.831-.163c.005-.063.569-6.524.581-10.725l1.836,0C90.831,374.71,90.26,381.246,90.255,381.312Z" transform="translate(19.521 -237.356)" fill="#261e35"/>
      <path id="Trazado_126341" data-name="Trazado 126341" d="M71.709,378.091a9.653,9.653,0,0,1-4.036-.83C59.1,373.352,57.7,361.121,57.643,360.6l1.828-.2c.012.117,1.353,11.714,8.965,15.184,7.547,3.436,19.62-7.452,19.741-7.559l1.238,1.356C88.965,369.8,79.769,378.091,71.709,378.091Z" transform="translate(-2.474 -244.517)" fill="#261e35"/>
      <path id="Trazado_126342" data-name="Trazado 126342" d="M45.353,388.993l-1.816-.293c.01-.062.994-6.073,2.543-12.1l1.78.454C46.333,383,45.361,388.935,45.353,388.993Z" transform="translate(-12.553 -232.947)" fill="#261e35"/>
      <path id="Trazado_126343" data-name="Trazado 126343" d="M87.035,415.033c-.334-.211-33.494-21.315-45.645-22.228l.137-1.834c12.611.948,45.119,21.634,46.5,22.515Z" transform="translate(-14.087 -222.675)" fill="#e1916e"/>
      <path id="Trazado_126344" data-name="Trazado 126344" d="M83.144,337.907l-1.826-.214c.264-2.239,2.292-5.977,2.378-6.135l1.613.88A21.285,21.285,0,0,0,83.144,337.907Z" transform="translate(14.444 -265.129)" fill="#e1916e"/>
      <path id="Trazado_126345" data-name="Trazado 126345" d="M54.868,339.041c-.115-1.831-2.111-3.77-2.87-4.365l1.133-1.447c.137.108,3.379,2.676,3.571,5.7Z" transform="translate(-6.507 -263.935)" fill="#e1916e"/>
    </g>
    <g id="Grupo_133059" data-name="Grupo 133059" transform="translate(886.498 1661.924)">
      <path id="Trazado_126346" data-name="Trazado 126346" d="M228.336,413.019s-19.846,11.347-31.754,9.811-34.682-63.6-25.929-64.939S217.754,360.545,228.336,413.019Z" transform="translate(-66.553 -251.695)" fill="#2d3339"/>
      <path id="Trazado_126347" data-name="Trazado 126347" d="M151.1,311.386s-10.831,4.429-13.526,18.293c-2.045,10.522,5.307,17.382-2.135,30.423s-4.266,29.3,15.752,26.644c12.424-1.648,20.1,6.325,30.413,1.622s10.049-6.212,20.52-7.909c12.239-1.984,17.61-5.794,19.873-14.636,3.769-14.719-9.137-19.064-11.4-31.107C208.227,322.118,192.686,288.236,151.1,311.386Z" transform="translate(-92.946 -290.424)" fill="#352b4c"/>
      <path id="Trazado_126348" data-name="Trazado 126348" d="M170.907,334.6s.78,30.672.087,35.212-36.733,8.58-46.01,16.521,28.265,24.6,45.991,35.992c13.588,8.734,51.4-44.356,40.033-45.242s-13.619-4.269-17.044-11.844c-3.45-7.631,1.509-15.915,1.509-15.915S172.5,335.94,170.907,334.6Z" transform="translate(-98.826 -268.197)" fill="#eaac90"/>
      <path id="Trazado_126349" data-name="Trazado 126349" d="M143.471,326.082s2.09,51.108,30.617,47.555c19.621-2.445,23.383-36.721,15.813-51.409S153.235,312.138,143.471,326.082Z" transform="translate(-84.578 -283.495)" fill="#eaac90"/>
      <ellipse id="Elipse_4907" data-name="Elipse 4907" cx="1.752" cy="2.244" rx="1.752" ry="2.244" transform="translate(97.981 57.255) rotate(-7.07)" fill="#2e1f35"/>
      <ellipse id="Elipse_4908" data-name="Elipse 4908" cx="1.752" cy="2.244" rx="1.752" ry="2.244" transform="translate(74.58 62.768) rotate(-7.07)" fill="#2e1f35"/>
      <path id="Trazado_126350" data-name="Trazado 126350" d="M171.617,332.823s2.033-9.835,6.757-6.262,1.49,15.484-2.551,15.944S170.2,336.913,171.617,332.823Z" transform="translate(-64.831 -274.496)" fill="#eaac90"/>
      <path id="Trazado_126351" data-name="Trazado 126351" d="M142.593,340.37s-3.935-9.241,1.984-9,10.049,11.873,6.99,14.553S143.761,344.538,142.593,340.37Z" transform="translate(-86.122 -270.502)" fill="#eaac90"/>
      <path id="Trazado_126352" data-name="Trazado 126352" d="M149.139,313.265s-12.846,9.855-9.446,26.078c1.324,6.315,23.875,3.583,26.747-2.2s.477-19.834.477-19.834,3.153,16.731,10.371,19.843,24.1-2.292,22.185-4.007-8.981-25.991-25.317-28.15S149.139,313.265,149.139,313.265Z" transform="translate(-87.687 -289.559)" fill="#352b4c"/>
      <path id="Trazado_126353" data-name="Trazado 126353" d="M167.388,350.978a13.6,13.6,0,0,0,5.787-2.944L171.8,346.6c-.247.235-6.1,5.675-14.114.6l-1.063,1.677A13.7,13.7,0,0,0,167.388,350.978Z" transform="translate(-75.181 -259.618)" fill="#e1916e"/>
      <ellipse id="Elipse_4909" data-name="Elipse 4909" cx="5.16" cy="5.16" rx="5.16" ry="5.16" transform="translate(69.652 67.433)" fill="#e1916e"/>
      <ellipse id="Elipse_4910" data-name="Elipse 4910" cx="5.16" cy="5.16" rx="5.16" ry="5.16" transform="translate(96.576 61.721)" fill="#e1916e"/>
      <path id="Trazado_126354" data-name="Trazado 126354" d="M205.053,357.463s3.083,18.32-4.6,20.3c-10.1,2.606-28.006-20.983-28.006-20.983-11.3-.2-42.91,1.162-52.507,15.145-7.966,11.608-4.823,38.91,1.533,40.74,7.294,2.1,120.842,7.013,124.8,4.242s-6.3-45.275-15.575-51.673A45.553,45.553,0,0,0,205.053,357.463Z" transform="translate(-104.783 -252.354)" fill="#2d3339"/>
      <ellipse id="Elipse_4911" data-name="Elipse 4911" cx="15.063" cy="15.063" rx="15.063" ry="15.063" transform="translate(35.722 0)" fill="#352b4c"/>
      <path id="Trazado_126355" data-name="Trazado 126355" d="M213.118,378.312h0c-7.383.456-24.914,6.186-26.853,13.742s-14.217,55.42,15.812,44.287C235.626,423.9,213.118,378.312,213.118,378.312Z" transform="translate(-56.943 -236.959)" fill="#eaac90"/>
      <path id="Trazado_126356" data-name="Trazado 126356" d="M224.605,369.748s6.628,21.1,7.373,37.5,13.245,48.083,8.225,47.3-116.446,9.317-116.5,2.62C122.724,337.751,204.135,384.432,224.605,369.748Z" transform="translate(-98.711 -243.079)" fill="#2d3339"/>
      <path id="Trazado_126357" data-name="Trazado 126357" d="M150.028,336.82c4.168-6.5-1.459-27.774-1.7-28.678l-1.919.514c1.583,5.912,5.017,22.306,1.948,27.092Z" transform="translate(-82.479 -287.1)" fill="#443965"/>
      <path id="Trazado_126358" data-name="Trazado 126358" d="M172.582,328.622c.017-.149,1.432-15.044-18.445-22.083l-.662,1.871c18.409,6.522,17.149,19.86,17.135,19.993Z" transform="translate(-77.43 -288.245)" fill="#443965"/>
      <path id="Trazado_126359" data-name="Trazado 126359" d="M182.975,326.545l1.732-.972c-.473-.84-11.753-20.528-28.292-20.1l.051,1.985C171.824,307.059,182.867,326.352,182.975,326.545Z" transform="translate(-75.329 -289.009)" fill="#443965"/>
      <path id="Trazado_126360" data-name="Trazado 126360" d="M142.825,335.465l1.727-.979c-.069-.122-6.752-12.216.159-23.366l-1.689-1.046C135.483,322.242,142.522,334.93,142.825,335.465Z" transform="translate(-87.38 -285.719)" fill="#443965"/>
      <path id="Trazado_126361" data-name="Trazado 126361" d="M175.01,353.629c.2-.214,4.924-5.385,1.517-17.53l-1.91.537c3.105,11.073-1.008,15.585-1.049,15.628Z" transform="translate(-63.072 -267.123)" fill="#443965"/>
      <path id="Trazado_126362" data-name="Trazado 126362" d="M137.31,338.985c-.141.259-3.378,6.467,3.028,17.332l1.709-1.008c-5.841-9.907-3.023-15.323-2.994-15.376Z" transform="translate(-89.653 -265.061)" fill="#443965"/>
      <path id="Trazado_126363" data-name="Trazado 126363" d="M141.521,340.488c-.034.293-.742,7.259,9.233,14.978l1.214-1.57c-9.094-7.038-8.482-13.113-8.475-13.173Z" transform="translate(-85.988 -263.987)" fill="#443965"/>
      <path id="Trazado_126364" data-name="Trazado 126364" d="M181.181,352.572c.326-.2,7.863-5.03-2.284-22.567l-1.716.993c9.034,15.618,3.035,19.837,2.973,19.877Z" transform="translate(-60.491 -271.477)" fill="#443965"/>
      <path id="Trazado_126365" data-name="Trazado 126365" d="M149.607,311.032c-1.483-11.119-12.557-11.575-12.671-11.577l-.06,1.984c.387.014,9.506.429,10.764,9.855Z" transform="translate(-89.291 -293.307)" fill="#443965"/>
      <path id="Trazado_126366" data-name="Trazado 126366" d="M143.2,315.392a12.518,12.518,0,0,0,4.13-1.8l1.2-.89-1.289-.761c-4.175-2.466-9.96-10.107-10.016-10.183l-1.586,1.193c.223.295,4.995,6.6,9.238,9.783a8.255,8.255,0,0,1-10.385-2.124l-1.483,1.317C136.513,315.863,140.372,316.059,143.2,315.392Z" transform="translate(-92.05 -291.664)" fill="#443965"/>
      <path id="Trazado_126367" data-name="Trazado 126367" d="M138.27,341.933a21.665,21.665,0,0,0,2.236-14.236l-1.932.454a20.009,20.009,0,0,1-2.045,12.832Z" transform="translate(-89.54 -273.126)" fill="#443965"/>
      <path id="Trazado_126368" data-name="Trazado 126368" d="M171.145,329.152c-.821-.47-3.467-1.67-4.8-1.058l-.77-1.668c2.43-1.125,6.076.895,6.483,1.13Z" transform="translate(-68.784 -274.276)" fill="#261e35"/>
      <path id="Trazado_126369" data-name="Trazado 126369" d="M151.837,332.572l-1.156-1.428c.363-.3,3.635-2.882,6.217-2.152l-.492,1.769C154.988,330.376,152.57,331.977,151.837,332.572Z" transform="translate(-79.426 -272.294)" fill="#261e35"/>
      <g id="Grupo_133058" data-name="Grupo 133058" transform="translate(0 51.736)">
        <path id="Trazado_126370" data-name="Trazado 126370" d="M120.959,349.861s-11.573-18.14-5.792-18.15c2.123,0,9.439,10.325,9.439,10.325s-6.226-16.189-2.51-14.157,12.017,14.461,12.017,14.461-2.951-17.492-.336-16.23,6.563,13.837,7.668,31c.47,7.3,17.233,82.942,3.261,99.605-7.858,9.372-22.8,10.25-30.735-4.045s8.137-90.606,5.4-93.642-12.353-14.708-9.831-17.375C110.872,340.241,120.959,349.861,120.959,349.861Z" transform="translate(-109.122 -326.044)" fill="#eaac90"/>
        <path id="Trazado_126371" data-name="Trazado 126371" d="M122.466,351.886c-.173-.417-4.213-10.279-1.145-14.719a5.319,5.319,0,0,1,4.924-2.152l-.06,1.838a3.573,3.573,0,0,0-3.352,1.356c-2.076,3,.257,10.383,1.331,12.974Z" transform="translate(-101.225 -319.638)" fill="#261e35"/>
      </g>
      <path id="Trazado_126372" data-name="Trazado 126372" d="M161.325,331s6.8,7.117,4.929,8.569-5.61,3.834-6.119,2.474S159.2,328.587,161.325,331Z" transform="translate(-72.966 -270.994)" fill="#e1916e"/>
      <path id="Trazado_126373" data-name="Trazado 126373" d="M158.979,340.746s11.722-3.918,11.71-1.413-4.321,9.816-5.8,9.447S153.37,343.162,158.979,340.746Z" transform="translate(-74.704 -265.409)" fill="#f7ece9"/>
      <path id="Trazado_126374" data-name="Trazado 126374" d="M159.9,398.6c-17.994,0-21.327-13.065-21.36-13.2l1.787-.43c.13.531,3.415,13.013,22.24,11.7l.129,1.835Q161.242,398.6,159.9,398.6Z" transform="translate(-88.102 -232.202)" fill="#261e35"/>
      <path id="Trazado_126375" data-name="Trazado 126375" d="M177.449,401.925c-.158,0-.257,0-.288,0l.067-1.838c.075,0,7.407.2,11.289-4.72,2.76-3.5,3.194-8.767,1.288-15.652l1.771-.492c2.073,7.491,1.528,13.308-1.624,17.293C185.9,401.633,178.968,401.925,177.449,401.925Z" transform="translate(-60.505 -236.311)" fill="#261e35"/>
      <path id="Trazado_126376" data-name="Trazado 126376" d="M172.465,378.061c-9.289,0-19.659-12.64-20.126-13.214l1.427-1.159c.117.142,11.649,14.178,20.27,12.377a7.47,7.47,0,0,0,4.991-3.208c2.214-3.446,1.145-8.338,1.133-8.388l1.792-.408c.053.23,1.255,5.673-1.372,9.778a9.235,9.235,0,0,1-6.166,4.024A9.533,9.533,0,0,1,172.465,378.061Z" transform="translate(-78.241 -247.409)" fill="#261e35"/>
      <path id="Trazado_126377" data-name="Trazado 126377" d="M146.755,340.129a13.373,13.373,0,0,0-3.606-4.213l1.106-1.468a15.091,15.091,0,0,1,4.18,4.933Z" transform="translate(-84.808 -268.302)" fill="#e1916e"/>
      <path id="Trazado_126378" data-name="Trazado 126378" d="M174.856,334.717l-1.819-.25a27.519,27.519,0,0,1,1.5-5.264l1.708.674A26.536,26.536,0,0,0,174.856,334.717Z" transform="translate(-63.452 -272.05)" fill="#e1916e"/>
    </g>
    <path id="Trazado_124213" data-name="Trazado 124213" d="M258.438,129.465a4.48,4.48,0,0,1-2.594-.06,3.814,3.814,0,0,1-1.729-1.837c-2.345-4.486-.6-10.064,2.146-14.319s6.449-7.926,8.477-12.563c1.711-3.918,2.126-8.323,3.993-12.168s6.061-7.2,10.15-5.946c9.171,2.8,6.3,21.882,3.686,28.528C278.891,120.455,267.989,127.651,258.438,129.465Z" transform="translate(371.888 1641.928)" fill="#b3dcf5"/>
    <path id="Trazado_126380" data-name="Trazado 126380" d="M26.711,47.16a4.48,4.48,0,0,0,2.594-.06,3.814,3.814,0,0,0,1.729-1.837c2.345-4.486.6-10.065-2.146-14.319s-6.449-7.926-8.477-12.563c-1.711-3.918-2.126-8.323-3.993-12.168S10.357-.984,6.268.266c-9.171,2.8-6.3,21.883-3.686,28.528C6.258,38.15,17.16,45.346,26.711,47.16Z" transform="translate(1063.919 1743.057) rotate(39)" fill="#b3dcf5"/>
  </g>
</svg>
